M48
; DRILL file {KiCad (5.1.8-0-10_14)} date Monday, January 04, 2021 at 09:42:38 PM
; FORMAT={-:-/ absolute / inch / decimal}
; #@! TF.CreationDate,2021-01-04T21:42:38+01:00
; #@! TF.GenerationSoftware,Kicad,Pcbnew,(5.1.8-0-10_14)
; #@! TF.FileFunction,Plated,1,2,PTH
FMAT,2
INCH
T1C0.0157
T2C0.0300
T3C0.0315
T4C0.0394
%
G90
G05
T1
X0.875Y-1.05
X1.55Y-2.15
X1.6Y-2.525
X1.625Y-2.0
X1.725Y-1.825
X1.725Y-2.675
X1.775Y-1.9
X1.775Y-2.825
X1.95Y-2.35
X2.0Y-2.4825
X2.075Y-2.5
X2.25Y-1.725
X2.375Y-2.4
X2.55Y-1.9
T2
X0.9955Y-1.7498
X0.9955Y-1.8498
X0.9955Y-1.9498
X0.9955Y-2.0498
X0.9955Y-2.1498
X0.9955Y-2.2498
X0.9955Y-2.3498
X0.9955Y-2.4498
X2.7955Y-1.7498
X2.7955Y-1.8498
X2.7955Y-1.9498
X2.7955Y-2.0498
X2.7955Y-2.1498
X2.7955Y-2.2498
X2.7955Y-2.3498
X2.7955Y-2.4498
T3
X2.0705Y-1.2748
X2.0705Y-1.5748
X2.1705Y-1.2748
X2.1705Y-1.5748
X2.2705Y-1.2748
X2.2705Y-1.5748
X2.3705Y-1.2748
X2.3705Y-1.5748
X2.4705Y-1.2748
X2.4705Y-1.5748
X2.5705Y-1.2748
X2.5705Y-1.5748
X2.6705Y-1.2748
X2.6705Y-1.5748
X2.7705Y-1.2748
X2.7705Y-1.5748
X2.8705Y-1.2748
X2.8705Y-1.5748
X1.1705Y-1.2748
X1.1705Y-1.5748
X1.2705Y-1.2748
X1.2705Y-1.5748
X1.3705Y-1.2748
X1.3705Y-1.5748
X1.4705Y-1.2748
X1.4705Y-1.5748
X1.5705Y-1.2748
X1.5705Y-1.5748
X1.6705Y-1.2748
X1.6705Y-1.5748
X1.7705Y-1.2748
X1.7705Y-1.5748
X1.8705Y-1.2748
X1.8705Y-1.5748
X1.8455Y-1.8998
X1.8455Y-1.9998
X1.8455Y-2.0998
X1.8455Y-2.1998
X1.8455Y-2.2998
X1.8455Y-2.3998
X1.8455Y-2.4998
X1.8455Y-2.5998
X2.1455Y-1.8998
X2.1455Y-1.9998
X2.1455Y-2.0998
X2.1455Y-2.1998
X2.1455Y-2.2998
X2.1455Y-2.3998
X2.1455Y-2.4998
X2.1455Y-2.5998
T4
X1.5455Y-0.9778
X1.6455Y-0.9778
X1.7455Y-0.9778
X1.8455Y-0.9778
X1.9455Y-0.9778
X2.0455Y-0.9778
X2.1455Y-0.9778
X2.2455Y-0.9778
X1.5455Y-3.2219
X1.6455Y-3.2219
X1.7455Y-3.2219
X1.8455Y-3.2219
X1.9455Y-3.2219
X2.0455Y-3.2219
X2.1455Y-3.2219
X2.2455Y-3.2219
T0
M30
