%TF.GenerationSoftware,KiCad,Pcbnew,(5.1.8-0-10_14)*%
%TF.CreationDate,2021-01-04T21:42:45+01:00*%
%TF.ProjectId,led-matrix,6c65642d-6d61-4747-9269-782e6b696361,rev?*%
%TF.SameCoordinates,Original*%
%TF.FileFunction,Legend,Bot*%
%TF.FilePolarity,Positive*%
%FSLAX46Y46*%
G04 Gerber Fmt 4.6, Leading zero omitted, Abs format (unit mm)*
G04 Created by KiCad (PCBNEW (5.1.8-0-10_14)) date 2021-01-04 21:42:45*
%MOMM*%
%LPD*%
G01*
G04 APERTURE LIST*
%ADD10C,0.150000*%
%ADD11C,0.120000*%
G04 APERTURE END LIST*
D10*
X52347761Y-26360523D02*
X52395380Y-26455761D01*
X52395380Y-26646238D01*
X52347761Y-26741476D01*
X52252523Y-26789095D01*
X52204904Y-26789095D01*
X52109666Y-26741476D01*
X52062047Y-26646238D01*
X52062047Y-26503380D01*
X52014428Y-26408142D01*
X51919190Y-26360523D01*
X51871571Y-26360523D01*
X51776333Y-26408142D01*
X51728714Y-26503380D01*
X51728714Y-26646238D01*
X51776333Y-26741476D01*
X51395380Y-27408142D02*
X51395380Y-27503380D01*
X51443000Y-27598619D01*
X51490619Y-27646238D01*
X51585857Y-27693857D01*
X51776333Y-27741476D01*
X52014428Y-27741476D01*
X52204904Y-27693857D01*
X52300142Y-27646238D01*
X52347761Y-27598619D01*
X52395380Y-27503380D01*
X52395380Y-27408142D01*
X52347761Y-27312904D01*
X52300142Y-27265285D01*
X52204904Y-27217666D01*
X52014428Y-27170047D01*
X51776333Y-27170047D01*
X51585857Y-27217666D01*
X51490619Y-27265285D01*
X51443000Y-27312904D01*
X51395380Y-27408142D01*
X54110000Y-26924095D02*
X54062380Y-26828857D01*
X54062380Y-26686000D01*
X54110000Y-26543142D01*
X54205238Y-26447904D01*
X54300476Y-26400285D01*
X54490952Y-26352666D01*
X54633809Y-26352666D01*
X54824285Y-26400285D01*
X54919523Y-26447904D01*
X55014761Y-26543142D01*
X55062380Y-26686000D01*
X55062380Y-26781238D01*
X55014761Y-26924095D01*
X54967142Y-26971714D01*
X54633809Y-26971714D01*
X54633809Y-26781238D01*
X55062380Y-27400285D02*
X54062380Y-27400285D01*
X55062380Y-27971714D01*
X54062380Y-27971714D01*
X55062380Y-28447904D02*
X54062380Y-28447904D01*
X54062380Y-28686000D01*
X54110000Y-28828857D01*
X54205238Y-28924095D01*
X54300476Y-28971714D01*
X54490952Y-29019333D01*
X54633809Y-29019333D01*
X54824285Y-28971714D01*
X54919523Y-28924095D01*
X55014761Y-28828857D01*
X55062380Y-28686000D01*
X55062380Y-28447904D01*
X44600761Y-26368809D02*
X44648380Y-26464047D01*
X44648380Y-26654523D01*
X44600761Y-26749761D01*
X44505523Y-26797380D01*
X44457904Y-26797380D01*
X44362666Y-26749761D01*
X44315047Y-26654523D01*
X44315047Y-26511666D01*
X44267428Y-26416428D01*
X44172190Y-26368809D01*
X44124571Y-26368809D01*
X44029333Y-26416428D01*
X43981714Y-26511666D01*
X43981714Y-26654523D01*
X44029333Y-26749761D01*
X44600761Y-27606904D02*
X44648380Y-27511666D01*
X44648380Y-27321190D01*
X44600761Y-27225952D01*
X44505523Y-27178333D01*
X44124571Y-27178333D01*
X44029333Y-27225952D01*
X43981714Y-27321190D01*
X43981714Y-27511666D01*
X44029333Y-27606904D01*
X44124571Y-27654523D01*
X44219809Y-27654523D01*
X44315047Y-27178333D01*
X44648380Y-28083095D02*
X43981714Y-28083095D01*
X44172190Y-28083095D02*
X44076952Y-28130714D01*
X44029333Y-28178333D01*
X43981714Y-28273571D01*
X43981714Y-28368809D01*
X44648380Y-28702142D02*
X43981714Y-28702142D01*
X43648380Y-28702142D02*
X43696000Y-28654523D01*
X43743619Y-28702142D01*
X43696000Y-28749761D01*
X43648380Y-28702142D01*
X43743619Y-28702142D01*
X44648380Y-29606904D02*
X44124571Y-29606904D01*
X44029333Y-29559285D01*
X43981714Y-29464047D01*
X43981714Y-29273571D01*
X44029333Y-29178333D01*
X44600761Y-29606904D02*
X44648380Y-29511666D01*
X44648380Y-29273571D01*
X44600761Y-29178333D01*
X44505523Y-29130714D01*
X44410285Y-29130714D01*
X44315047Y-29178333D01*
X44267428Y-29273571D01*
X44267428Y-29511666D01*
X44219809Y-29606904D01*
X44648380Y-30225952D02*
X44600761Y-30130714D01*
X44505523Y-30083095D01*
X43648380Y-30083095D01*
X44743619Y-30368809D02*
X44743619Y-31130714D01*
X44648380Y-31511666D02*
X44600761Y-31416428D01*
X44553142Y-31368809D01*
X44457904Y-31321190D01*
X44172190Y-31321190D01*
X44076952Y-31368809D01*
X44029333Y-31416428D01*
X43981714Y-31511666D01*
X43981714Y-31654523D01*
X44029333Y-31749761D01*
X44076952Y-31797380D01*
X44172190Y-31845000D01*
X44457904Y-31845000D01*
X44553142Y-31797380D01*
X44600761Y-31749761D01*
X44648380Y-31654523D01*
X44648380Y-31511666D01*
X43981714Y-32702142D02*
X44648380Y-32702142D01*
X43981714Y-32273571D02*
X44505523Y-32273571D01*
X44600761Y-32321190D01*
X44648380Y-32416428D01*
X44648380Y-32559285D01*
X44600761Y-32654523D01*
X44553142Y-32702142D01*
X43981714Y-33035476D02*
X43981714Y-33416428D01*
X43648380Y-33178333D02*
X44505523Y-33178333D01*
X44600761Y-33225952D01*
X44648380Y-33321190D01*
X44648380Y-33416428D01*
X39568380Y-26392380D02*
X38901714Y-26392380D01*
X39092190Y-26392380D02*
X38996952Y-26440000D01*
X38949333Y-26487619D01*
X38901714Y-26582857D01*
X38901714Y-26678095D01*
X39663619Y-26773333D02*
X39663619Y-27535238D01*
X39520761Y-28201904D02*
X39568380Y-28106666D01*
X39568380Y-27916190D01*
X39520761Y-27820952D01*
X39473142Y-27773333D01*
X39377904Y-27725714D01*
X39092190Y-27725714D01*
X38996952Y-27773333D01*
X38949333Y-27820952D01*
X38901714Y-27916190D01*
X38901714Y-28106666D01*
X38949333Y-28201904D01*
X39568380Y-28773333D02*
X39520761Y-28678095D01*
X39425523Y-28630476D01*
X38568380Y-28630476D01*
X39568380Y-29154285D02*
X38568380Y-29154285D01*
X39187428Y-29249523D02*
X39568380Y-29535238D01*
X38901714Y-29535238D02*
X39282666Y-29154285D01*
X42060761Y-26337047D02*
X42108380Y-26432285D01*
X42108380Y-26622761D01*
X42060761Y-26718000D01*
X41965523Y-26765619D01*
X41917904Y-26765619D01*
X41822666Y-26718000D01*
X41775047Y-26622761D01*
X41775047Y-26479904D01*
X41727428Y-26384666D01*
X41632190Y-26337047D01*
X41584571Y-26337047D01*
X41489333Y-26384666D01*
X41441714Y-26479904D01*
X41441714Y-26622761D01*
X41489333Y-26718000D01*
X42060761Y-27575142D02*
X42108380Y-27479904D01*
X42108380Y-27289428D01*
X42060761Y-27194190D01*
X41965523Y-27146571D01*
X41584571Y-27146571D01*
X41489333Y-27194190D01*
X41441714Y-27289428D01*
X41441714Y-27479904D01*
X41489333Y-27575142D01*
X41584571Y-27622761D01*
X41679809Y-27622761D01*
X41775047Y-27146571D01*
X42108380Y-28051333D02*
X41441714Y-28051333D01*
X41632190Y-28051333D02*
X41536952Y-28098952D01*
X41489333Y-28146571D01*
X41441714Y-28241809D01*
X41441714Y-28337047D01*
X42108380Y-28670380D02*
X41441714Y-28670380D01*
X41108380Y-28670380D02*
X41156000Y-28622761D01*
X41203619Y-28670380D01*
X41156000Y-28718000D01*
X41108380Y-28670380D01*
X41203619Y-28670380D01*
X42108380Y-29575142D02*
X41584571Y-29575142D01*
X41489333Y-29527523D01*
X41441714Y-29432285D01*
X41441714Y-29241809D01*
X41489333Y-29146571D01*
X42060761Y-29575142D02*
X42108380Y-29479904D01*
X42108380Y-29241809D01*
X42060761Y-29146571D01*
X41965523Y-29098952D01*
X41870285Y-29098952D01*
X41775047Y-29146571D01*
X41727428Y-29241809D01*
X41727428Y-29479904D01*
X41679809Y-29575142D01*
X42108380Y-30194190D02*
X42060761Y-30098952D01*
X41965523Y-30051333D01*
X41108380Y-30051333D01*
X42203619Y-30337047D02*
X42203619Y-31098952D01*
X42060761Y-31765619D02*
X42108380Y-31670380D01*
X42108380Y-31479904D01*
X42060761Y-31384666D01*
X42013142Y-31337047D01*
X41917904Y-31289428D01*
X41632190Y-31289428D01*
X41536952Y-31337047D01*
X41489333Y-31384666D01*
X41441714Y-31479904D01*
X41441714Y-31670380D01*
X41489333Y-31765619D01*
X42108380Y-32337047D02*
X42060761Y-32241809D01*
X41965523Y-32194190D01*
X41108380Y-32194190D01*
X42108380Y-32718000D02*
X41108380Y-32718000D01*
X41727428Y-32813238D02*
X42108380Y-33098952D01*
X41441714Y-33098952D02*
X41822666Y-32718000D01*
X56602380Y-26352666D02*
X57602380Y-26686000D01*
X56602380Y-27019333D01*
X57507142Y-27924095D02*
X57554761Y-27876476D01*
X57602380Y-27733619D01*
X57602380Y-27638380D01*
X57554761Y-27495523D01*
X57459523Y-27400285D01*
X57364285Y-27352666D01*
X57173809Y-27305047D01*
X57030952Y-27305047D01*
X56840476Y-27352666D01*
X56745238Y-27400285D01*
X56650000Y-27495523D01*
X56602380Y-27638380D01*
X56602380Y-27733619D01*
X56650000Y-27876476D01*
X56697619Y-27924095D01*
X57507142Y-28924095D02*
X57554761Y-28876476D01*
X57602380Y-28733619D01*
X57602380Y-28638380D01*
X57554761Y-28495523D01*
X57459523Y-28400285D01*
X57364285Y-28352666D01*
X57173809Y-28305047D01*
X57030952Y-28305047D01*
X56840476Y-28352666D01*
X56745238Y-28400285D01*
X56650000Y-28495523D01*
X56602380Y-28638380D01*
X56602380Y-28733619D01*
X56650000Y-28876476D01*
X56697619Y-28924095D01*
X49807761Y-26360523D02*
X49855380Y-26455761D01*
X49855380Y-26646238D01*
X49807761Y-26741476D01*
X49712523Y-26789095D01*
X49664904Y-26789095D01*
X49569666Y-26741476D01*
X49522047Y-26646238D01*
X49522047Y-26503380D01*
X49474428Y-26408142D01*
X49379190Y-26360523D01*
X49331571Y-26360523D01*
X49236333Y-26408142D01*
X49188714Y-26503380D01*
X49188714Y-26646238D01*
X49236333Y-26741476D01*
X49855380Y-27741476D02*
X49855380Y-27170047D01*
X49855380Y-27455761D02*
X48855380Y-27455761D01*
X48998238Y-27360523D01*
X49093476Y-27265285D01*
X49141095Y-27170047D01*
X47140761Y-26360523D02*
X47188380Y-26455761D01*
X47188380Y-26646238D01*
X47140761Y-26741476D01*
X47045523Y-26789095D01*
X46997904Y-26789095D01*
X46902666Y-26741476D01*
X46855047Y-26646238D01*
X46855047Y-26503380D01*
X46807428Y-26408142D01*
X46712190Y-26360523D01*
X46664571Y-26360523D01*
X46569333Y-26408142D01*
X46521714Y-26503380D01*
X46521714Y-26646238D01*
X46569333Y-26741476D01*
X46283619Y-27170047D02*
X46236000Y-27217666D01*
X46188380Y-27312904D01*
X46188380Y-27551000D01*
X46236000Y-27646238D01*
X46283619Y-27693857D01*
X46378857Y-27741476D01*
X46474095Y-27741476D01*
X46616952Y-27693857D01*
X47188380Y-27122428D01*
X47188380Y-27741476D01*
X56602380Y-77914666D02*
X57602380Y-78248000D01*
X56602380Y-78581333D01*
X57507142Y-79486095D02*
X57554761Y-79438476D01*
X57602380Y-79295619D01*
X57602380Y-79200380D01*
X57554761Y-79057523D01*
X57459523Y-78962285D01*
X57364285Y-78914666D01*
X57173809Y-78867047D01*
X57030952Y-78867047D01*
X56840476Y-78914666D01*
X56745238Y-78962285D01*
X56650000Y-79057523D01*
X56602380Y-79200380D01*
X56602380Y-79295619D01*
X56650000Y-79438476D01*
X56697619Y-79486095D01*
X57507142Y-80486095D02*
X57554761Y-80438476D01*
X57602380Y-80295619D01*
X57602380Y-80200380D01*
X57554761Y-80057523D01*
X57459523Y-79962285D01*
X57364285Y-79914666D01*
X57173809Y-79867047D01*
X57030952Y-79867047D01*
X56840476Y-79914666D01*
X56745238Y-79962285D01*
X56650000Y-80057523D01*
X56602380Y-80200380D01*
X56602380Y-80295619D01*
X56650000Y-80438476D01*
X56697619Y-80486095D01*
X53856000Y-78486095D02*
X53808380Y-78390857D01*
X53808380Y-78248000D01*
X53856000Y-78105142D01*
X53951238Y-78009904D01*
X54046476Y-77962285D01*
X54236952Y-77914666D01*
X54379809Y-77914666D01*
X54570285Y-77962285D01*
X54665523Y-78009904D01*
X54760761Y-78105142D01*
X54808380Y-78248000D01*
X54808380Y-78343238D01*
X54760761Y-78486095D01*
X54713142Y-78533714D01*
X54379809Y-78533714D01*
X54379809Y-78343238D01*
X54808380Y-78962285D02*
X53808380Y-78962285D01*
X54808380Y-79533714D01*
X53808380Y-79533714D01*
X54808380Y-80009904D02*
X53808380Y-80009904D01*
X53808380Y-80248000D01*
X53856000Y-80390857D01*
X53951238Y-80486095D01*
X54046476Y-80533714D01*
X54236952Y-80581333D01*
X54379809Y-80581333D01*
X54570285Y-80533714D01*
X54665523Y-80486095D01*
X54760761Y-80390857D01*
X54808380Y-80248000D01*
X54808380Y-80009904D01*
X52220761Y-79065523D02*
X52268380Y-79160761D01*
X52268380Y-79351238D01*
X52220761Y-79446476D01*
X52125523Y-79494095D01*
X52077904Y-79494095D01*
X51982666Y-79446476D01*
X51935047Y-79351238D01*
X51935047Y-79208380D01*
X51887428Y-79113142D01*
X51792190Y-79065523D01*
X51744571Y-79065523D01*
X51649333Y-79113142D01*
X51601714Y-79208380D01*
X51601714Y-79351238D01*
X51649333Y-79446476D01*
X51268380Y-80113142D02*
X51268380Y-80208380D01*
X51316000Y-80303619D01*
X51363619Y-80351238D01*
X51458857Y-80398857D01*
X51649333Y-80446476D01*
X51887428Y-80446476D01*
X52077904Y-80398857D01*
X52173142Y-80351238D01*
X52220761Y-80303619D01*
X52268380Y-80208380D01*
X52268380Y-80113142D01*
X52220761Y-80017904D01*
X52173142Y-79970285D01*
X52077904Y-79922666D01*
X51887428Y-79875047D01*
X51649333Y-79875047D01*
X51458857Y-79922666D01*
X51363619Y-79970285D01*
X51316000Y-80017904D01*
X51268380Y-80113142D01*
X49680761Y-79065523D02*
X49728380Y-79160761D01*
X49728380Y-79351238D01*
X49680761Y-79446476D01*
X49585523Y-79494095D01*
X49537904Y-79494095D01*
X49442666Y-79446476D01*
X49395047Y-79351238D01*
X49395047Y-79208380D01*
X49347428Y-79113142D01*
X49252190Y-79065523D01*
X49204571Y-79065523D01*
X49109333Y-79113142D01*
X49061714Y-79208380D01*
X49061714Y-79351238D01*
X49109333Y-79446476D01*
X49728380Y-80446476D02*
X49728380Y-79875047D01*
X49728380Y-80160761D02*
X48728380Y-80160761D01*
X48871238Y-80065523D01*
X48966476Y-79970285D01*
X49014095Y-79875047D01*
X47140761Y-79065523D02*
X47188380Y-79160761D01*
X47188380Y-79351238D01*
X47140761Y-79446476D01*
X47045523Y-79494095D01*
X46997904Y-79494095D01*
X46902666Y-79446476D01*
X46855047Y-79351238D01*
X46855047Y-79208380D01*
X46807428Y-79113142D01*
X46712190Y-79065523D01*
X46664571Y-79065523D01*
X46569333Y-79113142D01*
X46521714Y-79208380D01*
X46521714Y-79351238D01*
X46569333Y-79446476D01*
X46283619Y-79875047D02*
X46236000Y-79922666D01*
X46188380Y-80017904D01*
X46188380Y-80256000D01*
X46236000Y-80351238D01*
X46283619Y-80398857D01*
X46378857Y-80446476D01*
X46474095Y-80446476D01*
X46616952Y-80398857D01*
X47188380Y-79827428D01*
X47188380Y-80446476D01*
X44600761Y-74493809D02*
X44648380Y-74589047D01*
X44648380Y-74779523D01*
X44600761Y-74874761D01*
X44505523Y-74922380D01*
X44457904Y-74922380D01*
X44362666Y-74874761D01*
X44315047Y-74779523D01*
X44315047Y-74636666D01*
X44267428Y-74541428D01*
X44172190Y-74493809D01*
X44124571Y-74493809D01*
X44029333Y-74541428D01*
X43981714Y-74636666D01*
X43981714Y-74779523D01*
X44029333Y-74874761D01*
X44600761Y-75731904D02*
X44648380Y-75636666D01*
X44648380Y-75446190D01*
X44600761Y-75350952D01*
X44505523Y-75303333D01*
X44124571Y-75303333D01*
X44029333Y-75350952D01*
X43981714Y-75446190D01*
X43981714Y-75636666D01*
X44029333Y-75731904D01*
X44124571Y-75779523D01*
X44219809Y-75779523D01*
X44315047Y-75303333D01*
X44648380Y-76208095D02*
X43981714Y-76208095D01*
X44172190Y-76208095D02*
X44076952Y-76255714D01*
X44029333Y-76303333D01*
X43981714Y-76398571D01*
X43981714Y-76493809D01*
X44648380Y-76827142D02*
X43981714Y-76827142D01*
X43648380Y-76827142D02*
X43696000Y-76779523D01*
X43743619Y-76827142D01*
X43696000Y-76874761D01*
X43648380Y-76827142D01*
X43743619Y-76827142D01*
X44648380Y-77731904D02*
X44124571Y-77731904D01*
X44029333Y-77684285D01*
X43981714Y-77589047D01*
X43981714Y-77398571D01*
X44029333Y-77303333D01*
X44600761Y-77731904D02*
X44648380Y-77636666D01*
X44648380Y-77398571D01*
X44600761Y-77303333D01*
X44505523Y-77255714D01*
X44410285Y-77255714D01*
X44315047Y-77303333D01*
X44267428Y-77398571D01*
X44267428Y-77636666D01*
X44219809Y-77731904D01*
X44648380Y-78350952D02*
X44600761Y-78255714D01*
X44505523Y-78208095D01*
X43648380Y-78208095D01*
X44743619Y-78493809D02*
X44743619Y-79255714D01*
X44648380Y-79493809D02*
X43981714Y-79493809D01*
X43648380Y-79493809D02*
X43696000Y-79446190D01*
X43743619Y-79493809D01*
X43696000Y-79541428D01*
X43648380Y-79493809D01*
X43743619Y-79493809D01*
X43981714Y-79970000D02*
X44648380Y-79970000D01*
X44076952Y-79970000D02*
X44029333Y-80017619D01*
X43981714Y-80112857D01*
X43981714Y-80255714D01*
X44029333Y-80350952D01*
X44124571Y-80398571D01*
X44648380Y-80398571D01*
X42060761Y-73581047D02*
X42108380Y-73676285D01*
X42108380Y-73866761D01*
X42060761Y-73962000D01*
X41965523Y-74009619D01*
X41917904Y-74009619D01*
X41822666Y-73962000D01*
X41775047Y-73866761D01*
X41775047Y-73723904D01*
X41727428Y-73628666D01*
X41632190Y-73581047D01*
X41584571Y-73581047D01*
X41489333Y-73628666D01*
X41441714Y-73723904D01*
X41441714Y-73866761D01*
X41489333Y-73962000D01*
X42060761Y-74819142D02*
X42108380Y-74723904D01*
X42108380Y-74533428D01*
X42060761Y-74438190D01*
X41965523Y-74390571D01*
X41584571Y-74390571D01*
X41489333Y-74438190D01*
X41441714Y-74533428D01*
X41441714Y-74723904D01*
X41489333Y-74819142D01*
X41584571Y-74866761D01*
X41679809Y-74866761D01*
X41775047Y-74390571D01*
X42108380Y-75295333D02*
X41441714Y-75295333D01*
X41632190Y-75295333D02*
X41536952Y-75342952D01*
X41489333Y-75390571D01*
X41441714Y-75485809D01*
X41441714Y-75581047D01*
X42108380Y-75914380D02*
X41441714Y-75914380D01*
X41108380Y-75914380D02*
X41156000Y-75866761D01*
X41203619Y-75914380D01*
X41156000Y-75962000D01*
X41108380Y-75914380D01*
X41203619Y-75914380D01*
X42108380Y-76819142D02*
X41584571Y-76819142D01*
X41489333Y-76771523D01*
X41441714Y-76676285D01*
X41441714Y-76485809D01*
X41489333Y-76390571D01*
X42060761Y-76819142D02*
X42108380Y-76723904D01*
X42108380Y-76485809D01*
X42060761Y-76390571D01*
X41965523Y-76342952D01*
X41870285Y-76342952D01*
X41775047Y-76390571D01*
X41727428Y-76485809D01*
X41727428Y-76723904D01*
X41679809Y-76819142D01*
X42108380Y-77438190D02*
X42060761Y-77342952D01*
X41965523Y-77295333D01*
X41108380Y-77295333D01*
X42203619Y-77581047D02*
X42203619Y-78342952D01*
X42060761Y-79009619D02*
X42108380Y-78914380D01*
X42108380Y-78723904D01*
X42060761Y-78628666D01*
X42013142Y-78581047D01*
X41917904Y-78533428D01*
X41632190Y-78533428D01*
X41536952Y-78581047D01*
X41489333Y-78628666D01*
X41441714Y-78723904D01*
X41441714Y-78914380D01*
X41489333Y-79009619D01*
X42108380Y-79581047D02*
X42060761Y-79485809D01*
X41965523Y-79438190D01*
X41108380Y-79438190D01*
X42108380Y-79962000D02*
X41108380Y-79962000D01*
X41727428Y-80057238D02*
X42108380Y-80342952D01*
X41441714Y-80342952D02*
X41822666Y-79962000D01*
X39568380Y-77192380D02*
X38901714Y-77192380D01*
X39092190Y-77192380D02*
X38996952Y-77240000D01*
X38949333Y-77287619D01*
X38901714Y-77382857D01*
X38901714Y-77478095D01*
X39663619Y-77573333D02*
X39663619Y-78335238D01*
X39520761Y-79001904D02*
X39568380Y-78906666D01*
X39568380Y-78716190D01*
X39520761Y-78620952D01*
X39473142Y-78573333D01*
X39377904Y-78525714D01*
X39092190Y-78525714D01*
X38996952Y-78573333D01*
X38949333Y-78620952D01*
X38901714Y-78716190D01*
X38901714Y-78906666D01*
X38949333Y-79001904D01*
X39568380Y-79573333D02*
X39520761Y-79478095D01*
X39425523Y-79430476D01*
X38568380Y-79430476D01*
X39568380Y-79954285D02*
X38568380Y-79954285D01*
X39187428Y-80049523D02*
X39568380Y-80335238D01*
X38901714Y-80335238D02*
X39282666Y-79954285D01*
D11*
%TO.C,J2*%
X58365000Y-23395000D02*
X37925000Y-23395000D01*
X37925000Y-23395000D02*
X37925000Y-20735000D01*
X37925000Y-20735000D02*
X58365000Y-20735000D01*
X58365000Y-20735000D02*
X58365000Y-23395000D01*
X57415000Y-20735000D02*
X57415000Y-14735000D01*
X57415000Y-14735000D02*
X56655000Y-14735000D01*
X56655000Y-14735000D02*
X56655000Y-20735000D01*
X57355000Y-20735000D02*
X57355000Y-14735000D01*
X57235000Y-20735000D02*
X57235000Y-14735000D01*
X57115000Y-20735000D02*
X57115000Y-14735000D01*
X56995000Y-20735000D02*
X56995000Y-14735000D01*
X56875000Y-20735000D02*
X56875000Y-14735000D01*
X56755000Y-20735000D02*
X56755000Y-14735000D01*
X57415000Y-23725000D02*
X57415000Y-23395000D01*
X56655000Y-23725000D02*
X56655000Y-23395000D01*
X55765000Y-23395000D02*
X55765000Y-20735000D01*
X54875000Y-20735000D02*
X54875000Y-14735000D01*
X54875000Y-14735000D02*
X54115000Y-14735000D01*
X54115000Y-14735000D02*
X54115000Y-20735000D01*
X54875000Y-23792071D02*
X54875000Y-23395000D01*
X54115000Y-23792071D02*
X54115000Y-23395000D01*
X53225000Y-23395000D02*
X53225000Y-20735000D01*
X52335000Y-20735000D02*
X52335000Y-14735000D01*
X52335000Y-14735000D02*
X51575000Y-14735000D01*
X51575000Y-14735000D02*
X51575000Y-20735000D01*
X52335000Y-23792071D02*
X52335000Y-23395000D01*
X51575000Y-23792071D02*
X51575000Y-23395000D01*
X50685000Y-23395000D02*
X50685000Y-20735000D01*
X49795000Y-20735000D02*
X49795000Y-14735000D01*
X49795000Y-14735000D02*
X49035000Y-14735000D01*
X49035000Y-14735000D02*
X49035000Y-20735000D01*
X49795000Y-23792071D02*
X49795000Y-23395000D01*
X49035000Y-23792071D02*
X49035000Y-23395000D01*
X48145000Y-23395000D02*
X48145000Y-20735000D01*
X47255000Y-20735000D02*
X47255000Y-14735000D01*
X47255000Y-14735000D02*
X46495000Y-14735000D01*
X46495000Y-14735000D02*
X46495000Y-20735000D01*
X47255000Y-23792071D02*
X47255000Y-23395000D01*
X46495000Y-23792071D02*
X46495000Y-23395000D01*
X45605000Y-23395000D02*
X45605000Y-20735000D01*
X44715000Y-20735000D02*
X44715000Y-14735000D01*
X44715000Y-14735000D02*
X43955000Y-14735000D01*
X43955000Y-14735000D02*
X43955000Y-20735000D01*
X44715000Y-23792071D02*
X44715000Y-23395000D01*
X43955000Y-23792071D02*
X43955000Y-23395000D01*
X43065000Y-23395000D02*
X43065000Y-20735000D01*
X42175000Y-20735000D02*
X42175000Y-14735000D01*
X42175000Y-14735000D02*
X41415000Y-14735000D01*
X41415000Y-14735000D02*
X41415000Y-20735000D01*
X42175000Y-23792071D02*
X42175000Y-23395000D01*
X41415000Y-23792071D02*
X41415000Y-23395000D01*
X40525000Y-23395000D02*
X40525000Y-20735000D01*
X39635000Y-20735000D02*
X39635000Y-14735000D01*
X39635000Y-14735000D02*
X38875000Y-14735000D01*
X38875000Y-14735000D02*
X38875000Y-20735000D01*
X39635000Y-23792071D02*
X39635000Y-23395000D01*
X38875000Y-23792071D02*
X38875000Y-23395000D01*
X57035000Y-26105000D02*
X58305000Y-26105000D01*
X58305000Y-26105000D02*
X58305000Y-24835000D01*
D10*
%TO.C,D1*%
X72005000Y-62225000D02*
G75*
G03*
X72005000Y-62225000I-1000000J0D01*
G01*
D11*
%TO.C,J1*%
X58245000Y-91925000D02*
X58245000Y-83295000D01*
X58126905Y-91925000D02*
X58126905Y-83295000D01*
X58008810Y-91925000D02*
X58008810Y-83295000D01*
X57890715Y-91925000D02*
X57890715Y-83295000D01*
X57772620Y-91925000D02*
X57772620Y-83295000D01*
X57654525Y-91925000D02*
X57654525Y-83295000D01*
X57536430Y-91925000D02*
X57536430Y-83295000D01*
X57418335Y-91925000D02*
X57418335Y-83295000D01*
X57300240Y-91925000D02*
X57300240Y-83295000D01*
X57182145Y-91925000D02*
X57182145Y-83295000D01*
X57064050Y-91925000D02*
X57064050Y-83295000D01*
X56945955Y-91925000D02*
X56945955Y-83295000D01*
X56827860Y-91925000D02*
X56827860Y-83295000D01*
X56709765Y-91925000D02*
X56709765Y-83295000D01*
X56591670Y-91925000D02*
X56591670Y-83295000D01*
X56473575Y-91925000D02*
X56473575Y-83295000D01*
X56355480Y-91925000D02*
X56355480Y-83295000D01*
X56237385Y-91925000D02*
X56237385Y-83295000D01*
X56119290Y-91925000D02*
X56119290Y-83295000D01*
X56001195Y-91925000D02*
X56001195Y-83295000D01*
X55883100Y-91925000D02*
X55883100Y-83295000D01*
X57395000Y-83295000D02*
X57395000Y-82945000D01*
X56675000Y-83295000D02*
X56675000Y-82945000D01*
X54855000Y-83295000D02*
X54855000Y-82885000D01*
X54135000Y-83295000D02*
X54135000Y-82885000D01*
X52315000Y-83295000D02*
X52315000Y-82885000D01*
X51595000Y-83295000D02*
X51595000Y-82885000D01*
X49775000Y-83295000D02*
X49775000Y-82885000D01*
X49055000Y-83295000D02*
X49055000Y-82885000D01*
X47235000Y-83295000D02*
X47235000Y-82885000D01*
X46515000Y-83295000D02*
X46515000Y-82885000D01*
X44695000Y-83295000D02*
X44695000Y-82885000D01*
X43975000Y-83295000D02*
X43975000Y-82885000D01*
X42155000Y-83295000D02*
X42155000Y-82885000D01*
X41435000Y-83295000D02*
X41435000Y-82885000D01*
X39615000Y-83295000D02*
X39615000Y-82885000D01*
X38895000Y-83295000D02*
X38895000Y-82885000D01*
X55765000Y-91925000D02*
X55765000Y-83295000D01*
X53225000Y-91925000D02*
X53225000Y-83295000D01*
X50685000Y-91925000D02*
X50685000Y-83295000D01*
X48145000Y-91925000D02*
X48145000Y-83295000D01*
X45605000Y-91925000D02*
X45605000Y-83295000D01*
X43065000Y-91925000D02*
X43065000Y-83295000D01*
X40525000Y-91925000D02*
X40525000Y-83295000D01*
X58365000Y-91925000D02*
X58365000Y-83295000D01*
X58365000Y-83295000D02*
X37925000Y-83295000D01*
X37925000Y-91925000D02*
X37925000Y-83295000D01*
X58365000Y-91925000D02*
X37925000Y-91925000D01*
X58365000Y-80725000D02*
X57035000Y-80725000D01*
X58365000Y-81835000D02*
X58365000Y-80725000D01*
%TO.C,U2*%
X51260000Y-35190000D02*
X51260000Y-33540000D01*
X51260000Y-33540000D02*
X74240000Y-33540000D01*
X74240000Y-33540000D02*
X74240000Y-38840000D01*
X74240000Y-38840000D02*
X51260000Y-38840000D01*
X51260000Y-38840000D02*
X51260000Y-37190000D01*
X51260000Y-37190000D02*
G75*
G03*
X51260000Y-35190000I0J1000000D01*
G01*
%TO.C,R5*%
X75840000Y-53787064D02*
X75840000Y-52332936D01*
X74020000Y-53787064D02*
X74020000Y-52332936D01*
%TO.C,R9*%
X56240000Y-61222936D02*
X56240000Y-62677064D01*
X58060000Y-61222936D02*
X58060000Y-62677064D01*
%TO.C,U3*%
X51685000Y-46925000D02*
X53335000Y-46925000D01*
X53335000Y-46925000D02*
X53335000Y-67365000D01*
X53335000Y-67365000D02*
X48035000Y-67365000D01*
X48035000Y-67365000D02*
X48035000Y-46925000D01*
X48035000Y-46925000D02*
X49685000Y-46925000D01*
X49685000Y-46925000D02*
G75*
G03*
X51685000Y-46925000I1000000J0D01*
G01*
%TO.C,U1*%
X48840000Y-33540000D02*
X48840000Y-35190000D01*
X28400000Y-33540000D02*
X48840000Y-33540000D01*
X28400000Y-38840000D02*
X28400000Y-33540000D01*
X48840000Y-38840000D02*
X28400000Y-38840000D01*
X48840000Y-37190000D02*
X48840000Y-38840000D01*
X48840000Y-35190000D02*
G75*
G03*
X48840000Y-37190000I0J-1000000D01*
G01*
%TO.C,*%
D10*
X50252380Y-52697619D02*
X50252380Y-53269047D01*
X51252380Y-52983333D02*
X50252380Y-52983333D01*
X51252380Y-53602380D02*
X50252380Y-53602380D01*
X50252380Y-53983333D01*
X50300000Y-54078571D01*
X50347619Y-54126190D01*
X50442857Y-54173809D01*
X50585714Y-54173809D01*
X50680952Y-54126190D01*
X50728571Y-54078571D01*
X50776190Y-53983333D01*
X50776190Y-53602380D01*
X51252380Y-54602380D02*
X50252380Y-54602380D01*
X51157142Y-55650000D02*
X51204761Y-55602380D01*
X51252380Y-55459523D01*
X51252380Y-55364285D01*
X51204761Y-55221428D01*
X51109523Y-55126190D01*
X51014285Y-55078571D01*
X50823809Y-55030952D01*
X50680952Y-55030952D01*
X50490476Y-55078571D01*
X50395238Y-55126190D01*
X50300000Y-55221428D01*
X50252380Y-55364285D01*
X50252380Y-55459523D01*
X50300000Y-55602380D01*
X50347619Y-55650000D01*
X50252380Y-56507142D02*
X50252380Y-56316666D01*
X50300000Y-56221428D01*
X50347619Y-56173809D01*
X50490476Y-56078571D01*
X50680952Y-56030952D01*
X51061904Y-56030952D01*
X51157142Y-56078571D01*
X51204761Y-56126190D01*
X51252380Y-56221428D01*
X51252380Y-56411904D01*
X51204761Y-56507142D01*
X51157142Y-56554761D01*
X51061904Y-56602380D01*
X50823809Y-56602380D01*
X50728571Y-56554761D01*
X50680952Y-56507142D01*
X50633333Y-56411904D01*
X50633333Y-56221428D01*
X50680952Y-56126190D01*
X50728571Y-56078571D01*
X50823809Y-56030952D01*
X51157142Y-57602380D02*
X51204761Y-57554761D01*
X51252380Y-57411904D01*
X51252380Y-57316666D01*
X51204761Y-57173809D01*
X51109523Y-57078571D01*
X51014285Y-57030952D01*
X50823809Y-56983333D01*
X50680952Y-56983333D01*
X50490476Y-57030952D01*
X50395238Y-57078571D01*
X50300000Y-57173809D01*
X50252380Y-57316666D01*
X50252380Y-57411904D01*
X50300000Y-57554761D01*
X50347619Y-57602380D01*
X50252380Y-58507142D02*
X50252380Y-58030952D01*
X50728571Y-57983333D01*
X50680952Y-58030952D01*
X50633333Y-58126190D01*
X50633333Y-58364285D01*
X50680952Y-58459523D01*
X50728571Y-58507142D01*
X50823809Y-58554761D01*
X51061904Y-58554761D01*
X51157142Y-58507142D01*
X51204761Y-58459523D01*
X51252380Y-58364285D01*
X51252380Y-58126190D01*
X51204761Y-58030952D01*
X51157142Y-57983333D01*
X51252380Y-59030952D02*
X51252380Y-59221428D01*
X51204761Y-59316666D01*
X51157142Y-59364285D01*
X51014285Y-59459523D01*
X50823809Y-59507142D01*
X50442857Y-59507142D01*
X50347619Y-59459523D01*
X50300000Y-59411904D01*
X50252380Y-59316666D01*
X50252380Y-59126190D01*
X50300000Y-59030952D01*
X50347619Y-58983333D01*
X50442857Y-58935714D01*
X50680952Y-58935714D01*
X50776190Y-58983333D01*
X50823809Y-59030952D01*
X50871428Y-59126190D01*
X50871428Y-59316666D01*
X50823809Y-59411904D01*
X50776190Y-59459523D01*
X50680952Y-59507142D01*
X50252380Y-60411904D02*
X50252380Y-59935714D01*
X50728571Y-59888095D01*
X50680952Y-59935714D01*
X50633333Y-60030952D01*
X50633333Y-60269047D01*
X50680952Y-60364285D01*
X50728571Y-60411904D01*
X50823809Y-60459523D01*
X51061904Y-60459523D01*
X51157142Y-60411904D01*
X51204761Y-60364285D01*
X51252380Y-60269047D01*
X51252380Y-60030952D01*
X51204761Y-59935714D01*
X51157142Y-59888095D01*
X51252380Y-60888095D02*
X50252380Y-60888095D01*
X51252380Y-61459523D01*
X50252380Y-61459523D01*
X42314047Y-35642380D02*
X41647380Y-35642380D01*
X42075952Y-36642380D01*
X40837857Y-35975714D02*
X40837857Y-36642380D01*
X41075952Y-35594761D02*
X41314047Y-36309047D01*
X40695000Y-36309047D01*
X40314047Y-36642380D02*
X40314047Y-35642380D01*
X40314047Y-36118571D02*
X39742619Y-36118571D01*
X39742619Y-36642380D02*
X39742619Y-35642380D01*
X38695000Y-36547142D02*
X38742619Y-36594761D01*
X38885476Y-36642380D01*
X38980714Y-36642380D01*
X39123571Y-36594761D01*
X39218809Y-36499523D01*
X39266428Y-36404285D01*
X39314047Y-36213809D01*
X39314047Y-36070952D01*
X39266428Y-35880476D01*
X39218809Y-35785238D01*
X39123571Y-35690000D01*
X38980714Y-35642380D01*
X38885476Y-35642380D01*
X38742619Y-35690000D01*
X38695000Y-35737619D01*
X38409285Y-35642380D02*
X37837857Y-35642380D01*
X38123571Y-36642380D02*
X38123571Y-35642380D01*
X37075952Y-35975714D02*
X37075952Y-36642380D01*
X37314047Y-35594761D02*
X37552142Y-36309047D01*
X36933095Y-36309047D01*
X36361666Y-35642380D02*
X36266428Y-35642380D01*
X36171190Y-35690000D01*
X36123571Y-35737619D01*
X36075952Y-35832857D01*
X36028333Y-36023333D01*
X36028333Y-36261428D01*
X36075952Y-36451904D01*
X36123571Y-36547142D01*
X36171190Y-36594761D01*
X36266428Y-36642380D01*
X36361666Y-36642380D01*
X36456904Y-36594761D01*
X36504523Y-36547142D01*
X36552142Y-36451904D01*
X36599761Y-36261428D01*
X36599761Y-36023333D01*
X36552142Y-35832857D01*
X36504523Y-35737619D01*
X36456904Y-35690000D01*
X36361666Y-35642380D01*
X35123571Y-35642380D02*
X35599761Y-35642380D01*
X35647380Y-36118571D01*
X35599761Y-36070952D01*
X35504523Y-36023333D01*
X35266428Y-36023333D01*
X35171190Y-36070952D01*
X35123571Y-36118571D01*
X35075952Y-36213809D01*
X35075952Y-36451904D01*
X35123571Y-36547142D01*
X35171190Y-36594761D01*
X35266428Y-36642380D01*
X35504523Y-36642380D01*
X35599761Y-36594761D01*
X35647380Y-36547142D01*
X34123571Y-36642380D02*
X34695000Y-36642380D01*
X34409285Y-36642380D02*
X34409285Y-35642380D01*
X34504523Y-35785238D01*
X34599761Y-35880476D01*
X34695000Y-35928095D01*
X68761904Y-36647380D02*
X68761904Y-35647380D01*
X68428571Y-36361666D01*
X68095238Y-35647380D01*
X68095238Y-36647380D01*
X67619047Y-36647380D02*
X67619047Y-35647380D01*
X66571428Y-36552142D02*
X66619047Y-36599761D01*
X66761904Y-36647380D01*
X66857142Y-36647380D01*
X67000000Y-36599761D01*
X67095238Y-36504523D01*
X67142857Y-36409285D01*
X67190476Y-36218809D01*
X67190476Y-36075952D01*
X67142857Y-35885476D01*
X67095238Y-35790238D01*
X67000000Y-35695000D01*
X66857142Y-35647380D01*
X66761904Y-35647380D01*
X66619047Y-35695000D01*
X66571428Y-35742619D01*
X66190476Y-35742619D02*
X66142857Y-35695000D01*
X66047619Y-35647380D01*
X65809523Y-35647380D01*
X65714285Y-35695000D01*
X65666666Y-35742619D01*
X65619047Y-35837857D01*
X65619047Y-35933095D01*
X65666666Y-36075952D01*
X66238095Y-36647380D01*
X65619047Y-36647380D01*
X65142857Y-36647380D02*
X64952380Y-36647380D01*
X64857142Y-36599761D01*
X64809523Y-36552142D01*
X64714285Y-36409285D01*
X64666666Y-36218809D01*
X64666666Y-35837857D01*
X64714285Y-35742619D01*
X64761904Y-35695000D01*
X64857142Y-35647380D01*
X65047619Y-35647380D01*
X65142857Y-35695000D01*
X65190476Y-35742619D01*
X65238095Y-35837857D01*
X65238095Y-36075952D01*
X65190476Y-36171190D01*
X65142857Y-36218809D01*
X65047619Y-36266428D01*
X64857142Y-36266428D01*
X64761904Y-36218809D01*
X64714285Y-36171190D01*
X64666666Y-36075952D01*
X64095238Y-36075952D02*
X64190476Y-36028333D01*
X64238095Y-35980714D01*
X64285714Y-35885476D01*
X64285714Y-35837857D01*
X64238095Y-35742619D01*
X64190476Y-35695000D01*
X64095238Y-35647380D01*
X63904761Y-35647380D01*
X63809523Y-35695000D01*
X63761904Y-35742619D01*
X63714285Y-35837857D01*
X63714285Y-35885476D01*
X63761904Y-35980714D01*
X63809523Y-36028333D01*
X63904761Y-36075952D01*
X64095238Y-36075952D01*
X64190476Y-36123571D01*
X64238095Y-36171190D01*
X64285714Y-36266428D01*
X64285714Y-36456904D01*
X64238095Y-36552142D01*
X64190476Y-36599761D01*
X64095238Y-36647380D01*
X63904761Y-36647380D01*
X63809523Y-36599761D01*
X63761904Y-36552142D01*
X63714285Y-36456904D01*
X63714285Y-36266428D01*
X63761904Y-36171190D01*
X63809523Y-36123571D01*
X63904761Y-36075952D01*
X62761904Y-36647380D02*
X63333333Y-36647380D01*
X63047619Y-36647380D02*
X63047619Y-35647380D01*
X63142857Y-35790238D01*
X63238095Y-35885476D01*
X63333333Y-35933095D01*
X62571428Y-36742619D02*
X61809523Y-36742619D01*
X61428571Y-36075952D02*
X61523809Y-36028333D01*
X61571428Y-35980714D01*
X61619047Y-35885476D01*
X61619047Y-35837857D01*
X61571428Y-35742619D01*
X61523809Y-35695000D01*
X61428571Y-35647380D01*
X61238095Y-35647380D01*
X61142857Y-35695000D01*
X61095238Y-35742619D01*
X61047619Y-35837857D01*
X61047619Y-35885476D01*
X61095238Y-35980714D01*
X61142857Y-36028333D01*
X61238095Y-36075952D01*
X61428571Y-36075952D01*
X61523809Y-36123571D01*
X61571428Y-36171190D01*
X61619047Y-36266428D01*
X61619047Y-36456904D01*
X61571428Y-36552142D01*
X61523809Y-36599761D01*
X61428571Y-36647380D01*
X61238095Y-36647380D01*
X61142857Y-36599761D01*
X61095238Y-36552142D01*
X61047619Y-36456904D01*
X61047619Y-36266428D01*
X61095238Y-36171190D01*
X61142857Y-36123571D01*
X61238095Y-36075952D01*
X60666666Y-35742619D02*
X60619047Y-35695000D01*
X60523809Y-35647380D01*
X60285714Y-35647380D01*
X60190476Y-35695000D01*
X60142857Y-35742619D01*
X60095238Y-35837857D01*
X60095238Y-35933095D01*
X60142857Y-36075952D01*
X60714285Y-36647380D01*
X60095238Y-36647380D01*
X59476190Y-36171190D02*
X59476190Y-36647380D01*
X59809523Y-35647380D02*
X59476190Y-36171190D01*
X59142857Y-35647380D01*
X58809523Y-36647380D02*
X58809523Y-35647380D01*
X58238095Y-36647380D01*
X58238095Y-35647380D01*
%TO.C,J2*%
X58757380Y-24431666D02*
X59471666Y-24431666D01*
X59614523Y-24384047D01*
X59709761Y-24288809D01*
X59757380Y-24145952D01*
X59757380Y-24050714D01*
X58852619Y-24860238D02*
X58805000Y-24907857D01*
X58757380Y-25003095D01*
X58757380Y-25241190D01*
X58805000Y-25336428D01*
X58852619Y-25384047D01*
X58947857Y-25431666D01*
X59043095Y-25431666D01*
X59185952Y-25384047D01*
X59757380Y-24812619D01*
X59757380Y-25431666D01*
%TO.C,J1*%
X59257380Y-81581666D02*
X59971666Y-81581666D01*
X60114523Y-81534047D01*
X60209761Y-81438809D01*
X60257380Y-81295952D01*
X60257380Y-81200714D01*
X60257380Y-82581666D02*
X60257380Y-82010238D01*
X60257380Y-82295952D02*
X59257380Y-82295952D01*
X59400238Y-82200714D01*
X59495476Y-82105476D01*
X59543095Y-82010238D01*
%TO.C,U2*%
X75017380Y-35428095D02*
X75826904Y-35428095D01*
X75922142Y-35475714D01*
X75969761Y-35523333D01*
X76017380Y-35618571D01*
X76017380Y-35809047D01*
X75969761Y-35904285D01*
X75922142Y-35951904D01*
X75826904Y-35999523D01*
X75017380Y-35999523D01*
X75112619Y-36428095D02*
X75065000Y-36475714D01*
X75017380Y-36570952D01*
X75017380Y-36809047D01*
X75065000Y-36904285D01*
X75112619Y-36951904D01*
X75207857Y-36999523D01*
X75303095Y-36999523D01*
X75445952Y-36951904D01*
X76017380Y-36380476D01*
X76017380Y-36999523D01*
%TO.C,R5*%
X77202380Y-52893333D02*
X76726190Y-52560000D01*
X77202380Y-52321904D02*
X76202380Y-52321904D01*
X76202380Y-52702857D01*
X76250000Y-52798095D01*
X76297619Y-52845714D01*
X76392857Y-52893333D01*
X76535714Y-52893333D01*
X76630952Y-52845714D01*
X76678571Y-52798095D01*
X76726190Y-52702857D01*
X76726190Y-52321904D01*
X76202380Y-53798095D02*
X76202380Y-53321904D01*
X76678571Y-53274285D01*
X76630952Y-53321904D01*
X76583333Y-53417142D01*
X76583333Y-53655238D01*
X76630952Y-53750476D01*
X76678571Y-53798095D01*
X76773809Y-53845714D01*
X77011904Y-53845714D01*
X77107142Y-53798095D01*
X77154761Y-53750476D01*
X77202380Y-53655238D01*
X77202380Y-53417142D01*
X77154761Y-53321904D01*
X77107142Y-53274285D01*
%TO.C,R9*%
X59392380Y-61783333D02*
X58916190Y-61450000D01*
X59392380Y-61211904D02*
X58392380Y-61211904D01*
X58392380Y-61592857D01*
X58440000Y-61688095D01*
X58487619Y-61735714D01*
X58582857Y-61783333D01*
X58725714Y-61783333D01*
X58820952Y-61735714D01*
X58868571Y-61688095D01*
X58916190Y-61592857D01*
X58916190Y-61211904D01*
X59392380Y-62259523D02*
X59392380Y-62450000D01*
X59344761Y-62545238D01*
X59297142Y-62592857D01*
X59154285Y-62688095D01*
X58963809Y-62735714D01*
X58582857Y-62735714D01*
X58487619Y-62688095D01*
X58440000Y-62640476D01*
X58392380Y-62545238D01*
X58392380Y-62354761D01*
X58440000Y-62259523D01*
X58487619Y-62211904D01*
X58582857Y-62164285D01*
X58820952Y-62164285D01*
X58916190Y-62211904D01*
X58963809Y-62259523D01*
X59011428Y-62354761D01*
X59011428Y-62545238D01*
X58963809Y-62640476D01*
X58916190Y-62688095D01*
X58820952Y-62735714D01*
%TO.C,U3*%
X51446904Y-45377380D02*
X51446904Y-46186904D01*
X51399285Y-46282142D01*
X51351666Y-46329761D01*
X51256428Y-46377380D01*
X51065952Y-46377380D01*
X50970714Y-46329761D01*
X50923095Y-46282142D01*
X50875476Y-46186904D01*
X50875476Y-45377380D01*
X50494523Y-45377380D02*
X49875476Y-45377380D01*
X50208809Y-45758333D01*
X50065952Y-45758333D01*
X49970714Y-45805952D01*
X49923095Y-45853571D01*
X49875476Y-45948809D01*
X49875476Y-46186904D01*
X49923095Y-46282142D01*
X49970714Y-46329761D01*
X50065952Y-46377380D01*
X50351666Y-46377380D01*
X50446904Y-46329761D01*
X50494523Y-46282142D01*
%TO.C,U1*%
X26757380Y-35428095D02*
X27566904Y-35428095D01*
X27662142Y-35475714D01*
X27709761Y-35523333D01*
X27757380Y-35618571D01*
X27757380Y-35809047D01*
X27709761Y-35904285D01*
X27662142Y-35951904D01*
X27566904Y-35999523D01*
X26757380Y-35999523D01*
X27757380Y-36999523D02*
X27757380Y-36428095D01*
X27757380Y-36713809D02*
X26757380Y-36713809D01*
X26900238Y-36618571D01*
X26995476Y-36523333D01*
X27043095Y-36428095D01*
%TD*%
M02*
