%TF.GenerationSoftware,KiCad,Pcbnew,(5.1.8-0-10_14)*%
%TF.CreationDate,2021-01-04T21:42:45+01:00*%
%TF.ProjectId,led-matrix,6c65642d-6d61-4747-9269-782e6b696361,rev?*%
%TF.SameCoordinates,Original*%
%TF.FileFunction,Copper,L1,Top*%
%TF.FilePolarity,Positive*%
%FSLAX46Y46*%
G04 Gerber Fmt 4.6, Leading zero omitted, Abs format (unit mm)*
G04 Created by KiCad (PCBNEW (5.1.8-0-10_14)) date 2021-01-04 21:42:45*
%MOMM*%
%LPD*%
G01*
G04 APERTURE LIST*
%TA.AperFunction,ComponentPad*%
%ADD10O,1.700000X1.700000*%
%TD*%
%TA.AperFunction,ComponentPad*%
%ADD11R,1.700000X1.700000*%
%TD*%
%TA.AperFunction,ComponentPad*%
%ADD12C,1.524000*%
%TD*%
%TA.AperFunction,ComponentPad*%
%ADD13O,1.600000X1.600000*%
%TD*%
%TA.AperFunction,ComponentPad*%
%ADD14R,1.600000X1.600000*%
%TD*%
%TA.AperFunction,ViaPad*%
%ADD15C,0.800000*%
%TD*%
%TA.AperFunction,Conductor*%
%ADD16C,0.500000*%
%TD*%
%TA.AperFunction,Conductor*%
%ADD17C,0.254000*%
%TD*%
%TA.AperFunction,Conductor*%
%ADD18C,0.100000*%
%TD*%
G04 APERTURE END LIST*
D10*
%TO.P,J2,8*%
%TO.N,/r_clk*%
X39255000Y-24835000D03*
%TO.P,J2,7*%
%TO.N,/serial_clk*%
X41795000Y-24835000D03*
%TO.P,J2,6*%
%TO.N,/serial_out*%
X44335000Y-24835000D03*
%TO.P,J2,5*%
%TO.N,/s2*%
X46875000Y-24835000D03*
%TO.P,J2,4*%
%TO.N,/s1*%
X49415000Y-24835000D03*
%TO.P,J2,3*%
%TO.N,/s0*%
X51955000Y-24835000D03*
%TO.P,J2,2*%
%TO.N,/GND*%
X54495000Y-24835000D03*
D11*
%TO.P,J2,1*%
%TO.N,/VCC*%
X57035000Y-24835000D03*
%TD*%
D12*
%TO.P,D1,13*%
%TO.N,/c0*%
X25285000Y-54605000D03*
%TO.P,D1,7*%
%TO.N,/b5*%
X71005000Y-46985000D03*
%TO.P,D1,16*%
%TO.N,/c7*%
X25285000Y-62225000D03*
%TO.P,D1,1*%
%TO.N,/b4*%
X71005000Y-62225000D03*
%TO.P,D1,12*%
%TO.N,/b3*%
X25285000Y-52065000D03*
%TO.P,D1,3*%
%TO.N,/c1*%
X71005000Y-57145000D03*
%TO.P,D1,14*%
%TO.N,/b1*%
X25285000Y-57145000D03*
%TO.P,D1,4*%
%TO.N,/c2*%
X71005000Y-54605000D03*
%TO.P,D1,6*%
%TO.N,/c4*%
X71005000Y-49525000D03*
%TO.P,D1,2*%
%TO.N,/b6*%
X71005000Y-59685000D03*
%TO.P,D1,15*%
%TO.N,/c6*%
X25285000Y-59685000D03*
%TO.P,D1,9*%
%TO.N,/b0*%
X25285000Y-44445000D03*
%TO.P,D1,5*%
%TO.N,/b7*%
X71005000Y-52065000D03*
%TO.P,D1,10*%
%TO.N,/c3*%
X25285000Y-46985000D03*
%TO.P,D1,8*%
%TO.N,/b2*%
X71005000Y-44445000D03*
%TO.P,D1,11*%
%TO.N,/c5*%
X25285000Y-49525000D03*
%TD*%
D10*
%TO.P,J1,8*%
%TO.N,/r_clk*%
X39255000Y-81835000D03*
%TO.P,J1,7*%
%TO.N,/serial_clk*%
X41795000Y-81835000D03*
%TO.P,J1,6*%
%TO.N,/serial_in*%
X44335000Y-81835000D03*
%TO.P,J1,5*%
%TO.N,/s2*%
X46875000Y-81835000D03*
%TO.P,J1,4*%
%TO.N,/s1*%
X49415000Y-81835000D03*
%TO.P,J1,3*%
%TO.N,/s0*%
X51955000Y-81835000D03*
%TO.P,J1,2*%
%TO.N,/GND*%
X54495000Y-81835000D03*
D11*
%TO.P,J1,1*%
%TO.N,/VCC*%
X57035000Y-81835000D03*
%TD*%
D13*
%TO.P,U2,18*%
%TO.N,/b0*%
X52590000Y-40000000D03*
%TO.P,U2,9*%
%TO.N,/VCC*%
X72910000Y-32380000D03*
%TO.P,U2,17*%
%TO.N,/b1*%
X55130000Y-40000000D03*
%TO.P,U2,8*%
%TO.N,/a7*%
X70370000Y-32380000D03*
%TO.P,U2,16*%
%TO.N,/b2*%
X57670000Y-40000000D03*
%TO.P,U2,7*%
%TO.N,/a6*%
X67830000Y-32380000D03*
%TO.P,U2,15*%
%TO.N,/b3*%
X60210000Y-40000000D03*
%TO.P,U2,6*%
%TO.N,/a5*%
X65290000Y-32380000D03*
%TO.P,U2,14*%
%TO.N,/b4*%
X62750000Y-40000000D03*
%TO.P,U2,5*%
%TO.N,/a4*%
X62750000Y-32380000D03*
%TO.P,U2,13*%
%TO.N,/b5*%
X65290000Y-40000000D03*
%TO.P,U2,4*%
%TO.N,/a3*%
X60210000Y-32380000D03*
%TO.P,U2,12*%
%TO.N,/b6*%
X67830000Y-40000000D03*
%TO.P,U2,3*%
%TO.N,/a2*%
X57670000Y-32380000D03*
%TO.P,U2,11*%
%TO.N,/b7*%
X70370000Y-40000000D03*
%TO.P,U2,2*%
%TO.N,/a1*%
X55130000Y-32380000D03*
%TO.P,U2,10*%
%TO.N,/GND*%
X72910000Y-40000000D03*
D14*
%TO.P,U2,1*%
%TO.N,/a0*%
X52590000Y-32380000D03*
%TD*%
%TO.P,R8,2*%
%TO.N,/c7*%
%TA.AperFunction,SMDPad,CuDef*%
G36*
G01*
X28830000Y-61600000D02*
X28830000Y-62850000D01*
G75*
G02*
X28580000Y-63100000I-250000J0D01*
G01*
X27780000Y-63100000D01*
G75*
G02*
X27530000Y-62850000I0J250000D01*
G01*
X27530000Y-61600000D01*
G75*
G02*
X27780000Y-61350000I250000J0D01*
G01*
X28580000Y-61350000D01*
G75*
G02*
X28830000Y-61600000I0J-250000D01*
G01*
G37*
%TD.AperFunction*%
%TO.P,R8,1*%
%TO.N,/d7*%
%TA.AperFunction,SMDPad,CuDef*%
G36*
G01*
X31930000Y-61600000D02*
X31930000Y-62850000D01*
G75*
G02*
X31680000Y-63100000I-250000J0D01*
G01*
X30880000Y-63100000D01*
G75*
G02*
X30630000Y-62850000I0J250000D01*
G01*
X30630000Y-61600000D01*
G75*
G02*
X30880000Y-61350000I250000J0D01*
G01*
X31680000Y-61350000D01*
G75*
G02*
X31930000Y-61600000I0J-250000D01*
G01*
G37*
%TD.AperFunction*%
%TD*%
%TO.P,R7,2*%
%TO.N,/c6*%
%TA.AperFunction,SMDPad,CuDef*%
G36*
G01*
X28830000Y-59065000D02*
X28830000Y-60315000D01*
G75*
G02*
X28580000Y-60565000I-250000J0D01*
G01*
X27780000Y-60565000D01*
G75*
G02*
X27530000Y-60315000I0J250000D01*
G01*
X27530000Y-59065000D01*
G75*
G02*
X27780000Y-58815000I250000J0D01*
G01*
X28580000Y-58815000D01*
G75*
G02*
X28830000Y-59065000I0J-250000D01*
G01*
G37*
%TD.AperFunction*%
%TO.P,R7,1*%
%TO.N,/d6*%
%TA.AperFunction,SMDPad,CuDef*%
G36*
G01*
X31930000Y-59065000D02*
X31930000Y-60315000D01*
G75*
G02*
X31680000Y-60565000I-250000J0D01*
G01*
X30880000Y-60565000D01*
G75*
G02*
X30630000Y-60315000I0J250000D01*
G01*
X30630000Y-59065000D01*
G75*
G02*
X30880000Y-58815000I250000J0D01*
G01*
X31680000Y-58815000D01*
G75*
G02*
X31930000Y-59065000I0J-250000D01*
G01*
G37*
%TD.AperFunction*%
%TD*%
%TO.P,R6,2*%
%TO.N,/c5*%
%TA.AperFunction,SMDPad,CuDef*%
G36*
G01*
X28830000Y-48905000D02*
X28830000Y-50155000D01*
G75*
G02*
X28580000Y-50405000I-250000J0D01*
G01*
X27780000Y-50405000D01*
G75*
G02*
X27530000Y-50155000I0J250000D01*
G01*
X27530000Y-48905000D01*
G75*
G02*
X27780000Y-48655000I250000J0D01*
G01*
X28580000Y-48655000D01*
G75*
G02*
X28830000Y-48905000I0J-250000D01*
G01*
G37*
%TD.AperFunction*%
%TO.P,R6,1*%
%TO.N,/d5*%
%TA.AperFunction,SMDPad,CuDef*%
G36*
G01*
X31930000Y-48905000D02*
X31930000Y-50155000D01*
G75*
G02*
X31680000Y-50405000I-250000J0D01*
G01*
X30880000Y-50405000D01*
G75*
G02*
X30630000Y-50155000I0J250000D01*
G01*
X30630000Y-48905000D01*
G75*
G02*
X30880000Y-48655000I250000J0D01*
G01*
X31680000Y-48655000D01*
G75*
G02*
X31930000Y-48905000I0J-250000D01*
G01*
G37*
%TD.AperFunction*%
%TD*%
%TO.P,R4,2*%
%TO.N,/c3*%
%TA.AperFunction,SMDPad,CuDef*%
G36*
G01*
X28830000Y-66050000D02*
X28830000Y-67300000D01*
G75*
G02*
X28580000Y-67550000I-250000J0D01*
G01*
X27780000Y-67550000D01*
G75*
G02*
X27530000Y-67300000I0J250000D01*
G01*
X27530000Y-66050000D01*
G75*
G02*
X27780000Y-65800000I250000J0D01*
G01*
X28580000Y-65800000D01*
G75*
G02*
X28830000Y-66050000I0J-250000D01*
G01*
G37*
%TD.AperFunction*%
%TO.P,R4,1*%
%TO.N,/d3*%
%TA.AperFunction,SMDPad,CuDef*%
G36*
G01*
X31930000Y-66050000D02*
X31930000Y-67300000D01*
G75*
G02*
X31680000Y-67550000I-250000J0D01*
G01*
X30880000Y-67550000D01*
G75*
G02*
X30630000Y-67300000I0J250000D01*
G01*
X30630000Y-66050000D01*
G75*
G02*
X30880000Y-65800000I250000J0D01*
G01*
X31680000Y-65800000D01*
G75*
G02*
X31930000Y-66050000I0J-250000D01*
G01*
G37*
%TD.AperFunction*%
%TD*%
%TO.P,R3,2*%
%TO.N,/c2*%
%TA.AperFunction,SMDPad,CuDef*%
G36*
G01*
X66825000Y-55230000D02*
X66825000Y-53980000D01*
G75*
G02*
X67075000Y-53730000I250000J0D01*
G01*
X67875000Y-53730000D01*
G75*
G02*
X68125000Y-53980000I0J-250000D01*
G01*
X68125000Y-55230000D01*
G75*
G02*
X67875000Y-55480000I-250000J0D01*
G01*
X67075000Y-55480000D01*
G75*
G02*
X66825000Y-55230000I0J250000D01*
G01*
G37*
%TD.AperFunction*%
%TO.P,R3,1*%
%TO.N,/d2*%
%TA.AperFunction,SMDPad,CuDef*%
G36*
G01*
X63725000Y-55230000D02*
X63725000Y-53980000D01*
G75*
G02*
X63975000Y-53730000I250000J0D01*
G01*
X64775000Y-53730000D01*
G75*
G02*
X65025000Y-53980000I0J-250000D01*
G01*
X65025000Y-55230000D01*
G75*
G02*
X64775000Y-55480000I-250000J0D01*
G01*
X63975000Y-55480000D01*
G75*
G02*
X63725000Y-55230000I0J250000D01*
G01*
G37*
%TD.AperFunction*%
%TD*%
%TO.P,R2,2*%
%TO.N,/c1*%
%TA.AperFunction,SMDPad,CuDef*%
G36*
G01*
X66825000Y-57775000D02*
X66825000Y-56525000D01*
G75*
G02*
X67075000Y-56275000I250000J0D01*
G01*
X67875000Y-56275000D01*
G75*
G02*
X68125000Y-56525000I0J-250000D01*
G01*
X68125000Y-57775000D01*
G75*
G02*
X67875000Y-58025000I-250000J0D01*
G01*
X67075000Y-58025000D01*
G75*
G02*
X66825000Y-57775000I0J250000D01*
G01*
G37*
%TD.AperFunction*%
%TO.P,R2,1*%
%TO.N,/d1*%
%TA.AperFunction,SMDPad,CuDef*%
G36*
G01*
X63725000Y-57775000D02*
X63725000Y-56525000D01*
G75*
G02*
X63975000Y-56275000I250000J0D01*
G01*
X64775000Y-56275000D01*
G75*
G02*
X65025000Y-56525000I0J-250000D01*
G01*
X65025000Y-57775000D01*
G75*
G02*
X64775000Y-58025000I-250000J0D01*
G01*
X63975000Y-58025000D01*
G75*
G02*
X63725000Y-57775000I0J250000D01*
G01*
G37*
%TD.AperFunction*%
%TD*%
%TO.P,R1,2*%
%TO.N,/c0*%
%TA.AperFunction,SMDPad,CuDef*%
G36*
G01*
X28830000Y-53980000D02*
X28830000Y-55230000D01*
G75*
G02*
X28580000Y-55480000I-250000J0D01*
G01*
X27780000Y-55480000D01*
G75*
G02*
X27530000Y-55230000I0J250000D01*
G01*
X27530000Y-53980000D01*
G75*
G02*
X27780000Y-53730000I250000J0D01*
G01*
X28580000Y-53730000D01*
G75*
G02*
X28830000Y-53980000I0J-250000D01*
G01*
G37*
%TD.AperFunction*%
%TO.P,R1,1*%
%TO.N,/d0*%
%TA.AperFunction,SMDPad,CuDef*%
G36*
G01*
X31930000Y-53980000D02*
X31930000Y-55230000D01*
G75*
G02*
X31680000Y-55480000I-250000J0D01*
G01*
X30880000Y-55480000D01*
G75*
G02*
X30630000Y-55230000I0J250000D01*
G01*
X30630000Y-53980000D01*
G75*
G02*
X30880000Y-53730000I250000J0D01*
G01*
X31680000Y-53730000D01*
G75*
G02*
X31930000Y-53980000I0J-250000D01*
G01*
G37*
%TD.AperFunction*%
%TD*%
%TO.P,C3,2*%
%TO.N,/VCC*%
%TA.AperFunction,SMDPad,CuDef*%
G36*
G01*
X53605000Y-46370001D02*
X53605000Y-45069999D01*
G75*
G02*
X53854999Y-44820000I249999J0D01*
G01*
X54680001Y-44820000D01*
G75*
G02*
X54930000Y-45069999I0J-249999D01*
G01*
X54930000Y-46370001D01*
G75*
G02*
X54680001Y-46620000I-249999J0D01*
G01*
X53854999Y-46620000D01*
G75*
G02*
X53605000Y-46370001I0J249999D01*
G01*
G37*
%TD.AperFunction*%
%TO.P,C3,1*%
%TO.N,/GND*%
%TA.AperFunction,SMDPad,CuDef*%
G36*
G01*
X50480000Y-46370001D02*
X50480000Y-45069999D01*
G75*
G02*
X50729999Y-44820000I249999J0D01*
G01*
X51555001Y-44820000D01*
G75*
G02*
X51805000Y-45069999I0J-249999D01*
G01*
X51805000Y-46370001D01*
G75*
G02*
X51555001Y-46620000I-249999J0D01*
G01*
X50729999Y-46620000D01*
G75*
G02*
X50480000Y-46370001I0J249999D01*
G01*
G37*
%TD.AperFunction*%
%TD*%
%TO.P,C2,2*%
%TO.N,/GND*%
%TA.AperFunction,SMDPad,CuDef*%
G36*
G01*
X74945001Y-27967500D02*
X73644999Y-27967500D01*
G75*
G02*
X73395000Y-27717501I0J249999D01*
G01*
X73395000Y-26892499D01*
G75*
G02*
X73644999Y-26642500I249999J0D01*
G01*
X74945001Y-26642500D01*
G75*
G02*
X75195000Y-26892499I0J-249999D01*
G01*
X75195000Y-27717501D01*
G75*
G02*
X74945001Y-27967500I-249999J0D01*
G01*
G37*
%TD.AperFunction*%
%TO.P,C2,1*%
%TO.N,/VCC*%
%TA.AperFunction,SMDPad,CuDef*%
G36*
G01*
X74945001Y-31092500D02*
X73644999Y-31092500D01*
G75*
G02*
X73395000Y-30842501I0J249999D01*
G01*
X73395000Y-30017499D01*
G75*
G02*
X73644999Y-29767500I249999J0D01*
G01*
X74945001Y-29767500D01*
G75*
G02*
X75195000Y-30017499I0J-249999D01*
G01*
X75195000Y-30842501D01*
G75*
G02*
X74945001Y-31092500I-249999J0D01*
G01*
G37*
%TD.AperFunction*%
%TD*%
%TO.P,C1,2*%
%TO.N,/VCC*%
%TA.AperFunction,SMDPad,CuDef*%
G36*
G01*
X50430000Y-30495001D02*
X50430000Y-29194999D01*
G75*
G02*
X50679999Y-28945000I249999J0D01*
G01*
X51505001Y-28945000D01*
G75*
G02*
X51755000Y-29194999I0J-249999D01*
G01*
X51755000Y-30495001D01*
G75*
G02*
X51505001Y-30745000I-249999J0D01*
G01*
X50679999Y-30745000D01*
G75*
G02*
X50430000Y-30495001I0J249999D01*
G01*
G37*
%TD.AperFunction*%
%TO.P,C1,1*%
%TO.N,/GND*%
%TA.AperFunction,SMDPad,CuDef*%
G36*
G01*
X47305000Y-30495001D02*
X47305000Y-29194999D01*
G75*
G02*
X47554999Y-28945000I249999J0D01*
G01*
X48380001Y-28945000D01*
G75*
G02*
X48630000Y-29194999I0J-249999D01*
G01*
X48630000Y-30495001D01*
G75*
G02*
X48380001Y-30745000I-249999J0D01*
G01*
X47554999Y-30745000D01*
G75*
G02*
X47305000Y-30495001I0J249999D01*
G01*
G37*
%TD.AperFunction*%
%TD*%
D13*
%TO.P,U3,16*%
%TO.N,/GND*%
X46875000Y-48255000D03*
%TO.P,U3,8*%
X54495000Y-66035000D03*
%TO.P,U3,15*%
%TO.N,/serial_clk*%
X46875000Y-50795000D03*
%TO.P,U3,7*%
%TO.N,Net-(R9-Pad2)*%
X54495000Y-63495000D03*
%TO.P,U3,14*%
%TO.N,/d7*%
X46875000Y-53335000D03*
%TO.P,U3,6*%
%TO.N,/d3*%
X54495000Y-60955000D03*
%TO.P,U3,13*%
%TO.N,/d6*%
X46875000Y-55875000D03*
%TO.P,U3,5*%
%TO.N,/d2*%
X54495000Y-58415000D03*
%TO.P,U3,12*%
%TO.N,/d5*%
X46875000Y-58415000D03*
%TO.P,U3,4*%
%TO.N,/d1*%
X54495000Y-55875000D03*
%TO.P,U3,11*%
%TO.N,/d4*%
X46875000Y-60955000D03*
%TO.P,U3,3*%
%TO.N,/d0*%
X54495000Y-53335000D03*
%TO.P,U3,10*%
%TO.N,/r_clk*%
X46875000Y-63495000D03*
%TO.P,U3,2*%
%TO.N,/serial_in*%
X54495000Y-50795000D03*
%TO.P,U3,9*%
%TO.N,/serial_out*%
X46875000Y-66035000D03*
D14*
%TO.P,U3,1*%
%TO.N,/VCC*%
X54495000Y-48255000D03*
%TD*%
%TO.P,U1,1*%
%TO.N,/a4*%
X47510000Y-40000000D03*
D13*
%TO.P,U1,9*%
%TO.N,/s2*%
X29730000Y-32380000D03*
%TO.P,U1,2*%
%TO.N,/a6*%
X44970000Y-40000000D03*
%TO.P,U1,10*%
%TO.N,/s1*%
X32270000Y-32380000D03*
%TO.P,U1,3*%
%TO.N,/VCC*%
X42430000Y-40000000D03*
%TO.P,U1,11*%
%TO.N,/s0*%
X34810000Y-32380000D03*
%TO.P,U1,4*%
%TO.N,/a7*%
X39890000Y-40000000D03*
%TO.P,U1,12*%
%TO.N,/a3*%
X37350000Y-32380000D03*
%TO.P,U1,5*%
%TO.N,/a5*%
X37350000Y-40000000D03*
%TO.P,U1,13*%
%TO.N,/a0*%
X39890000Y-32380000D03*
%TO.P,U1,6*%
%TO.N,/GND*%
X34810000Y-40000000D03*
%TO.P,U1,14*%
%TO.N,/a1*%
X42430000Y-32380000D03*
%TO.P,U1,7*%
%TO.N,/GND*%
X32270000Y-40000000D03*
%TO.P,U1,15*%
%TO.N,/a2*%
X44970000Y-32380000D03*
%TO.P,U1,8*%
%TO.N,/GND*%
X29730000Y-40000000D03*
%TO.P,U1,16*%
%TO.N,/VCC*%
X47510000Y-32380000D03*
%TD*%
D15*
%TO.N,/b1*%
X41275000Y-50800000D03*
%TO.N,/b0*%
X43815000Y-46355000D03*
%TO.N,/serial_clk*%
X43815000Y-67945000D03*
%TO.N,/serial_in*%
X52705000Y-63500000D03*
%TO.N,/GND*%
X64770000Y-48260000D03*
X39370000Y-54610000D03*
X40640000Y-64135000D03*
X45085000Y-71755000D03*
X57150000Y-43815000D03*
X49530000Y-59690000D03*
X22225000Y-26670000D03*
%TO.N,/VCC*%
X60325000Y-60960000D03*
%TO.N,/serial_out*%
X50800000Y-63055001D03*
%TO.N,/d5*%
X45085000Y-48260000D03*
%TD*%
D16*
%TO.N,/c7*%
X25285000Y-62225000D02*
X28180000Y-62225000D01*
%TO.N,/c6*%
X28175000Y-59685000D02*
X28180000Y-59690000D01*
X25285000Y-59685000D02*
X28175000Y-59685000D01*
%TO.N,/b1*%
X41275000Y-50800000D02*
X38100000Y-50800000D01*
X38100000Y-50800000D02*
X31750000Y-57150000D01*
X31745000Y-57145000D02*
X25285000Y-57145000D01*
X31750000Y-57150000D02*
X31745000Y-57145000D01*
%TO.N,/c0*%
X25285000Y-54605000D02*
X28180000Y-54605000D01*
%TO.N,/b3*%
X60210000Y-46930002D02*
X57595003Y-49544999D01*
X60210000Y-40000000D02*
X60210000Y-46930002D01*
X45099999Y-49544999D02*
X44515010Y-48960010D01*
X57595003Y-49544999D02*
X45099999Y-49544999D01*
X44515010Y-48960010D02*
X34290000Y-48960010D01*
X31185010Y-52065000D02*
X25285000Y-52065000D01*
X34290000Y-48960010D02*
X31185010Y-52065000D01*
%TO.N,/c5*%
X28175000Y-49525000D02*
X28180000Y-49530000D01*
X25285000Y-49525000D02*
X28175000Y-49525000D01*
%TO.N,/c3*%
X24072999Y-63217999D02*
X27530000Y-66675000D01*
X24072999Y-48197001D02*
X24072999Y-63217999D01*
X27530000Y-66675000D02*
X28180000Y-66675000D01*
X25285000Y-46985000D02*
X24072999Y-48197001D01*
%TO.N,/b0*%
X25285000Y-44445000D02*
X28570000Y-44445000D01*
X28570000Y-44445000D02*
X30480000Y-46355000D01*
X30480000Y-46355000D02*
X43815000Y-46355000D01*
X43815000Y-46355000D02*
X43815000Y-46355000D01*
%TO.N,/b2*%
X61499999Y-40600001D02*
X62809998Y-41910000D01*
X61499999Y-39439997D02*
X61499999Y-40600001D01*
X58920001Y-38749999D02*
X60810001Y-38749999D01*
X60810001Y-38749999D02*
X61499999Y-39439997D01*
X57670000Y-40000000D02*
X58920001Y-38749999D01*
X68470000Y-41910000D02*
X71005000Y-44445000D01*
X62809998Y-41910000D02*
X68470000Y-41910000D01*
%TO.N,/b7*%
X70370000Y-40000000D02*
X70370000Y-41160000D01*
X70370000Y-41160000D02*
X73025000Y-43815000D01*
X73025000Y-50045000D02*
X71005000Y-52065000D01*
X73025000Y-43815000D02*
X73025000Y-50045000D01*
%TO.N,/c2*%
X67475000Y-54605000D02*
X71005000Y-54605000D01*
%TO.N,/c1*%
X71000000Y-57150000D02*
X71005000Y-57145000D01*
X67475000Y-57150000D02*
X71000000Y-57150000D01*
%TO.N,/b6*%
X70970001Y-38749999D02*
X69080001Y-38749999D01*
X71620001Y-39399999D02*
X70970001Y-38749999D01*
X69080001Y-38749999D02*
X67830000Y-40000000D01*
X71620001Y-40505001D02*
X71620001Y-39399999D01*
X73725010Y-42610010D02*
X71620001Y-40505001D01*
X73725010Y-56964990D02*
X73725010Y-42610010D01*
X71005000Y-59685000D02*
X73725010Y-56964990D01*
%TO.N,/b4*%
X72809991Y-38049989D02*
X64700011Y-38049989D01*
X74425020Y-39665018D02*
X72809991Y-38049989D01*
X74425020Y-58804980D02*
X74425020Y-39665018D01*
X64700011Y-38049989D02*
X62750000Y-40000000D01*
X71005000Y-62225000D02*
X74425020Y-58804980D01*
%TO.N,/r_clk*%
X39255000Y-71115000D02*
X46875000Y-63495000D01*
X39255000Y-81835000D02*
X39255000Y-71115000D01*
%TO.N,/serial_clk*%
X41795000Y-69965000D02*
X43815000Y-67945000D01*
X41795000Y-74815000D02*
X41795000Y-69965000D01*
X41795000Y-81835000D02*
X41795000Y-74815000D01*
X41795000Y-74815000D02*
X41795000Y-73775000D01*
%TO.N,/serial_in*%
X44335000Y-75680000D02*
X44335000Y-81835000D01*
X44335000Y-75045000D02*
X44335000Y-75680000D01*
X52705000Y-66675000D02*
X44335000Y-75045000D01*
X52705000Y-63500000D02*
X52705000Y-66675000D01*
%TO.N,/s2*%
X29730000Y-32380000D02*
X35440000Y-26670000D01*
X45040000Y-26670000D02*
X46875000Y-24835000D01*
X35440000Y-26670000D02*
X45040000Y-26670000D01*
%TO.N,/s1*%
X49415000Y-24835000D02*
X46879990Y-27370010D01*
X46879990Y-27370010D02*
X36129990Y-27370010D01*
X32270000Y-31230000D02*
X32270000Y-32380000D01*
X36129990Y-27370010D02*
X32270000Y-31230000D01*
%TO.N,/s0*%
X36419942Y-28070020D02*
X48719980Y-28070020D01*
X48719980Y-28070020D02*
X51955000Y-24835000D01*
X34810000Y-29679962D02*
X36419942Y-28070020D01*
X34810000Y-32380000D02*
X34810000Y-29679962D01*
%TO.N,/GND*%
X51677499Y-26135001D02*
X47967500Y-29845000D01*
X53194999Y-26135001D02*
X51677499Y-26135001D01*
X54495000Y-24835000D02*
X53194999Y-26135001D01*
%TO.N,/VCC*%
X72910000Y-32080035D02*
X72910000Y-32380000D01*
X42430000Y-40320000D02*
X42430000Y-40000000D01*
X54267500Y-48027500D02*
X54495000Y-48255000D01*
X54267500Y-45720000D02*
X54267500Y-48027500D01*
X60325000Y-78545000D02*
X57035000Y-81835000D01*
X60325000Y-60960000D02*
X60325000Y-78545000D01*
X57035000Y-24835000D02*
X65664964Y-24835000D01*
X69944982Y-29115018D02*
X72910000Y-32080035D01*
X65664964Y-24835000D02*
X69944982Y-29115018D01*
X68884965Y-28055000D02*
X69944982Y-29115018D01*
X54267500Y-45720000D02*
X53975000Y-45720000D01*
X53975000Y-45720000D02*
X50800000Y-42545000D01*
X50045000Y-29845000D02*
X47510000Y-32380000D01*
X51092500Y-29845000D02*
X50045000Y-29845000D01*
X52025000Y-29845000D02*
X51092500Y-29845000D01*
X57035000Y-24835000D02*
X52025000Y-29845000D01*
X44975000Y-42545000D02*
X50800000Y-42545000D01*
X42430000Y-40000000D02*
X44975000Y-42545000D01*
X72910000Y-31815000D02*
X74295000Y-30430000D01*
X72910000Y-32380000D02*
X72910000Y-31815000D01*
%TO.N,/serial_out*%
X50800000Y-63055001D02*
X47815001Y-66040000D01*
X46880000Y-66040000D02*
X46875000Y-66035000D01*
X47815001Y-66040000D02*
X46880000Y-66040000D01*
%TO.N,/d0*%
X54495000Y-53335000D02*
X53244999Y-52084999D01*
X31285000Y-54610000D02*
X31280000Y-54605000D01*
X35935001Y-49949999D02*
X31280000Y-54605000D01*
X41683001Y-49949999D02*
X35935001Y-49949999D01*
X43818001Y-52084999D02*
X41683001Y-49949999D01*
X53244999Y-52084999D02*
X43818001Y-52084999D01*
%TO.N,/d1*%
X63100000Y-55875000D02*
X64375000Y-57150000D01*
X54495000Y-55875000D02*
X63100000Y-55875000D01*
%TO.N,/d2*%
X53244999Y-57164999D02*
X54495000Y-58415000D01*
X53244999Y-55274999D02*
X53244999Y-57164999D01*
X53914998Y-54605000D02*
X53244999Y-55274999D01*
X64375000Y-54605000D02*
X53914998Y-54605000D01*
%TO.N,/d3*%
X53244999Y-62205001D02*
X54495000Y-60955000D01*
X41275000Y-66675000D02*
X45744999Y-62205001D01*
X45744999Y-62205001D02*
X53244999Y-62205001D01*
X31280000Y-66675000D02*
X41275000Y-66675000D01*
%TO.N,/d5*%
X32550000Y-48260000D02*
X31280000Y-49530000D01*
X45085000Y-48260000D02*
X32550000Y-48260000D01*
%TO.N,/d6*%
X43185000Y-55875000D02*
X46875000Y-55875000D01*
X39370000Y-59690000D02*
X43185000Y-55875000D01*
X31280000Y-59690000D02*
X39370000Y-59690000D01*
%TO.N,/d7*%
X47435003Y-59704999D02*
X42530001Y-59704999D01*
X48125001Y-54585001D02*
X48125001Y-59015001D01*
X48125001Y-59015001D02*
X47435003Y-59704999D01*
X46875000Y-53335000D02*
X48125001Y-54585001D01*
X40010000Y-62225000D02*
X31280000Y-62225000D01*
X42530001Y-59704999D02*
X40010000Y-62225000D01*
%TO.N,/a2*%
X44970000Y-32624963D02*
X44970000Y-32380000D01*
X46675048Y-34330011D02*
X44970000Y-32624963D01*
X55719989Y-34330011D02*
X46675048Y-34330011D01*
X57670000Y-32380000D02*
X55719989Y-34330011D01*
%TO.N,/a1*%
X46965001Y-33630001D02*
X46220001Y-32885001D01*
X43680001Y-31129999D02*
X42430000Y-32380000D01*
X46220001Y-32885001D02*
X46220001Y-31779999D01*
X53879999Y-33630001D02*
X46965001Y-33630001D01*
X55130000Y-32380000D02*
X53879999Y-33630001D01*
X46220001Y-31779999D02*
X45570001Y-31129999D01*
X45570001Y-31129999D02*
X43680001Y-31129999D01*
%TO.N,/a3*%
X40000021Y-35030021D02*
X37350000Y-32380000D01*
X57559979Y-35030021D02*
X40000021Y-35030021D01*
X60210000Y-32380000D02*
X57559979Y-35030021D01*
%TO.N,/a5*%
X65290000Y-32679965D02*
X65290000Y-32380000D01*
X60150068Y-36649969D02*
X60850078Y-35949959D01*
X43930029Y-36649969D02*
X60150068Y-36649969D01*
X37350000Y-40000000D02*
X38600001Y-41250001D01*
X41140001Y-39439997D02*
X43930029Y-36649969D01*
X41140001Y-40600001D02*
X41140001Y-39439997D01*
X62020006Y-35949959D02*
X65290000Y-32679965D01*
X38600001Y-41250001D02*
X40490001Y-41250001D01*
X60850078Y-35949959D02*
X62020006Y-35949959D01*
X40490001Y-41250001D02*
X41140001Y-40600001D01*
%TO.N,/a7*%
X39890000Y-38868630D02*
X39890000Y-40000000D01*
X59300041Y-35949959D02*
X42808671Y-35949959D01*
X64039999Y-32940003D02*
X61730053Y-35249949D01*
X42808671Y-35949959D02*
X39890000Y-38868630D01*
X60000051Y-35249949D02*
X59300041Y-35949959D01*
X64039999Y-31779999D02*
X64039999Y-32940003D01*
X61730053Y-35249949D02*
X60000051Y-35249949D01*
X64689999Y-31129999D02*
X64039999Y-31779999D01*
X69119999Y-31129999D02*
X64689999Y-31129999D01*
X70370000Y-32380000D02*
X69119999Y-31129999D01*
%TO.N,/a6*%
X67830000Y-32380000D02*
X63560031Y-36649969D01*
X61140031Y-36649969D02*
X60440021Y-37349979D01*
X63560031Y-36649969D02*
X61140031Y-36649969D01*
X47620021Y-37349979D02*
X44970000Y-40000000D01*
X60440021Y-37349979D02*
X47620021Y-37349979D01*
%TO.N,/a4*%
X71659999Y-31819997D02*
X71659999Y-32940003D01*
X71659999Y-32940003D02*
X67250023Y-37349979D01*
X62750000Y-32380000D02*
X62750000Y-30595000D01*
X69050002Y-29210000D02*
X71659999Y-31819997D01*
X64135000Y-29210000D02*
X69050002Y-29210000D01*
X62750000Y-30595000D02*
X64135000Y-29210000D01*
X61710021Y-37349979D02*
X61010011Y-38049989D01*
X67250023Y-37349979D02*
X61710021Y-37349979D01*
X49460011Y-38049989D02*
X47510000Y-40000000D01*
X61010011Y-38049989D02*
X49460011Y-38049989D01*
%TD*%
D17*
%TO.N,/GND*%
X77445001Y-82525000D02*
X58523072Y-82525000D01*
X58523072Y-81598506D01*
X60920049Y-79201530D01*
X60953817Y-79173817D01*
X61064411Y-79039059D01*
X61146589Y-78885314D01*
X61197195Y-78718490D01*
X61210000Y-78588477D01*
X61210000Y-78588469D01*
X61214281Y-78545000D01*
X61210000Y-78501531D01*
X61210000Y-61498454D01*
X61242205Y-61450256D01*
X61320226Y-61261898D01*
X61360000Y-61061939D01*
X61360000Y-60858061D01*
X61320226Y-60658102D01*
X61242205Y-60469744D01*
X61128937Y-60300226D01*
X60984774Y-60156063D01*
X60815256Y-60042795D01*
X60626898Y-59964774D01*
X60426939Y-59925000D01*
X60223061Y-59925000D01*
X60023102Y-59964774D01*
X59834744Y-60042795D01*
X59665226Y-60156063D01*
X59521063Y-60300226D01*
X59407795Y-60469744D01*
X59329774Y-60658102D01*
X59290000Y-60858061D01*
X59290000Y-61061939D01*
X59329774Y-61261898D01*
X59407795Y-61450256D01*
X59440000Y-61498454D01*
X59440001Y-78178420D01*
X57271494Y-80346928D01*
X56185000Y-80346928D01*
X56060518Y-80359188D01*
X55940820Y-80395498D01*
X55830506Y-80454463D01*
X55733815Y-80533815D01*
X55654463Y-80630506D01*
X55595498Y-80740820D01*
X55571034Y-80821466D01*
X55495269Y-80737412D01*
X55261920Y-80563359D01*
X54999099Y-80438175D01*
X54851890Y-80393524D01*
X54622000Y-80514845D01*
X54622000Y-81708000D01*
X54642000Y-81708000D01*
X54642000Y-81962000D01*
X54622000Y-81962000D01*
X54622000Y-81982000D01*
X54368000Y-81982000D01*
X54368000Y-81962000D01*
X54348000Y-81962000D01*
X54348000Y-81708000D01*
X54368000Y-81708000D01*
X54368000Y-80514845D01*
X54138110Y-80393524D01*
X53990901Y-80438175D01*
X53728080Y-80563359D01*
X53494731Y-80737412D01*
X53299822Y-80953645D01*
X53230195Y-81070534D01*
X53108475Y-80888368D01*
X52901632Y-80681525D01*
X52658411Y-80519010D01*
X52388158Y-80407068D01*
X52101260Y-80350000D01*
X51808740Y-80350000D01*
X51521842Y-80407068D01*
X51251589Y-80519010D01*
X51008368Y-80681525D01*
X50801525Y-80888368D01*
X50685000Y-81062760D01*
X50568475Y-80888368D01*
X50361632Y-80681525D01*
X50118411Y-80519010D01*
X49848158Y-80407068D01*
X49561260Y-80350000D01*
X49268740Y-80350000D01*
X48981842Y-80407068D01*
X48711589Y-80519010D01*
X48468368Y-80681525D01*
X48261525Y-80888368D01*
X48145000Y-81062760D01*
X48028475Y-80888368D01*
X47821632Y-80681525D01*
X47578411Y-80519010D01*
X47308158Y-80407068D01*
X47021260Y-80350000D01*
X46728740Y-80350000D01*
X46441842Y-80407068D01*
X46171589Y-80519010D01*
X45928368Y-80681525D01*
X45721525Y-80888368D01*
X45605000Y-81062760D01*
X45488475Y-80888368D01*
X45281632Y-80681525D01*
X45220000Y-80640344D01*
X45220000Y-75411578D01*
X53300049Y-67331530D01*
X53333817Y-67303817D01*
X53444411Y-67169059D01*
X53501623Y-67062021D01*
X53639869Y-67187385D01*
X53881119Y-67332070D01*
X54145960Y-67426909D01*
X54368000Y-67305624D01*
X54368000Y-66162000D01*
X54622000Y-66162000D01*
X54622000Y-67305624D01*
X54844040Y-67426909D01*
X55108881Y-67332070D01*
X55350131Y-67187385D01*
X55558519Y-66998414D01*
X55726037Y-66772420D01*
X55846246Y-66518087D01*
X55886904Y-66384039D01*
X55764915Y-66162000D01*
X54622000Y-66162000D01*
X54368000Y-66162000D01*
X54348000Y-66162000D01*
X54348000Y-65908000D01*
X54368000Y-65908000D01*
X54368000Y-65888000D01*
X54622000Y-65888000D01*
X54622000Y-65908000D01*
X55764915Y-65908000D01*
X55886904Y-65685961D01*
X55846246Y-65551913D01*
X55726037Y-65297580D01*
X55558519Y-65071586D01*
X55350131Y-64882615D01*
X55164135Y-64771067D01*
X55174727Y-64766680D01*
X55409759Y-64609637D01*
X55609637Y-64409759D01*
X55766680Y-64174727D01*
X55874853Y-63913574D01*
X55930000Y-63636335D01*
X55930000Y-63353665D01*
X55874853Y-63076426D01*
X55766680Y-62815273D01*
X55609637Y-62580241D01*
X55409759Y-62380363D01*
X55177241Y-62225000D01*
X55409759Y-62069637D01*
X55609637Y-61869759D01*
X55766680Y-61634727D01*
X55874853Y-61373574D01*
X55930000Y-61096335D01*
X55930000Y-60813665D01*
X55874853Y-60536426D01*
X55766680Y-60275273D01*
X55609637Y-60040241D01*
X55409759Y-59840363D01*
X55177241Y-59685000D01*
X55409759Y-59529637D01*
X55609637Y-59329759D01*
X55766680Y-59094727D01*
X55874853Y-58833574D01*
X55930000Y-58556335D01*
X55930000Y-58273665D01*
X55874853Y-57996426D01*
X55766680Y-57735273D01*
X55609637Y-57500241D01*
X55409759Y-57300363D01*
X55177241Y-57145000D01*
X55409759Y-56989637D01*
X55609637Y-56789759D01*
X55629521Y-56760000D01*
X62733422Y-56760000D01*
X63086928Y-57113506D01*
X63086928Y-57775000D01*
X63103992Y-57948254D01*
X63154528Y-58114850D01*
X63236595Y-58268386D01*
X63347038Y-58402962D01*
X63481614Y-58513405D01*
X63635150Y-58595472D01*
X63801746Y-58646008D01*
X63975000Y-58663072D01*
X64775000Y-58663072D01*
X64948254Y-58646008D01*
X65114850Y-58595472D01*
X65268386Y-58513405D01*
X65402962Y-58402962D01*
X65513405Y-58268386D01*
X65595472Y-58114850D01*
X65646008Y-57948254D01*
X65663072Y-57775000D01*
X65663072Y-56525000D01*
X65646008Y-56351746D01*
X65595472Y-56185150D01*
X65513405Y-56031614D01*
X65402962Y-55897038D01*
X65379155Y-55877500D01*
X65402962Y-55857962D01*
X65513405Y-55723386D01*
X65595472Y-55569850D01*
X65646008Y-55403254D01*
X65663072Y-55230000D01*
X65663072Y-53980000D01*
X65646008Y-53806746D01*
X65595472Y-53640150D01*
X65513405Y-53486614D01*
X65402962Y-53352038D01*
X65268386Y-53241595D01*
X65114850Y-53159528D01*
X64948254Y-53108992D01*
X64775000Y-53091928D01*
X63975000Y-53091928D01*
X63801746Y-53108992D01*
X63635150Y-53159528D01*
X63481614Y-53241595D01*
X63347038Y-53352038D01*
X63236595Y-53486614D01*
X63154528Y-53640150D01*
X63130306Y-53720000D01*
X55881531Y-53720000D01*
X55930000Y-53476335D01*
X55930000Y-53193665D01*
X55874853Y-52916426D01*
X55766680Y-52655273D01*
X55609637Y-52420241D01*
X55409759Y-52220363D01*
X55177241Y-52065000D01*
X55409759Y-51909637D01*
X55609637Y-51709759D01*
X55766680Y-51474727D01*
X55874853Y-51213574D01*
X55930000Y-50936335D01*
X55930000Y-50653665D01*
X55885509Y-50429999D01*
X57551534Y-50429999D01*
X57595003Y-50434280D01*
X57638472Y-50429999D01*
X57638480Y-50429999D01*
X57768493Y-50417194D01*
X57935316Y-50366588D01*
X58089062Y-50284410D01*
X58223820Y-50173816D01*
X58251537Y-50140043D01*
X60805049Y-47586532D01*
X60838817Y-47558819D01*
X60872662Y-47517580D01*
X60949410Y-47424062D01*
X60949411Y-47424061D01*
X61031589Y-47270315D01*
X61082195Y-47103492D01*
X61095000Y-46973479D01*
X61095000Y-46973469D01*
X61099281Y-46930003D01*
X61095000Y-46886537D01*
X61095000Y-41446580D01*
X62153468Y-42505049D01*
X62181181Y-42538817D01*
X62214949Y-42566530D01*
X62214951Y-42566532D01*
X62267928Y-42610009D01*
X62315939Y-42649411D01*
X62469685Y-42731589D01*
X62636508Y-42782195D01*
X62766521Y-42795000D01*
X62766531Y-42795000D01*
X62809997Y-42799281D01*
X62853463Y-42795000D01*
X68103422Y-42795000D01*
X69609299Y-44300878D01*
X69608000Y-44307408D01*
X69608000Y-44582592D01*
X69661686Y-44852490D01*
X69766995Y-45106727D01*
X69919880Y-45335535D01*
X70114465Y-45530120D01*
X70343273Y-45683005D01*
X70420515Y-45715000D01*
X70343273Y-45746995D01*
X70114465Y-45899880D01*
X69919880Y-46094465D01*
X69766995Y-46323273D01*
X69661686Y-46577510D01*
X69608000Y-46847408D01*
X69608000Y-47122592D01*
X69661686Y-47392490D01*
X69766995Y-47646727D01*
X69919880Y-47875535D01*
X70114465Y-48070120D01*
X70343273Y-48223005D01*
X70420515Y-48255000D01*
X70343273Y-48286995D01*
X70114465Y-48439880D01*
X69919880Y-48634465D01*
X69766995Y-48863273D01*
X69661686Y-49117510D01*
X69608000Y-49387408D01*
X69608000Y-49662592D01*
X69661686Y-49932490D01*
X69766995Y-50186727D01*
X69919880Y-50415535D01*
X70114465Y-50610120D01*
X70343273Y-50763005D01*
X70420515Y-50795000D01*
X70343273Y-50826995D01*
X70114465Y-50979880D01*
X69919880Y-51174465D01*
X69766995Y-51403273D01*
X69661686Y-51657510D01*
X69608000Y-51927408D01*
X69608000Y-52202592D01*
X69661686Y-52472490D01*
X69766995Y-52726727D01*
X69919880Y-52955535D01*
X70114465Y-53150120D01*
X70343273Y-53303005D01*
X70420515Y-53335000D01*
X70343273Y-53366995D01*
X70114465Y-53519880D01*
X69919880Y-53714465D01*
X69916182Y-53720000D01*
X68719694Y-53720000D01*
X68695472Y-53640150D01*
X68613405Y-53486614D01*
X68502962Y-53352038D01*
X68368386Y-53241595D01*
X68214850Y-53159528D01*
X68048254Y-53108992D01*
X67875000Y-53091928D01*
X67075000Y-53091928D01*
X66901746Y-53108992D01*
X66735150Y-53159528D01*
X66581614Y-53241595D01*
X66447038Y-53352038D01*
X66336595Y-53486614D01*
X66254528Y-53640150D01*
X66203992Y-53806746D01*
X66186928Y-53980000D01*
X66186928Y-55230000D01*
X66203992Y-55403254D01*
X66254528Y-55569850D01*
X66336595Y-55723386D01*
X66447038Y-55857962D01*
X66470845Y-55877500D01*
X66447038Y-55897038D01*
X66336595Y-56031614D01*
X66254528Y-56185150D01*
X66203992Y-56351746D01*
X66186928Y-56525000D01*
X66186928Y-57775000D01*
X66203992Y-57948254D01*
X66254528Y-58114850D01*
X66336595Y-58268386D01*
X66447038Y-58402962D01*
X66581614Y-58513405D01*
X66735150Y-58595472D01*
X66901746Y-58646008D01*
X67075000Y-58663072D01*
X67875000Y-58663072D01*
X68048254Y-58646008D01*
X68214850Y-58595472D01*
X68368386Y-58513405D01*
X68502962Y-58402962D01*
X68613405Y-58268386D01*
X68695472Y-58114850D01*
X68719694Y-58035000D01*
X69919523Y-58035000D01*
X69919880Y-58035535D01*
X70114465Y-58230120D01*
X70343273Y-58383005D01*
X70420515Y-58415000D01*
X70343273Y-58446995D01*
X70114465Y-58599880D01*
X69919880Y-58794465D01*
X69766995Y-59023273D01*
X69661686Y-59277510D01*
X69608000Y-59547408D01*
X69608000Y-59822592D01*
X69661686Y-60092490D01*
X69766995Y-60346727D01*
X69919880Y-60575535D01*
X70114465Y-60770120D01*
X70343273Y-60923005D01*
X70420515Y-60955000D01*
X70343273Y-60986995D01*
X70114465Y-61139880D01*
X69919880Y-61334465D01*
X69766995Y-61563273D01*
X69661686Y-61817510D01*
X69608000Y-62087408D01*
X69608000Y-62362592D01*
X69661686Y-62632490D01*
X69766995Y-62886727D01*
X69919880Y-63115535D01*
X70114465Y-63310120D01*
X70343273Y-63463005D01*
X70597510Y-63568314D01*
X70867408Y-63622000D01*
X71142592Y-63622000D01*
X71412490Y-63568314D01*
X71666727Y-63463005D01*
X71895535Y-63310120D01*
X72090120Y-63115535D01*
X72243005Y-62886727D01*
X72348314Y-62632490D01*
X72402000Y-62362592D01*
X72402000Y-62087408D01*
X72400701Y-62080877D01*
X75020070Y-59461509D01*
X75053837Y-59433797D01*
X75110556Y-59364686D01*
X75164431Y-59299039D01*
X75246609Y-59145294D01*
X75297215Y-58978470D01*
X75306577Y-58883410D01*
X75310020Y-58848457D01*
X75310020Y-58848449D01*
X75314301Y-58804980D01*
X75310020Y-58761511D01*
X75310020Y-39708487D01*
X75314301Y-39665018D01*
X75310020Y-39621549D01*
X75310020Y-39621541D01*
X75297215Y-39491528D01*
X75246609Y-39324705D01*
X75164431Y-39170959D01*
X75114992Y-39110718D01*
X75081552Y-39069971D01*
X75081550Y-39069969D01*
X75053837Y-39036201D01*
X75020069Y-39008488D01*
X73466523Y-37454943D01*
X73438808Y-37421172D01*
X73304050Y-37310578D01*
X73150304Y-37228400D01*
X72983481Y-37177794D01*
X72853468Y-37164989D01*
X72853460Y-37164989D01*
X72809991Y-37160708D01*
X72766522Y-37164989D01*
X68686591Y-37164989D01*
X72212066Y-33639515D01*
X72230273Y-33651680D01*
X72491426Y-33759853D01*
X72768665Y-33815000D01*
X73051335Y-33815000D01*
X73328574Y-33759853D01*
X73589727Y-33651680D01*
X73824759Y-33494637D01*
X74024637Y-33294759D01*
X74181680Y-33059727D01*
X74289853Y-32798574D01*
X74345000Y-32521335D01*
X74345000Y-32238665D01*
X74289853Y-31961426D01*
X74209395Y-31767183D01*
X74246007Y-31730572D01*
X74945001Y-31730572D01*
X75118255Y-31713508D01*
X75284851Y-31662972D01*
X75438387Y-31580905D01*
X75572962Y-31470462D01*
X75683405Y-31335887D01*
X75765472Y-31182351D01*
X75816008Y-31015755D01*
X75833072Y-30842501D01*
X75833072Y-30017499D01*
X75816008Y-29844245D01*
X75765472Y-29677649D01*
X75683405Y-29524113D01*
X75572962Y-29389538D01*
X75438387Y-29279095D01*
X75284851Y-29197028D01*
X75118255Y-29146492D01*
X74945001Y-29129428D01*
X73644999Y-29129428D01*
X73471745Y-29146492D01*
X73305149Y-29197028D01*
X73151613Y-29279095D01*
X73017038Y-29389538D01*
X72906595Y-29524113D01*
X72824528Y-29677649D01*
X72773992Y-29844245D01*
X72756928Y-30017499D01*
X72756928Y-30675385D01*
X70601518Y-28519976D01*
X70601514Y-28519971D01*
X70049043Y-27967500D01*
X72756928Y-27967500D01*
X72769188Y-28091982D01*
X72805498Y-28211680D01*
X72864463Y-28321994D01*
X72943815Y-28418685D01*
X73040506Y-28498037D01*
X73150820Y-28557002D01*
X73270518Y-28593312D01*
X73395000Y-28605572D01*
X74009250Y-28602500D01*
X74168000Y-28443750D01*
X74168000Y-27432000D01*
X74422000Y-27432000D01*
X74422000Y-28443750D01*
X74580750Y-28602500D01*
X75195000Y-28605572D01*
X75319482Y-28593312D01*
X75439180Y-28557002D01*
X75549494Y-28498037D01*
X75646185Y-28418685D01*
X75725537Y-28321994D01*
X75784502Y-28211680D01*
X75820812Y-28091982D01*
X75833072Y-27967500D01*
X75830000Y-27590750D01*
X75671250Y-27432000D01*
X74422000Y-27432000D01*
X74168000Y-27432000D01*
X72918750Y-27432000D01*
X72760000Y-27590750D01*
X72756928Y-27967500D01*
X70049043Y-27967500D01*
X68724043Y-26642500D01*
X72756928Y-26642500D01*
X72760000Y-27019250D01*
X72918750Y-27178000D01*
X74168000Y-27178000D01*
X74168000Y-26166250D01*
X74422000Y-26166250D01*
X74422000Y-27178000D01*
X75671250Y-27178000D01*
X75830000Y-27019250D01*
X75833072Y-26642500D01*
X75820812Y-26518018D01*
X75784502Y-26398320D01*
X75725537Y-26288006D01*
X75646185Y-26191315D01*
X75549494Y-26111963D01*
X75439180Y-26052998D01*
X75319482Y-26016688D01*
X75195000Y-26004428D01*
X74580750Y-26007500D01*
X74422000Y-26166250D01*
X74168000Y-26166250D01*
X74009250Y-26007500D01*
X73395000Y-26004428D01*
X73270518Y-26016688D01*
X73150820Y-26052998D01*
X73040506Y-26111963D01*
X72943815Y-26191315D01*
X72864463Y-26288006D01*
X72805498Y-26398320D01*
X72769188Y-26518018D01*
X72756928Y-26642500D01*
X68724043Y-26642500D01*
X66321498Y-24239956D01*
X66293781Y-24206183D01*
X66231415Y-24155000D01*
X77445000Y-24155000D01*
X77445001Y-82525000D01*
%TA.AperFunction,Conductor*%
D18*
G36*
X77445001Y-82525000D02*
G01*
X58523072Y-82525000D01*
X58523072Y-81598506D01*
X60920049Y-79201530D01*
X60953817Y-79173817D01*
X61064411Y-79039059D01*
X61146589Y-78885314D01*
X61197195Y-78718490D01*
X61210000Y-78588477D01*
X61210000Y-78588469D01*
X61214281Y-78545000D01*
X61210000Y-78501531D01*
X61210000Y-61498454D01*
X61242205Y-61450256D01*
X61320226Y-61261898D01*
X61360000Y-61061939D01*
X61360000Y-60858061D01*
X61320226Y-60658102D01*
X61242205Y-60469744D01*
X61128937Y-60300226D01*
X60984774Y-60156063D01*
X60815256Y-60042795D01*
X60626898Y-59964774D01*
X60426939Y-59925000D01*
X60223061Y-59925000D01*
X60023102Y-59964774D01*
X59834744Y-60042795D01*
X59665226Y-60156063D01*
X59521063Y-60300226D01*
X59407795Y-60469744D01*
X59329774Y-60658102D01*
X59290000Y-60858061D01*
X59290000Y-61061939D01*
X59329774Y-61261898D01*
X59407795Y-61450256D01*
X59440000Y-61498454D01*
X59440001Y-78178420D01*
X57271494Y-80346928D01*
X56185000Y-80346928D01*
X56060518Y-80359188D01*
X55940820Y-80395498D01*
X55830506Y-80454463D01*
X55733815Y-80533815D01*
X55654463Y-80630506D01*
X55595498Y-80740820D01*
X55571034Y-80821466D01*
X55495269Y-80737412D01*
X55261920Y-80563359D01*
X54999099Y-80438175D01*
X54851890Y-80393524D01*
X54622000Y-80514845D01*
X54622000Y-81708000D01*
X54642000Y-81708000D01*
X54642000Y-81962000D01*
X54622000Y-81962000D01*
X54622000Y-81982000D01*
X54368000Y-81982000D01*
X54368000Y-81962000D01*
X54348000Y-81962000D01*
X54348000Y-81708000D01*
X54368000Y-81708000D01*
X54368000Y-80514845D01*
X54138110Y-80393524D01*
X53990901Y-80438175D01*
X53728080Y-80563359D01*
X53494731Y-80737412D01*
X53299822Y-80953645D01*
X53230195Y-81070534D01*
X53108475Y-80888368D01*
X52901632Y-80681525D01*
X52658411Y-80519010D01*
X52388158Y-80407068D01*
X52101260Y-80350000D01*
X51808740Y-80350000D01*
X51521842Y-80407068D01*
X51251589Y-80519010D01*
X51008368Y-80681525D01*
X50801525Y-80888368D01*
X50685000Y-81062760D01*
X50568475Y-80888368D01*
X50361632Y-80681525D01*
X50118411Y-80519010D01*
X49848158Y-80407068D01*
X49561260Y-80350000D01*
X49268740Y-80350000D01*
X48981842Y-80407068D01*
X48711589Y-80519010D01*
X48468368Y-80681525D01*
X48261525Y-80888368D01*
X48145000Y-81062760D01*
X48028475Y-80888368D01*
X47821632Y-80681525D01*
X47578411Y-80519010D01*
X47308158Y-80407068D01*
X47021260Y-80350000D01*
X46728740Y-80350000D01*
X46441842Y-80407068D01*
X46171589Y-80519010D01*
X45928368Y-80681525D01*
X45721525Y-80888368D01*
X45605000Y-81062760D01*
X45488475Y-80888368D01*
X45281632Y-80681525D01*
X45220000Y-80640344D01*
X45220000Y-75411578D01*
X53300049Y-67331530D01*
X53333817Y-67303817D01*
X53444411Y-67169059D01*
X53501623Y-67062021D01*
X53639869Y-67187385D01*
X53881119Y-67332070D01*
X54145960Y-67426909D01*
X54368000Y-67305624D01*
X54368000Y-66162000D01*
X54622000Y-66162000D01*
X54622000Y-67305624D01*
X54844040Y-67426909D01*
X55108881Y-67332070D01*
X55350131Y-67187385D01*
X55558519Y-66998414D01*
X55726037Y-66772420D01*
X55846246Y-66518087D01*
X55886904Y-66384039D01*
X55764915Y-66162000D01*
X54622000Y-66162000D01*
X54368000Y-66162000D01*
X54348000Y-66162000D01*
X54348000Y-65908000D01*
X54368000Y-65908000D01*
X54368000Y-65888000D01*
X54622000Y-65888000D01*
X54622000Y-65908000D01*
X55764915Y-65908000D01*
X55886904Y-65685961D01*
X55846246Y-65551913D01*
X55726037Y-65297580D01*
X55558519Y-65071586D01*
X55350131Y-64882615D01*
X55164135Y-64771067D01*
X55174727Y-64766680D01*
X55409759Y-64609637D01*
X55609637Y-64409759D01*
X55766680Y-64174727D01*
X55874853Y-63913574D01*
X55930000Y-63636335D01*
X55930000Y-63353665D01*
X55874853Y-63076426D01*
X55766680Y-62815273D01*
X55609637Y-62580241D01*
X55409759Y-62380363D01*
X55177241Y-62225000D01*
X55409759Y-62069637D01*
X55609637Y-61869759D01*
X55766680Y-61634727D01*
X55874853Y-61373574D01*
X55930000Y-61096335D01*
X55930000Y-60813665D01*
X55874853Y-60536426D01*
X55766680Y-60275273D01*
X55609637Y-60040241D01*
X55409759Y-59840363D01*
X55177241Y-59685000D01*
X55409759Y-59529637D01*
X55609637Y-59329759D01*
X55766680Y-59094727D01*
X55874853Y-58833574D01*
X55930000Y-58556335D01*
X55930000Y-58273665D01*
X55874853Y-57996426D01*
X55766680Y-57735273D01*
X55609637Y-57500241D01*
X55409759Y-57300363D01*
X55177241Y-57145000D01*
X55409759Y-56989637D01*
X55609637Y-56789759D01*
X55629521Y-56760000D01*
X62733422Y-56760000D01*
X63086928Y-57113506D01*
X63086928Y-57775000D01*
X63103992Y-57948254D01*
X63154528Y-58114850D01*
X63236595Y-58268386D01*
X63347038Y-58402962D01*
X63481614Y-58513405D01*
X63635150Y-58595472D01*
X63801746Y-58646008D01*
X63975000Y-58663072D01*
X64775000Y-58663072D01*
X64948254Y-58646008D01*
X65114850Y-58595472D01*
X65268386Y-58513405D01*
X65402962Y-58402962D01*
X65513405Y-58268386D01*
X65595472Y-58114850D01*
X65646008Y-57948254D01*
X65663072Y-57775000D01*
X65663072Y-56525000D01*
X65646008Y-56351746D01*
X65595472Y-56185150D01*
X65513405Y-56031614D01*
X65402962Y-55897038D01*
X65379155Y-55877500D01*
X65402962Y-55857962D01*
X65513405Y-55723386D01*
X65595472Y-55569850D01*
X65646008Y-55403254D01*
X65663072Y-55230000D01*
X65663072Y-53980000D01*
X65646008Y-53806746D01*
X65595472Y-53640150D01*
X65513405Y-53486614D01*
X65402962Y-53352038D01*
X65268386Y-53241595D01*
X65114850Y-53159528D01*
X64948254Y-53108992D01*
X64775000Y-53091928D01*
X63975000Y-53091928D01*
X63801746Y-53108992D01*
X63635150Y-53159528D01*
X63481614Y-53241595D01*
X63347038Y-53352038D01*
X63236595Y-53486614D01*
X63154528Y-53640150D01*
X63130306Y-53720000D01*
X55881531Y-53720000D01*
X55930000Y-53476335D01*
X55930000Y-53193665D01*
X55874853Y-52916426D01*
X55766680Y-52655273D01*
X55609637Y-52420241D01*
X55409759Y-52220363D01*
X55177241Y-52065000D01*
X55409759Y-51909637D01*
X55609637Y-51709759D01*
X55766680Y-51474727D01*
X55874853Y-51213574D01*
X55930000Y-50936335D01*
X55930000Y-50653665D01*
X55885509Y-50429999D01*
X57551534Y-50429999D01*
X57595003Y-50434280D01*
X57638472Y-50429999D01*
X57638480Y-50429999D01*
X57768493Y-50417194D01*
X57935316Y-50366588D01*
X58089062Y-50284410D01*
X58223820Y-50173816D01*
X58251537Y-50140043D01*
X60805049Y-47586532D01*
X60838817Y-47558819D01*
X60872662Y-47517580D01*
X60949410Y-47424062D01*
X60949411Y-47424061D01*
X61031589Y-47270315D01*
X61082195Y-47103492D01*
X61095000Y-46973479D01*
X61095000Y-46973469D01*
X61099281Y-46930003D01*
X61095000Y-46886537D01*
X61095000Y-41446580D01*
X62153468Y-42505049D01*
X62181181Y-42538817D01*
X62214949Y-42566530D01*
X62214951Y-42566532D01*
X62267928Y-42610009D01*
X62315939Y-42649411D01*
X62469685Y-42731589D01*
X62636508Y-42782195D01*
X62766521Y-42795000D01*
X62766531Y-42795000D01*
X62809997Y-42799281D01*
X62853463Y-42795000D01*
X68103422Y-42795000D01*
X69609299Y-44300878D01*
X69608000Y-44307408D01*
X69608000Y-44582592D01*
X69661686Y-44852490D01*
X69766995Y-45106727D01*
X69919880Y-45335535D01*
X70114465Y-45530120D01*
X70343273Y-45683005D01*
X70420515Y-45715000D01*
X70343273Y-45746995D01*
X70114465Y-45899880D01*
X69919880Y-46094465D01*
X69766995Y-46323273D01*
X69661686Y-46577510D01*
X69608000Y-46847408D01*
X69608000Y-47122592D01*
X69661686Y-47392490D01*
X69766995Y-47646727D01*
X69919880Y-47875535D01*
X70114465Y-48070120D01*
X70343273Y-48223005D01*
X70420515Y-48255000D01*
X70343273Y-48286995D01*
X70114465Y-48439880D01*
X69919880Y-48634465D01*
X69766995Y-48863273D01*
X69661686Y-49117510D01*
X69608000Y-49387408D01*
X69608000Y-49662592D01*
X69661686Y-49932490D01*
X69766995Y-50186727D01*
X69919880Y-50415535D01*
X70114465Y-50610120D01*
X70343273Y-50763005D01*
X70420515Y-50795000D01*
X70343273Y-50826995D01*
X70114465Y-50979880D01*
X69919880Y-51174465D01*
X69766995Y-51403273D01*
X69661686Y-51657510D01*
X69608000Y-51927408D01*
X69608000Y-52202592D01*
X69661686Y-52472490D01*
X69766995Y-52726727D01*
X69919880Y-52955535D01*
X70114465Y-53150120D01*
X70343273Y-53303005D01*
X70420515Y-53335000D01*
X70343273Y-53366995D01*
X70114465Y-53519880D01*
X69919880Y-53714465D01*
X69916182Y-53720000D01*
X68719694Y-53720000D01*
X68695472Y-53640150D01*
X68613405Y-53486614D01*
X68502962Y-53352038D01*
X68368386Y-53241595D01*
X68214850Y-53159528D01*
X68048254Y-53108992D01*
X67875000Y-53091928D01*
X67075000Y-53091928D01*
X66901746Y-53108992D01*
X66735150Y-53159528D01*
X66581614Y-53241595D01*
X66447038Y-53352038D01*
X66336595Y-53486614D01*
X66254528Y-53640150D01*
X66203992Y-53806746D01*
X66186928Y-53980000D01*
X66186928Y-55230000D01*
X66203992Y-55403254D01*
X66254528Y-55569850D01*
X66336595Y-55723386D01*
X66447038Y-55857962D01*
X66470845Y-55877500D01*
X66447038Y-55897038D01*
X66336595Y-56031614D01*
X66254528Y-56185150D01*
X66203992Y-56351746D01*
X66186928Y-56525000D01*
X66186928Y-57775000D01*
X66203992Y-57948254D01*
X66254528Y-58114850D01*
X66336595Y-58268386D01*
X66447038Y-58402962D01*
X66581614Y-58513405D01*
X66735150Y-58595472D01*
X66901746Y-58646008D01*
X67075000Y-58663072D01*
X67875000Y-58663072D01*
X68048254Y-58646008D01*
X68214850Y-58595472D01*
X68368386Y-58513405D01*
X68502962Y-58402962D01*
X68613405Y-58268386D01*
X68695472Y-58114850D01*
X68719694Y-58035000D01*
X69919523Y-58035000D01*
X69919880Y-58035535D01*
X70114465Y-58230120D01*
X70343273Y-58383005D01*
X70420515Y-58415000D01*
X70343273Y-58446995D01*
X70114465Y-58599880D01*
X69919880Y-58794465D01*
X69766995Y-59023273D01*
X69661686Y-59277510D01*
X69608000Y-59547408D01*
X69608000Y-59822592D01*
X69661686Y-60092490D01*
X69766995Y-60346727D01*
X69919880Y-60575535D01*
X70114465Y-60770120D01*
X70343273Y-60923005D01*
X70420515Y-60955000D01*
X70343273Y-60986995D01*
X70114465Y-61139880D01*
X69919880Y-61334465D01*
X69766995Y-61563273D01*
X69661686Y-61817510D01*
X69608000Y-62087408D01*
X69608000Y-62362592D01*
X69661686Y-62632490D01*
X69766995Y-62886727D01*
X69919880Y-63115535D01*
X70114465Y-63310120D01*
X70343273Y-63463005D01*
X70597510Y-63568314D01*
X70867408Y-63622000D01*
X71142592Y-63622000D01*
X71412490Y-63568314D01*
X71666727Y-63463005D01*
X71895535Y-63310120D01*
X72090120Y-63115535D01*
X72243005Y-62886727D01*
X72348314Y-62632490D01*
X72402000Y-62362592D01*
X72402000Y-62087408D01*
X72400701Y-62080877D01*
X75020070Y-59461509D01*
X75053837Y-59433797D01*
X75110556Y-59364686D01*
X75164431Y-59299039D01*
X75246609Y-59145294D01*
X75297215Y-58978470D01*
X75306577Y-58883410D01*
X75310020Y-58848457D01*
X75310020Y-58848449D01*
X75314301Y-58804980D01*
X75310020Y-58761511D01*
X75310020Y-39708487D01*
X75314301Y-39665018D01*
X75310020Y-39621549D01*
X75310020Y-39621541D01*
X75297215Y-39491528D01*
X75246609Y-39324705D01*
X75164431Y-39170959D01*
X75114992Y-39110718D01*
X75081552Y-39069971D01*
X75081550Y-39069969D01*
X75053837Y-39036201D01*
X75020069Y-39008488D01*
X73466523Y-37454943D01*
X73438808Y-37421172D01*
X73304050Y-37310578D01*
X73150304Y-37228400D01*
X72983481Y-37177794D01*
X72853468Y-37164989D01*
X72853460Y-37164989D01*
X72809991Y-37160708D01*
X72766522Y-37164989D01*
X68686591Y-37164989D01*
X72212066Y-33639515D01*
X72230273Y-33651680D01*
X72491426Y-33759853D01*
X72768665Y-33815000D01*
X73051335Y-33815000D01*
X73328574Y-33759853D01*
X73589727Y-33651680D01*
X73824759Y-33494637D01*
X74024637Y-33294759D01*
X74181680Y-33059727D01*
X74289853Y-32798574D01*
X74345000Y-32521335D01*
X74345000Y-32238665D01*
X74289853Y-31961426D01*
X74209395Y-31767183D01*
X74246007Y-31730572D01*
X74945001Y-31730572D01*
X75118255Y-31713508D01*
X75284851Y-31662972D01*
X75438387Y-31580905D01*
X75572962Y-31470462D01*
X75683405Y-31335887D01*
X75765472Y-31182351D01*
X75816008Y-31015755D01*
X75833072Y-30842501D01*
X75833072Y-30017499D01*
X75816008Y-29844245D01*
X75765472Y-29677649D01*
X75683405Y-29524113D01*
X75572962Y-29389538D01*
X75438387Y-29279095D01*
X75284851Y-29197028D01*
X75118255Y-29146492D01*
X74945001Y-29129428D01*
X73644999Y-29129428D01*
X73471745Y-29146492D01*
X73305149Y-29197028D01*
X73151613Y-29279095D01*
X73017038Y-29389538D01*
X72906595Y-29524113D01*
X72824528Y-29677649D01*
X72773992Y-29844245D01*
X72756928Y-30017499D01*
X72756928Y-30675385D01*
X70601518Y-28519976D01*
X70601514Y-28519971D01*
X70049043Y-27967500D01*
X72756928Y-27967500D01*
X72769188Y-28091982D01*
X72805498Y-28211680D01*
X72864463Y-28321994D01*
X72943815Y-28418685D01*
X73040506Y-28498037D01*
X73150820Y-28557002D01*
X73270518Y-28593312D01*
X73395000Y-28605572D01*
X74009250Y-28602500D01*
X74168000Y-28443750D01*
X74168000Y-27432000D01*
X74422000Y-27432000D01*
X74422000Y-28443750D01*
X74580750Y-28602500D01*
X75195000Y-28605572D01*
X75319482Y-28593312D01*
X75439180Y-28557002D01*
X75549494Y-28498037D01*
X75646185Y-28418685D01*
X75725537Y-28321994D01*
X75784502Y-28211680D01*
X75820812Y-28091982D01*
X75833072Y-27967500D01*
X75830000Y-27590750D01*
X75671250Y-27432000D01*
X74422000Y-27432000D01*
X74168000Y-27432000D01*
X72918750Y-27432000D01*
X72760000Y-27590750D01*
X72756928Y-27967500D01*
X70049043Y-27967500D01*
X68724043Y-26642500D01*
X72756928Y-26642500D01*
X72760000Y-27019250D01*
X72918750Y-27178000D01*
X74168000Y-27178000D01*
X74168000Y-26166250D01*
X74422000Y-26166250D01*
X74422000Y-27178000D01*
X75671250Y-27178000D01*
X75830000Y-27019250D01*
X75833072Y-26642500D01*
X75820812Y-26518018D01*
X75784502Y-26398320D01*
X75725537Y-26288006D01*
X75646185Y-26191315D01*
X75549494Y-26111963D01*
X75439180Y-26052998D01*
X75319482Y-26016688D01*
X75195000Y-26004428D01*
X74580750Y-26007500D01*
X74422000Y-26166250D01*
X74168000Y-26166250D01*
X74009250Y-26007500D01*
X73395000Y-26004428D01*
X73270518Y-26016688D01*
X73150820Y-26052998D01*
X73040506Y-26111963D01*
X72943815Y-26191315D01*
X72864463Y-26288006D01*
X72805498Y-26398320D01*
X72769188Y-26518018D01*
X72756928Y-26642500D01*
X68724043Y-26642500D01*
X66321498Y-24239956D01*
X66293781Y-24206183D01*
X66231415Y-24155000D01*
X77445000Y-24155000D01*
X77445001Y-82525000D01*
G37*
%TD.AperFunction*%
D17*
X37827068Y-24401842D02*
X37770000Y-24688740D01*
X37770000Y-24981260D01*
X37827068Y-25268158D01*
X37939010Y-25538411D01*
X38101525Y-25781632D01*
X38104893Y-25785000D01*
X35483465Y-25785000D01*
X35439999Y-25780719D01*
X35396533Y-25785000D01*
X35396523Y-25785000D01*
X35266510Y-25797805D01*
X35099687Y-25848411D01*
X34945941Y-25930589D01*
X34945939Y-25930590D01*
X34945940Y-25930590D01*
X34844953Y-26013468D01*
X34844951Y-26013470D01*
X34811183Y-26041183D01*
X34783470Y-26074951D01*
X29906439Y-30951983D01*
X29871335Y-30945000D01*
X29588665Y-30945000D01*
X29311426Y-31000147D01*
X29050273Y-31108320D01*
X28815241Y-31265363D01*
X28615363Y-31465241D01*
X28458320Y-31700273D01*
X28350147Y-31961426D01*
X28295000Y-32238665D01*
X28295000Y-32521335D01*
X28350147Y-32798574D01*
X28458320Y-33059727D01*
X28615363Y-33294759D01*
X28815241Y-33494637D01*
X29050273Y-33651680D01*
X29311426Y-33759853D01*
X29588665Y-33815000D01*
X29871335Y-33815000D01*
X30148574Y-33759853D01*
X30409727Y-33651680D01*
X30644759Y-33494637D01*
X30844637Y-33294759D01*
X31000000Y-33062241D01*
X31155363Y-33294759D01*
X31355241Y-33494637D01*
X31590273Y-33651680D01*
X31851426Y-33759853D01*
X32128665Y-33815000D01*
X32411335Y-33815000D01*
X32688574Y-33759853D01*
X32949727Y-33651680D01*
X33184759Y-33494637D01*
X33384637Y-33294759D01*
X33540000Y-33062241D01*
X33695363Y-33294759D01*
X33895241Y-33494637D01*
X34130273Y-33651680D01*
X34391426Y-33759853D01*
X34668665Y-33815000D01*
X34951335Y-33815000D01*
X35228574Y-33759853D01*
X35489727Y-33651680D01*
X35724759Y-33494637D01*
X35924637Y-33294759D01*
X36080000Y-33062241D01*
X36235363Y-33294759D01*
X36435241Y-33494637D01*
X36670273Y-33651680D01*
X36931426Y-33759853D01*
X37208665Y-33815000D01*
X37491335Y-33815000D01*
X37526439Y-33808017D01*
X39343491Y-35625070D01*
X39371204Y-35658838D01*
X39404972Y-35686551D01*
X39404974Y-35686553D01*
X39505962Y-35769432D01*
X39659707Y-35851610D01*
X39826531Y-35902216D01*
X39956544Y-35915021D01*
X39956552Y-35915021D01*
X40000021Y-35919302D01*
X40043490Y-35915021D01*
X41592030Y-35915021D01*
X39294956Y-38212096D01*
X39261183Y-38239813D01*
X39150589Y-38374572D01*
X39068411Y-38528318D01*
X39017805Y-38695141D01*
X39005000Y-38825154D01*
X39005000Y-38825161D01*
X39000750Y-38868319D01*
X38975241Y-38885363D01*
X38775363Y-39085241D01*
X38620000Y-39317759D01*
X38464637Y-39085241D01*
X38264759Y-38885363D01*
X38029727Y-38728320D01*
X37768574Y-38620147D01*
X37491335Y-38565000D01*
X37208665Y-38565000D01*
X36931426Y-38620147D01*
X36670273Y-38728320D01*
X36435241Y-38885363D01*
X36235363Y-39085241D01*
X36078320Y-39320273D01*
X36073933Y-39330865D01*
X35962385Y-39144869D01*
X35773414Y-38936481D01*
X35547420Y-38768963D01*
X35293087Y-38648754D01*
X35159039Y-38608096D01*
X34937000Y-38730085D01*
X34937000Y-39873000D01*
X34957000Y-39873000D01*
X34957000Y-40127000D01*
X34937000Y-40127000D01*
X34937000Y-41269915D01*
X35159039Y-41391904D01*
X35293087Y-41351246D01*
X35547420Y-41231037D01*
X35773414Y-41063519D01*
X35962385Y-40855131D01*
X36073933Y-40669135D01*
X36078320Y-40679727D01*
X36235363Y-40914759D01*
X36435241Y-41114637D01*
X36670273Y-41271680D01*
X36931426Y-41379853D01*
X37208665Y-41435000D01*
X37491335Y-41435000D01*
X37526439Y-41428017D01*
X37943471Y-41845050D01*
X37971184Y-41878818D01*
X38004952Y-41906531D01*
X38004954Y-41906533D01*
X38009179Y-41910000D01*
X38105942Y-41989412D01*
X38259688Y-42071590D01*
X38426511Y-42122196D01*
X38556524Y-42135001D01*
X38556534Y-42135001D01*
X38600000Y-42139282D01*
X38643466Y-42135001D01*
X40446532Y-42135001D01*
X40490001Y-42139282D01*
X40533470Y-42135001D01*
X40533478Y-42135001D01*
X40663491Y-42122196D01*
X40830314Y-42071590D01*
X40984060Y-41989412D01*
X41118818Y-41878818D01*
X41146535Y-41845045D01*
X41732066Y-41259515D01*
X41750273Y-41271680D01*
X42011426Y-41379853D01*
X42288665Y-41435000D01*
X42571335Y-41435000D01*
X42606439Y-41428017D01*
X44318470Y-43140049D01*
X44346183Y-43173817D01*
X44379951Y-43201530D01*
X44379953Y-43201532D01*
X44480941Y-43284411D01*
X44634686Y-43366589D01*
X44801510Y-43417195D01*
X44931523Y-43430000D01*
X44931531Y-43430000D01*
X44975000Y-43434281D01*
X45018469Y-43430000D01*
X50433422Y-43430000D01*
X51308336Y-44304914D01*
X51269500Y-44343750D01*
X51269500Y-45593000D01*
X52281250Y-45593000D01*
X52438836Y-45435414D01*
X52966928Y-45963507D01*
X52966928Y-46370001D01*
X52983992Y-46543255D01*
X53034528Y-46709851D01*
X53116595Y-46863387D01*
X53227038Y-46997962D01*
X53239933Y-47008545D01*
X53164463Y-47100506D01*
X53105498Y-47210820D01*
X53069188Y-47330518D01*
X53056928Y-47455000D01*
X53056928Y-48659999D01*
X48249931Y-48659999D01*
X48266904Y-48604039D01*
X48144915Y-48382000D01*
X47002000Y-48382000D01*
X47002000Y-48402000D01*
X46748000Y-48402000D01*
X46748000Y-48382000D01*
X46728000Y-48382000D01*
X46728000Y-48128000D01*
X46748000Y-48128000D01*
X46748000Y-46984376D01*
X47002000Y-46984376D01*
X47002000Y-48128000D01*
X48144915Y-48128000D01*
X48266904Y-47905961D01*
X48226246Y-47771913D01*
X48106037Y-47517580D01*
X47938519Y-47291586D01*
X47730131Y-47102615D01*
X47488881Y-46957930D01*
X47224040Y-46863091D01*
X47002000Y-46984376D01*
X46748000Y-46984376D01*
X46525960Y-46863091D01*
X46261119Y-46957930D01*
X46019869Y-47102615D01*
X45811481Y-47291586D01*
X45707850Y-47431391D01*
X45575256Y-47342795D01*
X45386898Y-47264774D01*
X45186939Y-47225000D01*
X44983061Y-47225000D01*
X44783102Y-47264774D01*
X44594744Y-47342795D01*
X44546546Y-47375000D01*
X43992350Y-47375000D01*
X44116898Y-47350226D01*
X44305256Y-47272205D01*
X44474774Y-47158937D01*
X44618937Y-47014774D01*
X44732205Y-46845256D01*
X44810226Y-46656898D01*
X44817565Y-46620000D01*
X49841928Y-46620000D01*
X49854188Y-46744482D01*
X49890498Y-46864180D01*
X49949463Y-46974494D01*
X50028815Y-47071185D01*
X50125506Y-47150537D01*
X50235820Y-47209502D01*
X50355518Y-47245812D01*
X50480000Y-47258072D01*
X50856750Y-47255000D01*
X51015500Y-47096250D01*
X51015500Y-45847000D01*
X51269500Y-45847000D01*
X51269500Y-47096250D01*
X51428250Y-47255000D01*
X51805000Y-47258072D01*
X51929482Y-47245812D01*
X52049180Y-47209502D01*
X52159494Y-47150537D01*
X52256185Y-47071185D01*
X52335537Y-46974494D01*
X52394502Y-46864180D01*
X52430812Y-46744482D01*
X52443072Y-46620000D01*
X52440000Y-46005750D01*
X52281250Y-45847000D01*
X51269500Y-45847000D01*
X51015500Y-45847000D01*
X50003750Y-45847000D01*
X49845000Y-46005750D01*
X49841928Y-46620000D01*
X44817565Y-46620000D01*
X44850000Y-46456939D01*
X44850000Y-46253061D01*
X44810226Y-46053102D01*
X44732205Y-45864744D01*
X44618937Y-45695226D01*
X44474774Y-45551063D01*
X44305256Y-45437795D01*
X44116898Y-45359774D01*
X43916939Y-45320000D01*
X43713061Y-45320000D01*
X43513102Y-45359774D01*
X43324744Y-45437795D01*
X43276546Y-45470000D01*
X30846579Y-45470000D01*
X30196579Y-44820000D01*
X49841928Y-44820000D01*
X49845000Y-45434250D01*
X50003750Y-45593000D01*
X51015500Y-45593000D01*
X51015500Y-44343750D01*
X50856750Y-44185000D01*
X50480000Y-44181928D01*
X50355518Y-44194188D01*
X50235820Y-44230498D01*
X50125506Y-44289463D01*
X50028815Y-44368815D01*
X49949463Y-44465506D01*
X49890498Y-44575820D01*
X49854188Y-44695518D01*
X49841928Y-44820000D01*
X30196579Y-44820000D01*
X29226534Y-43849956D01*
X29198817Y-43816183D01*
X29064059Y-43705589D01*
X28910313Y-43623411D01*
X28743490Y-43572805D01*
X28613477Y-43560000D01*
X28613469Y-43560000D01*
X28570000Y-43555719D01*
X28526531Y-43560000D01*
X26373818Y-43560000D01*
X26370120Y-43554465D01*
X26175535Y-43359880D01*
X25946727Y-43206995D01*
X25692490Y-43101686D01*
X25422592Y-43048000D01*
X25147408Y-43048000D01*
X24877510Y-43101686D01*
X24623273Y-43206995D01*
X24394465Y-43359880D01*
X24199880Y-43554465D01*
X24046995Y-43783273D01*
X23941686Y-44037510D01*
X23888000Y-44307408D01*
X23888000Y-44582592D01*
X23941686Y-44852490D01*
X24046995Y-45106727D01*
X24199880Y-45335535D01*
X24394465Y-45530120D01*
X24623273Y-45683005D01*
X24700515Y-45715000D01*
X24623273Y-45746995D01*
X24394465Y-45899880D01*
X24199880Y-46094465D01*
X24046995Y-46323273D01*
X23941686Y-46577510D01*
X23888000Y-46847408D01*
X23888000Y-47122592D01*
X23889299Y-47129123D01*
X23477955Y-47540467D01*
X23444182Y-47568184D01*
X23333588Y-47702943D01*
X23251410Y-47856689D01*
X23200804Y-48023512D01*
X23187999Y-48153525D01*
X23187999Y-48153532D01*
X23183718Y-48197001D01*
X23187999Y-48240470D01*
X23188000Y-63174520D01*
X23183718Y-63217999D01*
X23200804Y-63391489D01*
X23251411Y-63558312D01*
X23333589Y-63712058D01*
X23416467Y-63813045D01*
X23416470Y-63813048D01*
X23444183Y-63846816D01*
X23477950Y-63874528D01*
X26873468Y-67270047D01*
X26891928Y-67292540D01*
X26891928Y-67300000D01*
X26908992Y-67473254D01*
X26959528Y-67639850D01*
X27041595Y-67793386D01*
X27152038Y-67927962D01*
X27286614Y-68038405D01*
X27440150Y-68120472D01*
X27606746Y-68171008D01*
X27780000Y-68188072D01*
X28580000Y-68188072D01*
X28753254Y-68171008D01*
X28919850Y-68120472D01*
X29073386Y-68038405D01*
X29207962Y-67927962D01*
X29318405Y-67793386D01*
X29400472Y-67639850D01*
X29451008Y-67473254D01*
X29468072Y-67300000D01*
X29468072Y-66050000D01*
X29451008Y-65876746D01*
X29400472Y-65710150D01*
X29318405Y-65556614D01*
X29207962Y-65422038D01*
X29073386Y-65311595D01*
X28919850Y-65229528D01*
X28753254Y-65178992D01*
X28580000Y-65161928D01*
X27780000Y-65161928D01*
X27606746Y-65178992D01*
X27440150Y-65229528D01*
X27372348Y-65265769D01*
X25677812Y-63571234D01*
X25692490Y-63568314D01*
X25946727Y-63463005D01*
X26175535Y-63310120D01*
X26370120Y-63115535D01*
X26373818Y-63110000D01*
X26935306Y-63110000D01*
X26959528Y-63189850D01*
X27041595Y-63343386D01*
X27152038Y-63477962D01*
X27286614Y-63588405D01*
X27440150Y-63670472D01*
X27606746Y-63721008D01*
X27780000Y-63738072D01*
X28580000Y-63738072D01*
X28753254Y-63721008D01*
X28919850Y-63670472D01*
X29073386Y-63588405D01*
X29207962Y-63477962D01*
X29318405Y-63343386D01*
X29400472Y-63189850D01*
X29451008Y-63023254D01*
X29468072Y-62850000D01*
X29468072Y-61600000D01*
X29451008Y-61426746D01*
X29400472Y-61260150D01*
X29318405Y-61106614D01*
X29207962Y-60972038D01*
X29190247Y-60957500D01*
X29207962Y-60942962D01*
X29318405Y-60808386D01*
X29400472Y-60654850D01*
X29451008Y-60488254D01*
X29468072Y-60315000D01*
X29468072Y-59065000D01*
X29451008Y-58891746D01*
X29400472Y-58725150D01*
X29318405Y-58571614D01*
X29207962Y-58437038D01*
X29073386Y-58326595D01*
X28919850Y-58244528D01*
X28753254Y-58193992D01*
X28580000Y-58176928D01*
X27780000Y-58176928D01*
X27606746Y-58193992D01*
X27440150Y-58244528D01*
X27286614Y-58326595D01*
X27152038Y-58437038D01*
X27041595Y-58571614D01*
X26959528Y-58725150D01*
X26936823Y-58800000D01*
X26373818Y-58800000D01*
X26370120Y-58794465D01*
X26175535Y-58599880D01*
X25946727Y-58446995D01*
X25869485Y-58415000D01*
X25946727Y-58383005D01*
X26175535Y-58230120D01*
X26370120Y-58035535D01*
X26373818Y-58030000D01*
X31655761Y-58030000D01*
X31728809Y-58037194D01*
X31749999Y-58039281D01*
X31750000Y-58039281D01*
X31923490Y-58022195D01*
X32090313Y-57971588D01*
X32244059Y-57889410D01*
X32345046Y-57806532D01*
X32378817Y-57778817D01*
X32406532Y-57745046D01*
X38466579Y-51685000D01*
X40736546Y-51685000D01*
X40784744Y-51717205D01*
X40973102Y-51795226D01*
X41173061Y-51835000D01*
X41376939Y-51835000D01*
X41576898Y-51795226D01*
X41765256Y-51717205D01*
X41934774Y-51603937D01*
X42010067Y-51528644D01*
X43161471Y-52680048D01*
X43189184Y-52713816D01*
X43222952Y-52741529D01*
X43222954Y-52741531D01*
X43294453Y-52800209D01*
X43323942Y-52824410D01*
X43477688Y-52906588D01*
X43578584Y-52937195D01*
X43644510Y-52957194D01*
X43659307Y-52958651D01*
X43774524Y-52969999D01*
X43774532Y-52969999D01*
X43818001Y-52974280D01*
X43861470Y-52969999D01*
X45484491Y-52969999D01*
X45440000Y-53193665D01*
X45440000Y-53476335D01*
X45495147Y-53753574D01*
X45603320Y-54014727D01*
X45760363Y-54249759D01*
X45960241Y-54449637D01*
X46192759Y-54605000D01*
X45960241Y-54760363D01*
X45760363Y-54960241D01*
X45740479Y-54990000D01*
X43228469Y-54990000D01*
X43185000Y-54985719D01*
X43141531Y-54990000D01*
X43141523Y-54990000D01*
X43011510Y-55002805D01*
X42844687Y-55053411D01*
X42759285Y-55099059D01*
X42690941Y-55135589D01*
X42589953Y-55218468D01*
X42589951Y-55218470D01*
X42556183Y-55246183D01*
X42528470Y-55279951D01*
X39003422Y-58805000D01*
X32524694Y-58805000D01*
X32500472Y-58725150D01*
X32418405Y-58571614D01*
X32307962Y-58437038D01*
X32173386Y-58326595D01*
X32019850Y-58244528D01*
X31853254Y-58193992D01*
X31680000Y-58176928D01*
X30880000Y-58176928D01*
X30706746Y-58193992D01*
X30540150Y-58244528D01*
X30386614Y-58326595D01*
X30252038Y-58437038D01*
X30141595Y-58571614D01*
X30059528Y-58725150D01*
X30008992Y-58891746D01*
X29991928Y-59065000D01*
X29991928Y-60315000D01*
X30008992Y-60488254D01*
X30059528Y-60654850D01*
X30141595Y-60808386D01*
X30252038Y-60942962D01*
X30269753Y-60957500D01*
X30252038Y-60972038D01*
X30141595Y-61106614D01*
X30059528Y-61260150D01*
X30008992Y-61426746D01*
X29991928Y-61600000D01*
X29991928Y-62850000D01*
X30008992Y-63023254D01*
X30059528Y-63189850D01*
X30141595Y-63343386D01*
X30252038Y-63477962D01*
X30386614Y-63588405D01*
X30540150Y-63670472D01*
X30706746Y-63721008D01*
X30880000Y-63738072D01*
X31680000Y-63738072D01*
X31853254Y-63721008D01*
X32019850Y-63670472D01*
X32173386Y-63588405D01*
X32307962Y-63477962D01*
X32418405Y-63343386D01*
X32500472Y-63189850D01*
X32524694Y-63110000D01*
X39966531Y-63110000D01*
X40010000Y-63114281D01*
X40053469Y-63110000D01*
X40053477Y-63110000D01*
X40183490Y-63097195D01*
X40350313Y-63046589D01*
X40504059Y-62964411D01*
X40638817Y-62853817D01*
X40666534Y-62820044D01*
X42896580Y-60589999D01*
X45484491Y-60589999D01*
X45440000Y-60813665D01*
X45440000Y-61096335D01*
X45491845Y-61356972D01*
X45404686Y-61383412D01*
X45250940Y-61465590D01*
X45250938Y-61465591D01*
X45250939Y-61465591D01*
X45149952Y-61548469D01*
X45149950Y-61548471D01*
X45116182Y-61576184D01*
X45088469Y-61609952D01*
X40908422Y-65790000D01*
X32524694Y-65790000D01*
X32500472Y-65710150D01*
X32418405Y-65556614D01*
X32307962Y-65422038D01*
X32173386Y-65311595D01*
X32019850Y-65229528D01*
X31853254Y-65178992D01*
X31680000Y-65161928D01*
X30880000Y-65161928D01*
X30706746Y-65178992D01*
X30540150Y-65229528D01*
X30386614Y-65311595D01*
X30252038Y-65422038D01*
X30141595Y-65556614D01*
X30059528Y-65710150D01*
X30008992Y-65876746D01*
X29991928Y-66050000D01*
X29991928Y-67300000D01*
X30008992Y-67473254D01*
X30059528Y-67639850D01*
X30141595Y-67793386D01*
X30252038Y-67927962D01*
X30386614Y-68038405D01*
X30540150Y-68120472D01*
X30706746Y-68171008D01*
X30880000Y-68188072D01*
X31680000Y-68188072D01*
X31853254Y-68171008D01*
X32019850Y-68120472D01*
X32173386Y-68038405D01*
X32307962Y-67927962D01*
X32418405Y-67793386D01*
X32500472Y-67639850D01*
X32524694Y-67560000D01*
X41231531Y-67560000D01*
X41275000Y-67564281D01*
X41318469Y-67560000D01*
X41318477Y-67560000D01*
X41448490Y-67547195D01*
X41615313Y-67496589D01*
X41629319Y-67489103D01*
X38659952Y-70458470D01*
X38626184Y-70486183D01*
X38598471Y-70519951D01*
X38598468Y-70519954D01*
X38515590Y-70620941D01*
X38433412Y-70774687D01*
X38382805Y-70941510D01*
X38365719Y-71115000D01*
X38370001Y-71158479D01*
X38370000Y-80640344D01*
X38308368Y-80681525D01*
X38101525Y-80888368D01*
X37939010Y-81131589D01*
X37827068Y-81401842D01*
X37770000Y-81688740D01*
X37770000Y-81981260D01*
X37827068Y-82268158D01*
X37933455Y-82525000D01*
X19075000Y-82525000D01*
X19075000Y-40349040D01*
X28338091Y-40349040D01*
X28432930Y-40613881D01*
X28577615Y-40855131D01*
X28766586Y-41063519D01*
X28992580Y-41231037D01*
X29246913Y-41351246D01*
X29380961Y-41391904D01*
X29603000Y-41269915D01*
X29603000Y-40127000D01*
X29857000Y-40127000D01*
X29857000Y-41269915D01*
X30079039Y-41391904D01*
X30213087Y-41351246D01*
X30467420Y-41231037D01*
X30693414Y-41063519D01*
X30882385Y-40855131D01*
X31000000Y-40659018D01*
X31117615Y-40855131D01*
X31306586Y-41063519D01*
X31532580Y-41231037D01*
X31786913Y-41351246D01*
X31920961Y-41391904D01*
X32143000Y-41269915D01*
X32143000Y-40127000D01*
X32397000Y-40127000D01*
X32397000Y-41269915D01*
X32619039Y-41391904D01*
X32753087Y-41351246D01*
X33007420Y-41231037D01*
X33233414Y-41063519D01*
X33422385Y-40855131D01*
X33540000Y-40659018D01*
X33657615Y-40855131D01*
X33846586Y-41063519D01*
X34072580Y-41231037D01*
X34326913Y-41351246D01*
X34460961Y-41391904D01*
X34683000Y-41269915D01*
X34683000Y-40127000D01*
X32397000Y-40127000D01*
X32143000Y-40127000D01*
X29857000Y-40127000D01*
X29603000Y-40127000D01*
X28459376Y-40127000D01*
X28338091Y-40349040D01*
X19075000Y-40349040D01*
X19075000Y-39650960D01*
X28338091Y-39650960D01*
X28459376Y-39873000D01*
X29603000Y-39873000D01*
X29603000Y-38730085D01*
X29857000Y-38730085D01*
X29857000Y-39873000D01*
X32143000Y-39873000D01*
X32143000Y-38730085D01*
X32397000Y-38730085D01*
X32397000Y-39873000D01*
X34683000Y-39873000D01*
X34683000Y-38730085D01*
X34460961Y-38608096D01*
X34326913Y-38648754D01*
X34072580Y-38768963D01*
X33846586Y-38936481D01*
X33657615Y-39144869D01*
X33540000Y-39340982D01*
X33422385Y-39144869D01*
X33233414Y-38936481D01*
X33007420Y-38768963D01*
X32753087Y-38648754D01*
X32619039Y-38608096D01*
X32397000Y-38730085D01*
X32143000Y-38730085D01*
X31920961Y-38608096D01*
X31786913Y-38648754D01*
X31532580Y-38768963D01*
X31306586Y-38936481D01*
X31117615Y-39144869D01*
X31000000Y-39340982D01*
X30882385Y-39144869D01*
X30693414Y-38936481D01*
X30467420Y-38768963D01*
X30213087Y-38648754D01*
X30079039Y-38608096D01*
X29857000Y-38730085D01*
X29603000Y-38730085D01*
X29380961Y-38608096D01*
X29246913Y-38648754D01*
X28992580Y-38768963D01*
X28766586Y-38936481D01*
X28577615Y-39144869D01*
X28432930Y-39386119D01*
X28338091Y-39650960D01*
X19075000Y-39650960D01*
X19075000Y-24155000D01*
X37929313Y-24155000D01*
X37827068Y-24401842D01*
%TA.AperFunction,Conductor*%
D18*
G36*
X37827068Y-24401842D02*
G01*
X37770000Y-24688740D01*
X37770000Y-24981260D01*
X37827068Y-25268158D01*
X37939010Y-25538411D01*
X38101525Y-25781632D01*
X38104893Y-25785000D01*
X35483465Y-25785000D01*
X35439999Y-25780719D01*
X35396533Y-25785000D01*
X35396523Y-25785000D01*
X35266510Y-25797805D01*
X35099687Y-25848411D01*
X34945941Y-25930589D01*
X34945939Y-25930590D01*
X34945940Y-25930590D01*
X34844953Y-26013468D01*
X34844951Y-26013470D01*
X34811183Y-26041183D01*
X34783470Y-26074951D01*
X29906439Y-30951983D01*
X29871335Y-30945000D01*
X29588665Y-30945000D01*
X29311426Y-31000147D01*
X29050273Y-31108320D01*
X28815241Y-31265363D01*
X28615363Y-31465241D01*
X28458320Y-31700273D01*
X28350147Y-31961426D01*
X28295000Y-32238665D01*
X28295000Y-32521335D01*
X28350147Y-32798574D01*
X28458320Y-33059727D01*
X28615363Y-33294759D01*
X28815241Y-33494637D01*
X29050273Y-33651680D01*
X29311426Y-33759853D01*
X29588665Y-33815000D01*
X29871335Y-33815000D01*
X30148574Y-33759853D01*
X30409727Y-33651680D01*
X30644759Y-33494637D01*
X30844637Y-33294759D01*
X31000000Y-33062241D01*
X31155363Y-33294759D01*
X31355241Y-33494637D01*
X31590273Y-33651680D01*
X31851426Y-33759853D01*
X32128665Y-33815000D01*
X32411335Y-33815000D01*
X32688574Y-33759853D01*
X32949727Y-33651680D01*
X33184759Y-33494637D01*
X33384637Y-33294759D01*
X33540000Y-33062241D01*
X33695363Y-33294759D01*
X33895241Y-33494637D01*
X34130273Y-33651680D01*
X34391426Y-33759853D01*
X34668665Y-33815000D01*
X34951335Y-33815000D01*
X35228574Y-33759853D01*
X35489727Y-33651680D01*
X35724759Y-33494637D01*
X35924637Y-33294759D01*
X36080000Y-33062241D01*
X36235363Y-33294759D01*
X36435241Y-33494637D01*
X36670273Y-33651680D01*
X36931426Y-33759853D01*
X37208665Y-33815000D01*
X37491335Y-33815000D01*
X37526439Y-33808017D01*
X39343491Y-35625070D01*
X39371204Y-35658838D01*
X39404972Y-35686551D01*
X39404974Y-35686553D01*
X39505962Y-35769432D01*
X39659707Y-35851610D01*
X39826531Y-35902216D01*
X39956544Y-35915021D01*
X39956552Y-35915021D01*
X40000021Y-35919302D01*
X40043490Y-35915021D01*
X41592030Y-35915021D01*
X39294956Y-38212096D01*
X39261183Y-38239813D01*
X39150589Y-38374572D01*
X39068411Y-38528318D01*
X39017805Y-38695141D01*
X39005000Y-38825154D01*
X39005000Y-38825161D01*
X39000750Y-38868319D01*
X38975241Y-38885363D01*
X38775363Y-39085241D01*
X38620000Y-39317759D01*
X38464637Y-39085241D01*
X38264759Y-38885363D01*
X38029727Y-38728320D01*
X37768574Y-38620147D01*
X37491335Y-38565000D01*
X37208665Y-38565000D01*
X36931426Y-38620147D01*
X36670273Y-38728320D01*
X36435241Y-38885363D01*
X36235363Y-39085241D01*
X36078320Y-39320273D01*
X36073933Y-39330865D01*
X35962385Y-39144869D01*
X35773414Y-38936481D01*
X35547420Y-38768963D01*
X35293087Y-38648754D01*
X35159039Y-38608096D01*
X34937000Y-38730085D01*
X34937000Y-39873000D01*
X34957000Y-39873000D01*
X34957000Y-40127000D01*
X34937000Y-40127000D01*
X34937000Y-41269915D01*
X35159039Y-41391904D01*
X35293087Y-41351246D01*
X35547420Y-41231037D01*
X35773414Y-41063519D01*
X35962385Y-40855131D01*
X36073933Y-40669135D01*
X36078320Y-40679727D01*
X36235363Y-40914759D01*
X36435241Y-41114637D01*
X36670273Y-41271680D01*
X36931426Y-41379853D01*
X37208665Y-41435000D01*
X37491335Y-41435000D01*
X37526439Y-41428017D01*
X37943471Y-41845050D01*
X37971184Y-41878818D01*
X38004952Y-41906531D01*
X38004954Y-41906533D01*
X38009179Y-41910000D01*
X38105942Y-41989412D01*
X38259688Y-42071590D01*
X38426511Y-42122196D01*
X38556524Y-42135001D01*
X38556534Y-42135001D01*
X38600000Y-42139282D01*
X38643466Y-42135001D01*
X40446532Y-42135001D01*
X40490001Y-42139282D01*
X40533470Y-42135001D01*
X40533478Y-42135001D01*
X40663491Y-42122196D01*
X40830314Y-42071590D01*
X40984060Y-41989412D01*
X41118818Y-41878818D01*
X41146535Y-41845045D01*
X41732066Y-41259515D01*
X41750273Y-41271680D01*
X42011426Y-41379853D01*
X42288665Y-41435000D01*
X42571335Y-41435000D01*
X42606439Y-41428017D01*
X44318470Y-43140049D01*
X44346183Y-43173817D01*
X44379951Y-43201530D01*
X44379953Y-43201532D01*
X44480941Y-43284411D01*
X44634686Y-43366589D01*
X44801510Y-43417195D01*
X44931523Y-43430000D01*
X44931531Y-43430000D01*
X44975000Y-43434281D01*
X45018469Y-43430000D01*
X50433422Y-43430000D01*
X51308336Y-44304914D01*
X51269500Y-44343750D01*
X51269500Y-45593000D01*
X52281250Y-45593000D01*
X52438836Y-45435414D01*
X52966928Y-45963507D01*
X52966928Y-46370001D01*
X52983992Y-46543255D01*
X53034528Y-46709851D01*
X53116595Y-46863387D01*
X53227038Y-46997962D01*
X53239933Y-47008545D01*
X53164463Y-47100506D01*
X53105498Y-47210820D01*
X53069188Y-47330518D01*
X53056928Y-47455000D01*
X53056928Y-48659999D01*
X48249931Y-48659999D01*
X48266904Y-48604039D01*
X48144915Y-48382000D01*
X47002000Y-48382000D01*
X47002000Y-48402000D01*
X46748000Y-48402000D01*
X46748000Y-48382000D01*
X46728000Y-48382000D01*
X46728000Y-48128000D01*
X46748000Y-48128000D01*
X46748000Y-46984376D01*
X47002000Y-46984376D01*
X47002000Y-48128000D01*
X48144915Y-48128000D01*
X48266904Y-47905961D01*
X48226246Y-47771913D01*
X48106037Y-47517580D01*
X47938519Y-47291586D01*
X47730131Y-47102615D01*
X47488881Y-46957930D01*
X47224040Y-46863091D01*
X47002000Y-46984376D01*
X46748000Y-46984376D01*
X46525960Y-46863091D01*
X46261119Y-46957930D01*
X46019869Y-47102615D01*
X45811481Y-47291586D01*
X45707850Y-47431391D01*
X45575256Y-47342795D01*
X45386898Y-47264774D01*
X45186939Y-47225000D01*
X44983061Y-47225000D01*
X44783102Y-47264774D01*
X44594744Y-47342795D01*
X44546546Y-47375000D01*
X43992350Y-47375000D01*
X44116898Y-47350226D01*
X44305256Y-47272205D01*
X44474774Y-47158937D01*
X44618937Y-47014774D01*
X44732205Y-46845256D01*
X44810226Y-46656898D01*
X44817565Y-46620000D01*
X49841928Y-46620000D01*
X49854188Y-46744482D01*
X49890498Y-46864180D01*
X49949463Y-46974494D01*
X50028815Y-47071185D01*
X50125506Y-47150537D01*
X50235820Y-47209502D01*
X50355518Y-47245812D01*
X50480000Y-47258072D01*
X50856750Y-47255000D01*
X51015500Y-47096250D01*
X51015500Y-45847000D01*
X51269500Y-45847000D01*
X51269500Y-47096250D01*
X51428250Y-47255000D01*
X51805000Y-47258072D01*
X51929482Y-47245812D01*
X52049180Y-47209502D01*
X52159494Y-47150537D01*
X52256185Y-47071185D01*
X52335537Y-46974494D01*
X52394502Y-46864180D01*
X52430812Y-46744482D01*
X52443072Y-46620000D01*
X52440000Y-46005750D01*
X52281250Y-45847000D01*
X51269500Y-45847000D01*
X51015500Y-45847000D01*
X50003750Y-45847000D01*
X49845000Y-46005750D01*
X49841928Y-46620000D01*
X44817565Y-46620000D01*
X44850000Y-46456939D01*
X44850000Y-46253061D01*
X44810226Y-46053102D01*
X44732205Y-45864744D01*
X44618937Y-45695226D01*
X44474774Y-45551063D01*
X44305256Y-45437795D01*
X44116898Y-45359774D01*
X43916939Y-45320000D01*
X43713061Y-45320000D01*
X43513102Y-45359774D01*
X43324744Y-45437795D01*
X43276546Y-45470000D01*
X30846579Y-45470000D01*
X30196579Y-44820000D01*
X49841928Y-44820000D01*
X49845000Y-45434250D01*
X50003750Y-45593000D01*
X51015500Y-45593000D01*
X51015500Y-44343750D01*
X50856750Y-44185000D01*
X50480000Y-44181928D01*
X50355518Y-44194188D01*
X50235820Y-44230498D01*
X50125506Y-44289463D01*
X50028815Y-44368815D01*
X49949463Y-44465506D01*
X49890498Y-44575820D01*
X49854188Y-44695518D01*
X49841928Y-44820000D01*
X30196579Y-44820000D01*
X29226534Y-43849956D01*
X29198817Y-43816183D01*
X29064059Y-43705589D01*
X28910313Y-43623411D01*
X28743490Y-43572805D01*
X28613477Y-43560000D01*
X28613469Y-43560000D01*
X28570000Y-43555719D01*
X28526531Y-43560000D01*
X26373818Y-43560000D01*
X26370120Y-43554465D01*
X26175535Y-43359880D01*
X25946727Y-43206995D01*
X25692490Y-43101686D01*
X25422592Y-43048000D01*
X25147408Y-43048000D01*
X24877510Y-43101686D01*
X24623273Y-43206995D01*
X24394465Y-43359880D01*
X24199880Y-43554465D01*
X24046995Y-43783273D01*
X23941686Y-44037510D01*
X23888000Y-44307408D01*
X23888000Y-44582592D01*
X23941686Y-44852490D01*
X24046995Y-45106727D01*
X24199880Y-45335535D01*
X24394465Y-45530120D01*
X24623273Y-45683005D01*
X24700515Y-45715000D01*
X24623273Y-45746995D01*
X24394465Y-45899880D01*
X24199880Y-46094465D01*
X24046995Y-46323273D01*
X23941686Y-46577510D01*
X23888000Y-46847408D01*
X23888000Y-47122592D01*
X23889299Y-47129123D01*
X23477955Y-47540467D01*
X23444182Y-47568184D01*
X23333588Y-47702943D01*
X23251410Y-47856689D01*
X23200804Y-48023512D01*
X23187999Y-48153525D01*
X23187999Y-48153532D01*
X23183718Y-48197001D01*
X23187999Y-48240470D01*
X23188000Y-63174520D01*
X23183718Y-63217999D01*
X23200804Y-63391489D01*
X23251411Y-63558312D01*
X23333589Y-63712058D01*
X23416467Y-63813045D01*
X23416470Y-63813048D01*
X23444183Y-63846816D01*
X23477950Y-63874528D01*
X26873468Y-67270047D01*
X26891928Y-67292540D01*
X26891928Y-67300000D01*
X26908992Y-67473254D01*
X26959528Y-67639850D01*
X27041595Y-67793386D01*
X27152038Y-67927962D01*
X27286614Y-68038405D01*
X27440150Y-68120472D01*
X27606746Y-68171008D01*
X27780000Y-68188072D01*
X28580000Y-68188072D01*
X28753254Y-68171008D01*
X28919850Y-68120472D01*
X29073386Y-68038405D01*
X29207962Y-67927962D01*
X29318405Y-67793386D01*
X29400472Y-67639850D01*
X29451008Y-67473254D01*
X29468072Y-67300000D01*
X29468072Y-66050000D01*
X29451008Y-65876746D01*
X29400472Y-65710150D01*
X29318405Y-65556614D01*
X29207962Y-65422038D01*
X29073386Y-65311595D01*
X28919850Y-65229528D01*
X28753254Y-65178992D01*
X28580000Y-65161928D01*
X27780000Y-65161928D01*
X27606746Y-65178992D01*
X27440150Y-65229528D01*
X27372348Y-65265769D01*
X25677812Y-63571234D01*
X25692490Y-63568314D01*
X25946727Y-63463005D01*
X26175535Y-63310120D01*
X26370120Y-63115535D01*
X26373818Y-63110000D01*
X26935306Y-63110000D01*
X26959528Y-63189850D01*
X27041595Y-63343386D01*
X27152038Y-63477962D01*
X27286614Y-63588405D01*
X27440150Y-63670472D01*
X27606746Y-63721008D01*
X27780000Y-63738072D01*
X28580000Y-63738072D01*
X28753254Y-63721008D01*
X28919850Y-63670472D01*
X29073386Y-63588405D01*
X29207962Y-63477962D01*
X29318405Y-63343386D01*
X29400472Y-63189850D01*
X29451008Y-63023254D01*
X29468072Y-62850000D01*
X29468072Y-61600000D01*
X29451008Y-61426746D01*
X29400472Y-61260150D01*
X29318405Y-61106614D01*
X29207962Y-60972038D01*
X29190247Y-60957500D01*
X29207962Y-60942962D01*
X29318405Y-60808386D01*
X29400472Y-60654850D01*
X29451008Y-60488254D01*
X29468072Y-60315000D01*
X29468072Y-59065000D01*
X29451008Y-58891746D01*
X29400472Y-58725150D01*
X29318405Y-58571614D01*
X29207962Y-58437038D01*
X29073386Y-58326595D01*
X28919850Y-58244528D01*
X28753254Y-58193992D01*
X28580000Y-58176928D01*
X27780000Y-58176928D01*
X27606746Y-58193992D01*
X27440150Y-58244528D01*
X27286614Y-58326595D01*
X27152038Y-58437038D01*
X27041595Y-58571614D01*
X26959528Y-58725150D01*
X26936823Y-58800000D01*
X26373818Y-58800000D01*
X26370120Y-58794465D01*
X26175535Y-58599880D01*
X25946727Y-58446995D01*
X25869485Y-58415000D01*
X25946727Y-58383005D01*
X26175535Y-58230120D01*
X26370120Y-58035535D01*
X26373818Y-58030000D01*
X31655761Y-58030000D01*
X31728809Y-58037194D01*
X31749999Y-58039281D01*
X31750000Y-58039281D01*
X31923490Y-58022195D01*
X32090313Y-57971588D01*
X32244059Y-57889410D01*
X32345046Y-57806532D01*
X32378817Y-57778817D01*
X32406532Y-57745046D01*
X38466579Y-51685000D01*
X40736546Y-51685000D01*
X40784744Y-51717205D01*
X40973102Y-51795226D01*
X41173061Y-51835000D01*
X41376939Y-51835000D01*
X41576898Y-51795226D01*
X41765256Y-51717205D01*
X41934774Y-51603937D01*
X42010067Y-51528644D01*
X43161471Y-52680048D01*
X43189184Y-52713816D01*
X43222952Y-52741529D01*
X43222954Y-52741531D01*
X43294453Y-52800209D01*
X43323942Y-52824410D01*
X43477688Y-52906588D01*
X43578584Y-52937195D01*
X43644510Y-52957194D01*
X43659307Y-52958651D01*
X43774524Y-52969999D01*
X43774532Y-52969999D01*
X43818001Y-52974280D01*
X43861470Y-52969999D01*
X45484491Y-52969999D01*
X45440000Y-53193665D01*
X45440000Y-53476335D01*
X45495147Y-53753574D01*
X45603320Y-54014727D01*
X45760363Y-54249759D01*
X45960241Y-54449637D01*
X46192759Y-54605000D01*
X45960241Y-54760363D01*
X45760363Y-54960241D01*
X45740479Y-54990000D01*
X43228469Y-54990000D01*
X43185000Y-54985719D01*
X43141531Y-54990000D01*
X43141523Y-54990000D01*
X43011510Y-55002805D01*
X42844687Y-55053411D01*
X42759285Y-55099059D01*
X42690941Y-55135589D01*
X42589953Y-55218468D01*
X42589951Y-55218470D01*
X42556183Y-55246183D01*
X42528470Y-55279951D01*
X39003422Y-58805000D01*
X32524694Y-58805000D01*
X32500472Y-58725150D01*
X32418405Y-58571614D01*
X32307962Y-58437038D01*
X32173386Y-58326595D01*
X32019850Y-58244528D01*
X31853254Y-58193992D01*
X31680000Y-58176928D01*
X30880000Y-58176928D01*
X30706746Y-58193992D01*
X30540150Y-58244528D01*
X30386614Y-58326595D01*
X30252038Y-58437038D01*
X30141595Y-58571614D01*
X30059528Y-58725150D01*
X30008992Y-58891746D01*
X29991928Y-59065000D01*
X29991928Y-60315000D01*
X30008992Y-60488254D01*
X30059528Y-60654850D01*
X30141595Y-60808386D01*
X30252038Y-60942962D01*
X30269753Y-60957500D01*
X30252038Y-60972038D01*
X30141595Y-61106614D01*
X30059528Y-61260150D01*
X30008992Y-61426746D01*
X29991928Y-61600000D01*
X29991928Y-62850000D01*
X30008992Y-63023254D01*
X30059528Y-63189850D01*
X30141595Y-63343386D01*
X30252038Y-63477962D01*
X30386614Y-63588405D01*
X30540150Y-63670472D01*
X30706746Y-63721008D01*
X30880000Y-63738072D01*
X31680000Y-63738072D01*
X31853254Y-63721008D01*
X32019850Y-63670472D01*
X32173386Y-63588405D01*
X32307962Y-63477962D01*
X32418405Y-63343386D01*
X32500472Y-63189850D01*
X32524694Y-63110000D01*
X39966531Y-63110000D01*
X40010000Y-63114281D01*
X40053469Y-63110000D01*
X40053477Y-63110000D01*
X40183490Y-63097195D01*
X40350313Y-63046589D01*
X40504059Y-62964411D01*
X40638817Y-62853817D01*
X40666534Y-62820044D01*
X42896580Y-60589999D01*
X45484491Y-60589999D01*
X45440000Y-60813665D01*
X45440000Y-61096335D01*
X45491845Y-61356972D01*
X45404686Y-61383412D01*
X45250940Y-61465590D01*
X45250938Y-61465591D01*
X45250939Y-61465591D01*
X45149952Y-61548469D01*
X45149950Y-61548471D01*
X45116182Y-61576184D01*
X45088469Y-61609952D01*
X40908422Y-65790000D01*
X32524694Y-65790000D01*
X32500472Y-65710150D01*
X32418405Y-65556614D01*
X32307962Y-65422038D01*
X32173386Y-65311595D01*
X32019850Y-65229528D01*
X31853254Y-65178992D01*
X31680000Y-65161928D01*
X30880000Y-65161928D01*
X30706746Y-65178992D01*
X30540150Y-65229528D01*
X30386614Y-65311595D01*
X30252038Y-65422038D01*
X30141595Y-65556614D01*
X30059528Y-65710150D01*
X30008992Y-65876746D01*
X29991928Y-66050000D01*
X29991928Y-67300000D01*
X30008992Y-67473254D01*
X30059528Y-67639850D01*
X30141595Y-67793386D01*
X30252038Y-67927962D01*
X30386614Y-68038405D01*
X30540150Y-68120472D01*
X30706746Y-68171008D01*
X30880000Y-68188072D01*
X31680000Y-68188072D01*
X31853254Y-68171008D01*
X32019850Y-68120472D01*
X32173386Y-68038405D01*
X32307962Y-67927962D01*
X32418405Y-67793386D01*
X32500472Y-67639850D01*
X32524694Y-67560000D01*
X41231531Y-67560000D01*
X41275000Y-67564281D01*
X41318469Y-67560000D01*
X41318477Y-67560000D01*
X41448490Y-67547195D01*
X41615313Y-67496589D01*
X41629319Y-67489103D01*
X38659952Y-70458470D01*
X38626184Y-70486183D01*
X38598471Y-70519951D01*
X38598468Y-70519954D01*
X38515590Y-70620941D01*
X38433412Y-70774687D01*
X38382805Y-70941510D01*
X38365719Y-71115000D01*
X38370001Y-71158479D01*
X38370000Y-80640344D01*
X38308368Y-80681525D01*
X38101525Y-80888368D01*
X37939010Y-81131589D01*
X37827068Y-81401842D01*
X37770000Y-81688740D01*
X37770000Y-81981260D01*
X37827068Y-82268158D01*
X37933455Y-82525000D01*
X19075000Y-82525000D01*
X19075000Y-40349040D01*
X28338091Y-40349040D01*
X28432930Y-40613881D01*
X28577615Y-40855131D01*
X28766586Y-41063519D01*
X28992580Y-41231037D01*
X29246913Y-41351246D01*
X29380961Y-41391904D01*
X29603000Y-41269915D01*
X29603000Y-40127000D01*
X29857000Y-40127000D01*
X29857000Y-41269915D01*
X30079039Y-41391904D01*
X30213087Y-41351246D01*
X30467420Y-41231037D01*
X30693414Y-41063519D01*
X30882385Y-40855131D01*
X31000000Y-40659018D01*
X31117615Y-40855131D01*
X31306586Y-41063519D01*
X31532580Y-41231037D01*
X31786913Y-41351246D01*
X31920961Y-41391904D01*
X32143000Y-41269915D01*
X32143000Y-40127000D01*
X32397000Y-40127000D01*
X32397000Y-41269915D01*
X32619039Y-41391904D01*
X32753087Y-41351246D01*
X33007420Y-41231037D01*
X33233414Y-41063519D01*
X33422385Y-40855131D01*
X33540000Y-40659018D01*
X33657615Y-40855131D01*
X33846586Y-41063519D01*
X34072580Y-41231037D01*
X34326913Y-41351246D01*
X34460961Y-41391904D01*
X34683000Y-41269915D01*
X34683000Y-40127000D01*
X32397000Y-40127000D01*
X32143000Y-40127000D01*
X29857000Y-40127000D01*
X29603000Y-40127000D01*
X28459376Y-40127000D01*
X28338091Y-40349040D01*
X19075000Y-40349040D01*
X19075000Y-39650960D01*
X28338091Y-39650960D01*
X28459376Y-39873000D01*
X29603000Y-39873000D01*
X29603000Y-38730085D01*
X29857000Y-38730085D01*
X29857000Y-39873000D01*
X32143000Y-39873000D01*
X32143000Y-38730085D01*
X32397000Y-38730085D01*
X32397000Y-39873000D01*
X34683000Y-39873000D01*
X34683000Y-38730085D01*
X34460961Y-38608096D01*
X34326913Y-38648754D01*
X34072580Y-38768963D01*
X33846586Y-38936481D01*
X33657615Y-39144869D01*
X33540000Y-39340982D01*
X33422385Y-39144869D01*
X33233414Y-38936481D01*
X33007420Y-38768963D01*
X32753087Y-38648754D01*
X32619039Y-38608096D01*
X32397000Y-38730085D01*
X32143000Y-38730085D01*
X31920961Y-38608096D01*
X31786913Y-38648754D01*
X31532580Y-38768963D01*
X31306586Y-38936481D01*
X31117615Y-39144869D01*
X31000000Y-39340982D01*
X30882385Y-39144869D01*
X30693414Y-38936481D01*
X30467420Y-38768963D01*
X30213087Y-38648754D01*
X30079039Y-38608096D01*
X29857000Y-38730085D01*
X29603000Y-38730085D01*
X29380961Y-38608096D01*
X29246913Y-38648754D01*
X28992580Y-38768963D01*
X28766586Y-38936481D01*
X28577615Y-39144869D01*
X28432930Y-39386119D01*
X28338091Y-39650960D01*
X19075000Y-39650960D01*
X19075000Y-24155000D01*
X37929313Y-24155000D01*
X37827068Y-24401842D01*
G37*
%TD.AperFunction*%
D17*
X51709774Y-63801898D02*
X51787795Y-63990256D01*
X51820000Y-64038455D01*
X51820001Y-66308420D01*
X43739956Y-74388466D01*
X43706183Y-74416183D01*
X43595589Y-74550942D01*
X43513411Y-74704688D01*
X43462805Y-74871511D01*
X43450000Y-75001524D01*
X43450000Y-75001531D01*
X43445719Y-75045000D01*
X43450000Y-75088469D01*
X43450000Y-75636524D01*
X43450001Y-80640343D01*
X43388368Y-80681525D01*
X43181525Y-80888368D01*
X43065000Y-81062760D01*
X42948475Y-80888368D01*
X42741632Y-80681525D01*
X42680000Y-80640344D01*
X42680000Y-70331578D01*
X44060044Y-68951535D01*
X44116898Y-68940226D01*
X44305256Y-68862205D01*
X44474774Y-68748937D01*
X44618937Y-68604774D01*
X44732205Y-68435256D01*
X44810226Y-68246898D01*
X44850000Y-68046939D01*
X44850000Y-67843061D01*
X44810226Y-67643102D01*
X44732205Y-67454744D01*
X44618937Y-67285226D01*
X44477645Y-67143934D01*
X45440870Y-66180709D01*
X45495147Y-66453574D01*
X45603320Y-66714727D01*
X45760363Y-66949759D01*
X45960241Y-67149637D01*
X46195273Y-67306680D01*
X46456426Y-67414853D01*
X46733665Y-67470000D01*
X47016335Y-67470000D01*
X47293574Y-67414853D01*
X47554727Y-67306680D01*
X47789759Y-67149637D01*
X47989637Y-66949759D01*
X48021409Y-66902209D01*
X48155314Y-66861589D01*
X48309060Y-66779411D01*
X48443818Y-66668817D01*
X48471535Y-66635044D01*
X51045044Y-64061536D01*
X51101898Y-64050227D01*
X51290256Y-63972206D01*
X51459774Y-63858938D01*
X51603937Y-63714775D01*
X51672141Y-63612701D01*
X51709774Y-63801898D01*
%TA.AperFunction,Conductor*%
D18*
G36*
X51709774Y-63801898D02*
G01*
X51787795Y-63990256D01*
X51820000Y-64038455D01*
X51820001Y-66308420D01*
X43739956Y-74388466D01*
X43706183Y-74416183D01*
X43595589Y-74550942D01*
X43513411Y-74704688D01*
X43462805Y-74871511D01*
X43450000Y-75001524D01*
X43450000Y-75001531D01*
X43445719Y-75045000D01*
X43450000Y-75088469D01*
X43450000Y-75636524D01*
X43450001Y-80640343D01*
X43388368Y-80681525D01*
X43181525Y-80888368D01*
X43065000Y-81062760D01*
X42948475Y-80888368D01*
X42741632Y-80681525D01*
X42680000Y-80640344D01*
X42680000Y-70331578D01*
X44060044Y-68951535D01*
X44116898Y-68940226D01*
X44305256Y-68862205D01*
X44474774Y-68748937D01*
X44618937Y-68604774D01*
X44732205Y-68435256D01*
X44810226Y-68246898D01*
X44850000Y-68046939D01*
X44850000Y-67843061D01*
X44810226Y-67643102D01*
X44732205Y-67454744D01*
X44618937Y-67285226D01*
X44477645Y-67143934D01*
X45440870Y-66180709D01*
X45495147Y-66453574D01*
X45603320Y-66714727D01*
X45760363Y-66949759D01*
X45960241Y-67149637D01*
X46195273Y-67306680D01*
X46456426Y-67414853D01*
X46733665Y-67470000D01*
X47016335Y-67470000D01*
X47293574Y-67414853D01*
X47554727Y-67306680D01*
X47789759Y-67149637D01*
X47989637Y-66949759D01*
X48021409Y-66902209D01*
X48155314Y-66861589D01*
X48309060Y-66779411D01*
X48443818Y-66668817D01*
X48471535Y-66635044D01*
X51045044Y-64061536D01*
X51101898Y-64050227D01*
X51290256Y-63972206D01*
X51459774Y-63858938D01*
X51603937Y-63714775D01*
X51672141Y-63612701D01*
X51709774Y-63801898D01*
G37*
%TD.AperFunction*%
D17*
X53066983Y-53158561D02*
X53060000Y-53193665D01*
X53060000Y-53476335D01*
X53115147Y-53753574D01*
X53223320Y-54014727D01*
X53235485Y-54032934D01*
X52649955Y-54618465D01*
X52616182Y-54646182D01*
X52505588Y-54780941D01*
X52423410Y-54934687D01*
X52388156Y-55050903D01*
X52373548Y-55099059D01*
X52372804Y-55101510D01*
X52359999Y-55231523D01*
X52359999Y-55231530D01*
X52355718Y-55274999D01*
X52359999Y-55318468D01*
X52360000Y-57121520D01*
X52355718Y-57164999D01*
X52372804Y-57338489D01*
X52423411Y-57505312D01*
X52505589Y-57659058D01*
X52588467Y-57760045D01*
X52588470Y-57760048D01*
X52616183Y-57793816D01*
X52649950Y-57821528D01*
X53066983Y-58238561D01*
X53060000Y-58273665D01*
X53060000Y-58556335D01*
X53115147Y-58833574D01*
X53223320Y-59094727D01*
X53380363Y-59329759D01*
X53580241Y-59529637D01*
X53812759Y-59685000D01*
X53580241Y-59840363D01*
X53380363Y-60040241D01*
X53223320Y-60275273D01*
X53115147Y-60536426D01*
X53060000Y-60813665D01*
X53060000Y-61096335D01*
X53066983Y-61131439D01*
X52878421Y-61320001D01*
X48265509Y-61320001D01*
X48310000Y-61096335D01*
X48310000Y-60813665D01*
X48254853Y-60536426D01*
X48146680Y-60275273D01*
X48134514Y-60257066D01*
X48720050Y-59671531D01*
X48753818Y-59643818D01*
X48810176Y-59575147D01*
X48864412Y-59509060D01*
X48946590Y-59355315D01*
X48997196Y-59188491D01*
X49010001Y-59058478D01*
X49010001Y-59058470D01*
X49014282Y-59015001D01*
X49010001Y-58971532D01*
X49010001Y-54628466D01*
X49014282Y-54585000D01*
X49010001Y-54541534D01*
X49010001Y-54541524D01*
X48997196Y-54411511D01*
X48946590Y-54244688D01*
X48864412Y-54090942D01*
X48802050Y-54014954D01*
X48781533Y-53989954D01*
X48781531Y-53989952D01*
X48753818Y-53956184D01*
X48720051Y-53928472D01*
X48303017Y-53511439D01*
X48310000Y-53476335D01*
X48310000Y-53193665D01*
X48265509Y-52969999D01*
X52878421Y-52969999D01*
X53066983Y-53158561D01*
%TA.AperFunction,Conductor*%
D18*
G36*
X53066983Y-53158561D02*
G01*
X53060000Y-53193665D01*
X53060000Y-53476335D01*
X53115147Y-53753574D01*
X53223320Y-54014727D01*
X53235485Y-54032934D01*
X52649955Y-54618465D01*
X52616182Y-54646182D01*
X52505588Y-54780941D01*
X52423410Y-54934687D01*
X52388156Y-55050903D01*
X52373548Y-55099059D01*
X52372804Y-55101510D01*
X52359999Y-55231523D01*
X52359999Y-55231530D01*
X52355718Y-55274999D01*
X52359999Y-55318468D01*
X52360000Y-57121520D01*
X52355718Y-57164999D01*
X52372804Y-57338489D01*
X52423411Y-57505312D01*
X52505589Y-57659058D01*
X52588467Y-57760045D01*
X52588470Y-57760048D01*
X52616183Y-57793816D01*
X52649950Y-57821528D01*
X53066983Y-58238561D01*
X53060000Y-58273665D01*
X53060000Y-58556335D01*
X53115147Y-58833574D01*
X53223320Y-59094727D01*
X53380363Y-59329759D01*
X53580241Y-59529637D01*
X53812759Y-59685000D01*
X53580241Y-59840363D01*
X53380363Y-60040241D01*
X53223320Y-60275273D01*
X53115147Y-60536426D01*
X53060000Y-60813665D01*
X53060000Y-61096335D01*
X53066983Y-61131439D01*
X52878421Y-61320001D01*
X48265509Y-61320001D01*
X48310000Y-61096335D01*
X48310000Y-60813665D01*
X48254853Y-60536426D01*
X48146680Y-60275273D01*
X48134514Y-60257066D01*
X48720050Y-59671531D01*
X48753818Y-59643818D01*
X48810176Y-59575147D01*
X48864412Y-59509060D01*
X48946590Y-59355315D01*
X48997196Y-59188491D01*
X49010001Y-59058478D01*
X49010001Y-59058470D01*
X49014282Y-59015001D01*
X49010001Y-58971532D01*
X49010001Y-54628466D01*
X49014282Y-54585000D01*
X49010001Y-54541534D01*
X49010001Y-54541524D01*
X48997196Y-54411511D01*
X48946590Y-54244688D01*
X48864412Y-54090942D01*
X48802050Y-54014954D01*
X48781533Y-53989954D01*
X48781531Y-53989952D01*
X48753818Y-53956184D01*
X48720051Y-53928472D01*
X48303017Y-53511439D01*
X48310000Y-53476335D01*
X48310000Y-53193665D01*
X48265509Y-52969999D01*
X52878421Y-52969999D01*
X53066983Y-53158561D01*
G37*
%TD.AperFunction*%
D17*
X51475363Y-39085241D02*
X51318320Y-39320273D01*
X51210147Y-39581426D01*
X51155000Y-39858665D01*
X51155000Y-40141335D01*
X51210147Y-40418574D01*
X51318320Y-40679727D01*
X51475363Y-40914759D01*
X51675241Y-41114637D01*
X51910273Y-41271680D01*
X52171426Y-41379853D01*
X52448665Y-41435000D01*
X52731335Y-41435000D01*
X53008574Y-41379853D01*
X53269727Y-41271680D01*
X53504759Y-41114637D01*
X53704637Y-40914759D01*
X53860000Y-40682241D01*
X54015363Y-40914759D01*
X54215241Y-41114637D01*
X54450273Y-41271680D01*
X54711426Y-41379853D01*
X54988665Y-41435000D01*
X55271335Y-41435000D01*
X55548574Y-41379853D01*
X55809727Y-41271680D01*
X56044759Y-41114637D01*
X56244637Y-40914759D01*
X56400000Y-40682241D01*
X56555363Y-40914759D01*
X56755241Y-41114637D01*
X56990273Y-41271680D01*
X57251426Y-41379853D01*
X57528665Y-41435000D01*
X57811335Y-41435000D01*
X58088574Y-41379853D01*
X58349727Y-41271680D01*
X58584759Y-41114637D01*
X58784637Y-40914759D01*
X58940000Y-40682241D01*
X59095363Y-40914759D01*
X59295241Y-41114637D01*
X59325000Y-41134521D01*
X59325001Y-46563422D01*
X57228425Y-48659999D01*
X55933072Y-48659999D01*
X55933072Y-47455000D01*
X55920812Y-47330518D01*
X55884502Y-47210820D01*
X55825537Y-47100506D01*
X55746185Y-47003815D01*
X55649494Y-46924463D01*
X55539180Y-46865498D01*
X55434285Y-46833678D01*
X55500472Y-46709851D01*
X55551008Y-46543255D01*
X55568072Y-46370001D01*
X55568072Y-45069999D01*
X55551008Y-44896745D01*
X55500472Y-44730149D01*
X55418405Y-44576613D01*
X55307962Y-44442038D01*
X55173387Y-44331595D01*
X55019851Y-44249528D01*
X54853255Y-44198992D01*
X54680001Y-44181928D01*
X53854999Y-44181928D01*
X53703434Y-44196856D01*
X51456534Y-41949956D01*
X51428817Y-41916183D01*
X51294059Y-41805589D01*
X51140313Y-41723411D01*
X50973490Y-41672805D01*
X50843477Y-41660000D01*
X50843469Y-41660000D01*
X50800000Y-41655719D01*
X50756531Y-41660000D01*
X45341579Y-41660000D01*
X45115709Y-41434130D01*
X45388574Y-41379853D01*
X45649727Y-41271680D01*
X45884759Y-41114637D01*
X46083357Y-40916039D01*
X46084188Y-40924482D01*
X46120498Y-41044180D01*
X46179463Y-41154494D01*
X46258815Y-41251185D01*
X46355506Y-41330537D01*
X46465820Y-41389502D01*
X46585518Y-41425812D01*
X46710000Y-41438072D01*
X48310000Y-41438072D01*
X48434482Y-41425812D01*
X48554180Y-41389502D01*
X48664494Y-41330537D01*
X48761185Y-41251185D01*
X48840537Y-41154494D01*
X48899502Y-41044180D01*
X48935812Y-40924482D01*
X48948072Y-40800000D01*
X48948072Y-39813506D01*
X49826590Y-38934989D01*
X51625615Y-38934989D01*
X51475363Y-39085241D01*
%TA.AperFunction,Conductor*%
D18*
G36*
X51475363Y-39085241D02*
G01*
X51318320Y-39320273D01*
X51210147Y-39581426D01*
X51155000Y-39858665D01*
X51155000Y-40141335D01*
X51210147Y-40418574D01*
X51318320Y-40679727D01*
X51475363Y-40914759D01*
X51675241Y-41114637D01*
X51910273Y-41271680D01*
X52171426Y-41379853D01*
X52448665Y-41435000D01*
X52731335Y-41435000D01*
X53008574Y-41379853D01*
X53269727Y-41271680D01*
X53504759Y-41114637D01*
X53704637Y-40914759D01*
X53860000Y-40682241D01*
X54015363Y-40914759D01*
X54215241Y-41114637D01*
X54450273Y-41271680D01*
X54711426Y-41379853D01*
X54988665Y-41435000D01*
X55271335Y-41435000D01*
X55548574Y-41379853D01*
X55809727Y-41271680D01*
X56044759Y-41114637D01*
X56244637Y-40914759D01*
X56400000Y-40682241D01*
X56555363Y-40914759D01*
X56755241Y-41114637D01*
X56990273Y-41271680D01*
X57251426Y-41379853D01*
X57528665Y-41435000D01*
X57811335Y-41435000D01*
X58088574Y-41379853D01*
X58349727Y-41271680D01*
X58584759Y-41114637D01*
X58784637Y-40914759D01*
X58940000Y-40682241D01*
X59095363Y-40914759D01*
X59295241Y-41114637D01*
X59325000Y-41134521D01*
X59325001Y-46563422D01*
X57228425Y-48659999D01*
X55933072Y-48659999D01*
X55933072Y-47455000D01*
X55920812Y-47330518D01*
X55884502Y-47210820D01*
X55825537Y-47100506D01*
X55746185Y-47003815D01*
X55649494Y-46924463D01*
X55539180Y-46865498D01*
X55434285Y-46833678D01*
X55500472Y-46709851D01*
X55551008Y-46543255D01*
X55568072Y-46370001D01*
X55568072Y-45069999D01*
X55551008Y-44896745D01*
X55500472Y-44730149D01*
X55418405Y-44576613D01*
X55307962Y-44442038D01*
X55173387Y-44331595D01*
X55019851Y-44249528D01*
X54853255Y-44198992D01*
X54680001Y-44181928D01*
X53854999Y-44181928D01*
X53703434Y-44196856D01*
X51456534Y-41949956D01*
X51428817Y-41916183D01*
X51294059Y-41805589D01*
X51140313Y-41723411D01*
X50973490Y-41672805D01*
X50843477Y-41660000D01*
X50843469Y-41660000D01*
X50800000Y-41655719D01*
X50756531Y-41660000D01*
X45341579Y-41660000D01*
X45115709Y-41434130D01*
X45388574Y-41379853D01*
X45649727Y-41271680D01*
X45884759Y-41114637D01*
X46083357Y-40916039D01*
X46084188Y-40924482D01*
X46120498Y-41044180D01*
X46179463Y-41154494D01*
X46258815Y-41251185D01*
X46355506Y-41330537D01*
X46465820Y-41389502D01*
X46585518Y-41425812D01*
X46710000Y-41438072D01*
X48310000Y-41438072D01*
X48434482Y-41425812D01*
X48554180Y-41389502D01*
X48664494Y-41330537D01*
X48761185Y-41251185D01*
X48840537Y-41154494D01*
X48899502Y-41044180D01*
X48935812Y-40924482D01*
X48948072Y-40800000D01*
X48948072Y-39813506D01*
X49826590Y-38934989D01*
X51625615Y-38934989D01*
X51475363Y-39085241D01*
G37*
%TD.AperFunction*%
D17*
X73037000Y-39873000D02*
X73057000Y-39873000D01*
X73057000Y-40127000D01*
X73037000Y-40127000D01*
X73037000Y-40147000D01*
X72783000Y-40147000D01*
X72783000Y-40127000D01*
X72763000Y-40127000D01*
X72763000Y-39873000D01*
X72783000Y-39873000D01*
X72783000Y-39853000D01*
X73037000Y-39853000D01*
X73037000Y-39873000D01*
%TA.AperFunction,Conductor*%
D18*
G36*
X73037000Y-39873000D02*
G01*
X73057000Y-39873000D01*
X73057000Y-40127000D01*
X73037000Y-40127000D01*
X73037000Y-40147000D01*
X72783000Y-40147000D01*
X72783000Y-40127000D01*
X72763000Y-40127000D01*
X72763000Y-39873000D01*
X72783000Y-39873000D01*
X72783000Y-39853000D01*
X73037000Y-39853000D01*
X73037000Y-39873000D01*
G37*
%TD.AperFunction*%
D17*
X46670000Y-29559250D02*
X46828750Y-29718000D01*
X47840500Y-29718000D01*
X47840500Y-29698000D01*
X48094500Y-29698000D01*
X48094500Y-29718000D01*
X48114500Y-29718000D01*
X48114500Y-29972000D01*
X48094500Y-29972000D01*
X48094500Y-29992000D01*
X47840500Y-29992000D01*
X47840500Y-29972000D01*
X46828750Y-29972000D01*
X46670000Y-30130750D01*
X46666928Y-30745000D01*
X46679188Y-30869482D01*
X46715498Y-30989180D01*
X46755387Y-31063807D01*
X46226535Y-30534955D01*
X46198818Y-30501182D01*
X46064060Y-30390588D01*
X45910314Y-30308410D01*
X45743491Y-30257804D01*
X45613478Y-30244999D01*
X45613470Y-30244999D01*
X45570001Y-30240718D01*
X45526532Y-30244999D01*
X43723466Y-30244999D01*
X43680000Y-30240718D01*
X43636534Y-30244999D01*
X43636524Y-30244999D01*
X43506511Y-30257804D01*
X43339688Y-30308410D01*
X43185942Y-30390588D01*
X43185940Y-30390589D01*
X43185941Y-30390589D01*
X43084954Y-30473467D01*
X43084952Y-30473469D01*
X43051184Y-30501182D01*
X43023471Y-30534950D01*
X42606439Y-30951983D01*
X42571335Y-30945000D01*
X42288665Y-30945000D01*
X42011426Y-31000147D01*
X41750273Y-31108320D01*
X41515241Y-31265363D01*
X41315363Y-31465241D01*
X41160000Y-31697759D01*
X41004637Y-31465241D01*
X40804759Y-31265363D01*
X40569727Y-31108320D01*
X40308574Y-31000147D01*
X40031335Y-30945000D01*
X39748665Y-30945000D01*
X39471426Y-31000147D01*
X39210273Y-31108320D01*
X38975241Y-31265363D01*
X38775363Y-31465241D01*
X38620000Y-31697759D01*
X38464637Y-31465241D01*
X38264759Y-31265363D01*
X38029727Y-31108320D01*
X37768574Y-31000147D01*
X37491335Y-30945000D01*
X37208665Y-30945000D01*
X36931426Y-31000147D01*
X36670273Y-31108320D01*
X36435241Y-31265363D01*
X36235363Y-31465241D01*
X36080000Y-31697759D01*
X35924637Y-31465241D01*
X35724759Y-31265363D01*
X35695000Y-31245479D01*
X35695000Y-30046540D01*
X36786521Y-28955020D01*
X46666978Y-28955020D01*
X46670000Y-29559250D01*
%TA.AperFunction,Conductor*%
D18*
G36*
X46670000Y-29559250D02*
G01*
X46828750Y-29718000D01*
X47840500Y-29718000D01*
X47840500Y-29698000D01*
X48094500Y-29698000D01*
X48094500Y-29718000D01*
X48114500Y-29718000D01*
X48114500Y-29972000D01*
X48094500Y-29972000D01*
X48094500Y-29992000D01*
X47840500Y-29992000D01*
X47840500Y-29972000D01*
X46828750Y-29972000D01*
X46670000Y-30130750D01*
X46666928Y-30745000D01*
X46679188Y-30869482D01*
X46715498Y-30989180D01*
X46755387Y-31063807D01*
X46226535Y-30534955D01*
X46198818Y-30501182D01*
X46064060Y-30390588D01*
X45910314Y-30308410D01*
X45743491Y-30257804D01*
X45613478Y-30244999D01*
X45613470Y-30244999D01*
X45570001Y-30240718D01*
X45526532Y-30244999D01*
X43723466Y-30244999D01*
X43680000Y-30240718D01*
X43636534Y-30244999D01*
X43636524Y-30244999D01*
X43506511Y-30257804D01*
X43339688Y-30308410D01*
X43185942Y-30390588D01*
X43185940Y-30390589D01*
X43185941Y-30390589D01*
X43084954Y-30473467D01*
X43084952Y-30473469D01*
X43051184Y-30501182D01*
X43023471Y-30534950D01*
X42606439Y-30951983D01*
X42571335Y-30945000D01*
X42288665Y-30945000D01*
X42011426Y-31000147D01*
X41750273Y-31108320D01*
X41515241Y-31265363D01*
X41315363Y-31465241D01*
X41160000Y-31697759D01*
X41004637Y-31465241D01*
X40804759Y-31265363D01*
X40569727Y-31108320D01*
X40308574Y-31000147D01*
X40031335Y-30945000D01*
X39748665Y-30945000D01*
X39471426Y-31000147D01*
X39210273Y-31108320D01*
X38975241Y-31265363D01*
X38775363Y-31465241D01*
X38620000Y-31697759D01*
X38464637Y-31465241D01*
X38264759Y-31265363D01*
X38029727Y-31108320D01*
X37768574Y-31000147D01*
X37491335Y-30945000D01*
X37208665Y-30945000D01*
X36931426Y-31000147D01*
X36670273Y-31108320D01*
X36435241Y-31265363D01*
X36235363Y-31465241D01*
X36080000Y-31697759D01*
X35924637Y-31465241D01*
X35724759Y-31265363D01*
X35695000Y-31245479D01*
X35695000Y-30046540D01*
X36786521Y-28955020D01*
X46666978Y-28955020D01*
X46670000Y-29559250D01*
G37*
%TD.AperFunction*%
D17*
X53299822Y-25716355D02*
X53494731Y-25932588D01*
X53728080Y-26106641D01*
X53990901Y-26231825D01*
X54138110Y-26276476D01*
X54367998Y-26155156D01*
X54367998Y-26250423D01*
X52088156Y-28530266D01*
X51998387Y-28456595D01*
X51844851Y-28374528D01*
X51678255Y-28323992D01*
X51505001Y-28306928D01*
X50679999Y-28306928D01*
X50506745Y-28323992D01*
X50340149Y-28374528D01*
X50186613Y-28456595D01*
X50052038Y-28567038D01*
X49941595Y-28701613D01*
X49859528Y-28855149D01*
X49819006Y-28988732D01*
X49704687Y-29023411D01*
X49550941Y-29105589D01*
X49550939Y-29105590D01*
X49550940Y-29105590D01*
X49449953Y-29188468D01*
X49449951Y-29188470D01*
X49416183Y-29216183D01*
X49388470Y-29249951D01*
X49265934Y-29372487D01*
X49268072Y-28945000D01*
X49255812Y-28820518D01*
X49244793Y-28784192D01*
X49348797Y-28698837D01*
X49376514Y-28665064D01*
X51736040Y-26305539D01*
X51808740Y-26320000D01*
X52101260Y-26320000D01*
X52388158Y-26262932D01*
X52658411Y-26150990D01*
X52901632Y-25988475D01*
X53108475Y-25781632D01*
X53230195Y-25599466D01*
X53299822Y-25716355D01*
%TA.AperFunction,Conductor*%
D18*
G36*
X53299822Y-25716355D02*
G01*
X53494731Y-25932588D01*
X53728080Y-26106641D01*
X53990901Y-26231825D01*
X54138110Y-26276476D01*
X54367998Y-26155156D01*
X54367998Y-26250423D01*
X52088156Y-28530266D01*
X51998387Y-28456595D01*
X51844851Y-28374528D01*
X51678255Y-28323992D01*
X51505001Y-28306928D01*
X50679999Y-28306928D01*
X50506745Y-28323992D01*
X50340149Y-28374528D01*
X50186613Y-28456595D01*
X50052038Y-28567038D01*
X49941595Y-28701613D01*
X49859528Y-28855149D01*
X49819006Y-28988732D01*
X49704687Y-29023411D01*
X49550941Y-29105589D01*
X49550939Y-29105590D01*
X49550940Y-29105590D01*
X49449953Y-29188468D01*
X49449951Y-29188470D01*
X49416183Y-29216183D01*
X49388470Y-29249951D01*
X49265934Y-29372487D01*
X49268072Y-28945000D01*
X49255812Y-28820518D01*
X49244793Y-28784192D01*
X49348797Y-28698837D01*
X49376514Y-28665064D01*
X51736040Y-26305539D01*
X51808740Y-26320000D01*
X52101260Y-26320000D01*
X52388158Y-26262932D01*
X52658411Y-26150990D01*
X52901632Y-25988475D01*
X53108475Y-25781632D01*
X53230195Y-25599466D01*
X53299822Y-25716355D01*
G37*
%TD.AperFunction*%
D17*
X54622000Y-24708000D02*
X54642000Y-24708000D01*
X54642000Y-24962000D01*
X54622000Y-24962000D01*
X54622000Y-24982000D01*
X54368000Y-24982000D01*
X54368000Y-24962000D01*
X54348000Y-24962000D01*
X54348000Y-24708000D01*
X54368000Y-24708000D01*
X54368000Y-24688000D01*
X54622000Y-24688000D01*
X54622000Y-24708000D01*
%TA.AperFunction,Conductor*%
D18*
G36*
X54622000Y-24708000D02*
G01*
X54642000Y-24708000D01*
X54642000Y-24962000D01*
X54622000Y-24962000D01*
X54622000Y-24982000D01*
X54368000Y-24982000D01*
X54368000Y-24962000D01*
X54348000Y-24962000D01*
X54348000Y-24708000D01*
X54368000Y-24708000D01*
X54368000Y-24688000D01*
X54622000Y-24688000D01*
X54622000Y-24708000D01*
G37*
%TD.AperFunction*%
%TD*%
D17*
%TO.N,/GND*%
X77445001Y-82525000D02*
X58523072Y-82525000D01*
X58523072Y-81598506D01*
X60920049Y-79201530D01*
X60953817Y-79173817D01*
X61064411Y-79039059D01*
X61146589Y-78885314D01*
X61197195Y-78718490D01*
X61210000Y-78588477D01*
X61210000Y-78588469D01*
X61214281Y-78545000D01*
X61210000Y-78501531D01*
X61210000Y-61498454D01*
X61242205Y-61450256D01*
X61320226Y-61261898D01*
X61360000Y-61061939D01*
X61360000Y-60858061D01*
X61320226Y-60658102D01*
X61242205Y-60469744D01*
X61128937Y-60300226D01*
X60984774Y-60156063D01*
X60815256Y-60042795D01*
X60626898Y-59964774D01*
X60426939Y-59925000D01*
X60223061Y-59925000D01*
X60023102Y-59964774D01*
X59834744Y-60042795D01*
X59665226Y-60156063D01*
X59521063Y-60300226D01*
X59407795Y-60469744D01*
X59329774Y-60658102D01*
X59290000Y-60858061D01*
X59290000Y-61061939D01*
X59329774Y-61261898D01*
X59407795Y-61450256D01*
X59440000Y-61498454D01*
X59440001Y-78178420D01*
X57271494Y-80346928D01*
X56185000Y-80346928D01*
X56060518Y-80359188D01*
X55940820Y-80395498D01*
X55830506Y-80454463D01*
X55733815Y-80533815D01*
X55654463Y-80630506D01*
X55595498Y-80740820D01*
X55571034Y-80821466D01*
X55495269Y-80737412D01*
X55261920Y-80563359D01*
X54999099Y-80438175D01*
X54851890Y-80393524D01*
X54622000Y-80514845D01*
X54622000Y-81708000D01*
X54642000Y-81708000D01*
X54642000Y-81962000D01*
X54622000Y-81962000D01*
X54622000Y-81982000D01*
X54368000Y-81982000D01*
X54368000Y-81962000D01*
X54348000Y-81962000D01*
X54348000Y-81708000D01*
X54368000Y-81708000D01*
X54368000Y-80514845D01*
X54138110Y-80393524D01*
X53990901Y-80438175D01*
X53728080Y-80563359D01*
X53494731Y-80737412D01*
X53299822Y-80953645D01*
X53230195Y-81070534D01*
X53108475Y-80888368D01*
X52901632Y-80681525D01*
X52658411Y-80519010D01*
X52388158Y-80407068D01*
X52101260Y-80350000D01*
X51808740Y-80350000D01*
X51521842Y-80407068D01*
X51251589Y-80519010D01*
X51008368Y-80681525D01*
X50801525Y-80888368D01*
X50685000Y-81062760D01*
X50568475Y-80888368D01*
X50361632Y-80681525D01*
X50118411Y-80519010D01*
X49848158Y-80407068D01*
X49561260Y-80350000D01*
X49268740Y-80350000D01*
X48981842Y-80407068D01*
X48711589Y-80519010D01*
X48468368Y-80681525D01*
X48261525Y-80888368D01*
X48145000Y-81062760D01*
X48028475Y-80888368D01*
X47821632Y-80681525D01*
X47578411Y-80519010D01*
X47308158Y-80407068D01*
X47021260Y-80350000D01*
X46728740Y-80350000D01*
X46441842Y-80407068D01*
X46171589Y-80519010D01*
X45928368Y-80681525D01*
X45721525Y-80888368D01*
X45605000Y-81062760D01*
X45488475Y-80888368D01*
X45281632Y-80681525D01*
X45220000Y-80640344D01*
X45220000Y-75411578D01*
X53300049Y-67331530D01*
X53333817Y-67303817D01*
X53444411Y-67169059D01*
X53501623Y-67062021D01*
X53639869Y-67187385D01*
X53881119Y-67332070D01*
X54145960Y-67426909D01*
X54368000Y-67305624D01*
X54368000Y-66162000D01*
X54622000Y-66162000D01*
X54622000Y-67305624D01*
X54844040Y-67426909D01*
X55108881Y-67332070D01*
X55350131Y-67187385D01*
X55558519Y-66998414D01*
X55726037Y-66772420D01*
X55846246Y-66518087D01*
X55886904Y-66384039D01*
X55764915Y-66162000D01*
X54622000Y-66162000D01*
X54368000Y-66162000D01*
X54348000Y-66162000D01*
X54348000Y-65908000D01*
X54368000Y-65908000D01*
X54368000Y-65888000D01*
X54622000Y-65888000D01*
X54622000Y-65908000D01*
X55764915Y-65908000D01*
X55886904Y-65685961D01*
X55846246Y-65551913D01*
X55726037Y-65297580D01*
X55558519Y-65071586D01*
X55350131Y-64882615D01*
X55164135Y-64771067D01*
X55174727Y-64766680D01*
X55409759Y-64609637D01*
X55609637Y-64409759D01*
X55766680Y-64174727D01*
X55874853Y-63913574D01*
X55930000Y-63636335D01*
X55930000Y-63353665D01*
X55874853Y-63076426D01*
X55766680Y-62815273D01*
X55609637Y-62580241D01*
X55409759Y-62380363D01*
X55177241Y-62225000D01*
X55409759Y-62069637D01*
X55609637Y-61869759D01*
X55766680Y-61634727D01*
X55874853Y-61373574D01*
X55930000Y-61096335D01*
X55930000Y-60813665D01*
X55874853Y-60536426D01*
X55766680Y-60275273D01*
X55609637Y-60040241D01*
X55409759Y-59840363D01*
X55177241Y-59685000D01*
X55409759Y-59529637D01*
X55609637Y-59329759D01*
X55766680Y-59094727D01*
X55874853Y-58833574D01*
X55930000Y-58556335D01*
X55930000Y-58273665D01*
X55874853Y-57996426D01*
X55766680Y-57735273D01*
X55609637Y-57500241D01*
X55409759Y-57300363D01*
X55177241Y-57145000D01*
X55409759Y-56989637D01*
X55609637Y-56789759D01*
X55629521Y-56760000D01*
X62733422Y-56760000D01*
X63086928Y-57113506D01*
X63086928Y-57775000D01*
X63103992Y-57948254D01*
X63154528Y-58114850D01*
X63236595Y-58268386D01*
X63347038Y-58402962D01*
X63481614Y-58513405D01*
X63635150Y-58595472D01*
X63801746Y-58646008D01*
X63975000Y-58663072D01*
X64775000Y-58663072D01*
X64948254Y-58646008D01*
X65114850Y-58595472D01*
X65268386Y-58513405D01*
X65402962Y-58402962D01*
X65513405Y-58268386D01*
X65595472Y-58114850D01*
X65646008Y-57948254D01*
X65663072Y-57775000D01*
X65663072Y-56525000D01*
X65646008Y-56351746D01*
X65595472Y-56185150D01*
X65513405Y-56031614D01*
X65402962Y-55897038D01*
X65379155Y-55877500D01*
X65402962Y-55857962D01*
X65513405Y-55723386D01*
X65595472Y-55569850D01*
X65646008Y-55403254D01*
X65663072Y-55230000D01*
X65663072Y-53980000D01*
X65646008Y-53806746D01*
X65595472Y-53640150D01*
X65513405Y-53486614D01*
X65402962Y-53352038D01*
X65268386Y-53241595D01*
X65114850Y-53159528D01*
X64948254Y-53108992D01*
X64775000Y-53091928D01*
X63975000Y-53091928D01*
X63801746Y-53108992D01*
X63635150Y-53159528D01*
X63481614Y-53241595D01*
X63347038Y-53352038D01*
X63236595Y-53486614D01*
X63154528Y-53640150D01*
X63130306Y-53720000D01*
X55881531Y-53720000D01*
X55930000Y-53476335D01*
X55930000Y-53193665D01*
X55874853Y-52916426D01*
X55766680Y-52655273D01*
X55609637Y-52420241D01*
X55409759Y-52220363D01*
X55177241Y-52065000D01*
X55409759Y-51909637D01*
X55609637Y-51709759D01*
X55766680Y-51474727D01*
X55874853Y-51213574D01*
X55930000Y-50936335D01*
X55930000Y-50653665D01*
X55885509Y-50429999D01*
X57551534Y-50429999D01*
X57595003Y-50434280D01*
X57638472Y-50429999D01*
X57638480Y-50429999D01*
X57768493Y-50417194D01*
X57935316Y-50366588D01*
X58089062Y-50284410D01*
X58223820Y-50173816D01*
X58251537Y-50140043D01*
X60805049Y-47586532D01*
X60838817Y-47558819D01*
X60872662Y-47517580D01*
X60949410Y-47424062D01*
X60949411Y-47424061D01*
X61031589Y-47270315D01*
X61082195Y-47103492D01*
X61095000Y-46973479D01*
X61095000Y-46973469D01*
X61099281Y-46930003D01*
X61095000Y-46886537D01*
X61095000Y-41446580D01*
X62153468Y-42505049D01*
X62181181Y-42538817D01*
X62214949Y-42566530D01*
X62214951Y-42566532D01*
X62267928Y-42610009D01*
X62315939Y-42649411D01*
X62469685Y-42731589D01*
X62636508Y-42782195D01*
X62766521Y-42795000D01*
X62766531Y-42795000D01*
X62809997Y-42799281D01*
X62853463Y-42795000D01*
X68103422Y-42795000D01*
X69609299Y-44300878D01*
X69608000Y-44307408D01*
X69608000Y-44582592D01*
X69661686Y-44852490D01*
X69766995Y-45106727D01*
X69919880Y-45335535D01*
X70114465Y-45530120D01*
X70343273Y-45683005D01*
X70420515Y-45715000D01*
X70343273Y-45746995D01*
X70114465Y-45899880D01*
X69919880Y-46094465D01*
X69766995Y-46323273D01*
X69661686Y-46577510D01*
X69608000Y-46847408D01*
X69608000Y-47122592D01*
X69661686Y-47392490D01*
X69766995Y-47646727D01*
X69919880Y-47875535D01*
X70114465Y-48070120D01*
X70343273Y-48223005D01*
X70420515Y-48255000D01*
X70343273Y-48286995D01*
X70114465Y-48439880D01*
X69919880Y-48634465D01*
X69766995Y-48863273D01*
X69661686Y-49117510D01*
X69608000Y-49387408D01*
X69608000Y-49662592D01*
X69661686Y-49932490D01*
X69766995Y-50186727D01*
X69919880Y-50415535D01*
X70114465Y-50610120D01*
X70343273Y-50763005D01*
X70420515Y-50795000D01*
X70343273Y-50826995D01*
X70114465Y-50979880D01*
X69919880Y-51174465D01*
X69766995Y-51403273D01*
X69661686Y-51657510D01*
X69608000Y-51927408D01*
X69608000Y-52202592D01*
X69661686Y-52472490D01*
X69766995Y-52726727D01*
X69919880Y-52955535D01*
X70114465Y-53150120D01*
X70343273Y-53303005D01*
X70420515Y-53335000D01*
X70343273Y-53366995D01*
X70114465Y-53519880D01*
X69919880Y-53714465D01*
X69916182Y-53720000D01*
X68719694Y-53720000D01*
X68695472Y-53640150D01*
X68613405Y-53486614D01*
X68502962Y-53352038D01*
X68368386Y-53241595D01*
X68214850Y-53159528D01*
X68048254Y-53108992D01*
X67875000Y-53091928D01*
X67075000Y-53091928D01*
X66901746Y-53108992D01*
X66735150Y-53159528D01*
X66581614Y-53241595D01*
X66447038Y-53352038D01*
X66336595Y-53486614D01*
X66254528Y-53640150D01*
X66203992Y-53806746D01*
X66186928Y-53980000D01*
X66186928Y-55230000D01*
X66203992Y-55403254D01*
X66254528Y-55569850D01*
X66336595Y-55723386D01*
X66447038Y-55857962D01*
X66470845Y-55877500D01*
X66447038Y-55897038D01*
X66336595Y-56031614D01*
X66254528Y-56185150D01*
X66203992Y-56351746D01*
X66186928Y-56525000D01*
X66186928Y-57775000D01*
X66203992Y-57948254D01*
X66254528Y-58114850D01*
X66336595Y-58268386D01*
X66447038Y-58402962D01*
X66581614Y-58513405D01*
X66735150Y-58595472D01*
X66901746Y-58646008D01*
X67075000Y-58663072D01*
X67875000Y-58663072D01*
X68048254Y-58646008D01*
X68214850Y-58595472D01*
X68368386Y-58513405D01*
X68502962Y-58402962D01*
X68613405Y-58268386D01*
X68695472Y-58114850D01*
X68719694Y-58035000D01*
X69919523Y-58035000D01*
X69919880Y-58035535D01*
X70114465Y-58230120D01*
X70343273Y-58383005D01*
X70420515Y-58415000D01*
X70343273Y-58446995D01*
X70114465Y-58599880D01*
X69919880Y-58794465D01*
X69766995Y-59023273D01*
X69661686Y-59277510D01*
X69608000Y-59547408D01*
X69608000Y-59822592D01*
X69661686Y-60092490D01*
X69766995Y-60346727D01*
X69919880Y-60575535D01*
X70114465Y-60770120D01*
X70343273Y-60923005D01*
X70420515Y-60955000D01*
X70343273Y-60986995D01*
X70114465Y-61139880D01*
X69919880Y-61334465D01*
X69766995Y-61563273D01*
X69661686Y-61817510D01*
X69608000Y-62087408D01*
X69608000Y-62362592D01*
X69661686Y-62632490D01*
X69766995Y-62886727D01*
X69919880Y-63115535D01*
X70114465Y-63310120D01*
X70343273Y-63463005D01*
X70597510Y-63568314D01*
X70867408Y-63622000D01*
X71142592Y-63622000D01*
X71412490Y-63568314D01*
X71666727Y-63463005D01*
X71895535Y-63310120D01*
X72090120Y-63115535D01*
X72243005Y-62886727D01*
X72348314Y-62632490D01*
X72402000Y-62362592D01*
X72402000Y-62087408D01*
X72400701Y-62080877D01*
X75020070Y-59461509D01*
X75053837Y-59433797D01*
X75110556Y-59364686D01*
X75164431Y-59299039D01*
X75246609Y-59145294D01*
X75297215Y-58978470D01*
X75306577Y-58883410D01*
X75310020Y-58848457D01*
X75310020Y-58848449D01*
X75314301Y-58804980D01*
X75310020Y-58761511D01*
X75310020Y-39708487D01*
X75314301Y-39665018D01*
X75310020Y-39621549D01*
X75310020Y-39621541D01*
X75297215Y-39491528D01*
X75246609Y-39324705D01*
X75164431Y-39170959D01*
X75114992Y-39110718D01*
X75081552Y-39069971D01*
X75081550Y-39069969D01*
X75053837Y-39036201D01*
X75020069Y-39008488D01*
X73466523Y-37454943D01*
X73438808Y-37421172D01*
X73304050Y-37310578D01*
X73150304Y-37228400D01*
X72983481Y-37177794D01*
X72853468Y-37164989D01*
X72853460Y-37164989D01*
X72809991Y-37160708D01*
X72766522Y-37164989D01*
X68686591Y-37164989D01*
X72212066Y-33639515D01*
X72230273Y-33651680D01*
X72491426Y-33759853D01*
X72768665Y-33815000D01*
X73051335Y-33815000D01*
X73328574Y-33759853D01*
X73589727Y-33651680D01*
X73824759Y-33494637D01*
X74024637Y-33294759D01*
X74181680Y-33059727D01*
X74289853Y-32798574D01*
X74345000Y-32521335D01*
X74345000Y-32238665D01*
X74289853Y-31961426D01*
X74209395Y-31767183D01*
X74246007Y-31730572D01*
X74945001Y-31730572D01*
X75118255Y-31713508D01*
X75284851Y-31662972D01*
X75438387Y-31580905D01*
X75572962Y-31470462D01*
X75683405Y-31335887D01*
X75765472Y-31182351D01*
X75816008Y-31015755D01*
X75833072Y-30842501D01*
X75833072Y-30017499D01*
X75816008Y-29844245D01*
X75765472Y-29677649D01*
X75683405Y-29524113D01*
X75572962Y-29389538D01*
X75438387Y-29279095D01*
X75284851Y-29197028D01*
X75118255Y-29146492D01*
X74945001Y-29129428D01*
X73644999Y-29129428D01*
X73471745Y-29146492D01*
X73305149Y-29197028D01*
X73151613Y-29279095D01*
X73017038Y-29389538D01*
X72906595Y-29524113D01*
X72824528Y-29677649D01*
X72773992Y-29844245D01*
X72756928Y-30017499D01*
X72756928Y-30675385D01*
X70601518Y-28519976D01*
X70601514Y-28519971D01*
X70049043Y-27967500D01*
X72756928Y-27967500D01*
X72769188Y-28091982D01*
X72805498Y-28211680D01*
X72864463Y-28321994D01*
X72943815Y-28418685D01*
X73040506Y-28498037D01*
X73150820Y-28557002D01*
X73270518Y-28593312D01*
X73395000Y-28605572D01*
X74009250Y-28602500D01*
X74168000Y-28443750D01*
X74168000Y-27432000D01*
X74422000Y-27432000D01*
X74422000Y-28443750D01*
X74580750Y-28602500D01*
X75195000Y-28605572D01*
X75319482Y-28593312D01*
X75439180Y-28557002D01*
X75549494Y-28498037D01*
X75646185Y-28418685D01*
X75725537Y-28321994D01*
X75784502Y-28211680D01*
X75820812Y-28091982D01*
X75833072Y-27967500D01*
X75830000Y-27590750D01*
X75671250Y-27432000D01*
X74422000Y-27432000D01*
X74168000Y-27432000D01*
X72918750Y-27432000D01*
X72760000Y-27590750D01*
X72756928Y-27967500D01*
X70049043Y-27967500D01*
X68724043Y-26642500D01*
X72756928Y-26642500D01*
X72760000Y-27019250D01*
X72918750Y-27178000D01*
X74168000Y-27178000D01*
X74168000Y-26166250D01*
X74422000Y-26166250D01*
X74422000Y-27178000D01*
X75671250Y-27178000D01*
X75830000Y-27019250D01*
X75833072Y-26642500D01*
X75820812Y-26518018D01*
X75784502Y-26398320D01*
X75725537Y-26288006D01*
X75646185Y-26191315D01*
X75549494Y-26111963D01*
X75439180Y-26052998D01*
X75319482Y-26016688D01*
X75195000Y-26004428D01*
X74580750Y-26007500D01*
X74422000Y-26166250D01*
X74168000Y-26166250D01*
X74009250Y-26007500D01*
X73395000Y-26004428D01*
X73270518Y-26016688D01*
X73150820Y-26052998D01*
X73040506Y-26111963D01*
X72943815Y-26191315D01*
X72864463Y-26288006D01*
X72805498Y-26398320D01*
X72769188Y-26518018D01*
X72756928Y-26642500D01*
X68724043Y-26642500D01*
X66321498Y-24239956D01*
X66293781Y-24206183D01*
X66231415Y-24155000D01*
X77445000Y-24155000D01*
X77445001Y-82525000D01*
%TA.AperFunction,Conductor*%
D18*
G36*
X77445001Y-82525000D02*
G01*
X58523072Y-82525000D01*
X58523072Y-81598506D01*
X60920049Y-79201530D01*
X60953817Y-79173817D01*
X61064411Y-79039059D01*
X61146589Y-78885314D01*
X61197195Y-78718490D01*
X61210000Y-78588477D01*
X61210000Y-78588469D01*
X61214281Y-78545000D01*
X61210000Y-78501531D01*
X61210000Y-61498454D01*
X61242205Y-61450256D01*
X61320226Y-61261898D01*
X61360000Y-61061939D01*
X61360000Y-60858061D01*
X61320226Y-60658102D01*
X61242205Y-60469744D01*
X61128937Y-60300226D01*
X60984774Y-60156063D01*
X60815256Y-60042795D01*
X60626898Y-59964774D01*
X60426939Y-59925000D01*
X60223061Y-59925000D01*
X60023102Y-59964774D01*
X59834744Y-60042795D01*
X59665226Y-60156063D01*
X59521063Y-60300226D01*
X59407795Y-60469744D01*
X59329774Y-60658102D01*
X59290000Y-60858061D01*
X59290000Y-61061939D01*
X59329774Y-61261898D01*
X59407795Y-61450256D01*
X59440000Y-61498454D01*
X59440001Y-78178420D01*
X57271494Y-80346928D01*
X56185000Y-80346928D01*
X56060518Y-80359188D01*
X55940820Y-80395498D01*
X55830506Y-80454463D01*
X55733815Y-80533815D01*
X55654463Y-80630506D01*
X55595498Y-80740820D01*
X55571034Y-80821466D01*
X55495269Y-80737412D01*
X55261920Y-80563359D01*
X54999099Y-80438175D01*
X54851890Y-80393524D01*
X54622000Y-80514845D01*
X54622000Y-81708000D01*
X54642000Y-81708000D01*
X54642000Y-81962000D01*
X54622000Y-81962000D01*
X54622000Y-81982000D01*
X54368000Y-81982000D01*
X54368000Y-81962000D01*
X54348000Y-81962000D01*
X54348000Y-81708000D01*
X54368000Y-81708000D01*
X54368000Y-80514845D01*
X54138110Y-80393524D01*
X53990901Y-80438175D01*
X53728080Y-80563359D01*
X53494731Y-80737412D01*
X53299822Y-80953645D01*
X53230195Y-81070534D01*
X53108475Y-80888368D01*
X52901632Y-80681525D01*
X52658411Y-80519010D01*
X52388158Y-80407068D01*
X52101260Y-80350000D01*
X51808740Y-80350000D01*
X51521842Y-80407068D01*
X51251589Y-80519010D01*
X51008368Y-80681525D01*
X50801525Y-80888368D01*
X50685000Y-81062760D01*
X50568475Y-80888368D01*
X50361632Y-80681525D01*
X50118411Y-80519010D01*
X49848158Y-80407068D01*
X49561260Y-80350000D01*
X49268740Y-80350000D01*
X48981842Y-80407068D01*
X48711589Y-80519010D01*
X48468368Y-80681525D01*
X48261525Y-80888368D01*
X48145000Y-81062760D01*
X48028475Y-80888368D01*
X47821632Y-80681525D01*
X47578411Y-80519010D01*
X47308158Y-80407068D01*
X47021260Y-80350000D01*
X46728740Y-80350000D01*
X46441842Y-80407068D01*
X46171589Y-80519010D01*
X45928368Y-80681525D01*
X45721525Y-80888368D01*
X45605000Y-81062760D01*
X45488475Y-80888368D01*
X45281632Y-80681525D01*
X45220000Y-80640344D01*
X45220000Y-75411578D01*
X53300049Y-67331530D01*
X53333817Y-67303817D01*
X53444411Y-67169059D01*
X53501623Y-67062021D01*
X53639869Y-67187385D01*
X53881119Y-67332070D01*
X54145960Y-67426909D01*
X54368000Y-67305624D01*
X54368000Y-66162000D01*
X54622000Y-66162000D01*
X54622000Y-67305624D01*
X54844040Y-67426909D01*
X55108881Y-67332070D01*
X55350131Y-67187385D01*
X55558519Y-66998414D01*
X55726037Y-66772420D01*
X55846246Y-66518087D01*
X55886904Y-66384039D01*
X55764915Y-66162000D01*
X54622000Y-66162000D01*
X54368000Y-66162000D01*
X54348000Y-66162000D01*
X54348000Y-65908000D01*
X54368000Y-65908000D01*
X54368000Y-65888000D01*
X54622000Y-65888000D01*
X54622000Y-65908000D01*
X55764915Y-65908000D01*
X55886904Y-65685961D01*
X55846246Y-65551913D01*
X55726037Y-65297580D01*
X55558519Y-65071586D01*
X55350131Y-64882615D01*
X55164135Y-64771067D01*
X55174727Y-64766680D01*
X55409759Y-64609637D01*
X55609637Y-64409759D01*
X55766680Y-64174727D01*
X55874853Y-63913574D01*
X55930000Y-63636335D01*
X55930000Y-63353665D01*
X55874853Y-63076426D01*
X55766680Y-62815273D01*
X55609637Y-62580241D01*
X55409759Y-62380363D01*
X55177241Y-62225000D01*
X55409759Y-62069637D01*
X55609637Y-61869759D01*
X55766680Y-61634727D01*
X55874853Y-61373574D01*
X55930000Y-61096335D01*
X55930000Y-60813665D01*
X55874853Y-60536426D01*
X55766680Y-60275273D01*
X55609637Y-60040241D01*
X55409759Y-59840363D01*
X55177241Y-59685000D01*
X55409759Y-59529637D01*
X55609637Y-59329759D01*
X55766680Y-59094727D01*
X55874853Y-58833574D01*
X55930000Y-58556335D01*
X55930000Y-58273665D01*
X55874853Y-57996426D01*
X55766680Y-57735273D01*
X55609637Y-57500241D01*
X55409759Y-57300363D01*
X55177241Y-57145000D01*
X55409759Y-56989637D01*
X55609637Y-56789759D01*
X55629521Y-56760000D01*
X62733422Y-56760000D01*
X63086928Y-57113506D01*
X63086928Y-57775000D01*
X63103992Y-57948254D01*
X63154528Y-58114850D01*
X63236595Y-58268386D01*
X63347038Y-58402962D01*
X63481614Y-58513405D01*
X63635150Y-58595472D01*
X63801746Y-58646008D01*
X63975000Y-58663072D01*
X64775000Y-58663072D01*
X64948254Y-58646008D01*
X65114850Y-58595472D01*
X65268386Y-58513405D01*
X65402962Y-58402962D01*
X65513405Y-58268386D01*
X65595472Y-58114850D01*
X65646008Y-57948254D01*
X65663072Y-57775000D01*
X65663072Y-56525000D01*
X65646008Y-56351746D01*
X65595472Y-56185150D01*
X65513405Y-56031614D01*
X65402962Y-55897038D01*
X65379155Y-55877500D01*
X65402962Y-55857962D01*
X65513405Y-55723386D01*
X65595472Y-55569850D01*
X65646008Y-55403254D01*
X65663072Y-55230000D01*
X65663072Y-53980000D01*
X65646008Y-53806746D01*
X65595472Y-53640150D01*
X65513405Y-53486614D01*
X65402962Y-53352038D01*
X65268386Y-53241595D01*
X65114850Y-53159528D01*
X64948254Y-53108992D01*
X64775000Y-53091928D01*
X63975000Y-53091928D01*
X63801746Y-53108992D01*
X63635150Y-53159528D01*
X63481614Y-53241595D01*
X63347038Y-53352038D01*
X63236595Y-53486614D01*
X63154528Y-53640150D01*
X63130306Y-53720000D01*
X55881531Y-53720000D01*
X55930000Y-53476335D01*
X55930000Y-53193665D01*
X55874853Y-52916426D01*
X55766680Y-52655273D01*
X55609637Y-52420241D01*
X55409759Y-52220363D01*
X55177241Y-52065000D01*
X55409759Y-51909637D01*
X55609637Y-51709759D01*
X55766680Y-51474727D01*
X55874853Y-51213574D01*
X55930000Y-50936335D01*
X55930000Y-50653665D01*
X55885509Y-50429999D01*
X57551534Y-50429999D01*
X57595003Y-50434280D01*
X57638472Y-50429999D01*
X57638480Y-50429999D01*
X57768493Y-50417194D01*
X57935316Y-50366588D01*
X58089062Y-50284410D01*
X58223820Y-50173816D01*
X58251537Y-50140043D01*
X60805049Y-47586532D01*
X60838817Y-47558819D01*
X60872662Y-47517580D01*
X60949410Y-47424062D01*
X60949411Y-47424061D01*
X61031589Y-47270315D01*
X61082195Y-47103492D01*
X61095000Y-46973479D01*
X61095000Y-46973469D01*
X61099281Y-46930003D01*
X61095000Y-46886537D01*
X61095000Y-41446580D01*
X62153468Y-42505049D01*
X62181181Y-42538817D01*
X62214949Y-42566530D01*
X62214951Y-42566532D01*
X62267928Y-42610009D01*
X62315939Y-42649411D01*
X62469685Y-42731589D01*
X62636508Y-42782195D01*
X62766521Y-42795000D01*
X62766531Y-42795000D01*
X62809997Y-42799281D01*
X62853463Y-42795000D01*
X68103422Y-42795000D01*
X69609299Y-44300878D01*
X69608000Y-44307408D01*
X69608000Y-44582592D01*
X69661686Y-44852490D01*
X69766995Y-45106727D01*
X69919880Y-45335535D01*
X70114465Y-45530120D01*
X70343273Y-45683005D01*
X70420515Y-45715000D01*
X70343273Y-45746995D01*
X70114465Y-45899880D01*
X69919880Y-46094465D01*
X69766995Y-46323273D01*
X69661686Y-46577510D01*
X69608000Y-46847408D01*
X69608000Y-47122592D01*
X69661686Y-47392490D01*
X69766995Y-47646727D01*
X69919880Y-47875535D01*
X70114465Y-48070120D01*
X70343273Y-48223005D01*
X70420515Y-48255000D01*
X70343273Y-48286995D01*
X70114465Y-48439880D01*
X69919880Y-48634465D01*
X69766995Y-48863273D01*
X69661686Y-49117510D01*
X69608000Y-49387408D01*
X69608000Y-49662592D01*
X69661686Y-49932490D01*
X69766995Y-50186727D01*
X69919880Y-50415535D01*
X70114465Y-50610120D01*
X70343273Y-50763005D01*
X70420515Y-50795000D01*
X70343273Y-50826995D01*
X70114465Y-50979880D01*
X69919880Y-51174465D01*
X69766995Y-51403273D01*
X69661686Y-51657510D01*
X69608000Y-51927408D01*
X69608000Y-52202592D01*
X69661686Y-52472490D01*
X69766995Y-52726727D01*
X69919880Y-52955535D01*
X70114465Y-53150120D01*
X70343273Y-53303005D01*
X70420515Y-53335000D01*
X70343273Y-53366995D01*
X70114465Y-53519880D01*
X69919880Y-53714465D01*
X69916182Y-53720000D01*
X68719694Y-53720000D01*
X68695472Y-53640150D01*
X68613405Y-53486614D01*
X68502962Y-53352038D01*
X68368386Y-53241595D01*
X68214850Y-53159528D01*
X68048254Y-53108992D01*
X67875000Y-53091928D01*
X67075000Y-53091928D01*
X66901746Y-53108992D01*
X66735150Y-53159528D01*
X66581614Y-53241595D01*
X66447038Y-53352038D01*
X66336595Y-53486614D01*
X66254528Y-53640150D01*
X66203992Y-53806746D01*
X66186928Y-53980000D01*
X66186928Y-55230000D01*
X66203992Y-55403254D01*
X66254528Y-55569850D01*
X66336595Y-55723386D01*
X66447038Y-55857962D01*
X66470845Y-55877500D01*
X66447038Y-55897038D01*
X66336595Y-56031614D01*
X66254528Y-56185150D01*
X66203992Y-56351746D01*
X66186928Y-56525000D01*
X66186928Y-57775000D01*
X66203992Y-57948254D01*
X66254528Y-58114850D01*
X66336595Y-58268386D01*
X66447038Y-58402962D01*
X66581614Y-58513405D01*
X66735150Y-58595472D01*
X66901746Y-58646008D01*
X67075000Y-58663072D01*
X67875000Y-58663072D01*
X68048254Y-58646008D01*
X68214850Y-58595472D01*
X68368386Y-58513405D01*
X68502962Y-58402962D01*
X68613405Y-58268386D01*
X68695472Y-58114850D01*
X68719694Y-58035000D01*
X69919523Y-58035000D01*
X69919880Y-58035535D01*
X70114465Y-58230120D01*
X70343273Y-58383005D01*
X70420515Y-58415000D01*
X70343273Y-58446995D01*
X70114465Y-58599880D01*
X69919880Y-58794465D01*
X69766995Y-59023273D01*
X69661686Y-59277510D01*
X69608000Y-59547408D01*
X69608000Y-59822592D01*
X69661686Y-60092490D01*
X69766995Y-60346727D01*
X69919880Y-60575535D01*
X70114465Y-60770120D01*
X70343273Y-60923005D01*
X70420515Y-60955000D01*
X70343273Y-60986995D01*
X70114465Y-61139880D01*
X69919880Y-61334465D01*
X69766995Y-61563273D01*
X69661686Y-61817510D01*
X69608000Y-62087408D01*
X69608000Y-62362592D01*
X69661686Y-62632490D01*
X69766995Y-62886727D01*
X69919880Y-63115535D01*
X70114465Y-63310120D01*
X70343273Y-63463005D01*
X70597510Y-63568314D01*
X70867408Y-63622000D01*
X71142592Y-63622000D01*
X71412490Y-63568314D01*
X71666727Y-63463005D01*
X71895535Y-63310120D01*
X72090120Y-63115535D01*
X72243005Y-62886727D01*
X72348314Y-62632490D01*
X72402000Y-62362592D01*
X72402000Y-62087408D01*
X72400701Y-62080877D01*
X75020070Y-59461509D01*
X75053837Y-59433797D01*
X75110556Y-59364686D01*
X75164431Y-59299039D01*
X75246609Y-59145294D01*
X75297215Y-58978470D01*
X75306577Y-58883410D01*
X75310020Y-58848457D01*
X75310020Y-58848449D01*
X75314301Y-58804980D01*
X75310020Y-58761511D01*
X75310020Y-39708487D01*
X75314301Y-39665018D01*
X75310020Y-39621549D01*
X75310020Y-39621541D01*
X75297215Y-39491528D01*
X75246609Y-39324705D01*
X75164431Y-39170959D01*
X75114992Y-39110718D01*
X75081552Y-39069971D01*
X75081550Y-39069969D01*
X75053837Y-39036201D01*
X75020069Y-39008488D01*
X73466523Y-37454943D01*
X73438808Y-37421172D01*
X73304050Y-37310578D01*
X73150304Y-37228400D01*
X72983481Y-37177794D01*
X72853468Y-37164989D01*
X72853460Y-37164989D01*
X72809991Y-37160708D01*
X72766522Y-37164989D01*
X68686591Y-37164989D01*
X72212066Y-33639515D01*
X72230273Y-33651680D01*
X72491426Y-33759853D01*
X72768665Y-33815000D01*
X73051335Y-33815000D01*
X73328574Y-33759853D01*
X73589727Y-33651680D01*
X73824759Y-33494637D01*
X74024637Y-33294759D01*
X74181680Y-33059727D01*
X74289853Y-32798574D01*
X74345000Y-32521335D01*
X74345000Y-32238665D01*
X74289853Y-31961426D01*
X74209395Y-31767183D01*
X74246007Y-31730572D01*
X74945001Y-31730572D01*
X75118255Y-31713508D01*
X75284851Y-31662972D01*
X75438387Y-31580905D01*
X75572962Y-31470462D01*
X75683405Y-31335887D01*
X75765472Y-31182351D01*
X75816008Y-31015755D01*
X75833072Y-30842501D01*
X75833072Y-30017499D01*
X75816008Y-29844245D01*
X75765472Y-29677649D01*
X75683405Y-29524113D01*
X75572962Y-29389538D01*
X75438387Y-29279095D01*
X75284851Y-29197028D01*
X75118255Y-29146492D01*
X74945001Y-29129428D01*
X73644999Y-29129428D01*
X73471745Y-29146492D01*
X73305149Y-29197028D01*
X73151613Y-29279095D01*
X73017038Y-29389538D01*
X72906595Y-29524113D01*
X72824528Y-29677649D01*
X72773992Y-29844245D01*
X72756928Y-30017499D01*
X72756928Y-30675385D01*
X70601518Y-28519976D01*
X70601514Y-28519971D01*
X70049043Y-27967500D01*
X72756928Y-27967500D01*
X72769188Y-28091982D01*
X72805498Y-28211680D01*
X72864463Y-28321994D01*
X72943815Y-28418685D01*
X73040506Y-28498037D01*
X73150820Y-28557002D01*
X73270518Y-28593312D01*
X73395000Y-28605572D01*
X74009250Y-28602500D01*
X74168000Y-28443750D01*
X74168000Y-27432000D01*
X74422000Y-27432000D01*
X74422000Y-28443750D01*
X74580750Y-28602500D01*
X75195000Y-28605572D01*
X75319482Y-28593312D01*
X75439180Y-28557002D01*
X75549494Y-28498037D01*
X75646185Y-28418685D01*
X75725537Y-28321994D01*
X75784502Y-28211680D01*
X75820812Y-28091982D01*
X75833072Y-27967500D01*
X75830000Y-27590750D01*
X75671250Y-27432000D01*
X74422000Y-27432000D01*
X74168000Y-27432000D01*
X72918750Y-27432000D01*
X72760000Y-27590750D01*
X72756928Y-27967500D01*
X70049043Y-27967500D01*
X68724043Y-26642500D01*
X72756928Y-26642500D01*
X72760000Y-27019250D01*
X72918750Y-27178000D01*
X74168000Y-27178000D01*
X74168000Y-26166250D01*
X74422000Y-26166250D01*
X74422000Y-27178000D01*
X75671250Y-27178000D01*
X75830000Y-27019250D01*
X75833072Y-26642500D01*
X75820812Y-26518018D01*
X75784502Y-26398320D01*
X75725537Y-26288006D01*
X75646185Y-26191315D01*
X75549494Y-26111963D01*
X75439180Y-26052998D01*
X75319482Y-26016688D01*
X75195000Y-26004428D01*
X74580750Y-26007500D01*
X74422000Y-26166250D01*
X74168000Y-26166250D01*
X74009250Y-26007500D01*
X73395000Y-26004428D01*
X73270518Y-26016688D01*
X73150820Y-26052998D01*
X73040506Y-26111963D01*
X72943815Y-26191315D01*
X72864463Y-26288006D01*
X72805498Y-26398320D01*
X72769188Y-26518018D01*
X72756928Y-26642500D01*
X68724043Y-26642500D01*
X66321498Y-24239956D01*
X66293781Y-24206183D01*
X66231415Y-24155000D01*
X77445000Y-24155000D01*
X77445001Y-82525000D01*
G37*
%TD.AperFunction*%
D17*
X37827068Y-24401842D02*
X37770000Y-24688740D01*
X37770000Y-24981260D01*
X37827068Y-25268158D01*
X37939010Y-25538411D01*
X38101525Y-25781632D01*
X38104893Y-25785000D01*
X35483465Y-25785000D01*
X35439999Y-25780719D01*
X35396533Y-25785000D01*
X35396523Y-25785000D01*
X35266510Y-25797805D01*
X35099687Y-25848411D01*
X34945941Y-25930589D01*
X34945939Y-25930590D01*
X34945940Y-25930590D01*
X34844953Y-26013468D01*
X34844951Y-26013470D01*
X34811183Y-26041183D01*
X34783470Y-26074951D01*
X29906439Y-30951983D01*
X29871335Y-30945000D01*
X29588665Y-30945000D01*
X29311426Y-31000147D01*
X29050273Y-31108320D01*
X28815241Y-31265363D01*
X28615363Y-31465241D01*
X28458320Y-31700273D01*
X28350147Y-31961426D01*
X28295000Y-32238665D01*
X28295000Y-32521335D01*
X28350147Y-32798574D01*
X28458320Y-33059727D01*
X28615363Y-33294759D01*
X28815241Y-33494637D01*
X29050273Y-33651680D01*
X29311426Y-33759853D01*
X29588665Y-33815000D01*
X29871335Y-33815000D01*
X30148574Y-33759853D01*
X30409727Y-33651680D01*
X30644759Y-33494637D01*
X30844637Y-33294759D01*
X31000000Y-33062241D01*
X31155363Y-33294759D01*
X31355241Y-33494637D01*
X31590273Y-33651680D01*
X31851426Y-33759853D01*
X32128665Y-33815000D01*
X32411335Y-33815000D01*
X32688574Y-33759853D01*
X32949727Y-33651680D01*
X33184759Y-33494637D01*
X33384637Y-33294759D01*
X33540000Y-33062241D01*
X33695363Y-33294759D01*
X33895241Y-33494637D01*
X34130273Y-33651680D01*
X34391426Y-33759853D01*
X34668665Y-33815000D01*
X34951335Y-33815000D01*
X35228574Y-33759853D01*
X35489727Y-33651680D01*
X35724759Y-33494637D01*
X35924637Y-33294759D01*
X36080000Y-33062241D01*
X36235363Y-33294759D01*
X36435241Y-33494637D01*
X36670273Y-33651680D01*
X36931426Y-33759853D01*
X37208665Y-33815000D01*
X37491335Y-33815000D01*
X37526439Y-33808017D01*
X39343491Y-35625070D01*
X39371204Y-35658838D01*
X39404972Y-35686551D01*
X39404974Y-35686553D01*
X39505962Y-35769432D01*
X39659707Y-35851610D01*
X39826531Y-35902216D01*
X39956544Y-35915021D01*
X39956552Y-35915021D01*
X40000021Y-35919302D01*
X40043490Y-35915021D01*
X41592030Y-35915021D01*
X39294956Y-38212096D01*
X39261183Y-38239813D01*
X39150589Y-38374572D01*
X39068411Y-38528318D01*
X39017805Y-38695141D01*
X39005000Y-38825154D01*
X39005000Y-38825161D01*
X39000750Y-38868319D01*
X38975241Y-38885363D01*
X38775363Y-39085241D01*
X38620000Y-39317759D01*
X38464637Y-39085241D01*
X38264759Y-38885363D01*
X38029727Y-38728320D01*
X37768574Y-38620147D01*
X37491335Y-38565000D01*
X37208665Y-38565000D01*
X36931426Y-38620147D01*
X36670273Y-38728320D01*
X36435241Y-38885363D01*
X36235363Y-39085241D01*
X36078320Y-39320273D01*
X36073933Y-39330865D01*
X35962385Y-39144869D01*
X35773414Y-38936481D01*
X35547420Y-38768963D01*
X35293087Y-38648754D01*
X35159039Y-38608096D01*
X34937000Y-38730085D01*
X34937000Y-39873000D01*
X34957000Y-39873000D01*
X34957000Y-40127000D01*
X34937000Y-40127000D01*
X34937000Y-41269915D01*
X35159039Y-41391904D01*
X35293087Y-41351246D01*
X35547420Y-41231037D01*
X35773414Y-41063519D01*
X35962385Y-40855131D01*
X36073933Y-40669135D01*
X36078320Y-40679727D01*
X36235363Y-40914759D01*
X36435241Y-41114637D01*
X36670273Y-41271680D01*
X36931426Y-41379853D01*
X37208665Y-41435000D01*
X37491335Y-41435000D01*
X37526439Y-41428017D01*
X37943471Y-41845050D01*
X37971184Y-41878818D01*
X38004952Y-41906531D01*
X38004954Y-41906533D01*
X38009179Y-41910000D01*
X38105942Y-41989412D01*
X38259688Y-42071590D01*
X38426511Y-42122196D01*
X38556524Y-42135001D01*
X38556534Y-42135001D01*
X38600000Y-42139282D01*
X38643466Y-42135001D01*
X40446532Y-42135001D01*
X40490001Y-42139282D01*
X40533470Y-42135001D01*
X40533478Y-42135001D01*
X40663491Y-42122196D01*
X40830314Y-42071590D01*
X40984060Y-41989412D01*
X41118818Y-41878818D01*
X41146535Y-41845045D01*
X41732066Y-41259515D01*
X41750273Y-41271680D01*
X42011426Y-41379853D01*
X42288665Y-41435000D01*
X42571335Y-41435000D01*
X42606439Y-41428017D01*
X44318470Y-43140049D01*
X44346183Y-43173817D01*
X44379951Y-43201530D01*
X44379953Y-43201532D01*
X44480941Y-43284411D01*
X44634686Y-43366589D01*
X44801510Y-43417195D01*
X44931523Y-43430000D01*
X44931531Y-43430000D01*
X44975000Y-43434281D01*
X45018469Y-43430000D01*
X50433422Y-43430000D01*
X51308336Y-44304914D01*
X51269500Y-44343750D01*
X51269500Y-45593000D01*
X52281250Y-45593000D01*
X52438836Y-45435414D01*
X52966928Y-45963507D01*
X52966928Y-46370001D01*
X52983992Y-46543255D01*
X53034528Y-46709851D01*
X53116595Y-46863387D01*
X53227038Y-46997962D01*
X53239933Y-47008545D01*
X53164463Y-47100506D01*
X53105498Y-47210820D01*
X53069188Y-47330518D01*
X53056928Y-47455000D01*
X53056928Y-48659999D01*
X48249931Y-48659999D01*
X48266904Y-48604039D01*
X48144915Y-48382000D01*
X47002000Y-48382000D01*
X47002000Y-48402000D01*
X46748000Y-48402000D01*
X46748000Y-48382000D01*
X46728000Y-48382000D01*
X46728000Y-48128000D01*
X46748000Y-48128000D01*
X46748000Y-46984376D01*
X47002000Y-46984376D01*
X47002000Y-48128000D01*
X48144915Y-48128000D01*
X48266904Y-47905961D01*
X48226246Y-47771913D01*
X48106037Y-47517580D01*
X47938519Y-47291586D01*
X47730131Y-47102615D01*
X47488881Y-46957930D01*
X47224040Y-46863091D01*
X47002000Y-46984376D01*
X46748000Y-46984376D01*
X46525960Y-46863091D01*
X46261119Y-46957930D01*
X46019869Y-47102615D01*
X45811481Y-47291586D01*
X45707850Y-47431391D01*
X45575256Y-47342795D01*
X45386898Y-47264774D01*
X45186939Y-47225000D01*
X44983061Y-47225000D01*
X44783102Y-47264774D01*
X44594744Y-47342795D01*
X44546546Y-47375000D01*
X43992350Y-47375000D01*
X44116898Y-47350226D01*
X44305256Y-47272205D01*
X44474774Y-47158937D01*
X44618937Y-47014774D01*
X44732205Y-46845256D01*
X44810226Y-46656898D01*
X44817565Y-46620000D01*
X49841928Y-46620000D01*
X49854188Y-46744482D01*
X49890498Y-46864180D01*
X49949463Y-46974494D01*
X50028815Y-47071185D01*
X50125506Y-47150537D01*
X50235820Y-47209502D01*
X50355518Y-47245812D01*
X50480000Y-47258072D01*
X50856750Y-47255000D01*
X51015500Y-47096250D01*
X51015500Y-45847000D01*
X51269500Y-45847000D01*
X51269500Y-47096250D01*
X51428250Y-47255000D01*
X51805000Y-47258072D01*
X51929482Y-47245812D01*
X52049180Y-47209502D01*
X52159494Y-47150537D01*
X52256185Y-47071185D01*
X52335537Y-46974494D01*
X52394502Y-46864180D01*
X52430812Y-46744482D01*
X52443072Y-46620000D01*
X52440000Y-46005750D01*
X52281250Y-45847000D01*
X51269500Y-45847000D01*
X51015500Y-45847000D01*
X50003750Y-45847000D01*
X49845000Y-46005750D01*
X49841928Y-46620000D01*
X44817565Y-46620000D01*
X44850000Y-46456939D01*
X44850000Y-46253061D01*
X44810226Y-46053102D01*
X44732205Y-45864744D01*
X44618937Y-45695226D01*
X44474774Y-45551063D01*
X44305256Y-45437795D01*
X44116898Y-45359774D01*
X43916939Y-45320000D01*
X43713061Y-45320000D01*
X43513102Y-45359774D01*
X43324744Y-45437795D01*
X43276546Y-45470000D01*
X30846579Y-45470000D01*
X30196579Y-44820000D01*
X49841928Y-44820000D01*
X49845000Y-45434250D01*
X50003750Y-45593000D01*
X51015500Y-45593000D01*
X51015500Y-44343750D01*
X50856750Y-44185000D01*
X50480000Y-44181928D01*
X50355518Y-44194188D01*
X50235820Y-44230498D01*
X50125506Y-44289463D01*
X50028815Y-44368815D01*
X49949463Y-44465506D01*
X49890498Y-44575820D01*
X49854188Y-44695518D01*
X49841928Y-44820000D01*
X30196579Y-44820000D01*
X29226534Y-43849956D01*
X29198817Y-43816183D01*
X29064059Y-43705589D01*
X28910313Y-43623411D01*
X28743490Y-43572805D01*
X28613477Y-43560000D01*
X28613469Y-43560000D01*
X28570000Y-43555719D01*
X28526531Y-43560000D01*
X26373818Y-43560000D01*
X26370120Y-43554465D01*
X26175535Y-43359880D01*
X25946727Y-43206995D01*
X25692490Y-43101686D01*
X25422592Y-43048000D01*
X25147408Y-43048000D01*
X24877510Y-43101686D01*
X24623273Y-43206995D01*
X24394465Y-43359880D01*
X24199880Y-43554465D01*
X24046995Y-43783273D01*
X23941686Y-44037510D01*
X23888000Y-44307408D01*
X23888000Y-44582592D01*
X23941686Y-44852490D01*
X24046995Y-45106727D01*
X24199880Y-45335535D01*
X24394465Y-45530120D01*
X24623273Y-45683005D01*
X24700515Y-45715000D01*
X24623273Y-45746995D01*
X24394465Y-45899880D01*
X24199880Y-46094465D01*
X24046995Y-46323273D01*
X23941686Y-46577510D01*
X23888000Y-46847408D01*
X23888000Y-47122592D01*
X23889299Y-47129123D01*
X23477955Y-47540467D01*
X23444182Y-47568184D01*
X23333588Y-47702943D01*
X23251410Y-47856689D01*
X23200804Y-48023512D01*
X23187999Y-48153525D01*
X23187999Y-48153532D01*
X23183718Y-48197001D01*
X23187999Y-48240470D01*
X23188000Y-63174520D01*
X23183718Y-63217999D01*
X23200804Y-63391489D01*
X23251411Y-63558312D01*
X23333589Y-63712058D01*
X23416467Y-63813045D01*
X23416470Y-63813048D01*
X23444183Y-63846816D01*
X23477950Y-63874528D01*
X26873468Y-67270047D01*
X26891928Y-67292540D01*
X26891928Y-67300000D01*
X26908992Y-67473254D01*
X26959528Y-67639850D01*
X27041595Y-67793386D01*
X27152038Y-67927962D01*
X27286614Y-68038405D01*
X27440150Y-68120472D01*
X27606746Y-68171008D01*
X27780000Y-68188072D01*
X28580000Y-68188072D01*
X28753254Y-68171008D01*
X28919850Y-68120472D01*
X29073386Y-68038405D01*
X29207962Y-67927962D01*
X29318405Y-67793386D01*
X29400472Y-67639850D01*
X29451008Y-67473254D01*
X29468072Y-67300000D01*
X29468072Y-66050000D01*
X29451008Y-65876746D01*
X29400472Y-65710150D01*
X29318405Y-65556614D01*
X29207962Y-65422038D01*
X29073386Y-65311595D01*
X28919850Y-65229528D01*
X28753254Y-65178992D01*
X28580000Y-65161928D01*
X27780000Y-65161928D01*
X27606746Y-65178992D01*
X27440150Y-65229528D01*
X27372348Y-65265769D01*
X25677812Y-63571234D01*
X25692490Y-63568314D01*
X25946727Y-63463005D01*
X26175535Y-63310120D01*
X26370120Y-63115535D01*
X26373818Y-63110000D01*
X26935306Y-63110000D01*
X26959528Y-63189850D01*
X27041595Y-63343386D01*
X27152038Y-63477962D01*
X27286614Y-63588405D01*
X27440150Y-63670472D01*
X27606746Y-63721008D01*
X27780000Y-63738072D01*
X28580000Y-63738072D01*
X28753254Y-63721008D01*
X28919850Y-63670472D01*
X29073386Y-63588405D01*
X29207962Y-63477962D01*
X29318405Y-63343386D01*
X29400472Y-63189850D01*
X29451008Y-63023254D01*
X29468072Y-62850000D01*
X29468072Y-61600000D01*
X29451008Y-61426746D01*
X29400472Y-61260150D01*
X29318405Y-61106614D01*
X29207962Y-60972038D01*
X29190247Y-60957500D01*
X29207962Y-60942962D01*
X29318405Y-60808386D01*
X29400472Y-60654850D01*
X29451008Y-60488254D01*
X29468072Y-60315000D01*
X29468072Y-59065000D01*
X29451008Y-58891746D01*
X29400472Y-58725150D01*
X29318405Y-58571614D01*
X29207962Y-58437038D01*
X29073386Y-58326595D01*
X28919850Y-58244528D01*
X28753254Y-58193992D01*
X28580000Y-58176928D01*
X27780000Y-58176928D01*
X27606746Y-58193992D01*
X27440150Y-58244528D01*
X27286614Y-58326595D01*
X27152038Y-58437038D01*
X27041595Y-58571614D01*
X26959528Y-58725150D01*
X26936823Y-58800000D01*
X26373818Y-58800000D01*
X26370120Y-58794465D01*
X26175535Y-58599880D01*
X25946727Y-58446995D01*
X25869485Y-58415000D01*
X25946727Y-58383005D01*
X26175535Y-58230120D01*
X26370120Y-58035535D01*
X26373818Y-58030000D01*
X31655761Y-58030000D01*
X31728809Y-58037194D01*
X31749999Y-58039281D01*
X31750000Y-58039281D01*
X31923490Y-58022195D01*
X32090313Y-57971588D01*
X32244059Y-57889410D01*
X32345046Y-57806532D01*
X32378817Y-57778817D01*
X32406532Y-57745046D01*
X38466579Y-51685000D01*
X40736546Y-51685000D01*
X40784744Y-51717205D01*
X40973102Y-51795226D01*
X41173061Y-51835000D01*
X41376939Y-51835000D01*
X41576898Y-51795226D01*
X41765256Y-51717205D01*
X41934774Y-51603937D01*
X42010067Y-51528644D01*
X43161471Y-52680048D01*
X43189184Y-52713816D01*
X43222952Y-52741529D01*
X43222954Y-52741531D01*
X43294453Y-52800209D01*
X43323942Y-52824410D01*
X43477688Y-52906588D01*
X43578584Y-52937195D01*
X43644510Y-52957194D01*
X43659307Y-52958651D01*
X43774524Y-52969999D01*
X43774532Y-52969999D01*
X43818001Y-52974280D01*
X43861470Y-52969999D01*
X45484491Y-52969999D01*
X45440000Y-53193665D01*
X45440000Y-53476335D01*
X45495147Y-53753574D01*
X45603320Y-54014727D01*
X45760363Y-54249759D01*
X45960241Y-54449637D01*
X46192759Y-54605000D01*
X45960241Y-54760363D01*
X45760363Y-54960241D01*
X45740479Y-54990000D01*
X43228469Y-54990000D01*
X43185000Y-54985719D01*
X43141531Y-54990000D01*
X43141523Y-54990000D01*
X43011510Y-55002805D01*
X42844687Y-55053411D01*
X42759285Y-55099059D01*
X42690941Y-55135589D01*
X42589953Y-55218468D01*
X42589951Y-55218470D01*
X42556183Y-55246183D01*
X42528470Y-55279951D01*
X39003422Y-58805000D01*
X32524694Y-58805000D01*
X32500472Y-58725150D01*
X32418405Y-58571614D01*
X32307962Y-58437038D01*
X32173386Y-58326595D01*
X32019850Y-58244528D01*
X31853254Y-58193992D01*
X31680000Y-58176928D01*
X30880000Y-58176928D01*
X30706746Y-58193992D01*
X30540150Y-58244528D01*
X30386614Y-58326595D01*
X30252038Y-58437038D01*
X30141595Y-58571614D01*
X30059528Y-58725150D01*
X30008992Y-58891746D01*
X29991928Y-59065000D01*
X29991928Y-60315000D01*
X30008992Y-60488254D01*
X30059528Y-60654850D01*
X30141595Y-60808386D01*
X30252038Y-60942962D01*
X30269753Y-60957500D01*
X30252038Y-60972038D01*
X30141595Y-61106614D01*
X30059528Y-61260150D01*
X30008992Y-61426746D01*
X29991928Y-61600000D01*
X29991928Y-62850000D01*
X30008992Y-63023254D01*
X30059528Y-63189850D01*
X30141595Y-63343386D01*
X30252038Y-63477962D01*
X30386614Y-63588405D01*
X30540150Y-63670472D01*
X30706746Y-63721008D01*
X30880000Y-63738072D01*
X31680000Y-63738072D01*
X31853254Y-63721008D01*
X32019850Y-63670472D01*
X32173386Y-63588405D01*
X32307962Y-63477962D01*
X32418405Y-63343386D01*
X32500472Y-63189850D01*
X32524694Y-63110000D01*
X39966531Y-63110000D01*
X40010000Y-63114281D01*
X40053469Y-63110000D01*
X40053477Y-63110000D01*
X40183490Y-63097195D01*
X40350313Y-63046589D01*
X40504059Y-62964411D01*
X40638817Y-62853817D01*
X40666534Y-62820044D01*
X42896580Y-60589999D01*
X45484491Y-60589999D01*
X45440000Y-60813665D01*
X45440000Y-61096335D01*
X45491845Y-61356972D01*
X45404686Y-61383412D01*
X45250940Y-61465590D01*
X45250938Y-61465591D01*
X45250939Y-61465591D01*
X45149952Y-61548469D01*
X45149950Y-61548471D01*
X45116182Y-61576184D01*
X45088469Y-61609952D01*
X40908422Y-65790000D01*
X32524694Y-65790000D01*
X32500472Y-65710150D01*
X32418405Y-65556614D01*
X32307962Y-65422038D01*
X32173386Y-65311595D01*
X32019850Y-65229528D01*
X31853254Y-65178992D01*
X31680000Y-65161928D01*
X30880000Y-65161928D01*
X30706746Y-65178992D01*
X30540150Y-65229528D01*
X30386614Y-65311595D01*
X30252038Y-65422038D01*
X30141595Y-65556614D01*
X30059528Y-65710150D01*
X30008992Y-65876746D01*
X29991928Y-66050000D01*
X29991928Y-67300000D01*
X30008992Y-67473254D01*
X30059528Y-67639850D01*
X30141595Y-67793386D01*
X30252038Y-67927962D01*
X30386614Y-68038405D01*
X30540150Y-68120472D01*
X30706746Y-68171008D01*
X30880000Y-68188072D01*
X31680000Y-68188072D01*
X31853254Y-68171008D01*
X32019850Y-68120472D01*
X32173386Y-68038405D01*
X32307962Y-67927962D01*
X32418405Y-67793386D01*
X32500472Y-67639850D01*
X32524694Y-67560000D01*
X41231531Y-67560000D01*
X41275000Y-67564281D01*
X41318469Y-67560000D01*
X41318477Y-67560000D01*
X41448490Y-67547195D01*
X41615313Y-67496589D01*
X41629319Y-67489103D01*
X38659952Y-70458470D01*
X38626184Y-70486183D01*
X38598471Y-70519951D01*
X38598468Y-70519954D01*
X38515590Y-70620941D01*
X38433412Y-70774687D01*
X38382805Y-70941510D01*
X38365719Y-71115000D01*
X38370001Y-71158479D01*
X38370000Y-80640344D01*
X38308368Y-80681525D01*
X38101525Y-80888368D01*
X37939010Y-81131589D01*
X37827068Y-81401842D01*
X37770000Y-81688740D01*
X37770000Y-81981260D01*
X37827068Y-82268158D01*
X37933455Y-82525000D01*
X19075000Y-82525000D01*
X19075000Y-40349040D01*
X28338091Y-40349040D01*
X28432930Y-40613881D01*
X28577615Y-40855131D01*
X28766586Y-41063519D01*
X28992580Y-41231037D01*
X29246913Y-41351246D01*
X29380961Y-41391904D01*
X29603000Y-41269915D01*
X29603000Y-40127000D01*
X29857000Y-40127000D01*
X29857000Y-41269915D01*
X30079039Y-41391904D01*
X30213087Y-41351246D01*
X30467420Y-41231037D01*
X30693414Y-41063519D01*
X30882385Y-40855131D01*
X31000000Y-40659018D01*
X31117615Y-40855131D01*
X31306586Y-41063519D01*
X31532580Y-41231037D01*
X31786913Y-41351246D01*
X31920961Y-41391904D01*
X32143000Y-41269915D01*
X32143000Y-40127000D01*
X32397000Y-40127000D01*
X32397000Y-41269915D01*
X32619039Y-41391904D01*
X32753087Y-41351246D01*
X33007420Y-41231037D01*
X33233414Y-41063519D01*
X33422385Y-40855131D01*
X33540000Y-40659018D01*
X33657615Y-40855131D01*
X33846586Y-41063519D01*
X34072580Y-41231037D01*
X34326913Y-41351246D01*
X34460961Y-41391904D01*
X34683000Y-41269915D01*
X34683000Y-40127000D01*
X32397000Y-40127000D01*
X32143000Y-40127000D01*
X29857000Y-40127000D01*
X29603000Y-40127000D01*
X28459376Y-40127000D01*
X28338091Y-40349040D01*
X19075000Y-40349040D01*
X19075000Y-39650960D01*
X28338091Y-39650960D01*
X28459376Y-39873000D01*
X29603000Y-39873000D01*
X29603000Y-38730085D01*
X29857000Y-38730085D01*
X29857000Y-39873000D01*
X32143000Y-39873000D01*
X32143000Y-38730085D01*
X32397000Y-38730085D01*
X32397000Y-39873000D01*
X34683000Y-39873000D01*
X34683000Y-38730085D01*
X34460961Y-38608096D01*
X34326913Y-38648754D01*
X34072580Y-38768963D01*
X33846586Y-38936481D01*
X33657615Y-39144869D01*
X33540000Y-39340982D01*
X33422385Y-39144869D01*
X33233414Y-38936481D01*
X33007420Y-38768963D01*
X32753087Y-38648754D01*
X32619039Y-38608096D01*
X32397000Y-38730085D01*
X32143000Y-38730085D01*
X31920961Y-38608096D01*
X31786913Y-38648754D01*
X31532580Y-38768963D01*
X31306586Y-38936481D01*
X31117615Y-39144869D01*
X31000000Y-39340982D01*
X30882385Y-39144869D01*
X30693414Y-38936481D01*
X30467420Y-38768963D01*
X30213087Y-38648754D01*
X30079039Y-38608096D01*
X29857000Y-38730085D01*
X29603000Y-38730085D01*
X29380961Y-38608096D01*
X29246913Y-38648754D01*
X28992580Y-38768963D01*
X28766586Y-38936481D01*
X28577615Y-39144869D01*
X28432930Y-39386119D01*
X28338091Y-39650960D01*
X19075000Y-39650960D01*
X19075000Y-24155000D01*
X37929313Y-24155000D01*
X37827068Y-24401842D01*
%TA.AperFunction,Conductor*%
D18*
G36*
X37827068Y-24401842D02*
G01*
X37770000Y-24688740D01*
X37770000Y-24981260D01*
X37827068Y-25268158D01*
X37939010Y-25538411D01*
X38101525Y-25781632D01*
X38104893Y-25785000D01*
X35483465Y-25785000D01*
X35439999Y-25780719D01*
X35396533Y-25785000D01*
X35396523Y-25785000D01*
X35266510Y-25797805D01*
X35099687Y-25848411D01*
X34945941Y-25930589D01*
X34945939Y-25930590D01*
X34945940Y-25930590D01*
X34844953Y-26013468D01*
X34844951Y-26013470D01*
X34811183Y-26041183D01*
X34783470Y-26074951D01*
X29906439Y-30951983D01*
X29871335Y-30945000D01*
X29588665Y-30945000D01*
X29311426Y-31000147D01*
X29050273Y-31108320D01*
X28815241Y-31265363D01*
X28615363Y-31465241D01*
X28458320Y-31700273D01*
X28350147Y-31961426D01*
X28295000Y-32238665D01*
X28295000Y-32521335D01*
X28350147Y-32798574D01*
X28458320Y-33059727D01*
X28615363Y-33294759D01*
X28815241Y-33494637D01*
X29050273Y-33651680D01*
X29311426Y-33759853D01*
X29588665Y-33815000D01*
X29871335Y-33815000D01*
X30148574Y-33759853D01*
X30409727Y-33651680D01*
X30644759Y-33494637D01*
X30844637Y-33294759D01*
X31000000Y-33062241D01*
X31155363Y-33294759D01*
X31355241Y-33494637D01*
X31590273Y-33651680D01*
X31851426Y-33759853D01*
X32128665Y-33815000D01*
X32411335Y-33815000D01*
X32688574Y-33759853D01*
X32949727Y-33651680D01*
X33184759Y-33494637D01*
X33384637Y-33294759D01*
X33540000Y-33062241D01*
X33695363Y-33294759D01*
X33895241Y-33494637D01*
X34130273Y-33651680D01*
X34391426Y-33759853D01*
X34668665Y-33815000D01*
X34951335Y-33815000D01*
X35228574Y-33759853D01*
X35489727Y-33651680D01*
X35724759Y-33494637D01*
X35924637Y-33294759D01*
X36080000Y-33062241D01*
X36235363Y-33294759D01*
X36435241Y-33494637D01*
X36670273Y-33651680D01*
X36931426Y-33759853D01*
X37208665Y-33815000D01*
X37491335Y-33815000D01*
X37526439Y-33808017D01*
X39343491Y-35625070D01*
X39371204Y-35658838D01*
X39404972Y-35686551D01*
X39404974Y-35686553D01*
X39505962Y-35769432D01*
X39659707Y-35851610D01*
X39826531Y-35902216D01*
X39956544Y-35915021D01*
X39956552Y-35915021D01*
X40000021Y-35919302D01*
X40043490Y-35915021D01*
X41592030Y-35915021D01*
X39294956Y-38212096D01*
X39261183Y-38239813D01*
X39150589Y-38374572D01*
X39068411Y-38528318D01*
X39017805Y-38695141D01*
X39005000Y-38825154D01*
X39005000Y-38825161D01*
X39000750Y-38868319D01*
X38975241Y-38885363D01*
X38775363Y-39085241D01*
X38620000Y-39317759D01*
X38464637Y-39085241D01*
X38264759Y-38885363D01*
X38029727Y-38728320D01*
X37768574Y-38620147D01*
X37491335Y-38565000D01*
X37208665Y-38565000D01*
X36931426Y-38620147D01*
X36670273Y-38728320D01*
X36435241Y-38885363D01*
X36235363Y-39085241D01*
X36078320Y-39320273D01*
X36073933Y-39330865D01*
X35962385Y-39144869D01*
X35773414Y-38936481D01*
X35547420Y-38768963D01*
X35293087Y-38648754D01*
X35159039Y-38608096D01*
X34937000Y-38730085D01*
X34937000Y-39873000D01*
X34957000Y-39873000D01*
X34957000Y-40127000D01*
X34937000Y-40127000D01*
X34937000Y-41269915D01*
X35159039Y-41391904D01*
X35293087Y-41351246D01*
X35547420Y-41231037D01*
X35773414Y-41063519D01*
X35962385Y-40855131D01*
X36073933Y-40669135D01*
X36078320Y-40679727D01*
X36235363Y-40914759D01*
X36435241Y-41114637D01*
X36670273Y-41271680D01*
X36931426Y-41379853D01*
X37208665Y-41435000D01*
X37491335Y-41435000D01*
X37526439Y-41428017D01*
X37943471Y-41845050D01*
X37971184Y-41878818D01*
X38004952Y-41906531D01*
X38004954Y-41906533D01*
X38009179Y-41910000D01*
X38105942Y-41989412D01*
X38259688Y-42071590D01*
X38426511Y-42122196D01*
X38556524Y-42135001D01*
X38556534Y-42135001D01*
X38600000Y-42139282D01*
X38643466Y-42135001D01*
X40446532Y-42135001D01*
X40490001Y-42139282D01*
X40533470Y-42135001D01*
X40533478Y-42135001D01*
X40663491Y-42122196D01*
X40830314Y-42071590D01*
X40984060Y-41989412D01*
X41118818Y-41878818D01*
X41146535Y-41845045D01*
X41732066Y-41259515D01*
X41750273Y-41271680D01*
X42011426Y-41379853D01*
X42288665Y-41435000D01*
X42571335Y-41435000D01*
X42606439Y-41428017D01*
X44318470Y-43140049D01*
X44346183Y-43173817D01*
X44379951Y-43201530D01*
X44379953Y-43201532D01*
X44480941Y-43284411D01*
X44634686Y-43366589D01*
X44801510Y-43417195D01*
X44931523Y-43430000D01*
X44931531Y-43430000D01*
X44975000Y-43434281D01*
X45018469Y-43430000D01*
X50433422Y-43430000D01*
X51308336Y-44304914D01*
X51269500Y-44343750D01*
X51269500Y-45593000D01*
X52281250Y-45593000D01*
X52438836Y-45435414D01*
X52966928Y-45963507D01*
X52966928Y-46370001D01*
X52983992Y-46543255D01*
X53034528Y-46709851D01*
X53116595Y-46863387D01*
X53227038Y-46997962D01*
X53239933Y-47008545D01*
X53164463Y-47100506D01*
X53105498Y-47210820D01*
X53069188Y-47330518D01*
X53056928Y-47455000D01*
X53056928Y-48659999D01*
X48249931Y-48659999D01*
X48266904Y-48604039D01*
X48144915Y-48382000D01*
X47002000Y-48382000D01*
X47002000Y-48402000D01*
X46748000Y-48402000D01*
X46748000Y-48382000D01*
X46728000Y-48382000D01*
X46728000Y-48128000D01*
X46748000Y-48128000D01*
X46748000Y-46984376D01*
X47002000Y-46984376D01*
X47002000Y-48128000D01*
X48144915Y-48128000D01*
X48266904Y-47905961D01*
X48226246Y-47771913D01*
X48106037Y-47517580D01*
X47938519Y-47291586D01*
X47730131Y-47102615D01*
X47488881Y-46957930D01*
X47224040Y-46863091D01*
X47002000Y-46984376D01*
X46748000Y-46984376D01*
X46525960Y-46863091D01*
X46261119Y-46957930D01*
X46019869Y-47102615D01*
X45811481Y-47291586D01*
X45707850Y-47431391D01*
X45575256Y-47342795D01*
X45386898Y-47264774D01*
X45186939Y-47225000D01*
X44983061Y-47225000D01*
X44783102Y-47264774D01*
X44594744Y-47342795D01*
X44546546Y-47375000D01*
X43992350Y-47375000D01*
X44116898Y-47350226D01*
X44305256Y-47272205D01*
X44474774Y-47158937D01*
X44618937Y-47014774D01*
X44732205Y-46845256D01*
X44810226Y-46656898D01*
X44817565Y-46620000D01*
X49841928Y-46620000D01*
X49854188Y-46744482D01*
X49890498Y-46864180D01*
X49949463Y-46974494D01*
X50028815Y-47071185D01*
X50125506Y-47150537D01*
X50235820Y-47209502D01*
X50355518Y-47245812D01*
X50480000Y-47258072D01*
X50856750Y-47255000D01*
X51015500Y-47096250D01*
X51015500Y-45847000D01*
X51269500Y-45847000D01*
X51269500Y-47096250D01*
X51428250Y-47255000D01*
X51805000Y-47258072D01*
X51929482Y-47245812D01*
X52049180Y-47209502D01*
X52159494Y-47150537D01*
X52256185Y-47071185D01*
X52335537Y-46974494D01*
X52394502Y-46864180D01*
X52430812Y-46744482D01*
X52443072Y-46620000D01*
X52440000Y-46005750D01*
X52281250Y-45847000D01*
X51269500Y-45847000D01*
X51015500Y-45847000D01*
X50003750Y-45847000D01*
X49845000Y-46005750D01*
X49841928Y-46620000D01*
X44817565Y-46620000D01*
X44850000Y-46456939D01*
X44850000Y-46253061D01*
X44810226Y-46053102D01*
X44732205Y-45864744D01*
X44618937Y-45695226D01*
X44474774Y-45551063D01*
X44305256Y-45437795D01*
X44116898Y-45359774D01*
X43916939Y-45320000D01*
X43713061Y-45320000D01*
X43513102Y-45359774D01*
X43324744Y-45437795D01*
X43276546Y-45470000D01*
X30846579Y-45470000D01*
X30196579Y-44820000D01*
X49841928Y-44820000D01*
X49845000Y-45434250D01*
X50003750Y-45593000D01*
X51015500Y-45593000D01*
X51015500Y-44343750D01*
X50856750Y-44185000D01*
X50480000Y-44181928D01*
X50355518Y-44194188D01*
X50235820Y-44230498D01*
X50125506Y-44289463D01*
X50028815Y-44368815D01*
X49949463Y-44465506D01*
X49890498Y-44575820D01*
X49854188Y-44695518D01*
X49841928Y-44820000D01*
X30196579Y-44820000D01*
X29226534Y-43849956D01*
X29198817Y-43816183D01*
X29064059Y-43705589D01*
X28910313Y-43623411D01*
X28743490Y-43572805D01*
X28613477Y-43560000D01*
X28613469Y-43560000D01*
X28570000Y-43555719D01*
X28526531Y-43560000D01*
X26373818Y-43560000D01*
X26370120Y-43554465D01*
X26175535Y-43359880D01*
X25946727Y-43206995D01*
X25692490Y-43101686D01*
X25422592Y-43048000D01*
X25147408Y-43048000D01*
X24877510Y-43101686D01*
X24623273Y-43206995D01*
X24394465Y-43359880D01*
X24199880Y-43554465D01*
X24046995Y-43783273D01*
X23941686Y-44037510D01*
X23888000Y-44307408D01*
X23888000Y-44582592D01*
X23941686Y-44852490D01*
X24046995Y-45106727D01*
X24199880Y-45335535D01*
X24394465Y-45530120D01*
X24623273Y-45683005D01*
X24700515Y-45715000D01*
X24623273Y-45746995D01*
X24394465Y-45899880D01*
X24199880Y-46094465D01*
X24046995Y-46323273D01*
X23941686Y-46577510D01*
X23888000Y-46847408D01*
X23888000Y-47122592D01*
X23889299Y-47129123D01*
X23477955Y-47540467D01*
X23444182Y-47568184D01*
X23333588Y-47702943D01*
X23251410Y-47856689D01*
X23200804Y-48023512D01*
X23187999Y-48153525D01*
X23187999Y-48153532D01*
X23183718Y-48197001D01*
X23187999Y-48240470D01*
X23188000Y-63174520D01*
X23183718Y-63217999D01*
X23200804Y-63391489D01*
X23251411Y-63558312D01*
X23333589Y-63712058D01*
X23416467Y-63813045D01*
X23416470Y-63813048D01*
X23444183Y-63846816D01*
X23477950Y-63874528D01*
X26873468Y-67270047D01*
X26891928Y-67292540D01*
X26891928Y-67300000D01*
X26908992Y-67473254D01*
X26959528Y-67639850D01*
X27041595Y-67793386D01*
X27152038Y-67927962D01*
X27286614Y-68038405D01*
X27440150Y-68120472D01*
X27606746Y-68171008D01*
X27780000Y-68188072D01*
X28580000Y-68188072D01*
X28753254Y-68171008D01*
X28919850Y-68120472D01*
X29073386Y-68038405D01*
X29207962Y-67927962D01*
X29318405Y-67793386D01*
X29400472Y-67639850D01*
X29451008Y-67473254D01*
X29468072Y-67300000D01*
X29468072Y-66050000D01*
X29451008Y-65876746D01*
X29400472Y-65710150D01*
X29318405Y-65556614D01*
X29207962Y-65422038D01*
X29073386Y-65311595D01*
X28919850Y-65229528D01*
X28753254Y-65178992D01*
X28580000Y-65161928D01*
X27780000Y-65161928D01*
X27606746Y-65178992D01*
X27440150Y-65229528D01*
X27372348Y-65265769D01*
X25677812Y-63571234D01*
X25692490Y-63568314D01*
X25946727Y-63463005D01*
X26175535Y-63310120D01*
X26370120Y-63115535D01*
X26373818Y-63110000D01*
X26935306Y-63110000D01*
X26959528Y-63189850D01*
X27041595Y-63343386D01*
X27152038Y-63477962D01*
X27286614Y-63588405D01*
X27440150Y-63670472D01*
X27606746Y-63721008D01*
X27780000Y-63738072D01*
X28580000Y-63738072D01*
X28753254Y-63721008D01*
X28919850Y-63670472D01*
X29073386Y-63588405D01*
X29207962Y-63477962D01*
X29318405Y-63343386D01*
X29400472Y-63189850D01*
X29451008Y-63023254D01*
X29468072Y-62850000D01*
X29468072Y-61600000D01*
X29451008Y-61426746D01*
X29400472Y-61260150D01*
X29318405Y-61106614D01*
X29207962Y-60972038D01*
X29190247Y-60957500D01*
X29207962Y-60942962D01*
X29318405Y-60808386D01*
X29400472Y-60654850D01*
X29451008Y-60488254D01*
X29468072Y-60315000D01*
X29468072Y-59065000D01*
X29451008Y-58891746D01*
X29400472Y-58725150D01*
X29318405Y-58571614D01*
X29207962Y-58437038D01*
X29073386Y-58326595D01*
X28919850Y-58244528D01*
X28753254Y-58193992D01*
X28580000Y-58176928D01*
X27780000Y-58176928D01*
X27606746Y-58193992D01*
X27440150Y-58244528D01*
X27286614Y-58326595D01*
X27152038Y-58437038D01*
X27041595Y-58571614D01*
X26959528Y-58725150D01*
X26936823Y-58800000D01*
X26373818Y-58800000D01*
X26370120Y-58794465D01*
X26175535Y-58599880D01*
X25946727Y-58446995D01*
X25869485Y-58415000D01*
X25946727Y-58383005D01*
X26175535Y-58230120D01*
X26370120Y-58035535D01*
X26373818Y-58030000D01*
X31655761Y-58030000D01*
X31728809Y-58037194D01*
X31749999Y-58039281D01*
X31750000Y-58039281D01*
X31923490Y-58022195D01*
X32090313Y-57971588D01*
X32244059Y-57889410D01*
X32345046Y-57806532D01*
X32378817Y-57778817D01*
X32406532Y-57745046D01*
X38466579Y-51685000D01*
X40736546Y-51685000D01*
X40784744Y-51717205D01*
X40973102Y-51795226D01*
X41173061Y-51835000D01*
X41376939Y-51835000D01*
X41576898Y-51795226D01*
X41765256Y-51717205D01*
X41934774Y-51603937D01*
X42010067Y-51528644D01*
X43161471Y-52680048D01*
X43189184Y-52713816D01*
X43222952Y-52741529D01*
X43222954Y-52741531D01*
X43294453Y-52800209D01*
X43323942Y-52824410D01*
X43477688Y-52906588D01*
X43578584Y-52937195D01*
X43644510Y-52957194D01*
X43659307Y-52958651D01*
X43774524Y-52969999D01*
X43774532Y-52969999D01*
X43818001Y-52974280D01*
X43861470Y-52969999D01*
X45484491Y-52969999D01*
X45440000Y-53193665D01*
X45440000Y-53476335D01*
X45495147Y-53753574D01*
X45603320Y-54014727D01*
X45760363Y-54249759D01*
X45960241Y-54449637D01*
X46192759Y-54605000D01*
X45960241Y-54760363D01*
X45760363Y-54960241D01*
X45740479Y-54990000D01*
X43228469Y-54990000D01*
X43185000Y-54985719D01*
X43141531Y-54990000D01*
X43141523Y-54990000D01*
X43011510Y-55002805D01*
X42844687Y-55053411D01*
X42759285Y-55099059D01*
X42690941Y-55135589D01*
X42589953Y-55218468D01*
X42589951Y-55218470D01*
X42556183Y-55246183D01*
X42528470Y-55279951D01*
X39003422Y-58805000D01*
X32524694Y-58805000D01*
X32500472Y-58725150D01*
X32418405Y-58571614D01*
X32307962Y-58437038D01*
X32173386Y-58326595D01*
X32019850Y-58244528D01*
X31853254Y-58193992D01*
X31680000Y-58176928D01*
X30880000Y-58176928D01*
X30706746Y-58193992D01*
X30540150Y-58244528D01*
X30386614Y-58326595D01*
X30252038Y-58437038D01*
X30141595Y-58571614D01*
X30059528Y-58725150D01*
X30008992Y-58891746D01*
X29991928Y-59065000D01*
X29991928Y-60315000D01*
X30008992Y-60488254D01*
X30059528Y-60654850D01*
X30141595Y-60808386D01*
X30252038Y-60942962D01*
X30269753Y-60957500D01*
X30252038Y-60972038D01*
X30141595Y-61106614D01*
X30059528Y-61260150D01*
X30008992Y-61426746D01*
X29991928Y-61600000D01*
X29991928Y-62850000D01*
X30008992Y-63023254D01*
X30059528Y-63189850D01*
X30141595Y-63343386D01*
X30252038Y-63477962D01*
X30386614Y-63588405D01*
X30540150Y-63670472D01*
X30706746Y-63721008D01*
X30880000Y-63738072D01*
X31680000Y-63738072D01*
X31853254Y-63721008D01*
X32019850Y-63670472D01*
X32173386Y-63588405D01*
X32307962Y-63477962D01*
X32418405Y-63343386D01*
X32500472Y-63189850D01*
X32524694Y-63110000D01*
X39966531Y-63110000D01*
X40010000Y-63114281D01*
X40053469Y-63110000D01*
X40053477Y-63110000D01*
X40183490Y-63097195D01*
X40350313Y-63046589D01*
X40504059Y-62964411D01*
X40638817Y-62853817D01*
X40666534Y-62820044D01*
X42896580Y-60589999D01*
X45484491Y-60589999D01*
X45440000Y-60813665D01*
X45440000Y-61096335D01*
X45491845Y-61356972D01*
X45404686Y-61383412D01*
X45250940Y-61465590D01*
X45250938Y-61465591D01*
X45250939Y-61465591D01*
X45149952Y-61548469D01*
X45149950Y-61548471D01*
X45116182Y-61576184D01*
X45088469Y-61609952D01*
X40908422Y-65790000D01*
X32524694Y-65790000D01*
X32500472Y-65710150D01*
X32418405Y-65556614D01*
X32307962Y-65422038D01*
X32173386Y-65311595D01*
X32019850Y-65229528D01*
X31853254Y-65178992D01*
X31680000Y-65161928D01*
X30880000Y-65161928D01*
X30706746Y-65178992D01*
X30540150Y-65229528D01*
X30386614Y-65311595D01*
X30252038Y-65422038D01*
X30141595Y-65556614D01*
X30059528Y-65710150D01*
X30008992Y-65876746D01*
X29991928Y-66050000D01*
X29991928Y-67300000D01*
X30008992Y-67473254D01*
X30059528Y-67639850D01*
X30141595Y-67793386D01*
X30252038Y-67927962D01*
X30386614Y-68038405D01*
X30540150Y-68120472D01*
X30706746Y-68171008D01*
X30880000Y-68188072D01*
X31680000Y-68188072D01*
X31853254Y-68171008D01*
X32019850Y-68120472D01*
X32173386Y-68038405D01*
X32307962Y-67927962D01*
X32418405Y-67793386D01*
X32500472Y-67639850D01*
X32524694Y-67560000D01*
X41231531Y-67560000D01*
X41275000Y-67564281D01*
X41318469Y-67560000D01*
X41318477Y-67560000D01*
X41448490Y-67547195D01*
X41615313Y-67496589D01*
X41629319Y-67489103D01*
X38659952Y-70458470D01*
X38626184Y-70486183D01*
X38598471Y-70519951D01*
X38598468Y-70519954D01*
X38515590Y-70620941D01*
X38433412Y-70774687D01*
X38382805Y-70941510D01*
X38365719Y-71115000D01*
X38370001Y-71158479D01*
X38370000Y-80640344D01*
X38308368Y-80681525D01*
X38101525Y-80888368D01*
X37939010Y-81131589D01*
X37827068Y-81401842D01*
X37770000Y-81688740D01*
X37770000Y-81981260D01*
X37827068Y-82268158D01*
X37933455Y-82525000D01*
X19075000Y-82525000D01*
X19075000Y-40349040D01*
X28338091Y-40349040D01*
X28432930Y-40613881D01*
X28577615Y-40855131D01*
X28766586Y-41063519D01*
X28992580Y-41231037D01*
X29246913Y-41351246D01*
X29380961Y-41391904D01*
X29603000Y-41269915D01*
X29603000Y-40127000D01*
X29857000Y-40127000D01*
X29857000Y-41269915D01*
X30079039Y-41391904D01*
X30213087Y-41351246D01*
X30467420Y-41231037D01*
X30693414Y-41063519D01*
X30882385Y-40855131D01*
X31000000Y-40659018D01*
X31117615Y-40855131D01*
X31306586Y-41063519D01*
X31532580Y-41231037D01*
X31786913Y-41351246D01*
X31920961Y-41391904D01*
X32143000Y-41269915D01*
X32143000Y-40127000D01*
X32397000Y-40127000D01*
X32397000Y-41269915D01*
X32619039Y-41391904D01*
X32753087Y-41351246D01*
X33007420Y-41231037D01*
X33233414Y-41063519D01*
X33422385Y-40855131D01*
X33540000Y-40659018D01*
X33657615Y-40855131D01*
X33846586Y-41063519D01*
X34072580Y-41231037D01*
X34326913Y-41351246D01*
X34460961Y-41391904D01*
X34683000Y-41269915D01*
X34683000Y-40127000D01*
X32397000Y-40127000D01*
X32143000Y-40127000D01*
X29857000Y-40127000D01*
X29603000Y-40127000D01*
X28459376Y-40127000D01*
X28338091Y-40349040D01*
X19075000Y-40349040D01*
X19075000Y-39650960D01*
X28338091Y-39650960D01*
X28459376Y-39873000D01*
X29603000Y-39873000D01*
X29603000Y-38730085D01*
X29857000Y-38730085D01*
X29857000Y-39873000D01*
X32143000Y-39873000D01*
X32143000Y-38730085D01*
X32397000Y-38730085D01*
X32397000Y-39873000D01*
X34683000Y-39873000D01*
X34683000Y-38730085D01*
X34460961Y-38608096D01*
X34326913Y-38648754D01*
X34072580Y-38768963D01*
X33846586Y-38936481D01*
X33657615Y-39144869D01*
X33540000Y-39340982D01*
X33422385Y-39144869D01*
X33233414Y-38936481D01*
X33007420Y-38768963D01*
X32753087Y-38648754D01*
X32619039Y-38608096D01*
X32397000Y-38730085D01*
X32143000Y-38730085D01*
X31920961Y-38608096D01*
X31786913Y-38648754D01*
X31532580Y-38768963D01*
X31306586Y-38936481D01*
X31117615Y-39144869D01*
X31000000Y-39340982D01*
X30882385Y-39144869D01*
X30693414Y-38936481D01*
X30467420Y-38768963D01*
X30213087Y-38648754D01*
X30079039Y-38608096D01*
X29857000Y-38730085D01*
X29603000Y-38730085D01*
X29380961Y-38608096D01*
X29246913Y-38648754D01*
X28992580Y-38768963D01*
X28766586Y-38936481D01*
X28577615Y-39144869D01*
X28432930Y-39386119D01*
X28338091Y-39650960D01*
X19075000Y-39650960D01*
X19075000Y-24155000D01*
X37929313Y-24155000D01*
X37827068Y-24401842D01*
G37*
%TD.AperFunction*%
D17*
X51709774Y-63801898D02*
X51787795Y-63990256D01*
X51820000Y-64038455D01*
X51820001Y-66308420D01*
X43739956Y-74388466D01*
X43706183Y-74416183D01*
X43595589Y-74550942D01*
X43513411Y-74704688D01*
X43462805Y-74871511D01*
X43450000Y-75001524D01*
X43450000Y-75001531D01*
X43445719Y-75045000D01*
X43450000Y-75088469D01*
X43450000Y-75636524D01*
X43450001Y-80640343D01*
X43388368Y-80681525D01*
X43181525Y-80888368D01*
X43065000Y-81062760D01*
X42948475Y-80888368D01*
X42741632Y-80681525D01*
X42680000Y-80640344D01*
X42680000Y-70331578D01*
X44060044Y-68951535D01*
X44116898Y-68940226D01*
X44305256Y-68862205D01*
X44474774Y-68748937D01*
X44618937Y-68604774D01*
X44732205Y-68435256D01*
X44810226Y-68246898D01*
X44850000Y-68046939D01*
X44850000Y-67843061D01*
X44810226Y-67643102D01*
X44732205Y-67454744D01*
X44618937Y-67285226D01*
X44477645Y-67143934D01*
X45440870Y-66180709D01*
X45495147Y-66453574D01*
X45603320Y-66714727D01*
X45760363Y-66949759D01*
X45960241Y-67149637D01*
X46195273Y-67306680D01*
X46456426Y-67414853D01*
X46733665Y-67470000D01*
X47016335Y-67470000D01*
X47293574Y-67414853D01*
X47554727Y-67306680D01*
X47789759Y-67149637D01*
X47989637Y-66949759D01*
X48021409Y-66902209D01*
X48155314Y-66861589D01*
X48309060Y-66779411D01*
X48443818Y-66668817D01*
X48471535Y-66635044D01*
X51045044Y-64061536D01*
X51101898Y-64050227D01*
X51290256Y-63972206D01*
X51459774Y-63858938D01*
X51603937Y-63714775D01*
X51672141Y-63612701D01*
X51709774Y-63801898D01*
%TA.AperFunction,Conductor*%
D18*
G36*
X51709774Y-63801898D02*
G01*
X51787795Y-63990256D01*
X51820000Y-64038455D01*
X51820001Y-66308420D01*
X43739956Y-74388466D01*
X43706183Y-74416183D01*
X43595589Y-74550942D01*
X43513411Y-74704688D01*
X43462805Y-74871511D01*
X43450000Y-75001524D01*
X43450000Y-75001531D01*
X43445719Y-75045000D01*
X43450000Y-75088469D01*
X43450000Y-75636524D01*
X43450001Y-80640343D01*
X43388368Y-80681525D01*
X43181525Y-80888368D01*
X43065000Y-81062760D01*
X42948475Y-80888368D01*
X42741632Y-80681525D01*
X42680000Y-80640344D01*
X42680000Y-70331578D01*
X44060044Y-68951535D01*
X44116898Y-68940226D01*
X44305256Y-68862205D01*
X44474774Y-68748937D01*
X44618937Y-68604774D01*
X44732205Y-68435256D01*
X44810226Y-68246898D01*
X44850000Y-68046939D01*
X44850000Y-67843061D01*
X44810226Y-67643102D01*
X44732205Y-67454744D01*
X44618937Y-67285226D01*
X44477645Y-67143934D01*
X45440870Y-66180709D01*
X45495147Y-66453574D01*
X45603320Y-66714727D01*
X45760363Y-66949759D01*
X45960241Y-67149637D01*
X46195273Y-67306680D01*
X46456426Y-67414853D01*
X46733665Y-67470000D01*
X47016335Y-67470000D01*
X47293574Y-67414853D01*
X47554727Y-67306680D01*
X47789759Y-67149637D01*
X47989637Y-66949759D01*
X48021409Y-66902209D01*
X48155314Y-66861589D01*
X48309060Y-66779411D01*
X48443818Y-66668817D01*
X48471535Y-66635044D01*
X51045044Y-64061536D01*
X51101898Y-64050227D01*
X51290256Y-63972206D01*
X51459774Y-63858938D01*
X51603937Y-63714775D01*
X51672141Y-63612701D01*
X51709774Y-63801898D01*
G37*
%TD.AperFunction*%
D17*
X53066983Y-53158561D02*
X53060000Y-53193665D01*
X53060000Y-53476335D01*
X53115147Y-53753574D01*
X53223320Y-54014727D01*
X53235485Y-54032934D01*
X52649955Y-54618465D01*
X52616182Y-54646182D01*
X52505588Y-54780941D01*
X52423410Y-54934687D01*
X52388156Y-55050903D01*
X52373548Y-55099059D01*
X52372804Y-55101510D01*
X52359999Y-55231523D01*
X52359999Y-55231530D01*
X52355718Y-55274999D01*
X52359999Y-55318468D01*
X52360000Y-57121520D01*
X52355718Y-57164999D01*
X52372804Y-57338489D01*
X52423411Y-57505312D01*
X52505589Y-57659058D01*
X52588467Y-57760045D01*
X52588470Y-57760048D01*
X52616183Y-57793816D01*
X52649950Y-57821528D01*
X53066983Y-58238561D01*
X53060000Y-58273665D01*
X53060000Y-58556335D01*
X53115147Y-58833574D01*
X53223320Y-59094727D01*
X53380363Y-59329759D01*
X53580241Y-59529637D01*
X53812759Y-59685000D01*
X53580241Y-59840363D01*
X53380363Y-60040241D01*
X53223320Y-60275273D01*
X53115147Y-60536426D01*
X53060000Y-60813665D01*
X53060000Y-61096335D01*
X53066983Y-61131439D01*
X52878421Y-61320001D01*
X48265509Y-61320001D01*
X48310000Y-61096335D01*
X48310000Y-60813665D01*
X48254853Y-60536426D01*
X48146680Y-60275273D01*
X48134514Y-60257066D01*
X48720050Y-59671531D01*
X48753818Y-59643818D01*
X48810176Y-59575147D01*
X48864412Y-59509060D01*
X48946590Y-59355315D01*
X48997196Y-59188491D01*
X49010001Y-59058478D01*
X49010001Y-59058470D01*
X49014282Y-59015001D01*
X49010001Y-58971532D01*
X49010001Y-54628466D01*
X49014282Y-54585000D01*
X49010001Y-54541534D01*
X49010001Y-54541524D01*
X48997196Y-54411511D01*
X48946590Y-54244688D01*
X48864412Y-54090942D01*
X48802050Y-54014954D01*
X48781533Y-53989954D01*
X48781531Y-53989952D01*
X48753818Y-53956184D01*
X48720051Y-53928472D01*
X48303017Y-53511439D01*
X48310000Y-53476335D01*
X48310000Y-53193665D01*
X48265509Y-52969999D01*
X52878421Y-52969999D01*
X53066983Y-53158561D01*
%TA.AperFunction,Conductor*%
D18*
G36*
X53066983Y-53158561D02*
G01*
X53060000Y-53193665D01*
X53060000Y-53476335D01*
X53115147Y-53753574D01*
X53223320Y-54014727D01*
X53235485Y-54032934D01*
X52649955Y-54618465D01*
X52616182Y-54646182D01*
X52505588Y-54780941D01*
X52423410Y-54934687D01*
X52388156Y-55050903D01*
X52373548Y-55099059D01*
X52372804Y-55101510D01*
X52359999Y-55231523D01*
X52359999Y-55231530D01*
X52355718Y-55274999D01*
X52359999Y-55318468D01*
X52360000Y-57121520D01*
X52355718Y-57164999D01*
X52372804Y-57338489D01*
X52423411Y-57505312D01*
X52505589Y-57659058D01*
X52588467Y-57760045D01*
X52588470Y-57760048D01*
X52616183Y-57793816D01*
X52649950Y-57821528D01*
X53066983Y-58238561D01*
X53060000Y-58273665D01*
X53060000Y-58556335D01*
X53115147Y-58833574D01*
X53223320Y-59094727D01*
X53380363Y-59329759D01*
X53580241Y-59529637D01*
X53812759Y-59685000D01*
X53580241Y-59840363D01*
X53380363Y-60040241D01*
X53223320Y-60275273D01*
X53115147Y-60536426D01*
X53060000Y-60813665D01*
X53060000Y-61096335D01*
X53066983Y-61131439D01*
X52878421Y-61320001D01*
X48265509Y-61320001D01*
X48310000Y-61096335D01*
X48310000Y-60813665D01*
X48254853Y-60536426D01*
X48146680Y-60275273D01*
X48134514Y-60257066D01*
X48720050Y-59671531D01*
X48753818Y-59643818D01*
X48810176Y-59575147D01*
X48864412Y-59509060D01*
X48946590Y-59355315D01*
X48997196Y-59188491D01*
X49010001Y-59058478D01*
X49010001Y-59058470D01*
X49014282Y-59015001D01*
X49010001Y-58971532D01*
X49010001Y-54628466D01*
X49014282Y-54585000D01*
X49010001Y-54541534D01*
X49010001Y-54541524D01*
X48997196Y-54411511D01*
X48946590Y-54244688D01*
X48864412Y-54090942D01*
X48802050Y-54014954D01*
X48781533Y-53989954D01*
X48781531Y-53989952D01*
X48753818Y-53956184D01*
X48720051Y-53928472D01*
X48303017Y-53511439D01*
X48310000Y-53476335D01*
X48310000Y-53193665D01*
X48265509Y-52969999D01*
X52878421Y-52969999D01*
X53066983Y-53158561D01*
G37*
%TD.AperFunction*%
D17*
X51475363Y-39085241D02*
X51318320Y-39320273D01*
X51210147Y-39581426D01*
X51155000Y-39858665D01*
X51155000Y-40141335D01*
X51210147Y-40418574D01*
X51318320Y-40679727D01*
X51475363Y-40914759D01*
X51675241Y-41114637D01*
X51910273Y-41271680D01*
X52171426Y-41379853D01*
X52448665Y-41435000D01*
X52731335Y-41435000D01*
X53008574Y-41379853D01*
X53269727Y-41271680D01*
X53504759Y-41114637D01*
X53704637Y-40914759D01*
X53860000Y-40682241D01*
X54015363Y-40914759D01*
X54215241Y-41114637D01*
X54450273Y-41271680D01*
X54711426Y-41379853D01*
X54988665Y-41435000D01*
X55271335Y-41435000D01*
X55548574Y-41379853D01*
X55809727Y-41271680D01*
X56044759Y-41114637D01*
X56244637Y-40914759D01*
X56400000Y-40682241D01*
X56555363Y-40914759D01*
X56755241Y-41114637D01*
X56990273Y-41271680D01*
X57251426Y-41379853D01*
X57528665Y-41435000D01*
X57811335Y-41435000D01*
X58088574Y-41379853D01*
X58349727Y-41271680D01*
X58584759Y-41114637D01*
X58784637Y-40914759D01*
X58940000Y-40682241D01*
X59095363Y-40914759D01*
X59295241Y-41114637D01*
X59325000Y-41134521D01*
X59325001Y-46563422D01*
X57228425Y-48659999D01*
X55933072Y-48659999D01*
X55933072Y-47455000D01*
X55920812Y-47330518D01*
X55884502Y-47210820D01*
X55825537Y-47100506D01*
X55746185Y-47003815D01*
X55649494Y-46924463D01*
X55539180Y-46865498D01*
X55434285Y-46833678D01*
X55500472Y-46709851D01*
X55551008Y-46543255D01*
X55568072Y-46370001D01*
X55568072Y-45069999D01*
X55551008Y-44896745D01*
X55500472Y-44730149D01*
X55418405Y-44576613D01*
X55307962Y-44442038D01*
X55173387Y-44331595D01*
X55019851Y-44249528D01*
X54853255Y-44198992D01*
X54680001Y-44181928D01*
X53854999Y-44181928D01*
X53703434Y-44196856D01*
X51456534Y-41949956D01*
X51428817Y-41916183D01*
X51294059Y-41805589D01*
X51140313Y-41723411D01*
X50973490Y-41672805D01*
X50843477Y-41660000D01*
X50843469Y-41660000D01*
X50800000Y-41655719D01*
X50756531Y-41660000D01*
X45341579Y-41660000D01*
X45115709Y-41434130D01*
X45388574Y-41379853D01*
X45649727Y-41271680D01*
X45884759Y-41114637D01*
X46083357Y-40916039D01*
X46084188Y-40924482D01*
X46120498Y-41044180D01*
X46179463Y-41154494D01*
X46258815Y-41251185D01*
X46355506Y-41330537D01*
X46465820Y-41389502D01*
X46585518Y-41425812D01*
X46710000Y-41438072D01*
X48310000Y-41438072D01*
X48434482Y-41425812D01*
X48554180Y-41389502D01*
X48664494Y-41330537D01*
X48761185Y-41251185D01*
X48840537Y-41154494D01*
X48899502Y-41044180D01*
X48935812Y-40924482D01*
X48948072Y-40800000D01*
X48948072Y-39813506D01*
X49826590Y-38934989D01*
X51625615Y-38934989D01*
X51475363Y-39085241D01*
%TA.AperFunction,Conductor*%
D18*
G36*
X51475363Y-39085241D02*
G01*
X51318320Y-39320273D01*
X51210147Y-39581426D01*
X51155000Y-39858665D01*
X51155000Y-40141335D01*
X51210147Y-40418574D01*
X51318320Y-40679727D01*
X51475363Y-40914759D01*
X51675241Y-41114637D01*
X51910273Y-41271680D01*
X52171426Y-41379853D01*
X52448665Y-41435000D01*
X52731335Y-41435000D01*
X53008574Y-41379853D01*
X53269727Y-41271680D01*
X53504759Y-41114637D01*
X53704637Y-40914759D01*
X53860000Y-40682241D01*
X54015363Y-40914759D01*
X54215241Y-41114637D01*
X54450273Y-41271680D01*
X54711426Y-41379853D01*
X54988665Y-41435000D01*
X55271335Y-41435000D01*
X55548574Y-41379853D01*
X55809727Y-41271680D01*
X56044759Y-41114637D01*
X56244637Y-40914759D01*
X56400000Y-40682241D01*
X56555363Y-40914759D01*
X56755241Y-41114637D01*
X56990273Y-41271680D01*
X57251426Y-41379853D01*
X57528665Y-41435000D01*
X57811335Y-41435000D01*
X58088574Y-41379853D01*
X58349727Y-41271680D01*
X58584759Y-41114637D01*
X58784637Y-40914759D01*
X58940000Y-40682241D01*
X59095363Y-40914759D01*
X59295241Y-41114637D01*
X59325000Y-41134521D01*
X59325001Y-46563422D01*
X57228425Y-48659999D01*
X55933072Y-48659999D01*
X55933072Y-47455000D01*
X55920812Y-47330518D01*
X55884502Y-47210820D01*
X55825537Y-47100506D01*
X55746185Y-47003815D01*
X55649494Y-46924463D01*
X55539180Y-46865498D01*
X55434285Y-46833678D01*
X55500472Y-46709851D01*
X55551008Y-46543255D01*
X55568072Y-46370001D01*
X55568072Y-45069999D01*
X55551008Y-44896745D01*
X55500472Y-44730149D01*
X55418405Y-44576613D01*
X55307962Y-44442038D01*
X55173387Y-44331595D01*
X55019851Y-44249528D01*
X54853255Y-44198992D01*
X54680001Y-44181928D01*
X53854999Y-44181928D01*
X53703434Y-44196856D01*
X51456534Y-41949956D01*
X51428817Y-41916183D01*
X51294059Y-41805589D01*
X51140313Y-41723411D01*
X50973490Y-41672805D01*
X50843477Y-41660000D01*
X50843469Y-41660000D01*
X50800000Y-41655719D01*
X50756531Y-41660000D01*
X45341579Y-41660000D01*
X45115709Y-41434130D01*
X45388574Y-41379853D01*
X45649727Y-41271680D01*
X45884759Y-41114637D01*
X46083357Y-40916039D01*
X46084188Y-40924482D01*
X46120498Y-41044180D01*
X46179463Y-41154494D01*
X46258815Y-41251185D01*
X46355506Y-41330537D01*
X46465820Y-41389502D01*
X46585518Y-41425812D01*
X46710000Y-41438072D01*
X48310000Y-41438072D01*
X48434482Y-41425812D01*
X48554180Y-41389502D01*
X48664494Y-41330537D01*
X48761185Y-41251185D01*
X48840537Y-41154494D01*
X48899502Y-41044180D01*
X48935812Y-40924482D01*
X48948072Y-40800000D01*
X48948072Y-39813506D01*
X49826590Y-38934989D01*
X51625615Y-38934989D01*
X51475363Y-39085241D01*
G37*
%TD.AperFunction*%
D17*
X73037000Y-39873000D02*
X73057000Y-39873000D01*
X73057000Y-40127000D01*
X73037000Y-40127000D01*
X73037000Y-40147000D01*
X72783000Y-40147000D01*
X72783000Y-40127000D01*
X72763000Y-40127000D01*
X72763000Y-39873000D01*
X72783000Y-39873000D01*
X72783000Y-39853000D01*
X73037000Y-39853000D01*
X73037000Y-39873000D01*
%TA.AperFunction,Conductor*%
D18*
G36*
X73037000Y-39873000D02*
G01*
X73057000Y-39873000D01*
X73057000Y-40127000D01*
X73037000Y-40127000D01*
X73037000Y-40147000D01*
X72783000Y-40147000D01*
X72783000Y-40127000D01*
X72763000Y-40127000D01*
X72763000Y-39873000D01*
X72783000Y-39873000D01*
X72783000Y-39853000D01*
X73037000Y-39853000D01*
X73037000Y-39873000D01*
G37*
%TD.AperFunction*%
D17*
X46670000Y-29559250D02*
X46828750Y-29718000D01*
X47840500Y-29718000D01*
X47840500Y-29698000D01*
X48094500Y-29698000D01*
X48094500Y-29718000D01*
X48114500Y-29718000D01*
X48114500Y-29972000D01*
X48094500Y-29972000D01*
X48094500Y-29992000D01*
X47840500Y-29992000D01*
X47840500Y-29972000D01*
X46828750Y-29972000D01*
X46670000Y-30130750D01*
X46666928Y-30745000D01*
X46679188Y-30869482D01*
X46715498Y-30989180D01*
X46755387Y-31063807D01*
X46226535Y-30534955D01*
X46198818Y-30501182D01*
X46064060Y-30390588D01*
X45910314Y-30308410D01*
X45743491Y-30257804D01*
X45613478Y-30244999D01*
X45613470Y-30244999D01*
X45570001Y-30240718D01*
X45526532Y-30244999D01*
X43723466Y-30244999D01*
X43680000Y-30240718D01*
X43636534Y-30244999D01*
X43636524Y-30244999D01*
X43506511Y-30257804D01*
X43339688Y-30308410D01*
X43185942Y-30390588D01*
X43185940Y-30390589D01*
X43185941Y-30390589D01*
X43084954Y-30473467D01*
X43084952Y-30473469D01*
X43051184Y-30501182D01*
X43023471Y-30534950D01*
X42606439Y-30951983D01*
X42571335Y-30945000D01*
X42288665Y-30945000D01*
X42011426Y-31000147D01*
X41750273Y-31108320D01*
X41515241Y-31265363D01*
X41315363Y-31465241D01*
X41160000Y-31697759D01*
X41004637Y-31465241D01*
X40804759Y-31265363D01*
X40569727Y-31108320D01*
X40308574Y-31000147D01*
X40031335Y-30945000D01*
X39748665Y-30945000D01*
X39471426Y-31000147D01*
X39210273Y-31108320D01*
X38975241Y-31265363D01*
X38775363Y-31465241D01*
X38620000Y-31697759D01*
X38464637Y-31465241D01*
X38264759Y-31265363D01*
X38029727Y-31108320D01*
X37768574Y-31000147D01*
X37491335Y-30945000D01*
X37208665Y-30945000D01*
X36931426Y-31000147D01*
X36670273Y-31108320D01*
X36435241Y-31265363D01*
X36235363Y-31465241D01*
X36080000Y-31697759D01*
X35924637Y-31465241D01*
X35724759Y-31265363D01*
X35695000Y-31245479D01*
X35695000Y-30046540D01*
X36786521Y-28955020D01*
X46666978Y-28955020D01*
X46670000Y-29559250D01*
%TA.AperFunction,Conductor*%
D18*
G36*
X46670000Y-29559250D02*
G01*
X46828750Y-29718000D01*
X47840500Y-29718000D01*
X47840500Y-29698000D01*
X48094500Y-29698000D01*
X48094500Y-29718000D01*
X48114500Y-29718000D01*
X48114500Y-29972000D01*
X48094500Y-29972000D01*
X48094500Y-29992000D01*
X47840500Y-29992000D01*
X47840500Y-29972000D01*
X46828750Y-29972000D01*
X46670000Y-30130750D01*
X46666928Y-30745000D01*
X46679188Y-30869482D01*
X46715498Y-30989180D01*
X46755387Y-31063807D01*
X46226535Y-30534955D01*
X46198818Y-30501182D01*
X46064060Y-30390588D01*
X45910314Y-30308410D01*
X45743491Y-30257804D01*
X45613478Y-30244999D01*
X45613470Y-30244999D01*
X45570001Y-30240718D01*
X45526532Y-30244999D01*
X43723466Y-30244999D01*
X43680000Y-30240718D01*
X43636534Y-30244999D01*
X43636524Y-30244999D01*
X43506511Y-30257804D01*
X43339688Y-30308410D01*
X43185942Y-30390588D01*
X43185940Y-30390589D01*
X43185941Y-30390589D01*
X43084954Y-30473467D01*
X43084952Y-30473469D01*
X43051184Y-30501182D01*
X43023471Y-30534950D01*
X42606439Y-30951983D01*
X42571335Y-30945000D01*
X42288665Y-30945000D01*
X42011426Y-31000147D01*
X41750273Y-31108320D01*
X41515241Y-31265363D01*
X41315363Y-31465241D01*
X41160000Y-31697759D01*
X41004637Y-31465241D01*
X40804759Y-31265363D01*
X40569727Y-31108320D01*
X40308574Y-31000147D01*
X40031335Y-30945000D01*
X39748665Y-30945000D01*
X39471426Y-31000147D01*
X39210273Y-31108320D01*
X38975241Y-31265363D01*
X38775363Y-31465241D01*
X38620000Y-31697759D01*
X38464637Y-31465241D01*
X38264759Y-31265363D01*
X38029727Y-31108320D01*
X37768574Y-31000147D01*
X37491335Y-30945000D01*
X37208665Y-30945000D01*
X36931426Y-31000147D01*
X36670273Y-31108320D01*
X36435241Y-31265363D01*
X36235363Y-31465241D01*
X36080000Y-31697759D01*
X35924637Y-31465241D01*
X35724759Y-31265363D01*
X35695000Y-31245479D01*
X35695000Y-30046540D01*
X36786521Y-28955020D01*
X46666978Y-28955020D01*
X46670000Y-29559250D01*
G37*
%TD.AperFunction*%
D17*
X53299822Y-25716355D02*
X53494731Y-25932588D01*
X53728080Y-26106641D01*
X53990901Y-26231825D01*
X54138110Y-26276476D01*
X54367998Y-26155156D01*
X54367998Y-26250423D01*
X52088156Y-28530266D01*
X51998387Y-28456595D01*
X51844851Y-28374528D01*
X51678255Y-28323992D01*
X51505001Y-28306928D01*
X50679999Y-28306928D01*
X50506745Y-28323992D01*
X50340149Y-28374528D01*
X50186613Y-28456595D01*
X50052038Y-28567038D01*
X49941595Y-28701613D01*
X49859528Y-28855149D01*
X49819006Y-28988732D01*
X49704687Y-29023411D01*
X49550941Y-29105589D01*
X49550939Y-29105590D01*
X49550940Y-29105590D01*
X49449953Y-29188468D01*
X49449951Y-29188470D01*
X49416183Y-29216183D01*
X49388470Y-29249951D01*
X49265934Y-29372487D01*
X49268072Y-28945000D01*
X49255812Y-28820518D01*
X49244793Y-28784192D01*
X49348797Y-28698837D01*
X49376514Y-28665064D01*
X51736040Y-26305539D01*
X51808740Y-26320000D01*
X52101260Y-26320000D01*
X52388158Y-26262932D01*
X52658411Y-26150990D01*
X52901632Y-25988475D01*
X53108475Y-25781632D01*
X53230195Y-25599466D01*
X53299822Y-25716355D01*
%TA.AperFunction,Conductor*%
D18*
G36*
X53299822Y-25716355D02*
G01*
X53494731Y-25932588D01*
X53728080Y-26106641D01*
X53990901Y-26231825D01*
X54138110Y-26276476D01*
X54367998Y-26155156D01*
X54367998Y-26250423D01*
X52088156Y-28530266D01*
X51998387Y-28456595D01*
X51844851Y-28374528D01*
X51678255Y-28323992D01*
X51505001Y-28306928D01*
X50679999Y-28306928D01*
X50506745Y-28323992D01*
X50340149Y-28374528D01*
X50186613Y-28456595D01*
X50052038Y-28567038D01*
X49941595Y-28701613D01*
X49859528Y-28855149D01*
X49819006Y-28988732D01*
X49704687Y-29023411D01*
X49550941Y-29105589D01*
X49550939Y-29105590D01*
X49550940Y-29105590D01*
X49449953Y-29188468D01*
X49449951Y-29188470D01*
X49416183Y-29216183D01*
X49388470Y-29249951D01*
X49265934Y-29372487D01*
X49268072Y-28945000D01*
X49255812Y-28820518D01*
X49244793Y-28784192D01*
X49348797Y-28698837D01*
X49376514Y-28665064D01*
X51736040Y-26305539D01*
X51808740Y-26320000D01*
X52101260Y-26320000D01*
X52388158Y-26262932D01*
X52658411Y-26150990D01*
X52901632Y-25988475D01*
X53108475Y-25781632D01*
X53230195Y-25599466D01*
X53299822Y-25716355D01*
G37*
%TD.AperFunction*%
D17*
X54622000Y-24708000D02*
X54642000Y-24708000D01*
X54642000Y-24962000D01*
X54622000Y-24962000D01*
X54622000Y-24982000D01*
X54368000Y-24982000D01*
X54368000Y-24962000D01*
X54348000Y-24962000D01*
X54348000Y-24708000D01*
X54368000Y-24708000D01*
X54368000Y-24688000D01*
X54622000Y-24688000D01*
X54622000Y-24708000D01*
%TA.AperFunction,Conductor*%
D18*
G36*
X54622000Y-24708000D02*
G01*
X54642000Y-24708000D01*
X54642000Y-24962000D01*
X54622000Y-24962000D01*
X54622000Y-24982000D01*
X54368000Y-24982000D01*
X54368000Y-24962000D01*
X54348000Y-24962000D01*
X54348000Y-24708000D01*
X54368000Y-24708000D01*
X54368000Y-24688000D01*
X54622000Y-24688000D01*
X54622000Y-24708000D01*
G37*
%TD.AperFunction*%
%TD*%
M02*
