%TF.GenerationSoftware,KiCad,Pcbnew,(5.1.8-0-10_14)*%
%TF.CreationDate,2021-01-04T21:42:45+01:00*%
%TF.ProjectId,led-matrix,6c65642d-6d61-4747-9269-782e6b696361,rev?*%
%TF.SameCoordinates,Original*%
%TF.FileFunction,Copper,L2,Bot*%
%TF.FilePolarity,Positive*%
%FSLAX46Y46*%
G04 Gerber Fmt 4.6, Leading zero omitted, Abs format (unit mm)*
G04 Created by KiCad (PCBNEW (5.1.8-0-10_14)) date 2021-01-04 21:42:45*
%MOMM*%
%LPD*%
G01*
G04 APERTURE LIST*
%TA.AperFunction,ComponentPad*%
%ADD10O,1.700000X1.700000*%
%TD*%
%TA.AperFunction,ComponentPad*%
%ADD11R,1.700000X1.700000*%
%TD*%
%TA.AperFunction,ComponentPad*%
%ADD12C,1.524000*%
%TD*%
%TA.AperFunction,ComponentPad*%
%ADD13O,1.600000X1.600000*%
%TD*%
%TA.AperFunction,ComponentPad*%
%ADD14R,1.600000X1.600000*%
%TD*%
%TA.AperFunction,ViaPad*%
%ADD15C,0.800000*%
%TD*%
%TA.AperFunction,Conductor*%
%ADD16C,0.500000*%
%TD*%
%TA.AperFunction,Conductor*%
%ADD17C,0.254000*%
%TD*%
%TA.AperFunction,Conductor*%
%ADD18C,0.100000*%
%TD*%
G04 APERTURE END LIST*
D10*
%TO.P,J2,8*%
%TO.N,/r_clk*%
X39255000Y-24835000D03*
%TO.P,J2,7*%
%TO.N,/serial_clk*%
X41795000Y-24835000D03*
%TO.P,J2,6*%
%TO.N,/serial_out*%
X44335000Y-24835000D03*
%TO.P,J2,5*%
%TO.N,/s2*%
X46875000Y-24835000D03*
%TO.P,J2,4*%
%TO.N,/s1*%
X49415000Y-24835000D03*
%TO.P,J2,3*%
%TO.N,/s0*%
X51955000Y-24835000D03*
%TO.P,J2,2*%
%TO.N,/GND*%
X54495000Y-24835000D03*
D11*
%TO.P,J2,1*%
%TO.N,/VCC*%
X57035000Y-24835000D03*
%TD*%
D12*
%TO.P,D1,13*%
%TO.N,/c0*%
X25285000Y-54605000D03*
%TO.P,D1,7*%
%TO.N,/b5*%
X71005000Y-46985000D03*
%TO.P,D1,16*%
%TO.N,/c7*%
X25285000Y-62225000D03*
%TO.P,D1,1*%
%TO.N,/b4*%
X71005000Y-62225000D03*
%TO.P,D1,12*%
%TO.N,/b3*%
X25285000Y-52065000D03*
%TO.P,D1,3*%
%TO.N,/c1*%
X71005000Y-57145000D03*
%TO.P,D1,14*%
%TO.N,/b1*%
X25285000Y-57145000D03*
%TO.P,D1,4*%
%TO.N,/c2*%
X71005000Y-54605000D03*
%TO.P,D1,6*%
%TO.N,/c4*%
X71005000Y-49525000D03*
%TO.P,D1,2*%
%TO.N,/b6*%
X71005000Y-59685000D03*
%TO.P,D1,15*%
%TO.N,/c6*%
X25285000Y-59685000D03*
%TO.P,D1,9*%
%TO.N,/b0*%
X25285000Y-44445000D03*
%TO.P,D1,5*%
%TO.N,/b7*%
X71005000Y-52065000D03*
%TO.P,D1,10*%
%TO.N,/c3*%
X25285000Y-46985000D03*
%TO.P,D1,8*%
%TO.N,/b2*%
X71005000Y-44445000D03*
%TO.P,D1,11*%
%TO.N,/c5*%
X25285000Y-49525000D03*
%TD*%
D10*
%TO.P,J1,8*%
%TO.N,/r_clk*%
X39255000Y-81835000D03*
%TO.P,J1,7*%
%TO.N,/serial_clk*%
X41795000Y-81835000D03*
%TO.P,J1,6*%
%TO.N,/serial_in*%
X44335000Y-81835000D03*
%TO.P,J1,5*%
%TO.N,/s2*%
X46875000Y-81835000D03*
%TO.P,J1,4*%
%TO.N,/s1*%
X49415000Y-81835000D03*
%TO.P,J1,3*%
%TO.N,/s0*%
X51955000Y-81835000D03*
%TO.P,J1,2*%
%TO.N,/GND*%
X54495000Y-81835000D03*
D11*
%TO.P,J1,1*%
%TO.N,/VCC*%
X57035000Y-81835000D03*
%TD*%
D13*
%TO.P,U2,18*%
%TO.N,/b0*%
X52590000Y-40000000D03*
%TO.P,U2,9*%
%TO.N,/VCC*%
X72910000Y-32380000D03*
%TO.P,U2,17*%
%TO.N,/b1*%
X55130000Y-40000000D03*
%TO.P,U2,8*%
%TO.N,/a7*%
X70370000Y-32380000D03*
%TO.P,U2,16*%
%TO.N,/b2*%
X57670000Y-40000000D03*
%TO.P,U2,7*%
%TO.N,/a6*%
X67830000Y-32380000D03*
%TO.P,U2,15*%
%TO.N,/b3*%
X60210000Y-40000000D03*
%TO.P,U2,6*%
%TO.N,/a5*%
X65290000Y-32380000D03*
%TO.P,U2,14*%
%TO.N,/b4*%
X62750000Y-40000000D03*
%TO.P,U2,5*%
%TO.N,/a4*%
X62750000Y-32380000D03*
%TO.P,U2,13*%
%TO.N,/b5*%
X65290000Y-40000000D03*
%TO.P,U2,4*%
%TO.N,/a3*%
X60210000Y-32380000D03*
%TO.P,U2,12*%
%TO.N,/b6*%
X67830000Y-40000000D03*
%TO.P,U2,3*%
%TO.N,/a2*%
X57670000Y-32380000D03*
%TO.P,U2,11*%
%TO.N,/b7*%
X70370000Y-40000000D03*
%TO.P,U2,2*%
%TO.N,/a1*%
X55130000Y-32380000D03*
%TO.P,U2,10*%
%TO.N,/GND*%
X72910000Y-40000000D03*
D14*
%TO.P,U2,1*%
%TO.N,/a0*%
X52590000Y-32380000D03*
%TD*%
%TO.P,R5,2*%
%TO.N,/c4*%
%TA.AperFunction,SMDPad,CuDef*%
G36*
G01*
X75555000Y-52160000D02*
X74305000Y-52160000D01*
G75*
G02*
X74055000Y-51910000I0J250000D01*
G01*
X74055000Y-51110000D01*
G75*
G02*
X74305000Y-50860000I250000J0D01*
G01*
X75555000Y-50860000D01*
G75*
G02*
X75805000Y-51110000I0J-250000D01*
G01*
X75805000Y-51910000D01*
G75*
G02*
X75555000Y-52160000I-250000J0D01*
G01*
G37*
%TD.AperFunction*%
%TO.P,R5,1*%
%TO.N,/d4*%
%TA.AperFunction,SMDPad,CuDef*%
G36*
G01*
X75555000Y-55260000D02*
X74305000Y-55260000D01*
G75*
G02*
X74055000Y-55010000I0J250000D01*
G01*
X74055000Y-54210000D01*
G75*
G02*
X74305000Y-53960000I250000J0D01*
G01*
X75555000Y-53960000D01*
G75*
G02*
X75805000Y-54210000I0J-250000D01*
G01*
X75805000Y-55010000D01*
G75*
G02*
X75555000Y-55260000I-250000J0D01*
G01*
G37*
%TD.AperFunction*%
%TD*%
%TO.P,R9,1*%
%TO.N,/VCC*%
%TA.AperFunction,SMDPad,CuDef*%
G36*
G01*
X56525000Y-59750000D02*
X57775000Y-59750000D01*
G75*
G02*
X58025000Y-60000000I0J-250000D01*
G01*
X58025000Y-60800000D01*
G75*
G02*
X57775000Y-61050000I-250000J0D01*
G01*
X56525000Y-61050000D01*
G75*
G02*
X56275000Y-60800000I0J250000D01*
G01*
X56275000Y-60000000D01*
G75*
G02*
X56525000Y-59750000I250000J0D01*
G01*
G37*
%TD.AperFunction*%
%TO.P,R9,2*%
%TO.N,Net-(R9-Pad2)*%
%TA.AperFunction,SMDPad,CuDef*%
G36*
G01*
X56525000Y-62850000D02*
X57775000Y-62850000D01*
G75*
G02*
X58025000Y-63100000I0J-250000D01*
G01*
X58025000Y-63900000D01*
G75*
G02*
X57775000Y-64150000I-250000J0D01*
G01*
X56525000Y-64150000D01*
G75*
G02*
X56275000Y-63900000I0J250000D01*
G01*
X56275000Y-63100000D01*
G75*
G02*
X56525000Y-62850000I250000J0D01*
G01*
G37*
%TD.AperFunction*%
%TD*%
D13*
%TO.P,U3,16*%
%TO.N,/GND*%
X46875000Y-48255000D03*
%TO.P,U3,8*%
X54495000Y-66035000D03*
%TO.P,U3,15*%
%TO.N,/serial_clk*%
X46875000Y-50795000D03*
%TO.P,U3,7*%
%TO.N,Net-(R9-Pad2)*%
X54495000Y-63495000D03*
%TO.P,U3,14*%
%TO.N,/d7*%
X46875000Y-53335000D03*
%TO.P,U3,6*%
%TO.N,/d3*%
X54495000Y-60955000D03*
%TO.P,U3,13*%
%TO.N,/d6*%
X46875000Y-55875000D03*
%TO.P,U3,5*%
%TO.N,/d2*%
X54495000Y-58415000D03*
%TO.P,U3,12*%
%TO.N,/d5*%
X46875000Y-58415000D03*
%TO.P,U3,4*%
%TO.N,/d1*%
X54495000Y-55875000D03*
%TO.P,U3,11*%
%TO.N,/d4*%
X46875000Y-60955000D03*
%TO.P,U3,3*%
%TO.N,/d0*%
X54495000Y-53335000D03*
%TO.P,U3,10*%
%TO.N,/r_clk*%
X46875000Y-63495000D03*
%TO.P,U3,2*%
%TO.N,/serial_in*%
X54495000Y-50795000D03*
%TO.P,U3,9*%
%TO.N,/serial_out*%
X46875000Y-66035000D03*
D14*
%TO.P,U3,1*%
%TO.N,/VCC*%
X54495000Y-48255000D03*
%TD*%
%TO.P,U1,1*%
%TO.N,/a4*%
X47510000Y-40000000D03*
D13*
%TO.P,U1,9*%
%TO.N,/s2*%
X29730000Y-32380000D03*
%TO.P,U1,2*%
%TO.N,/a6*%
X44970000Y-40000000D03*
%TO.P,U1,10*%
%TO.N,/s1*%
X32270000Y-32380000D03*
%TO.P,U1,3*%
%TO.N,/VCC*%
X42430000Y-40000000D03*
%TO.P,U1,11*%
%TO.N,/s0*%
X34810000Y-32380000D03*
%TO.P,U1,4*%
%TO.N,/a7*%
X39890000Y-40000000D03*
%TO.P,U1,12*%
%TO.N,/a3*%
X37350000Y-32380000D03*
%TO.P,U1,5*%
%TO.N,/a5*%
X37350000Y-40000000D03*
%TO.P,U1,13*%
%TO.N,/a0*%
X39890000Y-32380000D03*
%TO.P,U1,6*%
%TO.N,/GND*%
X34810000Y-40000000D03*
%TO.P,U1,14*%
%TO.N,/a1*%
X42430000Y-32380000D03*
%TO.P,U1,7*%
%TO.N,/GND*%
X32270000Y-40000000D03*
%TO.P,U1,15*%
%TO.N,/a2*%
X44970000Y-32380000D03*
%TO.P,U1,8*%
%TO.N,/GND*%
X29730000Y-40000000D03*
%TO.P,U1,16*%
%TO.N,/VCC*%
X47510000Y-32380000D03*
%TD*%
D15*
%TO.N,/b1*%
X41275000Y-50800000D03*
%TO.N,/b0*%
X43815000Y-46355000D03*
%TO.N,/serial_clk*%
X43815000Y-67945000D03*
%TO.N,/serial_in*%
X52705000Y-63500000D03*
%TO.N,/GND*%
X64770000Y-48260000D03*
X39370000Y-54610000D03*
X40640000Y-64135000D03*
X45085000Y-71755000D03*
X57150000Y-43815000D03*
X49530000Y-59690000D03*
X22225000Y-26670000D03*
%TO.N,/VCC*%
X60325000Y-60960000D03*
%TO.N,/serial_out*%
X50800000Y-63055001D03*
%TO.N,/d5*%
X45085000Y-48260000D03*
%TD*%
D16*
%TO.N,/b1*%
X46524952Y-47055010D02*
X51034962Y-42545000D01*
X45031988Y-47055010D02*
X46524952Y-47055010D01*
X52585000Y-42545000D02*
X55130000Y-40000000D01*
X51034962Y-42545000D02*
X52585000Y-42545000D01*
X45031988Y-47055010D02*
X42556998Y-49530000D01*
X42556998Y-49530000D02*
X42545000Y-49530000D01*
X42545000Y-49530000D02*
X41275000Y-50800000D01*
%TO.N,/b0*%
X46235000Y-46355000D02*
X52590000Y-40000000D01*
X43815000Y-46355000D02*
X46235000Y-46355000D01*
%TO.N,/b5*%
X65290000Y-41270000D02*
X65290000Y-40000000D01*
X71005000Y-46985000D02*
X65290000Y-41270000D01*
%TO.N,/c4*%
X72945000Y-49525000D02*
X74930000Y-51510000D01*
X71005000Y-49525000D02*
X72945000Y-49525000D01*
%TO.N,/r_clk*%
X36099999Y-61488001D02*
X43826998Y-69215000D01*
X36099999Y-27990001D02*
X36099999Y-61488001D01*
X39255000Y-24835000D02*
X36099999Y-27990001D01*
X48125001Y-64745001D02*
X46875000Y-63495000D01*
X48125001Y-66635001D02*
X48125001Y-64745001D01*
X45545002Y-69215000D02*
X48125001Y-66635001D01*
X43826998Y-69215000D02*
X45545002Y-69215000D01*
%TO.N,/serial_clk*%
X46875000Y-50795000D02*
X43815000Y-53855000D01*
X41795000Y-24835000D02*
X41795000Y-25285000D01*
X41795000Y-25285000D02*
X38639999Y-28440001D01*
X43815000Y-53855000D02*
X43815000Y-53975000D01*
X43815000Y-53975000D02*
X43815000Y-67945000D01*
X46019999Y-51650001D02*
X46875000Y-50795000D01*
X40866999Y-51650001D02*
X46019999Y-51650001D01*
X38639999Y-49423001D02*
X40866999Y-51650001D01*
X38639999Y-28440001D02*
X38639999Y-49423001D01*
%TO.N,/serial_in*%
X54495000Y-50795000D02*
X52705000Y-52585000D01*
X52705000Y-52585000D02*
X52705000Y-63500000D01*
%TO.N,/s2*%
X28479999Y-63439999D02*
X46875000Y-81835000D01*
X28479999Y-33630001D02*
X28479999Y-63439999D01*
X29730000Y-32380000D02*
X28479999Y-33630001D01*
%TO.N,/s1*%
X32270000Y-31865000D02*
X32270000Y-32380000D01*
X31019999Y-63439999D02*
X49415000Y-81835000D01*
X31019999Y-33630001D02*
X31019999Y-63439999D01*
X32270000Y-32380000D02*
X31019999Y-33630001D01*
%TO.N,/s0*%
X33559999Y-33630001D02*
X34810000Y-32380000D01*
X33559999Y-63439999D02*
X33559999Y-33630001D01*
X51955000Y-81835000D02*
X33559999Y-63439999D01*
%TO.N,/VCC*%
X47510000Y-34920000D02*
X42430000Y-40000000D01*
X47510000Y-32380000D02*
X47510000Y-34920000D01*
X57150000Y-50910000D02*
X54495000Y-48255000D01*
X57150000Y-60400000D02*
X57150000Y-50910000D01*
X59765000Y-60400000D02*
X60325000Y-60960000D01*
X57150000Y-60400000D02*
X59765000Y-60400000D01*
%TO.N,/serial_out*%
X56380001Y-40600001D02*
X50800000Y-46180002D01*
X50800000Y-46180002D02*
X50800000Y-63055001D01*
X44335000Y-24835000D02*
X47440000Y-27940000D01*
X52540002Y-27940000D02*
X56380001Y-31779999D01*
X47440000Y-27940000D02*
X52540002Y-27940000D01*
X56380001Y-31779999D02*
X56380001Y-39870001D01*
X56380001Y-39870001D02*
X56380001Y-40600001D01*
X56380001Y-39399999D02*
X56380001Y-39870001D01*
%TO.N,/d4*%
X70278761Y-64745001D02*
X50665001Y-64745001D01*
X50665001Y-64745001D02*
X46875000Y-60955000D01*
X74930000Y-60093762D02*
X70278761Y-64745001D01*
X74930000Y-54610000D02*
X74930000Y-60093762D01*
%TO.N,/d5*%
X46875000Y-58415000D02*
X48125001Y-57164999D01*
X48125001Y-50194999D02*
X47460002Y-49530000D01*
X48125001Y-57164999D02*
X48125001Y-50194999D01*
X47460002Y-49530000D02*
X46355000Y-49530000D01*
X46355000Y-49530000D02*
X45085000Y-48260000D01*
%TO.N,/a0*%
X52590000Y-32380000D02*
X50795000Y-32380000D01*
X41140001Y-31129999D02*
X39890000Y-32380000D01*
X49544999Y-31129999D02*
X41140001Y-31129999D01*
X50795000Y-32380000D02*
X49544999Y-31129999D01*
%TO.N,Net-(R9-Pad2)*%
X57145000Y-63495000D02*
X57150000Y-63500000D01*
X54495000Y-63495000D02*
X57145000Y-63495000D01*
%TD*%
D17*
%TO.N,/GND*%
X37827068Y-24401842D02*
X37770000Y-24688740D01*
X37770000Y-24981260D01*
X37784461Y-25053960D01*
X35504955Y-27333467D01*
X35471182Y-27361184D01*
X35360588Y-27495943D01*
X35278410Y-27649689D01*
X35227804Y-27816512D01*
X35214999Y-27946525D01*
X35214999Y-27946532D01*
X35210718Y-27990001D01*
X35214999Y-28033470D01*
X35214999Y-30997447D01*
X34951335Y-30945000D01*
X34668665Y-30945000D01*
X34391426Y-31000147D01*
X34130273Y-31108320D01*
X33895241Y-31265363D01*
X33695363Y-31465241D01*
X33540000Y-31697759D01*
X33384637Y-31465241D01*
X33184759Y-31265363D01*
X32949727Y-31108320D01*
X32688574Y-31000147D01*
X32411335Y-30945000D01*
X32128665Y-30945000D01*
X31851426Y-31000147D01*
X31590273Y-31108320D01*
X31355241Y-31265363D01*
X31155363Y-31465241D01*
X31000000Y-31697759D01*
X30844637Y-31465241D01*
X30644759Y-31265363D01*
X30409727Y-31108320D01*
X30148574Y-31000147D01*
X29871335Y-30945000D01*
X29588665Y-30945000D01*
X29311426Y-31000147D01*
X29050273Y-31108320D01*
X28815241Y-31265363D01*
X28615363Y-31465241D01*
X28458320Y-31700273D01*
X28350147Y-31961426D01*
X28295000Y-32238665D01*
X28295000Y-32521335D01*
X28301983Y-32556439D01*
X27884955Y-32973467D01*
X27851182Y-33001184D01*
X27740588Y-33135943D01*
X27658410Y-33289689D01*
X27607804Y-33456512D01*
X27594999Y-33586525D01*
X27594999Y-33586532D01*
X27590718Y-33630001D01*
X27594999Y-33673470D01*
X27595000Y-63396520D01*
X27590718Y-63439999D01*
X27607804Y-63613489D01*
X27658411Y-63780312D01*
X27740589Y-63934058D01*
X27823467Y-64035045D01*
X27823470Y-64035048D01*
X27851183Y-64068816D01*
X27884951Y-64096529D01*
X44146770Y-80358348D01*
X43901842Y-80407068D01*
X43631589Y-80519010D01*
X43388368Y-80681525D01*
X43181525Y-80888368D01*
X43065000Y-81062760D01*
X42948475Y-80888368D01*
X42741632Y-80681525D01*
X42498411Y-80519010D01*
X42228158Y-80407068D01*
X41941260Y-80350000D01*
X41648740Y-80350000D01*
X41361842Y-80407068D01*
X41091589Y-80519010D01*
X40848368Y-80681525D01*
X40641525Y-80888368D01*
X40525000Y-81062760D01*
X40408475Y-80888368D01*
X40201632Y-80681525D01*
X39958411Y-80519010D01*
X39688158Y-80407068D01*
X39401260Y-80350000D01*
X39108740Y-80350000D01*
X38821842Y-80407068D01*
X38551589Y-80519010D01*
X38308368Y-80681525D01*
X38101525Y-80888368D01*
X37939010Y-81131589D01*
X37827068Y-81401842D01*
X37770000Y-81688740D01*
X37770000Y-81981260D01*
X37827068Y-82268158D01*
X37933455Y-82525000D01*
X19075000Y-82525000D01*
X19075000Y-44307408D01*
X23888000Y-44307408D01*
X23888000Y-44582592D01*
X23941686Y-44852490D01*
X24046995Y-45106727D01*
X24199880Y-45335535D01*
X24394465Y-45530120D01*
X24623273Y-45683005D01*
X24700515Y-45715000D01*
X24623273Y-45746995D01*
X24394465Y-45899880D01*
X24199880Y-46094465D01*
X24046995Y-46323273D01*
X23941686Y-46577510D01*
X23888000Y-46847408D01*
X23888000Y-47122592D01*
X23941686Y-47392490D01*
X24046995Y-47646727D01*
X24199880Y-47875535D01*
X24394465Y-48070120D01*
X24623273Y-48223005D01*
X24700515Y-48255000D01*
X24623273Y-48286995D01*
X24394465Y-48439880D01*
X24199880Y-48634465D01*
X24046995Y-48863273D01*
X23941686Y-49117510D01*
X23888000Y-49387408D01*
X23888000Y-49662592D01*
X23941686Y-49932490D01*
X24046995Y-50186727D01*
X24199880Y-50415535D01*
X24394465Y-50610120D01*
X24623273Y-50763005D01*
X24700515Y-50795000D01*
X24623273Y-50826995D01*
X24394465Y-50979880D01*
X24199880Y-51174465D01*
X24046995Y-51403273D01*
X23941686Y-51657510D01*
X23888000Y-51927408D01*
X23888000Y-52202592D01*
X23941686Y-52472490D01*
X24046995Y-52726727D01*
X24199880Y-52955535D01*
X24394465Y-53150120D01*
X24623273Y-53303005D01*
X24700515Y-53335000D01*
X24623273Y-53366995D01*
X24394465Y-53519880D01*
X24199880Y-53714465D01*
X24046995Y-53943273D01*
X23941686Y-54197510D01*
X23888000Y-54467408D01*
X23888000Y-54742592D01*
X23941686Y-55012490D01*
X24046995Y-55266727D01*
X24199880Y-55495535D01*
X24394465Y-55690120D01*
X24623273Y-55843005D01*
X24700515Y-55875000D01*
X24623273Y-55906995D01*
X24394465Y-56059880D01*
X24199880Y-56254465D01*
X24046995Y-56483273D01*
X23941686Y-56737510D01*
X23888000Y-57007408D01*
X23888000Y-57282592D01*
X23941686Y-57552490D01*
X24046995Y-57806727D01*
X24199880Y-58035535D01*
X24394465Y-58230120D01*
X24623273Y-58383005D01*
X24700515Y-58415000D01*
X24623273Y-58446995D01*
X24394465Y-58599880D01*
X24199880Y-58794465D01*
X24046995Y-59023273D01*
X23941686Y-59277510D01*
X23888000Y-59547408D01*
X23888000Y-59822592D01*
X23941686Y-60092490D01*
X24046995Y-60346727D01*
X24199880Y-60575535D01*
X24394465Y-60770120D01*
X24623273Y-60923005D01*
X24700515Y-60955000D01*
X24623273Y-60986995D01*
X24394465Y-61139880D01*
X24199880Y-61334465D01*
X24046995Y-61563273D01*
X23941686Y-61817510D01*
X23888000Y-62087408D01*
X23888000Y-62362592D01*
X23941686Y-62632490D01*
X24046995Y-62886727D01*
X24199880Y-63115535D01*
X24394465Y-63310120D01*
X24623273Y-63463005D01*
X24877510Y-63568314D01*
X25147408Y-63622000D01*
X25422592Y-63622000D01*
X25692490Y-63568314D01*
X25946727Y-63463005D01*
X26175535Y-63310120D01*
X26370120Y-63115535D01*
X26523005Y-62886727D01*
X26628314Y-62632490D01*
X26682000Y-62362592D01*
X26682000Y-62087408D01*
X26628314Y-61817510D01*
X26523005Y-61563273D01*
X26370120Y-61334465D01*
X26175535Y-61139880D01*
X25946727Y-60986995D01*
X25869485Y-60955000D01*
X25946727Y-60923005D01*
X26175535Y-60770120D01*
X26370120Y-60575535D01*
X26523005Y-60346727D01*
X26628314Y-60092490D01*
X26682000Y-59822592D01*
X26682000Y-59547408D01*
X26628314Y-59277510D01*
X26523005Y-59023273D01*
X26370120Y-58794465D01*
X26175535Y-58599880D01*
X25946727Y-58446995D01*
X25869485Y-58415000D01*
X25946727Y-58383005D01*
X26175535Y-58230120D01*
X26370120Y-58035535D01*
X26523005Y-57806727D01*
X26628314Y-57552490D01*
X26682000Y-57282592D01*
X26682000Y-57007408D01*
X26628314Y-56737510D01*
X26523005Y-56483273D01*
X26370120Y-56254465D01*
X26175535Y-56059880D01*
X25946727Y-55906995D01*
X25869485Y-55875000D01*
X25946727Y-55843005D01*
X26175535Y-55690120D01*
X26370120Y-55495535D01*
X26523005Y-55266727D01*
X26628314Y-55012490D01*
X26682000Y-54742592D01*
X26682000Y-54467408D01*
X26628314Y-54197510D01*
X26523005Y-53943273D01*
X26370120Y-53714465D01*
X26175535Y-53519880D01*
X25946727Y-53366995D01*
X25869485Y-53335000D01*
X25946727Y-53303005D01*
X26175535Y-53150120D01*
X26370120Y-52955535D01*
X26523005Y-52726727D01*
X26628314Y-52472490D01*
X26682000Y-52202592D01*
X26682000Y-51927408D01*
X26628314Y-51657510D01*
X26523005Y-51403273D01*
X26370120Y-51174465D01*
X26175535Y-50979880D01*
X25946727Y-50826995D01*
X25869485Y-50795000D01*
X25946727Y-50763005D01*
X26175535Y-50610120D01*
X26370120Y-50415535D01*
X26523005Y-50186727D01*
X26628314Y-49932490D01*
X26682000Y-49662592D01*
X26682000Y-49387408D01*
X26628314Y-49117510D01*
X26523005Y-48863273D01*
X26370120Y-48634465D01*
X26175535Y-48439880D01*
X25946727Y-48286995D01*
X25869485Y-48255000D01*
X25946727Y-48223005D01*
X26175535Y-48070120D01*
X26370120Y-47875535D01*
X26523005Y-47646727D01*
X26628314Y-47392490D01*
X26682000Y-47122592D01*
X26682000Y-46847408D01*
X26628314Y-46577510D01*
X26523005Y-46323273D01*
X26370120Y-46094465D01*
X26175535Y-45899880D01*
X25946727Y-45746995D01*
X25869485Y-45715000D01*
X25946727Y-45683005D01*
X26175535Y-45530120D01*
X26370120Y-45335535D01*
X26523005Y-45106727D01*
X26628314Y-44852490D01*
X26682000Y-44582592D01*
X26682000Y-44307408D01*
X26628314Y-44037510D01*
X26523005Y-43783273D01*
X26370120Y-43554465D01*
X26175535Y-43359880D01*
X25946727Y-43206995D01*
X25692490Y-43101686D01*
X25422592Y-43048000D01*
X25147408Y-43048000D01*
X24877510Y-43101686D01*
X24623273Y-43206995D01*
X24394465Y-43359880D01*
X24199880Y-43554465D01*
X24046995Y-43783273D01*
X23941686Y-44037510D01*
X23888000Y-44307408D01*
X19075000Y-44307408D01*
X19075000Y-24155000D01*
X37929313Y-24155000D01*
X37827068Y-24401842D01*
%TA.AperFunction,Conductor*%
D18*
G36*
X37827068Y-24401842D02*
G01*
X37770000Y-24688740D01*
X37770000Y-24981260D01*
X37784461Y-25053960D01*
X35504955Y-27333467D01*
X35471182Y-27361184D01*
X35360588Y-27495943D01*
X35278410Y-27649689D01*
X35227804Y-27816512D01*
X35214999Y-27946525D01*
X35214999Y-27946532D01*
X35210718Y-27990001D01*
X35214999Y-28033470D01*
X35214999Y-30997447D01*
X34951335Y-30945000D01*
X34668665Y-30945000D01*
X34391426Y-31000147D01*
X34130273Y-31108320D01*
X33895241Y-31265363D01*
X33695363Y-31465241D01*
X33540000Y-31697759D01*
X33384637Y-31465241D01*
X33184759Y-31265363D01*
X32949727Y-31108320D01*
X32688574Y-31000147D01*
X32411335Y-30945000D01*
X32128665Y-30945000D01*
X31851426Y-31000147D01*
X31590273Y-31108320D01*
X31355241Y-31265363D01*
X31155363Y-31465241D01*
X31000000Y-31697759D01*
X30844637Y-31465241D01*
X30644759Y-31265363D01*
X30409727Y-31108320D01*
X30148574Y-31000147D01*
X29871335Y-30945000D01*
X29588665Y-30945000D01*
X29311426Y-31000147D01*
X29050273Y-31108320D01*
X28815241Y-31265363D01*
X28615363Y-31465241D01*
X28458320Y-31700273D01*
X28350147Y-31961426D01*
X28295000Y-32238665D01*
X28295000Y-32521335D01*
X28301983Y-32556439D01*
X27884955Y-32973467D01*
X27851182Y-33001184D01*
X27740588Y-33135943D01*
X27658410Y-33289689D01*
X27607804Y-33456512D01*
X27594999Y-33586525D01*
X27594999Y-33586532D01*
X27590718Y-33630001D01*
X27594999Y-33673470D01*
X27595000Y-63396520D01*
X27590718Y-63439999D01*
X27607804Y-63613489D01*
X27658411Y-63780312D01*
X27740589Y-63934058D01*
X27823467Y-64035045D01*
X27823470Y-64035048D01*
X27851183Y-64068816D01*
X27884951Y-64096529D01*
X44146770Y-80358348D01*
X43901842Y-80407068D01*
X43631589Y-80519010D01*
X43388368Y-80681525D01*
X43181525Y-80888368D01*
X43065000Y-81062760D01*
X42948475Y-80888368D01*
X42741632Y-80681525D01*
X42498411Y-80519010D01*
X42228158Y-80407068D01*
X41941260Y-80350000D01*
X41648740Y-80350000D01*
X41361842Y-80407068D01*
X41091589Y-80519010D01*
X40848368Y-80681525D01*
X40641525Y-80888368D01*
X40525000Y-81062760D01*
X40408475Y-80888368D01*
X40201632Y-80681525D01*
X39958411Y-80519010D01*
X39688158Y-80407068D01*
X39401260Y-80350000D01*
X39108740Y-80350000D01*
X38821842Y-80407068D01*
X38551589Y-80519010D01*
X38308368Y-80681525D01*
X38101525Y-80888368D01*
X37939010Y-81131589D01*
X37827068Y-81401842D01*
X37770000Y-81688740D01*
X37770000Y-81981260D01*
X37827068Y-82268158D01*
X37933455Y-82525000D01*
X19075000Y-82525000D01*
X19075000Y-44307408D01*
X23888000Y-44307408D01*
X23888000Y-44582592D01*
X23941686Y-44852490D01*
X24046995Y-45106727D01*
X24199880Y-45335535D01*
X24394465Y-45530120D01*
X24623273Y-45683005D01*
X24700515Y-45715000D01*
X24623273Y-45746995D01*
X24394465Y-45899880D01*
X24199880Y-46094465D01*
X24046995Y-46323273D01*
X23941686Y-46577510D01*
X23888000Y-46847408D01*
X23888000Y-47122592D01*
X23941686Y-47392490D01*
X24046995Y-47646727D01*
X24199880Y-47875535D01*
X24394465Y-48070120D01*
X24623273Y-48223005D01*
X24700515Y-48255000D01*
X24623273Y-48286995D01*
X24394465Y-48439880D01*
X24199880Y-48634465D01*
X24046995Y-48863273D01*
X23941686Y-49117510D01*
X23888000Y-49387408D01*
X23888000Y-49662592D01*
X23941686Y-49932490D01*
X24046995Y-50186727D01*
X24199880Y-50415535D01*
X24394465Y-50610120D01*
X24623273Y-50763005D01*
X24700515Y-50795000D01*
X24623273Y-50826995D01*
X24394465Y-50979880D01*
X24199880Y-51174465D01*
X24046995Y-51403273D01*
X23941686Y-51657510D01*
X23888000Y-51927408D01*
X23888000Y-52202592D01*
X23941686Y-52472490D01*
X24046995Y-52726727D01*
X24199880Y-52955535D01*
X24394465Y-53150120D01*
X24623273Y-53303005D01*
X24700515Y-53335000D01*
X24623273Y-53366995D01*
X24394465Y-53519880D01*
X24199880Y-53714465D01*
X24046995Y-53943273D01*
X23941686Y-54197510D01*
X23888000Y-54467408D01*
X23888000Y-54742592D01*
X23941686Y-55012490D01*
X24046995Y-55266727D01*
X24199880Y-55495535D01*
X24394465Y-55690120D01*
X24623273Y-55843005D01*
X24700515Y-55875000D01*
X24623273Y-55906995D01*
X24394465Y-56059880D01*
X24199880Y-56254465D01*
X24046995Y-56483273D01*
X23941686Y-56737510D01*
X23888000Y-57007408D01*
X23888000Y-57282592D01*
X23941686Y-57552490D01*
X24046995Y-57806727D01*
X24199880Y-58035535D01*
X24394465Y-58230120D01*
X24623273Y-58383005D01*
X24700515Y-58415000D01*
X24623273Y-58446995D01*
X24394465Y-58599880D01*
X24199880Y-58794465D01*
X24046995Y-59023273D01*
X23941686Y-59277510D01*
X23888000Y-59547408D01*
X23888000Y-59822592D01*
X23941686Y-60092490D01*
X24046995Y-60346727D01*
X24199880Y-60575535D01*
X24394465Y-60770120D01*
X24623273Y-60923005D01*
X24700515Y-60955000D01*
X24623273Y-60986995D01*
X24394465Y-61139880D01*
X24199880Y-61334465D01*
X24046995Y-61563273D01*
X23941686Y-61817510D01*
X23888000Y-62087408D01*
X23888000Y-62362592D01*
X23941686Y-62632490D01*
X24046995Y-62886727D01*
X24199880Y-63115535D01*
X24394465Y-63310120D01*
X24623273Y-63463005D01*
X24877510Y-63568314D01*
X25147408Y-63622000D01*
X25422592Y-63622000D01*
X25692490Y-63568314D01*
X25946727Y-63463005D01*
X26175535Y-63310120D01*
X26370120Y-63115535D01*
X26523005Y-62886727D01*
X26628314Y-62632490D01*
X26682000Y-62362592D01*
X26682000Y-62087408D01*
X26628314Y-61817510D01*
X26523005Y-61563273D01*
X26370120Y-61334465D01*
X26175535Y-61139880D01*
X25946727Y-60986995D01*
X25869485Y-60955000D01*
X25946727Y-60923005D01*
X26175535Y-60770120D01*
X26370120Y-60575535D01*
X26523005Y-60346727D01*
X26628314Y-60092490D01*
X26682000Y-59822592D01*
X26682000Y-59547408D01*
X26628314Y-59277510D01*
X26523005Y-59023273D01*
X26370120Y-58794465D01*
X26175535Y-58599880D01*
X25946727Y-58446995D01*
X25869485Y-58415000D01*
X25946727Y-58383005D01*
X26175535Y-58230120D01*
X26370120Y-58035535D01*
X26523005Y-57806727D01*
X26628314Y-57552490D01*
X26682000Y-57282592D01*
X26682000Y-57007408D01*
X26628314Y-56737510D01*
X26523005Y-56483273D01*
X26370120Y-56254465D01*
X26175535Y-56059880D01*
X25946727Y-55906995D01*
X25869485Y-55875000D01*
X25946727Y-55843005D01*
X26175535Y-55690120D01*
X26370120Y-55495535D01*
X26523005Y-55266727D01*
X26628314Y-55012490D01*
X26682000Y-54742592D01*
X26682000Y-54467408D01*
X26628314Y-54197510D01*
X26523005Y-53943273D01*
X26370120Y-53714465D01*
X26175535Y-53519880D01*
X25946727Y-53366995D01*
X25869485Y-53335000D01*
X25946727Y-53303005D01*
X26175535Y-53150120D01*
X26370120Y-52955535D01*
X26523005Y-52726727D01*
X26628314Y-52472490D01*
X26682000Y-52202592D01*
X26682000Y-51927408D01*
X26628314Y-51657510D01*
X26523005Y-51403273D01*
X26370120Y-51174465D01*
X26175535Y-50979880D01*
X25946727Y-50826995D01*
X25869485Y-50795000D01*
X25946727Y-50763005D01*
X26175535Y-50610120D01*
X26370120Y-50415535D01*
X26523005Y-50186727D01*
X26628314Y-49932490D01*
X26682000Y-49662592D01*
X26682000Y-49387408D01*
X26628314Y-49117510D01*
X26523005Y-48863273D01*
X26370120Y-48634465D01*
X26175535Y-48439880D01*
X25946727Y-48286995D01*
X25869485Y-48255000D01*
X25946727Y-48223005D01*
X26175535Y-48070120D01*
X26370120Y-47875535D01*
X26523005Y-47646727D01*
X26628314Y-47392490D01*
X26682000Y-47122592D01*
X26682000Y-46847408D01*
X26628314Y-46577510D01*
X26523005Y-46323273D01*
X26370120Y-46094465D01*
X26175535Y-45899880D01*
X25946727Y-45746995D01*
X25869485Y-45715000D01*
X25946727Y-45683005D01*
X26175535Y-45530120D01*
X26370120Y-45335535D01*
X26523005Y-45106727D01*
X26628314Y-44852490D01*
X26682000Y-44582592D01*
X26682000Y-44307408D01*
X26628314Y-44037510D01*
X26523005Y-43783273D01*
X26370120Y-43554465D01*
X26175535Y-43359880D01*
X25946727Y-43206995D01*
X25692490Y-43101686D01*
X25422592Y-43048000D01*
X25147408Y-43048000D01*
X24877510Y-43101686D01*
X24623273Y-43206995D01*
X24394465Y-43359880D01*
X24199880Y-43554465D01*
X24046995Y-43783273D01*
X23941686Y-44037510D01*
X23888000Y-44307408D01*
X19075000Y-44307408D01*
X19075000Y-24155000D01*
X37929313Y-24155000D01*
X37827068Y-24401842D01*
G37*
%TD.AperFunction*%
D17*
X77445001Y-82525000D02*
X58523072Y-82525000D01*
X58523072Y-80985000D01*
X58510812Y-80860518D01*
X58474502Y-80740820D01*
X58415537Y-80630506D01*
X58336185Y-80533815D01*
X58239494Y-80454463D01*
X58129180Y-80395498D01*
X58009482Y-80359188D01*
X57885000Y-80346928D01*
X56185000Y-80346928D01*
X56060518Y-80359188D01*
X55940820Y-80395498D01*
X55830506Y-80454463D01*
X55733815Y-80533815D01*
X55654463Y-80630506D01*
X55595498Y-80740820D01*
X55571034Y-80821466D01*
X55495269Y-80737412D01*
X55261920Y-80563359D01*
X54999099Y-80438175D01*
X54851890Y-80393524D01*
X54622000Y-80514845D01*
X54622000Y-81708000D01*
X54642000Y-81708000D01*
X54642000Y-81962000D01*
X54622000Y-81962000D01*
X54622000Y-81982000D01*
X54368000Y-81982000D01*
X54368000Y-81962000D01*
X54348000Y-81962000D01*
X54348000Y-81708000D01*
X54368000Y-81708000D01*
X54368000Y-80514845D01*
X54138110Y-80393524D01*
X53990901Y-80438175D01*
X53728080Y-80563359D01*
X53494731Y-80737412D01*
X53299822Y-80953645D01*
X53230195Y-81070534D01*
X53108475Y-80888368D01*
X52901632Y-80681525D01*
X52658411Y-80519010D01*
X52388158Y-80407068D01*
X52101260Y-80350000D01*
X51808740Y-80350000D01*
X51736040Y-80364461D01*
X34444999Y-63073421D01*
X34444999Y-41387063D01*
X34460961Y-41391904D01*
X34683000Y-41269915D01*
X34683000Y-40127000D01*
X34663000Y-40127000D01*
X34663000Y-39873000D01*
X34683000Y-39873000D01*
X34683000Y-38730085D01*
X34460961Y-38608096D01*
X34444999Y-38612937D01*
X34444999Y-33996579D01*
X34633561Y-33808017D01*
X34668665Y-33815000D01*
X34951335Y-33815000D01*
X35214999Y-33762553D01*
X35214999Y-38625069D01*
X35159039Y-38608096D01*
X34937000Y-38730085D01*
X34937000Y-39873000D01*
X34957000Y-39873000D01*
X34957000Y-40127000D01*
X34937000Y-40127000D01*
X34937000Y-41269915D01*
X35159039Y-41391904D01*
X35214999Y-41374931D01*
X35215000Y-61444522D01*
X35210718Y-61488001D01*
X35227804Y-61661491D01*
X35278411Y-61828314D01*
X35360589Y-61982060D01*
X35443467Y-62083047D01*
X35443470Y-62083050D01*
X35471183Y-62116818D01*
X35504951Y-62144531D01*
X43170468Y-69810049D01*
X43198181Y-69843817D01*
X43231949Y-69871530D01*
X43231951Y-69871532D01*
X43332938Y-69954410D01*
X43332939Y-69954411D01*
X43486685Y-70036589D01*
X43653508Y-70087195D01*
X43783521Y-70100000D01*
X43783529Y-70100000D01*
X43826998Y-70104281D01*
X43870467Y-70100000D01*
X45501533Y-70100000D01*
X45545002Y-70104281D01*
X45588471Y-70100000D01*
X45588479Y-70100000D01*
X45718492Y-70087195D01*
X45885315Y-70036589D01*
X46039061Y-69954411D01*
X46173819Y-69843817D01*
X46201536Y-69810044D01*
X48720051Y-67291530D01*
X48753818Y-67263818D01*
X48816546Y-67187385D01*
X48864412Y-67129060D01*
X48946590Y-66975315D01*
X48997196Y-66808491D01*
X48997196Y-66808490D01*
X49010001Y-66678478D01*
X49010001Y-66678470D01*
X49014282Y-66635001D01*
X49010001Y-66591532D01*
X49010001Y-66384039D01*
X53103096Y-66384039D01*
X53143754Y-66518087D01*
X53263963Y-66772420D01*
X53431481Y-66998414D01*
X53639869Y-67187385D01*
X53881119Y-67332070D01*
X54145960Y-67426909D01*
X54368000Y-67305624D01*
X54368000Y-66162000D01*
X54622000Y-66162000D01*
X54622000Y-67305624D01*
X54844040Y-67426909D01*
X55108881Y-67332070D01*
X55350131Y-67187385D01*
X55558519Y-66998414D01*
X55726037Y-66772420D01*
X55846246Y-66518087D01*
X55886904Y-66384039D01*
X55764915Y-66162000D01*
X54622000Y-66162000D01*
X54368000Y-66162000D01*
X53225085Y-66162000D01*
X53103096Y-66384039D01*
X49010001Y-66384039D01*
X49010001Y-64788466D01*
X49014282Y-64745000D01*
X49010001Y-64701534D01*
X49010001Y-64701524D01*
X48997196Y-64571511D01*
X48946590Y-64404688D01*
X48864412Y-64250942D01*
X48805707Y-64179410D01*
X48781533Y-64149954D01*
X48781531Y-64149952D01*
X48753818Y-64116184D01*
X48720050Y-64088471D01*
X48303017Y-63671439D01*
X48309130Y-63640709D01*
X50008471Y-65340050D01*
X50036184Y-65373818D01*
X50069952Y-65401531D01*
X50069954Y-65401533D01*
X50170941Y-65484411D01*
X50170942Y-65484412D01*
X50324688Y-65566590D01*
X50491511Y-65617196D01*
X50621524Y-65630001D01*
X50621532Y-65630001D01*
X50665001Y-65634282D01*
X50708470Y-65630001D01*
X53120069Y-65630001D01*
X53103096Y-65685961D01*
X53225085Y-65908000D01*
X54368000Y-65908000D01*
X54368000Y-65888000D01*
X54622000Y-65888000D01*
X54622000Y-65908000D01*
X55764915Y-65908000D01*
X55886904Y-65685961D01*
X55869931Y-65630001D01*
X70235292Y-65630001D01*
X70278761Y-65634282D01*
X70322230Y-65630001D01*
X70322238Y-65630001D01*
X70452251Y-65617196D01*
X70619074Y-65566590D01*
X70772820Y-65484412D01*
X70907578Y-65373818D01*
X70935295Y-65340045D01*
X75525049Y-60750292D01*
X75558817Y-60722579D01*
X75611733Y-60658102D01*
X75669410Y-60587822D01*
X75669411Y-60587821D01*
X75751589Y-60434075D01*
X75802195Y-60267252D01*
X75815000Y-60137239D01*
X75815000Y-60137229D01*
X75819281Y-60093763D01*
X75815000Y-60050297D01*
X75815000Y-55854694D01*
X75894850Y-55830472D01*
X76048386Y-55748405D01*
X76182962Y-55637962D01*
X76293405Y-55503386D01*
X76375472Y-55349850D01*
X76426008Y-55183254D01*
X76443072Y-55010000D01*
X76443072Y-54210000D01*
X76426008Y-54036746D01*
X76375472Y-53870150D01*
X76293405Y-53716614D01*
X76182962Y-53582038D01*
X76048386Y-53471595D01*
X75894850Y-53389528D01*
X75728254Y-53338992D01*
X75555000Y-53321928D01*
X74305000Y-53321928D01*
X74131746Y-53338992D01*
X73965150Y-53389528D01*
X73811614Y-53471595D01*
X73677038Y-53582038D01*
X73566595Y-53716614D01*
X73484528Y-53870150D01*
X73433992Y-54036746D01*
X73416928Y-54210000D01*
X73416928Y-55010000D01*
X73433992Y-55183254D01*
X73484528Y-55349850D01*
X73566595Y-55503386D01*
X73677038Y-55637962D01*
X73811614Y-55748405D01*
X73965150Y-55830472D01*
X74045000Y-55854694D01*
X74045001Y-59727182D01*
X72229349Y-61542835D01*
X72090120Y-61334465D01*
X71895535Y-61139880D01*
X71666727Y-60986995D01*
X71589485Y-60955000D01*
X71666727Y-60923005D01*
X71895535Y-60770120D01*
X72090120Y-60575535D01*
X72243005Y-60346727D01*
X72348314Y-60092490D01*
X72402000Y-59822592D01*
X72402000Y-59547408D01*
X72348314Y-59277510D01*
X72243005Y-59023273D01*
X72090120Y-58794465D01*
X71895535Y-58599880D01*
X71666727Y-58446995D01*
X71589485Y-58415000D01*
X71666727Y-58383005D01*
X71895535Y-58230120D01*
X72090120Y-58035535D01*
X72243005Y-57806727D01*
X72348314Y-57552490D01*
X72402000Y-57282592D01*
X72402000Y-57007408D01*
X72348314Y-56737510D01*
X72243005Y-56483273D01*
X72090120Y-56254465D01*
X71895535Y-56059880D01*
X71666727Y-55906995D01*
X71589485Y-55875000D01*
X71666727Y-55843005D01*
X71895535Y-55690120D01*
X72090120Y-55495535D01*
X72243005Y-55266727D01*
X72348314Y-55012490D01*
X72402000Y-54742592D01*
X72402000Y-54467408D01*
X72348314Y-54197510D01*
X72243005Y-53943273D01*
X72090120Y-53714465D01*
X71895535Y-53519880D01*
X71666727Y-53366995D01*
X71589485Y-53335000D01*
X71666727Y-53303005D01*
X71895535Y-53150120D01*
X72090120Y-52955535D01*
X72243005Y-52726727D01*
X72348314Y-52472490D01*
X72402000Y-52202592D01*
X72402000Y-51927408D01*
X72348314Y-51657510D01*
X72243005Y-51403273D01*
X72090120Y-51174465D01*
X71895535Y-50979880D01*
X71666727Y-50826995D01*
X71589485Y-50795000D01*
X71666727Y-50763005D01*
X71895535Y-50610120D01*
X72090120Y-50415535D01*
X72093818Y-50410000D01*
X72578422Y-50410000D01*
X73416928Y-51248507D01*
X73416928Y-51910000D01*
X73433992Y-52083254D01*
X73484528Y-52249850D01*
X73566595Y-52403386D01*
X73677038Y-52537962D01*
X73811614Y-52648405D01*
X73965150Y-52730472D01*
X74131746Y-52781008D01*
X74305000Y-52798072D01*
X75555000Y-52798072D01*
X75728254Y-52781008D01*
X75894850Y-52730472D01*
X76048386Y-52648405D01*
X76182962Y-52537962D01*
X76293405Y-52403386D01*
X76375472Y-52249850D01*
X76426008Y-52083254D01*
X76443072Y-51910000D01*
X76443072Y-51110000D01*
X76426008Y-50936746D01*
X76375472Y-50770150D01*
X76293405Y-50616614D01*
X76182962Y-50482038D01*
X76048386Y-50371595D01*
X75894850Y-50289528D01*
X75728254Y-50238992D01*
X75555000Y-50221928D01*
X74893507Y-50221928D01*
X73601534Y-48929956D01*
X73573817Y-48896183D01*
X73439059Y-48785589D01*
X73285313Y-48703411D01*
X73118490Y-48652805D01*
X72988477Y-48640000D01*
X72988469Y-48640000D01*
X72945000Y-48635719D01*
X72901531Y-48640000D01*
X72093818Y-48640000D01*
X72090120Y-48634465D01*
X71895535Y-48439880D01*
X71666727Y-48286995D01*
X71589485Y-48255000D01*
X71666727Y-48223005D01*
X71895535Y-48070120D01*
X72090120Y-47875535D01*
X72243005Y-47646727D01*
X72348314Y-47392490D01*
X72402000Y-47122592D01*
X72402000Y-46847408D01*
X72348314Y-46577510D01*
X72243005Y-46323273D01*
X72090120Y-46094465D01*
X71895535Y-45899880D01*
X71666727Y-45746995D01*
X71589485Y-45715000D01*
X71666727Y-45683005D01*
X71895535Y-45530120D01*
X72090120Y-45335535D01*
X72243005Y-45106727D01*
X72348314Y-44852490D01*
X72402000Y-44582592D01*
X72402000Y-44307408D01*
X72348314Y-44037510D01*
X72243005Y-43783273D01*
X72090120Y-43554465D01*
X71895535Y-43359880D01*
X71666727Y-43206995D01*
X71412490Y-43101686D01*
X71142592Y-43048000D01*
X70867408Y-43048000D01*
X70597510Y-43101686D01*
X70343273Y-43206995D01*
X70114465Y-43359880D01*
X69919880Y-43554465D01*
X69766995Y-43783273D01*
X69661686Y-44037510D01*
X69608000Y-44307408D01*
X69608000Y-44336421D01*
X66295487Y-41023909D01*
X66404637Y-40914759D01*
X66560000Y-40682241D01*
X66715363Y-40914759D01*
X66915241Y-41114637D01*
X67150273Y-41271680D01*
X67411426Y-41379853D01*
X67688665Y-41435000D01*
X67971335Y-41435000D01*
X68248574Y-41379853D01*
X68509727Y-41271680D01*
X68744759Y-41114637D01*
X68944637Y-40914759D01*
X69100000Y-40682241D01*
X69255363Y-40914759D01*
X69455241Y-41114637D01*
X69690273Y-41271680D01*
X69951426Y-41379853D01*
X70228665Y-41435000D01*
X70511335Y-41435000D01*
X70788574Y-41379853D01*
X71049727Y-41271680D01*
X71284759Y-41114637D01*
X71484637Y-40914759D01*
X71641680Y-40679727D01*
X71646067Y-40669135D01*
X71757615Y-40855131D01*
X71946586Y-41063519D01*
X72172580Y-41231037D01*
X72426913Y-41351246D01*
X72560961Y-41391904D01*
X72783000Y-41269915D01*
X72783000Y-40127000D01*
X73037000Y-40127000D01*
X73037000Y-41269915D01*
X73259039Y-41391904D01*
X73393087Y-41351246D01*
X73647420Y-41231037D01*
X73873414Y-41063519D01*
X74062385Y-40855131D01*
X74207070Y-40613881D01*
X74301909Y-40349040D01*
X74180624Y-40127000D01*
X73037000Y-40127000D01*
X72783000Y-40127000D01*
X72763000Y-40127000D01*
X72763000Y-39873000D01*
X72783000Y-39873000D01*
X72783000Y-38730085D01*
X73037000Y-38730085D01*
X73037000Y-39873000D01*
X74180624Y-39873000D01*
X74301909Y-39650960D01*
X74207070Y-39386119D01*
X74062385Y-39144869D01*
X73873414Y-38936481D01*
X73647420Y-38768963D01*
X73393087Y-38648754D01*
X73259039Y-38608096D01*
X73037000Y-38730085D01*
X72783000Y-38730085D01*
X72560961Y-38608096D01*
X72426913Y-38648754D01*
X72172580Y-38768963D01*
X71946586Y-38936481D01*
X71757615Y-39144869D01*
X71646067Y-39330865D01*
X71641680Y-39320273D01*
X71484637Y-39085241D01*
X71284759Y-38885363D01*
X71049727Y-38728320D01*
X70788574Y-38620147D01*
X70511335Y-38565000D01*
X70228665Y-38565000D01*
X69951426Y-38620147D01*
X69690273Y-38728320D01*
X69455241Y-38885363D01*
X69255363Y-39085241D01*
X69100000Y-39317759D01*
X68944637Y-39085241D01*
X68744759Y-38885363D01*
X68509727Y-38728320D01*
X68248574Y-38620147D01*
X67971335Y-38565000D01*
X67688665Y-38565000D01*
X67411426Y-38620147D01*
X67150273Y-38728320D01*
X66915241Y-38885363D01*
X66715363Y-39085241D01*
X66560000Y-39317759D01*
X66404637Y-39085241D01*
X66204759Y-38885363D01*
X65969727Y-38728320D01*
X65708574Y-38620147D01*
X65431335Y-38565000D01*
X65148665Y-38565000D01*
X64871426Y-38620147D01*
X64610273Y-38728320D01*
X64375241Y-38885363D01*
X64175363Y-39085241D01*
X64020000Y-39317759D01*
X63864637Y-39085241D01*
X63664759Y-38885363D01*
X63429727Y-38728320D01*
X63168574Y-38620147D01*
X62891335Y-38565000D01*
X62608665Y-38565000D01*
X62331426Y-38620147D01*
X62070273Y-38728320D01*
X61835241Y-38885363D01*
X61635363Y-39085241D01*
X61480000Y-39317759D01*
X61324637Y-39085241D01*
X61124759Y-38885363D01*
X60889727Y-38728320D01*
X60628574Y-38620147D01*
X60351335Y-38565000D01*
X60068665Y-38565000D01*
X59791426Y-38620147D01*
X59530273Y-38728320D01*
X59295241Y-38885363D01*
X59095363Y-39085241D01*
X58940000Y-39317759D01*
X58784637Y-39085241D01*
X58584759Y-38885363D01*
X58349727Y-38728320D01*
X58088574Y-38620147D01*
X57811335Y-38565000D01*
X57528665Y-38565000D01*
X57265001Y-38617447D01*
X57265001Y-33762553D01*
X57528665Y-33815000D01*
X57811335Y-33815000D01*
X58088574Y-33759853D01*
X58349727Y-33651680D01*
X58584759Y-33494637D01*
X58784637Y-33294759D01*
X58940000Y-33062241D01*
X59095363Y-33294759D01*
X59295241Y-33494637D01*
X59530273Y-33651680D01*
X59791426Y-33759853D01*
X60068665Y-33815000D01*
X60351335Y-33815000D01*
X60628574Y-33759853D01*
X60889727Y-33651680D01*
X61124759Y-33494637D01*
X61324637Y-33294759D01*
X61480000Y-33062241D01*
X61635363Y-33294759D01*
X61835241Y-33494637D01*
X62070273Y-33651680D01*
X62331426Y-33759853D01*
X62608665Y-33815000D01*
X62891335Y-33815000D01*
X63168574Y-33759853D01*
X63429727Y-33651680D01*
X63664759Y-33494637D01*
X63864637Y-33294759D01*
X64020000Y-33062241D01*
X64175363Y-33294759D01*
X64375241Y-33494637D01*
X64610273Y-33651680D01*
X64871426Y-33759853D01*
X65148665Y-33815000D01*
X65431335Y-33815000D01*
X65708574Y-33759853D01*
X65969727Y-33651680D01*
X66204759Y-33494637D01*
X66404637Y-33294759D01*
X66560000Y-33062241D01*
X66715363Y-33294759D01*
X66915241Y-33494637D01*
X67150273Y-33651680D01*
X67411426Y-33759853D01*
X67688665Y-33815000D01*
X67971335Y-33815000D01*
X68248574Y-33759853D01*
X68509727Y-33651680D01*
X68744759Y-33494637D01*
X68944637Y-33294759D01*
X69100000Y-33062241D01*
X69255363Y-33294759D01*
X69455241Y-33494637D01*
X69690273Y-33651680D01*
X69951426Y-33759853D01*
X70228665Y-33815000D01*
X70511335Y-33815000D01*
X70788574Y-33759853D01*
X71049727Y-33651680D01*
X71284759Y-33494637D01*
X71484637Y-33294759D01*
X71640000Y-33062241D01*
X71795363Y-33294759D01*
X71995241Y-33494637D01*
X72230273Y-33651680D01*
X72491426Y-33759853D01*
X72768665Y-33815000D01*
X73051335Y-33815000D01*
X73328574Y-33759853D01*
X73589727Y-33651680D01*
X73824759Y-33494637D01*
X74024637Y-33294759D01*
X74181680Y-33059727D01*
X74289853Y-32798574D01*
X74345000Y-32521335D01*
X74345000Y-32238665D01*
X74289853Y-31961426D01*
X74181680Y-31700273D01*
X74024637Y-31465241D01*
X73824759Y-31265363D01*
X73589727Y-31108320D01*
X73328574Y-31000147D01*
X73051335Y-30945000D01*
X72768665Y-30945000D01*
X72491426Y-31000147D01*
X72230273Y-31108320D01*
X71995241Y-31265363D01*
X71795363Y-31465241D01*
X71640000Y-31697759D01*
X71484637Y-31465241D01*
X71284759Y-31265363D01*
X71049727Y-31108320D01*
X70788574Y-31000147D01*
X70511335Y-30945000D01*
X70228665Y-30945000D01*
X69951426Y-31000147D01*
X69690273Y-31108320D01*
X69455241Y-31265363D01*
X69255363Y-31465241D01*
X69100000Y-31697759D01*
X68944637Y-31465241D01*
X68744759Y-31265363D01*
X68509727Y-31108320D01*
X68248574Y-31000147D01*
X67971335Y-30945000D01*
X67688665Y-30945000D01*
X67411426Y-31000147D01*
X67150273Y-31108320D01*
X66915241Y-31265363D01*
X66715363Y-31465241D01*
X66560000Y-31697759D01*
X66404637Y-31465241D01*
X66204759Y-31265363D01*
X65969727Y-31108320D01*
X65708574Y-31000147D01*
X65431335Y-30945000D01*
X65148665Y-30945000D01*
X64871426Y-31000147D01*
X64610273Y-31108320D01*
X64375241Y-31265363D01*
X64175363Y-31465241D01*
X64020000Y-31697759D01*
X63864637Y-31465241D01*
X63664759Y-31265363D01*
X63429727Y-31108320D01*
X63168574Y-31000147D01*
X62891335Y-30945000D01*
X62608665Y-30945000D01*
X62331426Y-31000147D01*
X62070273Y-31108320D01*
X61835241Y-31265363D01*
X61635363Y-31465241D01*
X61480000Y-31697759D01*
X61324637Y-31465241D01*
X61124759Y-31265363D01*
X60889727Y-31108320D01*
X60628574Y-31000147D01*
X60351335Y-30945000D01*
X60068665Y-30945000D01*
X59791426Y-31000147D01*
X59530273Y-31108320D01*
X59295241Y-31265363D01*
X59095363Y-31465241D01*
X58940000Y-31697759D01*
X58784637Y-31465241D01*
X58584759Y-31265363D01*
X58349727Y-31108320D01*
X58088574Y-31000147D01*
X57811335Y-30945000D01*
X57528665Y-30945000D01*
X57251426Y-31000147D01*
X56990273Y-31108320D01*
X56972066Y-31120485D01*
X53196536Y-27344956D01*
X53168819Y-27311183D01*
X53034061Y-27200589D01*
X52880315Y-27118411D01*
X52713492Y-27067805D01*
X52583479Y-27055000D01*
X52583471Y-27055000D01*
X52540002Y-27050719D01*
X52496533Y-27055000D01*
X47806579Y-27055000D01*
X47063230Y-26311652D01*
X47308158Y-26262932D01*
X47578411Y-26150990D01*
X47821632Y-25988475D01*
X48028475Y-25781632D01*
X48145000Y-25607240D01*
X48261525Y-25781632D01*
X48468368Y-25988475D01*
X48711589Y-26150990D01*
X48981842Y-26262932D01*
X49268740Y-26320000D01*
X49561260Y-26320000D01*
X49848158Y-26262932D01*
X50118411Y-26150990D01*
X50361632Y-25988475D01*
X50568475Y-25781632D01*
X50685000Y-25607240D01*
X50801525Y-25781632D01*
X51008368Y-25988475D01*
X51251589Y-26150990D01*
X51521842Y-26262932D01*
X51808740Y-26320000D01*
X52101260Y-26320000D01*
X52388158Y-26262932D01*
X52658411Y-26150990D01*
X52901632Y-25988475D01*
X53108475Y-25781632D01*
X53230195Y-25599466D01*
X53299822Y-25716355D01*
X53494731Y-25932588D01*
X53728080Y-26106641D01*
X53990901Y-26231825D01*
X54138110Y-26276476D01*
X54368000Y-26155155D01*
X54368000Y-24962000D01*
X54348000Y-24962000D01*
X54348000Y-24708000D01*
X54368000Y-24708000D01*
X54368000Y-24688000D01*
X54622000Y-24688000D01*
X54622000Y-24708000D01*
X54642000Y-24708000D01*
X54642000Y-24962000D01*
X54622000Y-24962000D01*
X54622000Y-26155155D01*
X54851890Y-26276476D01*
X54999099Y-26231825D01*
X55261920Y-26106641D01*
X55495269Y-25932588D01*
X55571034Y-25848534D01*
X55595498Y-25929180D01*
X55654463Y-26039494D01*
X55733815Y-26136185D01*
X55830506Y-26215537D01*
X55940820Y-26274502D01*
X56060518Y-26310812D01*
X56185000Y-26323072D01*
X57885000Y-26323072D01*
X58009482Y-26310812D01*
X58129180Y-26274502D01*
X58239494Y-26215537D01*
X58336185Y-26136185D01*
X58415537Y-26039494D01*
X58474502Y-25929180D01*
X58510812Y-25809482D01*
X58523072Y-25685000D01*
X58523072Y-24155000D01*
X77445000Y-24155000D01*
X77445001Y-82525000D01*
%TA.AperFunction,Conductor*%
D18*
G36*
X77445001Y-82525000D02*
G01*
X58523072Y-82525000D01*
X58523072Y-80985000D01*
X58510812Y-80860518D01*
X58474502Y-80740820D01*
X58415537Y-80630506D01*
X58336185Y-80533815D01*
X58239494Y-80454463D01*
X58129180Y-80395498D01*
X58009482Y-80359188D01*
X57885000Y-80346928D01*
X56185000Y-80346928D01*
X56060518Y-80359188D01*
X55940820Y-80395498D01*
X55830506Y-80454463D01*
X55733815Y-80533815D01*
X55654463Y-80630506D01*
X55595498Y-80740820D01*
X55571034Y-80821466D01*
X55495269Y-80737412D01*
X55261920Y-80563359D01*
X54999099Y-80438175D01*
X54851890Y-80393524D01*
X54622000Y-80514845D01*
X54622000Y-81708000D01*
X54642000Y-81708000D01*
X54642000Y-81962000D01*
X54622000Y-81962000D01*
X54622000Y-81982000D01*
X54368000Y-81982000D01*
X54368000Y-81962000D01*
X54348000Y-81962000D01*
X54348000Y-81708000D01*
X54368000Y-81708000D01*
X54368000Y-80514845D01*
X54138110Y-80393524D01*
X53990901Y-80438175D01*
X53728080Y-80563359D01*
X53494731Y-80737412D01*
X53299822Y-80953645D01*
X53230195Y-81070534D01*
X53108475Y-80888368D01*
X52901632Y-80681525D01*
X52658411Y-80519010D01*
X52388158Y-80407068D01*
X52101260Y-80350000D01*
X51808740Y-80350000D01*
X51736040Y-80364461D01*
X34444999Y-63073421D01*
X34444999Y-41387063D01*
X34460961Y-41391904D01*
X34683000Y-41269915D01*
X34683000Y-40127000D01*
X34663000Y-40127000D01*
X34663000Y-39873000D01*
X34683000Y-39873000D01*
X34683000Y-38730085D01*
X34460961Y-38608096D01*
X34444999Y-38612937D01*
X34444999Y-33996579D01*
X34633561Y-33808017D01*
X34668665Y-33815000D01*
X34951335Y-33815000D01*
X35214999Y-33762553D01*
X35214999Y-38625069D01*
X35159039Y-38608096D01*
X34937000Y-38730085D01*
X34937000Y-39873000D01*
X34957000Y-39873000D01*
X34957000Y-40127000D01*
X34937000Y-40127000D01*
X34937000Y-41269915D01*
X35159039Y-41391904D01*
X35214999Y-41374931D01*
X35215000Y-61444522D01*
X35210718Y-61488001D01*
X35227804Y-61661491D01*
X35278411Y-61828314D01*
X35360589Y-61982060D01*
X35443467Y-62083047D01*
X35443470Y-62083050D01*
X35471183Y-62116818D01*
X35504951Y-62144531D01*
X43170468Y-69810049D01*
X43198181Y-69843817D01*
X43231949Y-69871530D01*
X43231951Y-69871532D01*
X43332938Y-69954410D01*
X43332939Y-69954411D01*
X43486685Y-70036589D01*
X43653508Y-70087195D01*
X43783521Y-70100000D01*
X43783529Y-70100000D01*
X43826998Y-70104281D01*
X43870467Y-70100000D01*
X45501533Y-70100000D01*
X45545002Y-70104281D01*
X45588471Y-70100000D01*
X45588479Y-70100000D01*
X45718492Y-70087195D01*
X45885315Y-70036589D01*
X46039061Y-69954411D01*
X46173819Y-69843817D01*
X46201536Y-69810044D01*
X48720051Y-67291530D01*
X48753818Y-67263818D01*
X48816546Y-67187385D01*
X48864412Y-67129060D01*
X48946590Y-66975315D01*
X48997196Y-66808491D01*
X48997196Y-66808490D01*
X49010001Y-66678478D01*
X49010001Y-66678470D01*
X49014282Y-66635001D01*
X49010001Y-66591532D01*
X49010001Y-66384039D01*
X53103096Y-66384039D01*
X53143754Y-66518087D01*
X53263963Y-66772420D01*
X53431481Y-66998414D01*
X53639869Y-67187385D01*
X53881119Y-67332070D01*
X54145960Y-67426909D01*
X54368000Y-67305624D01*
X54368000Y-66162000D01*
X54622000Y-66162000D01*
X54622000Y-67305624D01*
X54844040Y-67426909D01*
X55108881Y-67332070D01*
X55350131Y-67187385D01*
X55558519Y-66998414D01*
X55726037Y-66772420D01*
X55846246Y-66518087D01*
X55886904Y-66384039D01*
X55764915Y-66162000D01*
X54622000Y-66162000D01*
X54368000Y-66162000D01*
X53225085Y-66162000D01*
X53103096Y-66384039D01*
X49010001Y-66384039D01*
X49010001Y-64788466D01*
X49014282Y-64745000D01*
X49010001Y-64701534D01*
X49010001Y-64701524D01*
X48997196Y-64571511D01*
X48946590Y-64404688D01*
X48864412Y-64250942D01*
X48805707Y-64179410D01*
X48781533Y-64149954D01*
X48781531Y-64149952D01*
X48753818Y-64116184D01*
X48720050Y-64088471D01*
X48303017Y-63671439D01*
X48309130Y-63640709D01*
X50008471Y-65340050D01*
X50036184Y-65373818D01*
X50069952Y-65401531D01*
X50069954Y-65401533D01*
X50170941Y-65484411D01*
X50170942Y-65484412D01*
X50324688Y-65566590D01*
X50491511Y-65617196D01*
X50621524Y-65630001D01*
X50621532Y-65630001D01*
X50665001Y-65634282D01*
X50708470Y-65630001D01*
X53120069Y-65630001D01*
X53103096Y-65685961D01*
X53225085Y-65908000D01*
X54368000Y-65908000D01*
X54368000Y-65888000D01*
X54622000Y-65888000D01*
X54622000Y-65908000D01*
X55764915Y-65908000D01*
X55886904Y-65685961D01*
X55869931Y-65630001D01*
X70235292Y-65630001D01*
X70278761Y-65634282D01*
X70322230Y-65630001D01*
X70322238Y-65630001D01*
X70452251Y-65617196D01*
X70619074Y-65566590D01*
X70772820Y-65484412D01*
X70907578Y-65373818D01*
X70935295Y-65340045D01*
X75525049Y-60750292D01*
X75558817Y-60722579D01*
X75611733Y-60658102D01*
X75669410Y-60587822D01*
X75669411Y-60587821D01*
X75751589Y-60434075D01*
X75802195Y-60267252D01*
X75815000Y-60137239D01*
X75815000Y-60137229D01*
X75819281Y-60093763D01*
X75815000Y-60050297D01*
X75815000Y-55854694D01*
X75894850Y-55830472D01*
X76048386Y-55748405D01*
X76182962Y-55637962D01*
X76293405Y-55503386D01*
X76375472Y-55349850D01*
X76426008Y-55183254D01*
X76443072Y-55010000D01*
X76443072Y-54210000D01*
X76426008Y-54036746D01*
X76375472Y-53870150D01*
X76293405Y-53716614D01*
X76182962Y-53582038D01*
X76048386Y-53471595D01*
X75894850Y-53389528D01*
X75728254Y-53338992D01*
X75555000Y-53321928D01*
X74305000Y-53321928D01*
X74131746Y-53338992D01*
X73965150Y-53389528D01*
X73811614Y-53471595D01*
X73677038Y-53582038D01*
X73566595Y-53716614D01*
X73484528Y-53870150D01*
X73433992Y-54036746D01*
X73416928Y-54210000D01*
X73416928Y-55010000D01*
X73433992Y-55183254D01*
X73484528Y-55349850D01*
X73566595Y-55503386D01*
X73677038Y-55637962D01*
X73811614Y-55748405D01*
X73965150Y-55830472D01*
X74045000Y-55854694D01*
X74045001Y-59727182D01*
X72229349Y-61542835D01*
X72090120Y-61334465D01*
X71895535Y-61139880D01*
X71666727Y-60986995D01*
X71589485Y-60955000D01*
X71666727Y-60923005D01*
X71895535Y-60770120D01*
X72090120Y-60575535D01*
X72243005Y-60346727D01*
X72348314Y-60092490D01*
X72402000Y-59822592D01*
X72402000Y-59547408D01*
X72348314Y-59277510D01*
X72243005Y-59023273D01*
X72090120Y-58794465D01*
X71895535Y-58599880D01*
X71666727Y-58446995D01*
X71589485Y-58415000D01*
X71666727Y-58383005D01*
X71895535Y-58230120D01*
X72090120Y-58035535D01*
X72243005Y-57806727D01*
X72348314Y-57552490D01*
X72402000Y-57282592D01*
X72402000Y-57007408D01*
X72348314Y-56737510D01*
X72243005Y-56483273D01*
X72090120Y-56254465D01*
X71895535Y-56059880D01*
X71666727Y-55906995D01*
X71589485Y-55875000D01*
X71666727Y-55843005D01*
X71895535Y-55690120D01*
X72090120Y-55495535D01*
X72243005Y-55266727D01*
X72348314Y-55012490D01*
X72402000Y-54742592D01*
X72402000Y-54467408D01*
X72348314Y-54197510D01*
X72243005Y-53943273D01*
X72090120Y-53714465D01*
X71895535Y-53519880D01*
X71666727Y-53366995D01*
X71589485Y-53335000D01*
X71666727Y-53303005D01*
X71895535Y-53150120D01*
X72090120Y-52955535D01*
X72243005Y-52726727D01*
X72348314Y-52472490D01*
X72402000Y-52202592D01*
X72402000Y-51927408D01*
X72348314Y-51657510D01*
X72243005Y-51403273D01*
X72090120Y-51174465D01*
X71895535Y-50979880D01*
X71666727Y-50826995D01*
X71589485Y-50795000D01*
X71666727Y-50763005D01*
X71895535Y-50610120D01*
X72090120Y-50415535D01*
X72093818Y-50410000D01*
X72578422Y-50410000D01*
X73416928Y-51248507D01*
X73416928Y-51910000D01*
X73433992Y-52083254D01*
X73484528Y-52249850D01*
X73566595Y-52403386D01*
X73677038Y-52537962D01*
X73811614Y-52648405D01*
X73965150Y-52730472D01*
X74131746Y-52781008D01*
X74305000Y-52798072D01*
X75555000Y-52798072D01*
X75728254Y-52781008D01*
X75894850Y-52730472D01*
X76048386Y-52648405D01*
X76182962Y-52537962D01*
X76293405Y-52403386D01*
X76375472Y-52249850D01*
X76426008Y-52083254D01*
X76443072Y-51910000D01*
X76443072Y-51110000D01*
X76426008Y-50936746D01*
X76375472Y-50770150D01*
X76293405Y-50616614D01*
X76182962Y-50482038D01*
X76048386Y-50371595D01*
X75894850Y-50289528D01*
X75728254Y-50238992D01*
X75555000Y-50221928D01*
X74893507Y-50221928D01*
X73601534Y-48929956D01*
X73573817Y-48896183D01*
X73439059Y-48785589D01*
X73285313Y-48703411D01*
X73118490Y-48652805D01*
X72988477Y-48640000D01*
X72988469Y-48640000D01*
X72945000Y-48635719D01*
X72901531Y-48640000D01*
X72093818Y-48640000D01*
X72090120Y-48634465D01*
X71895535Y-48439880D01*
X71666727Y-48286995D01*
X71589485Y-48255000D01*
X71666727Y-48223005D01*
X71895535Y-48070120D01*
X72090120Y-47875535D01*
X72243005Y-47646727D01*
X72348314Y-47392490D01*
X72402000Y-47122592D01*
X72402000Y-46847408D01*
X72348314Y-46577510D01*
X72243005Y-46323273D01*
X72090120Y-46094465D01*
X71895535Y-45899880D01*
X71666727Y-45746995D01*
X71589485Y-45715000D01*
X71666727Y-45683005D01*
X71895535Y-45530120D01*
X72090120Y-45335535D01*
X72243005Y-45106727D01*
X72348314Y-44852490D01*
X72402000Y-44582592D01*
X72402000Y-44307408D01*
X72348314Y-44037510D01*
X72243005Y-43783273D01*
X72090120Y-43554465D01*
X71895535Y-43359880D01*
X71666727Y-43206995D01*
X71412490Y-43101686D01*
X71142592Y-43048000D01*
X70867408Y-43048000D01*
X70597510Y-43101686D01*
X70343273Y-43206995D01*
X70114465Y-43359880D01*
X69919880Y-43554465D01*
X69766995Y-43783273D01*
X69661686Y-44037510D01*
X69608000Y-44307408D01*
X69608000Y-44336421D01*
X66295487Y-41023909D01*
X66404637Y-40914759D01*
X66560000Y-40682241D01*
X66715363Y-40914759D01*
X66915241Y-41114637D01*
X67150273Y-41271680D01*
X67411426Y-41379853D01*
X67688665Y-41435000D01*
X67971335Y-41435000D01*
X68248574Y-41379853D01*
X68509727Y-41271680D01*
X68744759Y-41114637D01*
X68944637Y-40914759D01*
X69100000Y-40682241D01*
X69255363Y-40914759D01*
X69455241Y-41114637D01*
X69690273Y-41271680D01*
X69951426Y-41379853D01*
X70228665Y-41435000D01*
X70511335Y-41435000D01*
X70788574Y-41379853D01*
X71049727Y-41271680D01*
X71284759Y-41114637D01*
X71484637Y-40914759D01*
X71641680Y-40679727D01*
X71646067Y-40669135D01*
X71757615Y-40855131D01*
X71946586Y-41063519D01*
X72172580Y-41231037D01*
X72426913Y-41351246D01*
X72560961Y-41391904D01*
X72783000Y-41269915D01*
X72783000Y-40127000D01*
X73037000Y-40127000D01*
X73037000Y-41269915D01*
X73259039Y-41391904D01*
X73393087Y-41351246D01*
X73647420Y-41231037D01*
X73873414Y-41063519D01*
X74062385Y-40855131D01*
X74207070Y-40613881D01*
X74301909Y-40349040D01*
X74180624Y-40127000D01*
X73037000Y-40127000D01*
X72783000Y-40127000D01*
X72763000Y-40127000D01*
X72763000Y-39873000D01*
X72783000Y-39873000D01*
X72783000Y-38730085D01*
X73037000Y-38730085D01*
X73037000Y-39873000D01*
X74180624Y-39873000D01*
X74301909Y-39650960D01*
X74207070Y-39386119D01*
X74062385Y-39144869D01*
X73873414Y-38936481D01*
X73647420Y-38768963D01*
X73393087Y-38648754D01*
X73259039Y-38608096D01*
X73037000Y-38730085D01*
X72783000Y-38730085D01*
X72560961Y-38608096D01*
X72426913Y-38648754D01*
X72172580Y-38768963D01*
X71946586Y-38936481D01*
X71757615Y-39144869D01*
X71646067Y-39330865D01*
X71641680Y-39320273D01*
X71484637Y-39085241D01*
X71284759Y-38885363D01*
X71049727Y-38728320D01*
X70788574Y-38620147D01*
X70511335Y-38565000D01*
X70228665Y-38565000D01*
X69951426Y-38620147D01*
X69690273Y-38728320D01*
X69455241Y-38885363D01*
X69255363Y-39085241D01*
X69100000Y-39317759D01*
X68944637Y-39085241D01*
X68744759Y-38885363D01*
X68509727Y-38728320D01*
X68248574Y-38620147D01*
X67971335Y-38565000D01*
X67688665Y-38565000D01*
X67411426Y-38620147D01*
X67150273Y-38728320D01*
X66915241Y-38885363D01*
X66715363Y-39085241D01*
X66560000Y-39317759D01*
X66404637Y-39085241D01*
X66204759Y-38885363D01*
X65969727Y-38728320D01*
X65708574Y-38620147D01*
X65431335Y-38565000D01*
X65148665Y-38565000D01*
X64871426Y-38620147D01*
X64610273Y-38728320D01*
X64375241Y-38885363D01*
X64175363Y-39085241D01*
X64020000Y-39317759D01*
X63864637Y-39085241D01*
X63664759Y-38885363D01*
X63429727Y-38728320D01*
X63168574Y-38620147D01*
X62891335Y-38565000D01*
X62608665Y-38565000D01*
X62331426Y-38620147D01*
X62070273Y-38728320D01*
X61835241Y-38885363D01*
X61635363Y-39085241D01*
X61480000Y-39317759D01*
X61324637Y-39085241D01*
X61124759Y-38885363D01*
X60889727Y-38728320D01*
X60628574Y-38620147D01*
X60351335Y-38565000D01*
X60068665Y-38565000D01*
X59791426Y-38620147D01*
X59530273Y-38728320D01*
X59295241Y-38885363D01*
X59095363Y-39085241D01*
X58940000Y-39317759D01*
X58784637Y-39085241D01*
X58584759Y-38885363D01*
X58349727Y-38728320D01*
X58088574Y-38620147D01*
X57811335Y-38565000D01*
X57528665Y-38565000D01*
X57265001Y-38617447D01*
X57265001Y-33762553D01*
X57528665Y-33815000D01*
X57811335Y-33815000D01*
X58088574Y-33759853D01*
X58349727Y-33651680D01*
X58584759Y-33494637D01*
X58784637Y-33294759D01*
X58940000Y-33062241D01*
X59095363Y-33294759D01*
X59295241Y-33494637D01*
X59530273Y-33651680D01*
X59791426Y-33759853D01*
X60068665Y-33815000D01*
X60351335Y-33815000D01*
X60628574Y-33759853D01*
X60889727Y-33651680D01*
X61124759Y-33494637D01*
X61324637Y-33294759D01*
X61480000Y-33062241D01*
X61635363Y-33294759D01*
X61835241Y-33494637D01*
X62070273Y-33651680D01*
X62331426Y-33759853D01*
X62608665Y-33815000D01*
X62891335Y-33815000D01*
X63168574Y-33759853D01*
X63429727Y-33651680D01*
X63664759Y-33494637D01*
X63864637Y-33294759D01*
X64020000Y-33062241D01*
X64175363Y-33294759D01*
X64375241Y-33494637D01*
X64610273Y-33651680D01*
X64871426Y-33759853D01*
X65148665Y-33815000D01*
X65431335Y-33815000D01*
X65708574Y-33759853D01*
X65969727Y-33651680D01*
X66204759Y-33494637D01*
X66404637Y-33294759D01*
X66560000Y-33062241D01*
X66715363Y-33294759D01*
X66915241Y-33494637D01*
X67150273Y-33651680D01*
X67411426Y-33759853D01*
X67688665Y-33815000D01*
X67971335Y-33815000D01*
X68248574Y-33759853D01*
X68509727Y-33651680D01*
X68744759Y-33494637D01*
X68944637Y-33294759D01*
X69100000Y-33062241D01*
X69255363Y-33294759D01*
X69455241Y-33494637D01*
X69690273Y-33651680D01*
X69951426Y-33759853D01*
X70228665Y-33815000D01*
X70511335Y-33815000D01*
X70788574Y-33759853D01*
X71049727Y-33651680D01*
X71284759Y-33494637D01*
X71484637Y-33294759D01*
X71640000Y-33062241D01*
X71795363Y-33294759D01*
X71995241Y-33494637D01*
X72230273Y-33651680D01*
X72491426Y-33759853D01*
X72768665Y-33815000D01*
X73051335Y-33815000D01*
X73328574Y-33759853D01*
X73589727Y-33651680D01*
X73824759Y-33494637D01*
X74024637Y-33294759D01*
X74181680Y-33059727D01*
X74289853Y-32798574D01*
X74345000Y-32521335D01*
X74345000Y-32238665D01*
X74289853Y-31961426D01*
X74181680Y-31700273D01*
X74024637Y-31465241D01*
X73824759Y-31265363D01*
X73589727Y-31108320D01*
X73328574Y-31000147D01*
X73051335Y-30945000D01*
X72768665Y-30945000D01*
X72491426Y-31000147D01*
X72230273Y-31108320D01*
X71995241Y-31265363D01*
X71795363Y-31465241D01*
X71640000Y-31697759D01*
X71484637Y-31465241D01*
X71284759Y-31265363D01*
X71049727Y-31108320D01*
X70788574Y-31000147D01*
X70511335Y-30945000D01*
X70228665Y-30945000D01*
X69951426Y-31000147D01*
X69690273Y-31108320D01*
X69455241Y-31265363D01*
X69255363Y-31465241D01*
X69100000Y-31697759D01*
X68944637Y-31465241D01*
X68744759Y-31265363D01*
X68509727Y-31108320D01*
X68248574Y-31000147D01*
X67971335Y-30945000D01*
X67688665Y-30945000D01*
X67411426Y-31000147D01*
X67150273Y-31108320D01*
X66915241Y-31265363D01*
X66715363Y-31465241D01*
X66560000Y-31697759D01*
X66404637Y-31465241D01*
X66204759Y-31265363D01*
X65969727Y-31108320D01*
X65708574Y-31000147D01*
X65431335Y-30945000D01*
X65148665Y-30945000D01*
X64871426Y-31000147D01*
X64610273Y-31108320D01*
X64375241Y-31265363D01*
X64175363Y-31465241D01*
X64020000Y-31697759D01*
X63864637Y-31465241D01*
X63664759Y-31265363D01*
X63429727Y-31108320D01*
X63168574Y-31000147D01*
X62891335Y-30945000D01*
X62608665Y-30945000D01*
X62331426Y-31000147D01*
X62070273Y-31108320D01*
X61835241Y-31265363D01*
X61635363Y-31465241D01*
X61480000Y-31697759D01*
X61324637Y-31465241D01*
X61124759Y-31265363D01*
X60889727Y-31108320D01*
X60628574Y-31000147D01*
X60351335Y-30945000D01*
X60068665Y-30945000D01*
X59791426Y-31000147D01*
X59530273Y-31108320D01*
X59295241Y-31265363D01*
X59095363Y-31465241D01*
X58940000Y-31697759D01*
X58784637Y-31465241D01*
X58584759Y-31265363D01*
X58349727Y-31108320D01*
X58088574Y-31000147D01*
X57811335Y-30945000D01*
X57528665Y-30945000D01*
X57251426Y-31000147D01*
X56990273Y-31108320D01*
X56972066Y-31120485D01*
X53196536Y-27344956D01*
X53168819Y-27311183D01*
X53034061Y-27200589D01*
X52880315Y-27118411D01*
X52713492Y-27067805D01*
X52583479Y-27055000D01*
X52583471Y-27055000D01*
X52540002Y-27050719D01*
X52496533Y-27055000D01*
X47806579Y-27055000D01*
X47063230Y-26311652D01*
X47308158Y-26262932D01*
X47578411Y-26150990D01*
X47821632Y-25988475D01*
X48028475Y-25781632D01*
X48145000Y-25607240D01*
X48261525Y-25781632D01*
X48468368Y-25988475D01*
X48711589Y-26150990D01*
X48981842Y-26262932D01*
X49268740Y-26320000D01*
X49561260Y-26320000D01*
X49848158Y-26262932D01*
X50118411Y-26150990D01*
X50361632Y-25988475D01*
X50568475Y-25781632D01*
X50685000Y-25607240D01*
X50801525Y-25781632D01*
X51008368Y-25988475D01*
X51251589Y-26150990D01*
X51521842Y-26262932D01*
X51808740Y-26320000D01*
X52101260Y-26320000D01*
X52388158Y-26262932D01*
X52658411Y-26150990D01*
X52901632Y-25988475D01*
X53108475Y-25781632D01*
X53230195Y-25599466D01*
X53299822Y-25716355D01*
X53494731Y-25932588D01*
X53728080Y-26106641D01*
X53990901Y-26231825D01*
X54138110Y-26276476D01*
X54368000Y-26155155D01*
X54368000Y-24962000D01*
X54348000Y-24962000D01*
X54348000Y-24708000D01*
X54368000Y-24708000D01*
X54368000Y-24688000D01*
X54622000Y-24688000D01*
X54622000Y-24708000D01*
X54642000Y-24708000D01*
X54642000Y-24962000D01*
X54622000Y-24962000D01*
X54622000Y-26155155D01*
X54851890Y-26276476D01*
X54999099Y-26231825D01*
X55261920Y-26106641D01*
X55495269Y-25932588D01*
X55571034Y-25848534D01*
X55595498Y-25929180D01*
X55654463Y-26039494D01*
X55733815Y-26136185D01*
X55830506Y-26215537D01*
X55940820Y-26274502D01*
X56060518Y-26310812D01*
X56185000Y-26323072D01*
X57885000Y-26323072D01*
X58009482Y-26310812D01*
X58129180Y-26274502D01*
X58239494Y-26215537D01*
X58336185Y-26136185D01*
X58415537Y-26039494D01*
X58474502Y-25929180D01*
X58510812Y-25809482D01*
X58523072Y-25685000D01*
X58523072Y-24155000D01*
X77445000Y-24155000D01*
X77445001Y-82525000D01*
G37*
%TD.AperFunction*%
D17*
X30134999Y-38625069D02*
X30079039Y-38608096D01*
X29857000Y-38730085D01*
X29857000Y-39873000D01*
X29877000Y-39873000D01*
X29877000Y-40127000D01*
X29857000Y-40127000D01*
X29857000Y-41269915D01*
X30079039Y-41391904D01*
X30134999Y-41374931D01*
X30135000Y-63396520D01*
X30130718Y-63439999D01*
X30147804Y-63613489D01*
X30198411Y-63780312D01*
X30280589Y-63934058D01*
X30363467Y-64035045D01*
X30363470Y-64035048D01*
X30391183Y-64068816D01*
X30424951Y-64096529D01*
X46686770Y-80358348D01*
X46656040Y-80364461D01*
X29364999Y-63073421D01*
X29364999Y-41387063D01*
X29380961Y-41391904D01*
X29603000Y-41269915D01*
X29603000Y-40127000D01*
X29583000Y-40127000D01*
X29583000Y-39873000D01*
X29603000Y-39873000D01*
X29603000Y-38730085D01*
X29380961Y-38608096D01*
X29364999Y-38612937D01*
X29364999Y-33996579D01*
X29553561Y-33808017D01*
X29588665Y-33815000D01*
X29871335Y-33815000D01*
X30134999Y-33762553D01*
X30134999Y-38625069D01*
%TA.AperFunction,Conductor*%
D18*
G36*
X30134999Y-38625069D02*
G01*
X30079039Y-38608096D01*
X29857000Y-38730085D01*
X29857000Y-39873000D01*
X29877000Y-39873000D01*
X29877000Y-40127000D01*
X29857000Y-40127000D01*
X29857000Y-41269915D01*
X30079039Y-41391904D01*
X30134999Y-41374931D01*
X30135000Y-63396520D01*
X30130718Y-63439999D01*
X30147804Y-63613489D01*
X30198411Y-63780312D01*
X30280589Y-63934058D01*
X30363467Y-64035045D01*
X30363470Y-64035048D01*
X30391183Y-64068816D01*
X30424951Y-64096529D01*
X46686770Y-80358348D01*
X46656040Y-80364461D01*
X29364999Y-63073421D01*
X29364999Y-41387063D01*
X29380961Y-41391904D01*
X29603000Y-41269915D01*
X29603000Y-40127000D01*
X29583000Y-40127000D01*
X29583000Y-39873000D01*
X29603000Y-39873000D01*
X29603000Y-38730085D01*
X29380961Y-38608096D01*
X29364999Y-38612937D01*
X29364999Y-33996579D01*
X29553561Y-33808017D01*
X29588665Y-33815000D01*
X29871335Y-33815000D01*
X30134999Y-33762553D01*
X30134999Y-38625069D01*
G37*
%TD.AperFunction*%
D17*
X32675000Y-38625069D02*
X32619039Y-38608096D01*
X32397000Y-38730085D01*
X32397000Y-39873000D01*
X32417000Y-39873000D01*
X32417000Y-40127000D01*
X32397000Y-40127000D01*
X32397000Y-41269915D01*
X32619039Y-41391904D01*
X32675000Y-41374931D01*
X32674999Y-63396530D01*
X32670718Y-63439999D01*
X32674999Y-63483468D01*
X32674999Y-63483475D01*
X32687804Y-63613488D01*
X32738410Y-63780311D01*
X32820588Y-63934057D01*
X32931182Y-64068816D01*
X32964955Y-64096533D01*
X49226770Y-80358348D01*
X49196040Y-80364461D01*
X31904999Y-63073421D01*
X31904999Y-41387063D01*
X31920961Y-41391904D01*
X32143000Y-41269915D01*
X32143000Y-40127000D01*
X32123000Y-40127000D01*
X32123000Y-39873000D01*
X32143000Y-39873000D01*
X32143000Y-38730085D01*
X31920961Y-38608096D01*
X31904999Y-38612937D01*
X31904999Y-33996579D01*
X32093561Y-33808017D01*
X32128665Y-33815000D01*
X32411335Y-33815000D01*
X32675000Y-33762553D01*
X32675000Y-38625069D01*
%TA.AperFunction,Conductor*%
D18*
G36*
X32675000Y-38625069D02*
G01*
X32619039Y-38608096D01*
X32397000Y-38730085D01*
X32397000Y-39873000D01*
X32417000Y-39873000D01*
X32417000Y-40127000D01*
X32397000Y-40127000D01*
X32397000Y-41269915D01*
X32619039Y-41391904D01*
X32675000Y-41374931D01*
X32674999Y-63396530D01*
X32670718Y-63439999D01*
X32674999Y-63483468D01*
X32674999Y-63483475D01*
X32687804Y-63613488D01*
X32738410Y-63780311D01*
X32820588Y-63934057D01*
X32931182Y-64068816D01*
X32964955Y-64096533D01*
X49226770Y-80358348D01*
X49196040Y-80364461D01*
X31904999Y-63073421D01*
X31904999Y-41387063D01*
X31920961Y-41391904D01*
X32143000Y-41269915D01*
X32143000Y-40127000D01*
X32123000Y-40127000D01*
X32123000Y-39873000D01*
X32143000Y-39873000D01*
X32143000Y-38730085D01*
X31920961Y-38608096D01*
X31904999Y-38612937D01*
X31904999Y-33996579D01*
X32093561Y-33808017D01*
X32128665Y-33815000D01*
X32411335Y-33815000D01*
X32675000Y-33762553D01*
X32675000Y-38625069D01*
G37*
%TD.AperFunction*%
D17*
X37755000Y-49379522D02*
X37750718Y-49423001D01*
X37767804Y-49596491D01*
X37818411Y-49763314D01*
X37900589Y-49917060D01*
X37983467Y-50018047D01*
X37983470Y-50018050D01*
X38011183Y-50051818D01*
X38044950Y-50079530D01*
X40210469Y-52245050D01*
X40238182Y-52278818D01*
X40271950Y-52306531D01*
X40271952Y-52306533D01*
X40372940Y-52389412D01*
X40526685Y-52471590D01*
X40693509Y-52522196D01*
X40823522Y-52535001D01*
X40823530Y-52535001D01*
X40866999Y-52539282D01*
X40910468Y-52535001D01*
X43883421Y-52535001D01*
X43219956Y-53198466D01*
X43186183Y-53226183D01*
X43075589Y-53360942D01*
X42993411Y-53514688D01*
X42942805Y-53681511D01*
X42930000Y-53811524D01*
X42930000Y-53811531D01*
X42925719Y-53855000D01*
X42930000Y-53898469D01*
X42930000Y-53931524D01*
X42930001Y-67066424D01*
X36984999Y-61121423D01*
X36984999Y-41390509D01*
X37208665Y-41435000D01*
X37491335Y-41435000D01*
X37755000Y-41382553D01*
X37755000Y-49379522D01*
%TA.AperFunction,Conductor*%
D18*
G36*
X37755000Y-49379522D02*
G01*
X37750718Y-49423001D01*
X37767804Y-49596491D01*
X37818411Y-49763314D01*
X37900589Y-49917060D01*
X37983467Y-50018047D01*
X37983470Y-50018050D01*
X38011183Y-50051818D01*
X38044950Y-50079530D01*
X40210469Y-52245050D01*
X40238182Y-52278818D01*
X40271950Y-52306531D01*
X40271952Y-52306533D01*
X40372940Y-52389412D01*
X40526685Y-52471590D01*
X40693509Y-52522196D01*
X40823522Y-52535001D01*
X40823530Y-52535001D01*
X40866999Y-52539282D01*
X40910468Y-52535001D01*
X43883421Y-52535001D01*
X43219956Y-53198466D01*
X43186183Y-53226183D01*
X43075589Y-53360942D01*
X42993411Y-53514688D01*
X42942805Y-53681511D01*
X42930000Y-53811524D01*
X42930000Y-53811531D01*
X42925719Y-53855000D01*
X42930000Y-53898469D01*
X42930000Y-53931524D01*
X42930001Y-67066424D01*
X36984999Y-61121423D01*
X36984999Y-41390509D01*
X37208665Y-41435000D01*
X37491335Y-41435000D01*
X37755000Y-41382553D01*
X37755000Y-49379522D01*
G37*
%TD.AperFunction*%
D17*
X64175363Y-40914759D02*
X64375241Y-41114637D01*
X64405000Y-41134521D01*
X64405000Y-41226530D01*
X64400719Y-41270000D01*
X64405000Y-41313469D01*
X64405000Y-41313476D01*
X64417805Y-41443489D01*
X64468411Y-41610312D01*
X64550589Y-41764058D01*
X64661183Y-41898817D01*
X64694956Y-41926534D01*
X69609299Y-46840878D01*
X69608000Y-46847408D01*
X69608000Y-47122592D01*
X69661686Y-47392490D01*
X69766995Y-47646727D01*
X69919880Y-47875535D01*
X70114465Y-48070120D01*
X70343273Y-48223005D01*
X70420515Y-48255000D01*
X70343273Y-48286995D01*
X70114465Y-48439880D01*
X69919880Y-48634465D01*
X69766995Y-48863273D01*
X69661686Y-49117510D01*
X69608000Y-49387408D01*
X69608000Y-49662592D01*
X69661686Y-49932490D01*
X69766995Y-50186727D01*
X69919880Y-50415535D01*
X70114465Y-50610120D01*
X70343273Y-50763005D01*
X70420515Y-50795000D01*
X70343273Y-50826995D01*
X70114465Y-50979880D01*
X69919880Y-51174465D01*
X69766995Y-51403273D01*
X69661686Y-51657510D01*
X69608000Y-51927408D01*
X69608000Y-52202592D01*
X69661686Y-52472490D01*
X69766995Y-52726727D01*
X69919880Y-52955535D01*
X70114465Y-53150120D01*
X70343273Y-53303005D01*
X70420515Y-53335000D01*
X70343273Y-53366995D01*
X70114465Y-53519880D01*
X69919880Y-53714465D01*
X69766995Y-53943273D01*
X69661686Y-54197510D01*
X69608000Y-54467408D01*
X69608000Y-54742592D01*
X69661686Y-55012490D01*
X69766995Y-55266727D01*
X69919880Y-55495535D01*
X70114465Y-55690120D01*
X70343273Y-55843005D01*
X70420515Y-55875000D01*
X70343273Y-55906995D01*
X70114465Y-56059880D01*
X69919880Y-56254465D01*
X69766995Y-56483273D01*
X69661686Y-56737510D01*
X69608000Y-57007408D01*
X69608000Y-57282592D01*
X69661686Y-57552490D01*
X69766995Y-57806727D01*
X69919880Y-58035535D01*
X70114465Y-58230120D01*
X70343273Y-58383005D01*
X70420515Y-58415000D01*
X70343273Y-58446995D01*
X70114465Y-58599880D01*
X69919880Y-58794465D01*
X69766995Y-59023273D01*
X69661686Y-59277510D01*
X69608000Y-59547408D01*
X69608000Y-59822592D01*
X69661686Y-60092490D01*
X69766995Y-60346727D01*
X69919880Y-60575535D01*
X70114465Y-60770120D01*
X70343273Y-60923005D01*
X70420515Y-60955000D01*
X70343273Y-60986995D01*
X70114465Y-61139880D01*
X69919880Y-61334465D01*
X69766995Y-61563273D01*
X69661686Y-61817510D01*
X69608000Y-62087408D01*
X69608000Y-62362592D01*
X69661686Y-62632490D01*
X69766995Y-62886727D01*
X69919880Y-63115535D01*
X70114465Y-63310120D01*
X70322835Y-63449349D01*
X69912183Y-63860001D01*
X58663072Y-63860001D01*
X58663072Y-63100000D01*
X58646008Y-62926746D01*
X58595472Y-62760150D01*
X58513405Y-62606614D01*
X58402962Y-62472038D01*
X58268386Y-62361595D01*
X58114850Y-62279528D01*
X57948254Y-62228992D01*
X57775000Y-62211928D01*
X56525000Y-62211928D01*
X56351746Y-62228992D01*
X56185150Y-62279528D01*
X56031614Y-62361595D01*
X55897038Y-62472038D01*
X55786595Y-62606614D01*
X55784785Y-62610000D01*
X55629521Y-62610000D01*
X55609637Y-62580241D01*
X55409759Y-62380363D01*
X55177241Y-62225000D01*
X55409759Y-62069637D01*
X55609637Y-61869759D01*
X55766680Y-61634727D01*
X55867323Y-61391754D01*
X55897038Y-61427962D01*
X56031614Y-61538405D01*
X56185150Y-61620472D01*
X56351746Y-61671008D01*
X56525000Y-61688072D01*
X57775000Y-61688072D01*
X57948254Y-61671008D01*
X58114850Y-61620472D01*
X58268386Y-61538405D01*
X58402962Y-61427962D01*
X58513405Y-61293386D01*
X58517887Y-61285000D01*
X59339343Y-61285000D01*
X59407795Y-61450256D01*
X59521063Y-61619774D01*
X59665226Y-61763937D01*
X59834744Y-61877205D01*
X60023102Y-61955226D01*
X60223061Y-61995000D01*
X60426939Y-61995000D01*
X60626898Y-61955226D01*
X60815256Y-61877205D01*
X60984774Y-61763937D01*
X61128937Y-61619774D01*
X61242205Y-61450256D01*
X61320226Y-61261898D01*
X61360000Y-61061939D01*
X61360000Y-60858061D01*
X61320226Y-60658102D01*
X61242205Y-60469744D01*
X61128937Y-60300226D01*
X60984774Y-60156063D01*
X60815256Y-60042795D01*
X60626898Y-59964774D01*
X60570043Y-59953465D01*
X60421534Y-59804956D01*
X60393817Y-59771183D01*
X60259059Y-59660589D01*
X60105313Y-59578411D01*
X59938490Y-59527805D01*
X59808477Y-59515000D01*
X59808469Y-59515000D01*
X59765000Y-59510719D01*
X59721531Y-59515000D01*
X58517887Y-59515000D01*
X58513405Y-59506614D01*
X58402962Y-59372038D01*
X58268386Y-59261595D01*
X58114850Y-59179528D01*
X58035000Y-59155306D01*
X58035000Y-50953466D01*
X58039281Y-50909999D01*
X58035000Y-50866533D01*
X58035000Y-50866523D01*
X58022195Y-50736510D01*
X57971589Y-50569687D01*
X57889411Y-50415941D01*
X57836598Y-50351589D01*
X57806532Y-50314953D01*
X57806530Y-50314951D01*
X57778817Y-50281183D01*
X57745049Y-50253470D01*
X55933072Y-48441494D01*
X55933072Y-47455000D01*
X55920812Y-47330518D01*
X55884502Y-47210820D01*
X55825537Y-47100506D01*
X55746185Y-47003815D01*
X55649494Y-46924463D01*
X55539180Y-46865498D01*
X55419482Y-46829188D01*
X55295000Y-46816928D01*
X53695000Y-46816928D01*
X53570518Y-46829188D01*
X53450820Y-46865498D01*
X53340506Y-46924463D01*
X53243815Y-47003815D01*
X53164463Y-47100506D01*
X53105498Y-47210820D01*
X53069188Y-47330518D01*
X53056928Y-47455000D01*
X53056928Y-49055000D01*
X53069188Y-49179482D01*
X53105498Y-49299180D01*
X53164463Y-49409494D01*
X53243815Y-49506185D01*
X53340506Y-49585537D01*
X53450820Y-49644502D01*
X53570518Y-49680812D01*
X53578961Y-49681643D01*
X53380363Y-49880241D01*
X53223320Y-50115273D01*
X53115147Y-50376426D01*
X53060000Y-50653665D01*
X53060000Y-50936335D01*
X53066983Y-50971439D01*
X52109956Y-51928466D01*
X52076183Y-51956183D01*
X51965589Y-52090942D01*
X51883411Y-52244688D01*
X51857050Y-52331588D01*
X51835270Y-52403386D01*
X51832805Y-52411511D01*
X51820000Y-52541524D01*
X51820000Y-52541531D01*
X51815719Y-52585000D01*
X51820000Y-52628469D01*
X51820001Y-62877656D01*
X51795226Y-62753103D01*
X51717205Y-62564745D01*
X51685000Y-62516547D01*
X51685000Y-46546580D01*
X56972066Y-41259515D01*
X56990273Y-41271680D01*
X57251426Y-41379853D01*
X57528665Y-41435000D01*
X57811335Y-41435000D01*
X58088574Y-41379853D01*
X58349727Y-41271680D01*
X58584759Y-41114637D01*
X58784637Y-40914759D01*
X58940000Y-40682241D01*
X59095363Y-40914759D01*
X59295241Y-41114637D01*
X59530273Y-41271680D01*
X59791426Y-41379853D01*
X60068665Y-41435000D01*
X60351335Y-41435000D01*
X60628574Y-41379853D01*
X60889727Y-41271680D01*
X61124759Y-41114637D01*
X61324637Y-40914759D01*
X61480000Y-40682241D01*
X61635363Y-40914759D01*
X61835241Y-41114637D01*
X62070273Y-41271680D01*
X62331426Y-41379853D01*
X62608665Y-41435000D01*
X62891335Y-41435000D01*
X63168574Y-41379853D01*
X63429727Y-41271680D01*
X63664759Y-41114637D01*
X63864637Y-40914759D01*
X64020000Y-40682241D01*
X64175363Y-40914759D01*
%TA.AperFunction,Conductor*%
D18*
G36*
X64175363Y-40914759D02*
G01*
X64375241Y-41114637D01*
X64405000Y-41134521D01*
X64405000Y-41226530D01*
X64400719Y-41270000D01*
X64405000Y-41313469D01*
X64405000Y-41313476D01*
X64417805Y-41443489D01*
X64468411Y-41610312D01*
X64550589Y-41764058D01*
X64661183Y-41898817D01*
X64694956Y-41926534D01*
X69609299Y-46840878D01*
X69608000Y-46847408D01*
X69608000Y-47122592D01*
X69661686Y-47392490D01*
X69766995Y-47646727D01*
X69919880Y-47875535D01*
X70114465Y-48070120D01*
X70343273Y-48223005D01*
X70420515Y-48255000D01*
X70343273Y-48286995D01*
X70114465Y-48439880D01*
X69919880Y-48634465D01*
X69766995Y-48863273D01*
X69661686Y-49117510D01*
X69608000Y-49387408D01*
X69608000Y-49662592D01*
X69661686Y-49932490D01*
X69766995Y-50186727D01*
X69919880Y-50415535D01*
X70114465Y-50610120D01*
X70343273Y-50763005D01*
X70420515Y-50795000D01*
X70343273Y-50826995D01*
X70114465Y-50979880D01*
X69919880Y-51174465D01*
X69766995Y-51403273D01*
X69661686Y-51657510D01*
X69608000Y-51927408D01*
X69608000Y-52202592D01*
X69661686Y-52472490D01*
X69766995Y-52726727D01*
X69919880Y-52955535D01*
X70114465Y-53150120D01*
X70343273Y-53303005D01*
X70420515Y-53335000D01*
X70343273Y-53366995D01*
X70114465Y-53519880D01*
X69919880Y-53714465D01*
X69766995Y-53943273D01*
X69661686Y-54197510D01*
X69608000Y-54467408D01*
X69608000Y-54742592D01*
X69661686Y-55012490D01*
X69766995Y-55266727D01*
X69919880Y-55495535D01*
X70114465Y-55690120D01*
X70343273Y-55843005D01*
X70420515Y-55875000D01*
X70343273Y-55906995D01*
X70114465Y-56059880D01*
X69919880Y-56254465D01*
X69766995Y-56483273D01*
X69661686Y-56737510D01*
X69608000Y-57007408D01*
X69608000Y-57282592D01*
X69661686Y-57552490D01*
X69766995Y-57806727D01*
X69919880Y-58035535D01*
X70114465Y-58230120D01*
X70343273Y-58383005D01*
X70420515Y-58415000D01*
X70343273Y-58446995D01*
X70114465Y-58599880D01*
X69919880Y-58794465D01*
X69766995Y-59023273D01*
X69661686Y-59277510D01*
X69608000Y-59547408D01*
X69608000Y-59822592D01*
X69661686Y-60092490D01*
X69766995Y-60346727D01*
X69919880Y-60575535D01*
X70114465Y-60770120D01*
X70343273Y-60923005D01*
X70420515Y-60955000D01*
X70343273Y-60986995D01*
X70114465Y-61139880D01*
X69919880Y-61334465D01*
X69766995Y-61563273D01*
X69661686Y-61817510D01*
X69608000Y-62087408D01*
X69608000Y-62362592D01*
X69661686Y-62632490D01*
X69766995Y-62886727D01*
X69919880Y-63115535D01*
X70114465Y-63310120D01*
X70322835Y-63449349D01*
X69912183Y-63860001D01*
X58663072Y-63860001D01*
X58663072Y-63100000D01*
X58646008Y-62926746D01*
X58595472Y-62760150D01*
X58513405Y-62606614D01*
X58402962Y-62472038D01*
X58268386Y-62361595D01*
X58114850Y-62279528D01*
X57948254Y-62228992D01*
X57775000Y-62211928D01*
X56525000Y-62211928D01*
X56351746Y-62228992D01*
X56185150Y-62279528D01*
X56031614Y-62361595D01*
X55897038Y-62472038D01*
X55786595Y-62606614D01*
X55784785Y-62610000D01*
X55629521Y-62610000D01*
X55609637Y-62580241D01*
X55409759Y-62380363D01*
X55177241Y-62225000D01*
X55409759Y-62069637D01*
X55609637Y-61869759D01*
X55766680Y-61634727D01*
X55867323Y-61391754D01*
X55897038Y-61427962D01*
X56031614Y-61538405D01*
X56185150Y-61620472D01*
X56351746Y-61671008D01*
X56525000Y-61688072D01*
X57775000Y-61688072D01*
X57948254Y-61671008D01*
X58114850Y-61620472D01*
X58268386Y-61538405D01*
X58402962Y-61427962D01*
X58513405Y-61293386D01*
X58517887Y-61285000D01*
X59339343Y-61285000D01*
X59407795Y-61450256D01*
X59521063Y-61619774D01*
X59665226Y-61763937D01*
X59834744Y-61877205D01*
X60023102Y-61955226D01*
X60223061Y-61995000D01*
X60426939Y-61995000D01*
X60626898Y-61955226D01*
X60815256Y-61877205D01*
X60984774Y-61763937D01*
X61128937Y-61619774D01*
X61242205Y-61450256D01*
X61320226Y-61261898D01*
X61360000Y-61061939D01*
X61360000Y-60858061D01*
X61320226Y-60658102D01*
X61242205Y-60469744D01*
X61128937Y-60300226D01*
X60984774Y-60156063D01*
X60815256Y-60042795D01*
X60626898Y-59964774D01*
X60570043Y-59953465D01*
X60421534Y-59804956D01*
X60393817Y-59771183D01*
X60259059Y-59660589D01*
X60105313Y-59578411D01*
X59938490Y-59527805D01*
X59808477Y-59515000D01*
X59808469Y-59515000D01*
X59765000Y-59510719D01*
X59721531Y-59515000D01*
X58517887Y-59515000D01*
X58513405Y-59506614D01*
X58402962Y-59372038D01*
X58268386Y-59261595D01*
X58114850Y-59179528D01*
X58035000Y-59155306D01*
X58035000Y-50953466D01*
X58039281Y-50909999D01*
X58035000Y-50866533D01*
X58035000Y-50866523D01*
X58022195Y-50736510D01*
X57971589Y-50569687D01*
X57889411Y-50415941D01*
X57836598Y-50351589D01*
X57806532Y-50314953D01*
X57806530Y-50314951D01*
X57778817Y-50281183D01*
X57745049Y-50253470D01*
X55933072Y-48441494D01*
X55933072Y-47455000D01*
X55920812Y-47330518D01*
X55884502Y-47210820D01*
X55825537Y-47100506D01*
X55746185Y-47003815D01*
X55649494Y-46924463D01*
X55539180Y-46865498D01*
X55419482Y-46829188D01*
X55295000Y-46816928D01*
X53695000Y-46816928D01*
X53570518Y-46829188D01*
X53450820Y-46865498D01*
X53340506Y-46924463D01*
X53243815Y-47003815D01*
X53164463Y-47100506D01*
X53105498Y-47210820D01*
X53069188Y-47330518D01*
X53056928Y-47455000D01*
X53056928Y-49055000D01*
X53069188Y-49179482D01*
X53105498Y-49299180D01*
X53164463Y-49409494D01*
X53243815Y-49506185D01*
X53340506Y-49585537D01*
X53450820Y-49644502D01*
X53570518Y-49680812D01*
X53578961Y-49681643D01*
X53380363Y-49880241D01*
X53223320Y-50115273D01*
X53115147Y-50376426D01*
X53060000Y-50653665D01*
X53060000Y-50936335D01*
X53066983Y-50971439D01*
X52109956Y-51928466D01*
X52076183Y-51956183D01*
X51965589Y-52090942D01*
X51883411Y-52244688D01*
X51857050Y-52331588D01*
X51835270Y-52403386D01*
X51832805Y-52411511D01*
X51820000Y-52541524D01*
X51820000Y-52541531D01*
X51815719Y-52585000D01*
X51820000Y-52628469D01*
X51820001Y-62877656D01*
X51795226Y-62753103D01*
X51717205Y-62564745D01*
X51685000Y-62516547D01*
X51685000Y-46546580D01*
X56972066Y-41259515D01*
X56990273Y-41271680D01*
X57251426Y-41379853D01*
X57528665Y-41435000D01*
X57811335Y-41435000D01*
X58088574Y-41379853D01*
X58349727Y-41271680D01*
X58584759Y-41114637D01*
X58784637Y-40914759D01*
X58940000Y-40682241D01*
X59095363Y-40914759D01*
X59295241Y-41114637D01*
X59530273Y-41271680D01*
X59791426Y-41379853D01*
X60068665Y-41435000D01*
X60351335Y-41435000D01*
X60628574Y-41379853D01*
X60889727Y-41271680D01*
X61124759Y-41114637D01*
X61324637Y-40914759D01*
X61480000Y-40682241D01*
X61635363Y-40914759D01*
X61835241Y-41114637D01*
X62070273Y-41271680D01*
X62331426Y-41379853D01*
X62608665Y-41435000D01*
X62891335Y-41435000D01*
X63168574Y-41379853D01*
X63429727Y-41271680D01*
X63664759Y-41114637D01*
X63864637Y-40914759D01*
X64020000Y-40682241D01*
X64175363Y-40914759D01*
G37*
%TD.AperFunction*%
D17*
X50204956Y-45523468D02*
X50171183Y-45551185D01*
X50060589Y-45685944D01*
X49978411Y-45839690D01*
X49927805Y-46006513D01*
X49915000Y-46136526D01*
X49915000Y-46136533D01*
X49910719Y-46180002D01*
X49915000Y-46223471D01*
X49915001Y-62516545D01*
X49882795Y-62564745D01*
X49839894Y-62668316D01*
X48303017Y-61131439D01*
X48310000Y-61096335D01*
X48310000Y-60813665D01*
X48254853Y-60536426D01*
X48146680Y-60275273D01*
X47989637Y-60040241D01*
X47789759Y-59840363D01*
X47557241Y-59685000D01*
X47789759Y-59529637D01*
X47989637Y-59329759D01*
X48146680Y-59094727D01*
X48254853Y-58833574D01*
X48310000Y-58556335D01*
X48310000Y-58273665D01*
X48303017Y-58238561D01*
X48720051Y-57821528D01*
X48753818Y-57793816D01*
X48801864Y-57735273D01*
X48864411Y-57659059D01*
X48864412Y-57659058D01*
X48946590Y-57505312D01*
X48997196Y-57338489D01*
X49010001Y-57208476D01*
X49010001Y-57208466D01*
X49014282Y-57165000D01*
X49010001Y-57121534D01*
X49010001Y-50238468D01*
X49014282Y-50194999D01*
X49010001Y-50151530D01*
X49010001Y-50151522D01*
X48997196Y-50021509D01*
X48951331Y-49870314D01*
X48946590Y-49854685D01*
X48864412Y-49700940D01*
X48781533Y-49599952D01*
X48781531Y-49599950D01*
X48753818Y-49566182D01*
X48720050Y-49538469D01*
X48127850Y-48946270D01*
X48226246Y-48738087D01*
X48266904Y-48604039D01*
X48144915Y-48382000D01*
X47002000Y-48382000D01*
X47002000Y-48402000D01*
X46748000Y-48402000D01*
X46748000Y-48382000D01*
X46728000Y-48382000D01*
X46728000Y-48128000D01*
X46748000Y-48128000D01*
X46748000Y-48108000D01*
X47002000Y-48108000D01*
X47002000Y-48128000D01*
X48144915Y-48128000D01*
X48266904Y-47905961D01*
X48226246Y-47771913D01*
X48106037Y-47517580D01*
X47938519Y-47291586D01*
X47730131Y-47102615D01*
X47729377Y-47102163D01*
X51401541Y-43430000D01*
X52298424Y-43430000D01*
X50204956Y-45523468D01*
%TA.AperFunction,Conductor*%
D18*
G36*
X50204956Y-45523468D02*
G01*
X50171183Y-45551185D01*
X50060589Y-45685944D01*
X49978411Y-45839690D01*
X49927805Y-46006513D01*
X49915000Y-46136526D01*
X49915000Y-46136533D01*
X49910719Y-46180002D01*
X49915000Y-46223471D01*
X49915001Y-62516545D01*
X49882795Y-62564745D01*
X49839894Y-62668316D01*
X48303017Y-61131439D01*
X48310000Y-61096335D01*
X48310000Y-60813665D01*
X48254853Y-60536426D01*
X48146680Y-60275273D01*
X47989637Y-60040241D01*
X47789759Y-59840363D01*
X47557241Y-59685000D01*
X47789759Y-59529637D01*
X47989637Y-59329759D01*
X48146680Y-59094727D01*
X48254853Y-58833574D01*
X48310000Y-58556335D01*
X48310000Y-58273665D01*
X48303017Y-58238561D01*
X48720051Y-57821528D01*
X48753818Y-57793816D01*
X48801864Y-57735273D01*
X48864411Y-57659059D01*
X48864412Y-57659058D01*
X48946590Y-57505312D01*
X48997196Y-57338489D01*
X49010001Y-57208476D01*
X49010001Y-57208466D01*
X49014282Y-57165000D01*
X49010001Y-57121534D01*
X49010001Y-50238468D01*
X49014282Y-50194999D01*
X49010001Y-50151530D01*
X49010001Y-50151522D01*
X48997196Y-50021509D01*
X48951331Y-49870314D01*
X48946590Y-49854685D01*
X48864412Y-49700940D01*
X48781533Y-49599952D01*
X48781531Y-49599950D01*
X48753818Y-49566182D01*
X48720050Y-49538469D01*
X48127850Y-48946270D01*
X48226246Y-48738087D01*
X48266904Y-48604039D01*
X48144915Y-48382000D01*
X47002000Y-48382000D01*
X47002000Y-48402000D01*
X46748000Y-48402000D01*
X46748000Y-48382000D01*
X46728000Y-48382000D01*
X46728000Y-48128000D01*
X46748000Y-48128000D01*
X46748000Y-48108000D01*
X47002000Y-48108000D01*
X47002000Y-48128000D01*
X48144915Y-48128000D01*
X48266904Y-47905961D01*
X48226246Y-47771913D01*
X48106037Y-47517580D01*
X47938519Y-47291586D01*
X47730131Y-47102615D01*
X47729377Y-47102163D01*
X51401541Y-43430000D01*
X52298424Y-43430000D01*
X50204956Y-45523468D01*
G37*
%TD.AperFunction*%
%TD*%
M02*
