%TF.GenerationSoftware,KiCad,Pcbnew,(5.1.8-0-10_14)*%
%TF.CreationDate,2021-01-04T21:42:45+01:00*%
%TF.ProjectId,led-matrix,6c65642d-6d61-4747-9269-782e6b696361,rev?*%
%TF.SameCoordinates,Original*%
%TF.FileFunction,Legend,Top*%
%TF.FilePolarity,Positive*%
%FSLAX46Y46*%
G04 Gerber Fmt 4.6, Leading zero omitted, Abs format (unit mm)*
G04 Created by KiCad (PCBNEW (5.1.8-0-10_14)) date 2021-01-04 21:42:45*
%MOMM*%
%LPD*%
G01*
G04 APERTURE LIST*
%ADD10C,0.150000*%
%ADD11C,0.120000*%
G04 APERTURE END LIST*
D10*
%TO.C,D1*%
X20445000Y-27635000D02*
X20445000Y-25635000D01*
X23285000Y-61585000D02*
X23535000Y-62335000D01*
X20445000Y-25635000D02*
X22445000Y-25635000D01*
X23035000Y-62335000D02*
X23285000Y-61585000D01*
X75845000Y-54335000D02*
X75845000Y-56335000D01*
X75845000Y-25635000D02*
X75845000Y-27635000D01*
X22445000Y-81035000D02*
X20445000Y-81035000D01*
X26285000Y-65085000D02*
X26285000Y-65585000D01*
X23285000Y-64335000D02*
X23285000Y-62335000D01*
X75845000Y-54335000D02*
X74845000Y-54335000D01*
X73845000Y-25635000D02*
X75845000Y-25635000D01*
X75845000Y-79035000D02*
X75845000Y-81035000D01*
X23535000Y-62335000D02*
X23035000Y-62335000D01*
X24285000Y-65335000D02*
X26285000Y-65335000D01*
X74845000Y-52335000D02*
X75845000Y-52335000D01*
X72005000Y-62225000D02*
G75*
G03*
X72005000Y-62225000I-1000000J0D01*
G01*
X20445000Y-81035000D02*
X20445000Y-79035000D01*
X75845000Y-81035000D02*
X73845000Y-81035000D01*
X26285000Y-65585000D02*
X27035000Y-65335000D01*
X27035000Y-65335000D02*
X26285000Y-65085000D01*
X75845000Y-52335000D02*
X75845000Y-50335000D01*
X74845000Y-54335000D02*
X74845000Y-52335000D01*
X49145000Y-81035000D02*
X51145000Y-81035000D01*
X47145000Y-81035000D02*
X45145000Y-81035000D01*
X49145000Y-80035000D02*
X49145000Y-81035000D01*
X47145000Y-81035000D02*
X47145000Y-80035000D01*
X47145000Y-80035000D02*
X49145000Y-80035000D01*
X20445000Y-52335000D02*
X21445000Y-52335000D01*
X20445000Y-54335000D02*
X20445000Y-56335000D01*
X20445000Y-52335000D02*
X20445000Y-50335000D01*
X21445000Y-52335000D02*
X21445000Y-54335000D01*
X21445000Y-54335000D02*
X20445000Y-54335000D01*
X49145000Y-26635000D02*
X47145000Y-26635000D01*
X49145000Y-25635000D02*
X49145000Y-26635000D01*
X47145000Y-25635000D02*
X45145000Y-25635000D01*
X47145000Y-26635000D02*
X47145000Y-25635000D01*
X49145000Y-25635000D02*
X51145000Y-25635000D01*
D11*
%TO.C,R8*%
X30457064Y-63135000D02*
X29002936Y-63135000D01*
X30457064Y-61315000D02*
X29002936Y-61315000D01*
%TO.C,R7*%
X30457064Y-60600000D02*
X29002936Y-60600000D01*
X30457064Y-58780000D02*
X29002936Y-58780000D01*
%TO.C,R6*%
X30457064Y-50440000D02*
X29002936Y-50440000D01*
X30457064Y-48620000D02*
X29002936Y-48620000D01*
%TO.C,R4*%
X30457064Y-67585000D02*
X29002936Y-67585000D01*
X30457064Y-65765000D02*
X29002936Y-65765000D01*
%TO.C,R3*%
X65197936Y-53695000D02*
X66652064Y-53695000D01*
X65197936Y-55515000D02*
X66652064Y-55515000D01*
%TO.C,R2*%
X65197936Y-56240000D02*
X66652064Y-56240000D01*
X65197936Y-58060000D02*
X66652064Y-58060000D01*
%TO.C,R1*%
X30457064Y-55515000D02*
X29002936Y-55515000D01*
X30457064Y-53695000D02*
X29002936Y-53695000D01*
%TO.C,C3*%
X51993748Y-46630000D02*
X53416252Y-46630000D01*
X51993748Y-44810000D02*
X53416252Y-44810000D01*
%TO.C,C2*%
X75205000Y-29578752D02*
X75205000Y-28156248D01*
X73385000Y-29578752D02*
X73385000Y-28156248D01*
%TO.C,C1*%
X48818748Y-30755000D02*
X50241252Y-30755000D01*
X48818748Y-28935000D02*
X50241252Y-28935000D01*
%TO.C,*%
D10*
%TO.C,D1*%
X47406904Y-76647380D02*
X47406904Y-75647380D01*
X47645000Y-75647380D01*
X47787857Y-75695000D01*
X47883095Y-75790238D01*
X47930714Y-75885476D01*
X47978333Y-76075952D01*
X47978333Y-76218809D01*
X47930714Y-76409285D01*
X47883095Y-76504523D01*
X47787857Y-76599761D01*
X47645000Y-76647380D01*
X47406904Y-76647380D01*
X48930714Y-76647380D02*
X48359285Y-76647380D01*
X48645000Y-76647380D02*
X48645000Y-75647380D01*
X48549761Y-75790238D01*
X48454523Y-75885476D01*
X48359285Y-75933095D01*
X27094523Y-62787380D02*
X26523095Y-62787380D01*
X26808809Y-62787380D02*
X26808809Y-61787380D01*
X26713571Y-61930238D01*
X26618333Y-62025476D01*
X26523095Y-62073095D01*
X27951666Y-61787380D02*
X27761190Y-61787380D01*
X27665952Y-61835000D01*
X27618333Y-61882619D01*
X27523095Y-62025476D01*
X27475476Y-62215952D01*
X27475476Y-62596904D01*
X27523095Y-62692142D01*
X27570714Y-62739761D01*
X27665952Y-62787380D01*
X27856428Y-62787380D01*
X27951666Y-62739761D01*
X27999285Y-62692142D01*
X28046904Y-62596904D01*
X28046904Y-62358809D01*
X27999285Y-62263571D01*
X27951666Y-62215952D01*
X27856428Y-62168333D01*
X27665952Y-62168333D01*
X27570714Y-62215952D01*
X27523095Y-62263571D01*
X27475476Y-62358809D01*
X68909761Y-44215952D02*
X68814523Y-44168333D01*
X68766904Y-44120714D01*
X68719285Y-44025476D01*
X68719285Y-43977857D01*
X68766904Y-43882619D01*
X68814523Y-43835000D01*
X68909761Y-43787380D01*
X69100238Y-43787380D01*
X69195476Y-43835000D01*
X69243095Y-43882619D01*
X69290714Y-43977857D01*
X69290714Y-44025476D01*
X69243095Y-44120714D01*
X69195476Y-44168333D01*
X69100238Y-44215952D01*
X68909761Y-44215952D01*
X68814523Y-44263571D01*
X68766904Y-44311190D01*
X68719285Y-44406428D01*
X68719285Y-44596904D01*
X68766904Y-44692142D01*
X68814523Y-44739761D01*
X68909761Y-44787380D01*
X69100238Y-44787380D01*
X69195476Y-44739761D01*
X69243095Y-44692142D01*
X69290714Y-44596904D01*
X69290714Y-44406428D01*
X69243095Y-44311190D01*
X69195476Y-44263571D01*
X69100238Y-44215952D01*
X27094523Y-44787380D02*
X27285000Y-44787380D01*
X27380238Y-44739761D01*
X27427857Y-44692142D01*
X27523095Y-44549285D01*
X27570714Y-44358809D01*
X27570714Y-43977857D01*
X27523095Y-43882619D01*
X27475476Y-43835000D01*
X27380238Y-43787380D01*
X27189761Y-43787380D01*
X27094523Y-43835000D01*
X27046904Y-43882619D01*
X26999285Y-43977857D01*
X26999285Y-44215952D01*
X27046904Y-44311190D01*
X27094523Y-44358809D01*
X27189761Y-44406428D01*
X27380238Y-44406428D01*
X27475476Y-44358809D01*
X27523095Y-44311190D01*
X27570714Y-44215952D01*
X69290714Y-62787380D02*
X68719285Y-62787380D01*
X69005000Y-62787380D02*
X69005000Y-61787380D01*
X68909761Y-61930238D01*
X68814523Y-62025476D01*
X68719285Y-62073095D01*
%TO.C,R8*%
X29563333Y-64497380D02*
X29230000Y-64021190D01*
X28991904Y-64497380D02*
X28991904Y-63497380D01*
X29372857Y-63497380D01*
X29468095Y-63545000D01*
X29515714Y-63592619D01*
X29563333Y-63687857D01*
X29563333Y-63830714D01*
X29515714Y-63925952D01*
X29468095Y-63973571D01*
X29372857Y-64021190D01*
X28991904Y-64021190D01*
X30134761Y-63925952D02*
X30039523Y-63878333D01*
X29991904Y-63830714D01*
X29944285Y-63735476D01*
X29944285Y-63687857D01*
X29991904Y-63592619D01*
X30039523Y-63545000D01*
X30134761Y-63497380D01*
X30325238Y-63497380D01*
X30420476Y-63545000D01*
X30468095Y-63592619D01*
X30515714Y-63687857D01*
X30515714Y-63735476D01*
X30468095Y-63830714D01*
X30420476Y-63878333D01*
X30325238Y-63925952D01*
X30134761Y-63925952D01*
X30039523Y-63973571D01*
X29991904Y-64021190D01*
X29944285Y-64116428D01*
X29944285Y-64306904D01*
X29991904Y-64402142D01*
X30039523Y-64449761D01*
X30134761Y-64497380D01*
X30325238Y-64497380D01*
X30420476Y-64449761D01*
X30468095Y-64402142D01*
X30515714Y-64306904D01*
X30515714Y-64116428D01*
X30468095Y-64021190D01*
X30420476Y-63973571D01*
X30325238Y-63925952D01*
%TO.C,R7*%
X29563333Y-61962380D02*
X29230000Y-61486190D01*
X28991904Y-61962380D02*
X28991904Y-60962380D01*
X29372857Y-60962380D01*
X29468095Y-61010000D01*
X29515714Y-61057619D01*
X29563333Y-61152857D01*
X29563333Y-61295714D01*
X29515714Y-61390952D01*
X29468095Y-61438571D01*
X29372857Y-61486190D01*
X28991904Y-61486190D01*
X29896666Y-60962380D02*
X30563333Y-60962380D01*
X30134761Y-61962380D01*
%TO.C,R6*%
X29563333Y-51802380D02*
X29230000Y-51326190D01*
X28991904Y-51802380D02*
X28991904Y-50802380D01*
X29372857Y-50802380D01*
X29468095Y-50850000D01*
X29515714Y-50897619D01*
X29563333Y-50992857D01*
X29563333Y-51135714D01*
X29515714Y-51230952D01*
X29468095Y-51278571D01*
X29372857Y-51326190D01*
X28991904Y-51326190D01*
X30420476Y-50802380D02*
X30230000Y-50802380D01*
X30134761Y-50850000D01*
X30087142Y-50897619D01*
X29991904Y-51040476D01*
X29944285Y-51230952D01*
X29944285Y-51611904D01*
X29991904Y-51707142D01*
X30039523Y-51754761D01*
X30134761Y-51802380D01*
X30325238Y-51802380D01*
X30420476Y-51754761D01*
X30468095Y-51707142D01*
X30515714Y-51611904D01*
X30515714Y-51373809D01*
X30468095Y-51278571D01*
X30420476Y-51230952D01*
X30325238Y-51183333D01*
X30134761Y-51183333D01*
X30039523Y-51230952D01*
X29991904Y-51278571D01*
X29944285Y-51373809D01*
%TO.C,R4*%
X29563333Y-68947380D02*
X29230000Y-68471190D01*
X28991904Y-68947380D02*
X28991904Y-67947380D01*
X29372857Y-67947380D01*
X29468095Y-67995000D01*
X29515714Y-68042619D01*
X29563333Y-68137857D01*
X29563333Y-68280714D01*
X29515714Y-68375952D01*
X29468095Y-68423571D01*
X29372857Y-68471190D01*
X28991904Y-68471190D01*
X30420476Y-68280714D02*
X30420476Y-68947380D01*
X30182380Y-67899761D02*
X29944285Y-68614047D01*
X30563333Y-68614047D01*
%TO.C,R3*%
X65758333Y-53237380D02*
X65425000Y-52761190D01*
X65186904Y-53237380D02*
X65186904Y-52237380D01*
X65567857Y-52237380D01*
X65663095Y-52285000D01*
X65710714Y-52332619D01*
X65758333Y-52427857D01*
X65758333Y-52570714D01*
X65710714Y-52665952D01*
X65663095Y-52713571D01*
X65567857Y-52761190D01*
X65186904Y-52761190D01*
X66091666Y-52237380D02*
X66710714Y-52237380D01*
X66377380Y-52618333D01*
X66520238Y-52618333D01*
X66615476Y-52665952D01*
X66663095Y-52713571D01*
X66710714Y-52808809D01*
X66710714Y-53046904D01*
X66663095Y-53142142D01*
X66615476Y-53189761D01*
X66520238Y-53237380D01*
X66234523Y-53237380D01*
X66139285Y-53189761D01*
X66091666Y-53142142D01*
%TO.C,R2*%
X65758333Y-59507380D02*
X65425000Y-59031190D01*
X65186904Y-59507380D02*
X65186904Y-58507380D01*
X65567857Y-58507380D01*
X65663095Y-58555000D01*
X65710714Y-58602619D01*
X65758333Y-58697857D01*
X65758333Y-58840714D01*
X65710714Y-58935952D01*
X65663095Y-58983571D01*
X65567857Y-59031190D01*
X65186904Y-59031190D01*
X66139285Y-58602619D02*
X66186904Y-58555000D01*
X66282142Y-58507380D01*
X66520238Y-58507380D01*
X66615476Y-58555000D01*
X66663095Y-58602619D01*
X66710714Y-58697857D01*
X66710714Y-58793095D01*
X66663095Y-58935952D01*
X66091666Y-59507380D01*
X66710714Y-59507380D01*
%TO.C,R1*%
X29563333Y-56877380D02*
X29230000Y-56401190D01*
X28991904Y-56877380D02*
X28991904Y-55877380D01*
X29372857Y-55877380D01*
X29468095Y-55925000D01*
X29515714Y-55972619D01*
X29563333Y-56067857D01*
X29563333Y-56210714D01*
X29515714Y-56305952D01*
X29468095Y-56353571D01*
X29372857Y-56401190D01*
X28991904Y-56401190D01*
X30515714Y-56877380D02*
X29944285Y-56877380D01*
X30230000Y-56877380D02*
X30230000Y-55877380D01*
X30134761Y-56020238D01*
X30039523Y-56115476D01*
X29944285Y-56163095D01*
%TO.C,C3*%
X52538333Y-44227142D02*
X52490714Y-44274761D01*
X52347857Y-44322380D01*
X52252619Y-44322380D01*
X52109761Y-44274761D01*
X52014523Y-44179523D01*
X51966904Y-44084285D01*
X51919285Y-43893809D01*
X51919285Y-43750952D01*
X51966904Y-43560476D01*
X52014523Y-43465238D01*
X52109761Y-43370000D01*
X52252619Y-43322380D01*
X52347857Y-43322380D01*
X52490714Y-43370000D01*
X52538333Y-43417619D01*
X52871666Y-43322380D02*
X53490714Y-43322380D01*
X53157380Y-43703333D01*
X53300238Y-43703333D01*
X53395476Y-43750952D01*
X53443095Y-43798571D01*
X53490714Y-43893809D01*
X53490714Y-44131904D01*
X53443095Y-44227142D01*
X53395476Y-44274761D01*
X53300238Y-44322380D01*
X53014523Y-44322380D01*
X52919285Y-44274761D01*
X52871666Y-44227142D01*
%TO.C,C2*%
X76552142Y-29034166D02*
X76599761Y-29081785D01*
X76647380Y-29224642D01*
X76647380Y-29319880D01*
X76599761Y-29462738D01*
X76504523Y-29557976D01*
X76409285Y-29605595D01*
X76218809Y-29653214D01*
X76075952Y-29653214D01*
X75885476Y-29605595D01*
X75790238Y-29557976D01*
X75695000Y-29462738D01*
X75647380Y-29319880D01*
X75647380Y-29224642D01*
X75695000Y-29081785D01*
X75742619Y-29034166D01*
X75742619Y-28653214D02*
X75695000Y-28605595D01*
X75647380Y-28510357D01*
X75647380Y-28272261D01*
X75695000Y-28177023D01*
X75742619Y-28129404D01*
X75837857Y-28081785D01*
X75933095Y-28081785D01*
X76075952Y-28129404D01*
X76647380Y-28700833D01*
X76647380Y-28081785D01*
%TO.C,C1*%
X49478333Y-32112142D02*
X49430714Y-32159761D01*
X49287857Y-32207380D01*
X49192619Y-32207380D01*
X49049761Y-32159761D01*
X48954523Y-32064523D01*
X48906904Y-31969285D01*
X48859285Y-31778809D01*
X48859285Y-31635952D01*
X48906904Y-31445476D01*
X48954523Y-31350238D01*
X49049761Y-31255000D01*
X49192619Y-31207380D01*
X49287857Y-31207380D01*
X49430714Y-31255000D01*
X49478333Y-31302619D01*
X50430714Y-32207380D02*
X49859285Y-32207380D01*
X50145000Y-32207380D02*
X50145000Y-31207380D01*
X50049761Y-31350238D01*
X49954523Y-31445476D01*
X49859285Y-31493095D01*
%TD*%
M02*
