%TF.GenerationSoftware,KiCad,Pcbnew,(5.1.8-0-10_14)*%
%TF.CreationDate,2021-01-04T21:42:45+01:00*%
%TF.ProjectId,led-matrix,6c65642d-6d61-4747-9269-782e6b696361,rev?*%
%TF.SameCoordinates,Original*%
%TF.FileFunction,Soldermask,Bot*%
%TF.FilePolarity,Negative*%
%FSLAX46Y46*%
G04 Gerber Fmt 4.6, Leading zero omitted, Abs format (unit mm)*
G04 Created by KiCad (PCBNEW (5.1.8-0-10_14)) date 2021-01-04 21:42:45*
%MOMM*%
%LPD*%
G01*
G04 APERTURE LIST*
%ADD10O,1.700000X1.700000*%
%ADD11R,1.700000X1.700000*%
%ADD12C,1.524000*%
%ADD13O,1.600000X1.600000*%
%ADD14R,1.600000X1.600000*%
G04 APERTURE END LIST*
D10*
%TO.C,J2*%
X39255000Y-24835000D03*
X41795000Y-24835000D03*
X44335000Y-24835000D03*
X46875000Y-24835000D03*
X49415000Y-24835000D03*
X51955000Y-24835000D03*
X54495000Y-24835000D03*
D11*
X57035000Y-24835000D03*
%TD*%
D12*
%TO.C,D1*%
X25285000Y-54605000D03*
X71005000Y-46985000D03*
X25285000Y-62225000D03*
X71005000Y-62225000D03*
X25285000Y-52065000D03*
X71005000Y-57145000D03*
X25285000Y-57145000D03*
X71005000Y-54605000D03*
X71005000Y-49525000D03*
X71005000Y-59685000D03*
X25285000Y-59685000D03*
X25285000Y-44445000D03*
X71005000Y-52065000D03*
X25285000Y-46985000D03*
X71005000Y-44445000D03*
X25285000Y-49525000D03*
%TD*%
D10*
%TO.C,J1*%
X39255000Y-81835000D03*
X41795000Y-81835000D03*
X44335000Y-81835000D03*
X46875000Y-81835000D03*
X49415000Y-81835000D03*
X51955000Y-81835000D03*
X54495000Y-81835000D03*
D11*
X57035000Y-81835000D03*
%TD*%
D13*
%TO.C,U2*%
X52590000Y-40000000D03*
X72910000Y-32380000D03*
X55130000Y-40000000D03*
X70370000Y-32380000D03*
X57670000Y-40000000D03*
X67830000Y-32380000D03*
X60210000Y-40000000D03*
X65290000Y-32380000D03*
X62750000Y-40000000D03*
X62750000Y-32380000D03*
X65290000Y-40000000D03*
X60210000Y-32380000D03*
X67830000Y-40000000D03*
X57670000Y-32380000D03*
X70370000Y-40000000D03*
X55130000Y-32380000D03*
X72910000Y-40000000D03*
D14*
X52590000Y-32380000D03*
%TD*%
%TO.C,R5*%
G36*
G01*
X75555000Y-52160000D02*
X74305000Y-52160000D01*
G75*
G02*
X74055000Y-51910000I0J250000D01*
G01*
X74055000Y-51110000D01*
G75*
G02*
X74305000Y-50860000I250000J0D01*
G01*
X75555000Y-50860000D01*
G75*
G02*
X75805000Y-51110000I0J-250000D01*
G01*
X75805000Y-51910000D01*
G75*
G02*
X75555000Y-52160000I-250000J0D01*
G01*
G37*
G36*
G01*
X75555000Y-55260000D02*
X74305000Y-55260000D01*
G75*
G02*
X74055000Y-55010000I0J250000D01*
G01*
X74055000Y-54210000D01*
G75*
G02*
X74305000Y-53960000I250000J0D01*
G01*
X75555000Y-53960000D01*
G75*
G02*
X75805000Y-54210000I0J-250000D01*
G01*
X75805000Y-55010000D01*
G75*
G02*
X75555000Y-55260000I-250000J0D01*
G01*
G37*
%TD*%
%TO.C,R9*%
G36*
G01*
X56525000Y-59750000D02*
X57775000Y-59750000D01*
G75*
G02*
X58025000Y-60000000I0J-250000D01*
G01*
X58025000Y-60800000D01*
G75*
G02*
X57775000Y-61050000I-250000J0D01*
G01*
X56525000Y-61050000D01*
G75*
G02*
X56275000Y-60800000I0J250000D01*
G01*
X56275000Y-60000000D01*
G75*
G02*
X56525000Y-59750000I250000J0D01*
G01*
G37*
G36*
G01*
X56525000Y-62850000D02*
X57775000Y-62850000D01*
G75*
G02*
X58025000Y-63100000I0J-250000D01*
G01*
X58025000Y-63900000D01*
G75*
G02*
X57775000Y-64150000I-250000J0D01*
G01*
X56525000Y-64150000D01*
G75*
G02*
X56275000Y-63900000I0J250000D01*
G01*
X56275000Y-63100000D01*
G75*
G02*
X56525000Y-62850000I250000J0D01*
G01*
G37*
%TD*%
D13*
%TO.C,U3*%
X46875000Y-48255000D03*
X54495000Y-66035000D03*
X46875000Y-50795000D03*
X54495000Y-63495000D03*
X46875000Y-53335000D03*
X54495000Y-60955000D03*
X46875000Y-55875000D03*
X54495000Y-58415000D03*
X46875000Y-58415000D03*
X54495000Y-55875000D03*
X46875000Y-60955000D03*
X54495000Y-53335000D03*
X46875000Y-63495000D03*
X54495000Y-50795000D03*
X46875000Y-66035000D03*
D14*
X54495000Y-48255000D03*
%TD*%
%TO.C,U1*%
X47510000Y-40000000D03*
D13*
X29730000Y-32380000D03*
X44970000Y-40000000D03*
X32270000Y-32380000D03*
X42430000Y-40000000D03*
X34810000Y-32380000D03*
X39890000Y-40000000D03*
X37350000Y-32380000D03*
X37350000Y-40000000D03*
X39890000Y-32380000D03*
X34810000Y-40000000D03*
X42430000Y-32380000D03*
X32270000Y-40000000D03*
X44970000Y-32380000D03*
X29730000Y-40000000D03*
X47510000Y-32380000D03*
%TD*%
M02*
